<?xml version="1.0" encoding="UTF-8"?>
<!DOCTYPE svg PUBLIC "-//W3C//DTD SVG 1.0//EN" "http://www.w3.org/TR/2001/REC-SVG-20010904/DTD/svg10.dtd">
<!-- Creator: CorelDRAW X6 -->
<svg xmlns="http://www.w3.org/2000/svg" xml:space="preserve" width="1.33333in" height="1in" version="1.0" style="shape-rendering:geometricPrecision; text-rendering:geometricPrecision; image-rendering:optimizeQuality; fill-rule:evenodd; clip-rule:evenodd"
viewBox="0 0 133333 100000"
 xmlns:xlink="http://www.w3.org/1999/xlink">
 <defs>
  <style type="text/css">
   <![CDATA[
    .fil1 {fill:#057DBB}
    .fil4 {fill:#00AFEF}
    .fil2 {fill:#3D3F95}
    .fil3 {fill:#EC3237}
    .fil0 {fill:url(#id0)}
   ]]>
  </style>
  <radialGradient id="id0" gradientUnits="objectBoundingBox" cx="50%" cy="50%" r="50%" fx="50%" fy="50%">
   <stop offset="0" style="stop-color:#EBECEC"/>
   <stop offset="1" style="stop-color:#FFED00"/>
  </radialGradient>
 </defs>
 <g id="Layer_x0020_1">
  <metadata id="CorelCorpID_0Corel-Layer"/>
  <rect class="fil0" width="133333" height="100000"/>
  <g id="_1047076688">
   <path class="fil1" d="M118710 4709c0,276 134,741 187,997 69,336 130,633 215,968l324 1431c127,493 333,366 1059,242 1974,-337 1401,245 1688,-2004l160 -2128c-16,-115 -101,-270 -225,-270 -1121,0 -2039,-43 -3102,347 -142,52 -306,239 -306,417z"/>
   <path class="fil1" d="M114771 6200c0,461 1290,2557 1475,2870 452,762 349,771 1215,343 233,-116 472,-231 730,-334 762,-305 743,-240 580,-952 -44,-195 -70,-343 -113,-535l-440 -2079c-159,-970 -401,-961 -1379,-552 -320,134 -2067,857 -2067,1239z"/>
   <path class="fil1" d="M126208 5129c0,-356 -164,-384 -516,-511l-1491 -444c-286,-72 -1194,-406 -1423,16 -123,226 -82,1235 -90,1515 -8,283 -42,258 -39,764 2,294 -41,470 -38,765 7,639 -263,977 412,1113 236,48 444,99 683,152 374,83 1047,367 1220,235 169,-128 1282,-3133 1282,-3603z"/>
   <path class="fil1" d="M125602 8991c0,96 842,861 995,1022 300,315 307,506 656,32l774 -1054c214,-306 833,-1253 833,-1606 0,-633 -226,-747 -628,-1239l-367 -357c-97,-100 -131,-127 -244,-212 -1154,-864 -545,-330 -1661,2474 -75,189 -357,773 -357,939z"/>
   <path class="fil1" d="M127117 10864c0,354 65,609 17,935 -58,392 -169,596 -169,824 720,-349 1100,-568 1607,-1322 574,-854 741,-1624 741,-2693 0,-301 -94,-446 -114,-688 -180,122 -331,584 -456,801 -240,420 -567,914 -898,1273 -77,83 -81,109 -152,191 -103,119 -577,543 -577,679z"/>
   <path class="fil1" d="M125223 14496c152,-36 599,-275 735,-367l666 -474c355,-280 888,-773 1136,-1147 -567,48 -1636,1241 -2226,1730 -96,80 -250,174 -312,259z"/>
  </g>
  <g id="_1047074160">
   <path class="fil2" d="M60627 40198c0,1542 119,2993 119,4472 0,497 -49,899 4,1387 46,428 114,848 114,1337l-4004 -823c-1991,-504 -3433,-948 -5024,-2231 -691,-557 -346,-379 -1547,-29 -386,113 -740,241 -1152,241 115,218 272,377 415,563 145,188 324,339 496,511 1152,1154 2831,1985 4262,2785l3247 1787c532,290 1026,649 1500,1017 963,746 1881,2006 2497,3041 818,1375 1307,2900 1532,4509 59,421 79,981 113,1399 9,107 -27,301 -26,469 4,491 -167,1450 -593,1450 -409,0 -995,-182 -1343,-285 -417,-124 -835,-252 -1229,-400l-1777 -651c-996,-358 -1978,-759 -2991,-1096 -608,-202 -1138,-475 -1702,-756 -147,-74 -411,-243 -582,-247 0,249 -102,706 -160,936 -204,803 -252,926 -555,1666 -85,209 -262,575 -262,863 308,7 1649,419 1951,507 767,223 1561,431 2264,786 1330,671 2125,993 3225,2017 261,243 565,503 800,770l563 651c102,115 181,219 276,346 648,866 1235,1765 1462,2862 289,1398 -72,3344 -256,4745l-477 3520c-48,404 -97,778 -162,1170 -73,441 -139,999 -139,1489l10868 0c-7,-326 -90,-684 -118,-1007 -83,-970 -391,-2781 -385,-3612 1,-226 -31,-322 -31,-532 2,-415 -31,-717 -29,-1126 1,-226 -31,-322 -30,-532l-30 -3526c26,-874 152,-2232 314,-3091 217,-1149 470,-2048 859,-3020 320,-802 713,-1496 1155,-2221l605 -876c140,-187 276,-359 427,-550 48,-61 66,-71 113,-124 52,-59 52,-74 105,-132l1233 -1195c590,-460 1181,-766 1923,-1008 502,-164 1050,-259 1533,-422 1381,-463 2070,-1059 2994,-2099 286,-322 1237,-1491 1486,-1683 204,-157 637,-551 698,-782 -604,-50 -1704,-1214 -1836,-1214 -387,0 -1302,859 -2961,859 0,-1480 741,-3320 741,-3790 0,-81 -117,-400 -144,-478 -57,-159 -104,-288 -163,-459 -95,-279 -291,-677 -315,-958 -337,225 -541,729 -698,1108 -380,915 -1015,1872 -1632,2633l-551 663c-97,116 -195,184 -287,305 -347,455 -1461,1330 -1972,1670 -635,424 -1283,735 -2004,1046 -1296,558 -3286,1692 -4427,298 -590,-720 -845,-1709 -1021,-2621 -260,-1343 -379,-2871 -610,-4246 -119,-709 -223,-1375 -343,-2086 -205,-1223 -493,-3144 -550,-4306l-87 -1128c-17,-196 13,-422 -3,-619 -110,-1324 104,-3900 807,-5059 167,-276 374,-515 541,-792 79,-130 76,-189 134,-310 -216,-144 -341,-355 -622,-355 -519,0 -1270,977 -2961,977 -546,0 -977,-230 -977,-770 0,-859 351,-1585 731,-2290l662 -1174c264,-502 46,-935 -100,-1441 -73,-255 -137,-496 -197,-751 -427,205 -513,245 -794,657 -377,554 -647,801 -993,1494 -937,1880 -1379,4076 -1643,6234 -37,306 -70,566 -97,880 -78,937 -175,1843 -175,2786z"/>
   <path class="fil3" d="M42978 55300c0,636 433,898 967,1165 724,362 1861,737 2445,1315l124 114c626,626 639,1160 639,1937 0,424 -86,784 -211,1092 -138,339 -451,719 -742,917 -379,257 -912,507 -1374,580 -331,53 -250,-183 -250,1261l-1333 0c0,-1331 96,-1205 -231,-1280l-831 -265c-1366,-548 -1663,-1320 -1663,-2869l1895 0c592,0 -18,1362 1303,1362 196,0 858,-70 962,-134 131,-80 282,-620 282,-932 0,-634 -1241,-1054 -1807,-1302 -238,-104 -486,-209 -710,-326 -882,-459 -1687,-1284 -1687,-2577 0,-1048 559,-1806 1333,-2250 142,-81 372,-150 536,-205 170,-56 371,-110 521,-189 307,-163 215,-877 215,-1354l1333 0 0 1362c893,208 1760,759 2171,1500 280,505 316,702 316,1224 0,269 -167,474 -444,474l-1777 0c0,-538 -161,-1284 -729,-1433 -422,-111 -876,91 -1100,404 -74,104 -156,244 -156,407zm474 10009l622 0c1451,0 3108,-668 4206,-1392 869,-573 2078,-2048 2566,-3031 412,-830 780,-1964 780,-2951 0,-1187 -64,-1944 -499,-3025 -290,-721 -598,-1287 -1024,-1879 -209,-290 -730,-918 -987,-1145 -78,-69 -114,-83 -193,-163l-597 -498c-1035,-776 -2236,-1292 -3583,-1481 -1304,-183 -2540,34 -3689,491 -807,321 -2029,1061 -2673,1680 -135,130 -215,236 -340,371l-317 394c-679,903 -870,1266 -1264,2348 -215,591 -474,1820 -389,2441l39 702c52,778 306,1737 544,2357 384,1000 944,1906 1728,2596l388 322c700,559 1458,1010 2297,1346 599,240 1573,516 2386,516z"/>
   <path class="fil3" d="M72591 24652c0,547 542,872 976,1067 472,211 938,409 1402,641 251,126 424,220 642,365 293,194 217,159 424,346 244,222 397,446 544,759 200,426 187,826 187,1293 0,876 -342,1554 -850,1934 -301,225 -549,317 -938,454 -931,325 -788,305 -788,1462l-1332 0 0 -1244c-472,-39 -1351,-465 -1754,-734 -483,-323 -970,-896 -970,-1546l0 -1037 2012 120c130,22 112,90 204,419 49,177 4,444 267,681 386,348 1959,609 1959,-627 0,-785 -720,-962 -1322,-1254 -119,-57 -262,-119 -370,-163 -437,-178 -1311,-605 -1662,-944 -97,-94 -170,-171 -266,-267 -705,-701 -689,-1875 -339,-2754 163,-410 321,-618 606,-904 446,-450 1235,-564 1509,-711 348,-187 245,-761 245,-1354l1333 0c0,1505 -94,1330 224,1375 595,84 1089,431 1501,838 619,612 733,1356 733,2317l-2191 0c0,-380 -69,-737 -208,-976 -554,-954 -1776,-304 -1776,444zm638 -5627l316 0c587,11 1166,85 1699,219 402,101 709,196 1078,344 915,366 1918,980 2614,1680 330,331 606,661 885,1040 573,776 969,1682 1204,2617 411,1637 209,3471 -439,4939 -523,1185 -1065,1886 -1975,2763 -776,747 -2040,1404 -3052,1687 -963,269 -1344,260 -2317,260 -1739,0 -3876,-852 -5116,-2080 -413,-409 -778,-807 -1102,-1296 -695,-1046 -1139,-2224 -1295,-3503l-68 -880c-20,-367 115,-1391 191,-1735 119,-541 285,-982 482,-1443 181,-423 450,-867 695,-1230 607,-895 1538,-1756 2461,-2306 445,-265 809,-429 1302,-622 735,-288 1586,-437 2436,-453z"/>
   <path class="fil4" d="M88759 42893l0 652c0,349 752,723 1049,846 459,190 895,393 1320,605 919,459 1688,1048 1688,2280 0,876 -214,1589 -604,2091 -406,522 -1206,870 -1854,870l0 1244 -1481 0 0 -1244c-315,0 -764,-173 -1003,-270 -265,-107 -593,-321 -808,-495 -945,-763 -883,-1381 -883,-2433l2191 0c0,434 90,764 279,1024 731,1011 2353,201 1887,-940 -52,-127 -136,-217 -236,-297 -183,-145 -1435,-708 -1772,-863 -452,-207 -1278,-706 -1550,-1085 -704,-983 -788,-2192 -47,-3187 151,-202 459,-457 669,-604 121,-85 275,-169 414,-237 176,-87 747,-320 978,-326l0 -1362 1362 0 0 1362c168,4 365,88 515,137 203,67 296,121 472,209 354,175 507,335 767,595 599,595 703,1217 703,2228l-2191 0c0,-292 -80,-713 -230,-954 -527,-843 -1635,-256 -1635,155zm-7048 2369c0,958 132,1743 411,2580 87,261 175,460 274,703 87,213 207,432 320,628 335,583 1001,1500 1494,1881 480,371 731,646 1370,999 2749,1519 5840,1429 8461,-382l795 -656c1191,-1198 1880,-2337 2260,-4047 191,-857 228,-1776 128,-2650 -153,-1348 -708,-2694 -1546,-3724l-684 -767c-335,-256 -404,-431 -1042,-854 -528,-349 -956,-610 -1552,-847l-517 -193c-1909,-637 -3869,-530 -5672,371 -841,420 -1022,524 -1726,1117 -107,91 -150,123 -250,224 -732,735 -1182,1237 -1646,2174 -342,690 -463,954 -659,1739 -126,503 -219,1093 -219,1706z"/>
   <path class="fil4" d="M48634 30633c675,15 1402,377 1789,935 202,291 312,559 422,941 155,536 104,969 158,1204l-2221 0c0,-374 -52,-687 -219,-966 -334,-557 -1054,-533 -1401,-152 -164,180 -245,390 -245,643 0,576 554,914 957,1115 816,407 2113,845 2652,1524 369,465 478,808 478,1625 0,810 -71,1348 -567,1891 -357,390 -1168,788 -1658,829 -348,29 -262,-220 -262,1367l-1451 0c0,-1510 93,-1346 -234,-1365 -209,-12 -613,-141 -783,-224 -913,-443 -1707,-1243 -1707,-2320l0 -622 2221 0 0 178c0,689 501,1333 1185,1333 591,0 1037,-418 1037,-1066 0,-735 -1070,-1102 -1730,-1379 -678,-284 -1450,-656 -1883,-1226 -600,-789 -706,-1893 -267,-2785 80,-161 154,-311 263,-448 106,-135 222,-278 355,-385 1078,-872 1663,-272 1663,-1239l0 -889c1567,0 1481,-118 1481,978 0,214 -30,296 -30,503zm-8736 4442c0,868 0,1481 278,2328 87,265 143,457 238,709 94,248 190,447 304,674 422,843 870,1434 1483,2100 633,687 1615,1318 2461,1656 2690,1074 5693,753 7931,-1139l713 -650c95,-94 130,-162 221,-252 539,-539 780,-1042 1131,-1623 76,-125 83,-165 145,-299 676,-1453 642,-2204 642,-3770 0,-1113 -372,-2107 -750,-2863 -529,-1057 -1540,-2248 -2513,-2906 -1147,-776 -2493,-1427 -4022,-1427 -1224,0 -2440,198 -3558,647 -648,261 -1581,765 -2076,1270 -207,211 -245,190 -483,494 -944,1201 -1388,1711 -1881,3389 -121,410 -263,1138 -263,1662z"/>
  </g>
 </g>
</svg>
