<?xml version="1.0" encoding="UTF-8"?>
<!DOCTYPE svg PUBLIC "-//W3C//DTD SVG 1.0//EN" "http://www.w3.org/TR/2001/REC-SVG-20010904/DTD/svg10.dtd">
<!-- Creator: CorelDRAW X6 -->
<svg xmlns="http://www.w3.org/2000/svg" xml:space="preserve" width="1.33333in" height="1in" version="1.0" style="shape-rendering:geometricPrecision; text-rendering:geometricPrecision; image-rendering:optimizeQuality; fill-rule:evenodd; clip-rule:evenodd"
viewBox="0 0 133333 100000"
 xmlns:xlink="http://www.w3.org/1999/xlink">
 <defs>
  <style type="text/css">
   <![CDATA[
    .str0 {stroke:#C5C6C6;stroke-width:694.488}
    .fil20 {fill:none}
    .fil1 {fill:#00A0E3}
    .fil21 {fill:#057DBB}
    .fil2 {fill:#392211}
    .fil14 {fill:#3A2211}
    .fil5 {fill:#684E2D}
    .fil13 {fill:#6B625B}
    .fil3 {fill:#8B6B39}
    .fil17 {fill:#8C6C39}
    .fil6 {fill:#948379}
    .fil19 {fill:#94847A}
    .fil9 {fill:#A2C6DC}
    .fil8 {fill:#C3B9B4}
    .fil15 {fill:#C8AD5F}
    .fil7 {fill:#C9AD5F}
    .fil16 {fill:#D9C796}
    .fil18 {fill:#E5D9BE}
    .fil4 {fill:#E7E7E9}
    .fil12 {fill:#EB6E7D}
    .fil11 {fill:#ED235C}
    .fil10 {fill:#F3959B}
    .fil0 {fill:url(#id0)}
   ]]>
  </style>
  <radialGradient id="id0" gradientUnits="objectBoundingBox" cx="50%" cy="50%" r="50%" fx="50%" fy="50%">
   <stop offset="0" style="stop-color:#FEFEFE"/>
   <stop offset="1" style="stop-color:#C5C6C6"/>
  </radialGradient>
 </defs>
 <g id="Layer_x0020_1">
  <metadata id="CorelCorpID_0Corel-Layer"/>
  <rect class="fil0" width="133333" height="100000"/>
  <g id="_1051573600">
   <path class="fil1" d="M57013 36541c607,6143 -1792,8409 9315,14954 7706,4541 6989,5878 6989,11300 0,1761 -526,4776 1425,4915 2127,151 1559,-2766 1559,-4529 0,-5976 447,-8298 -5862,-12513 -1512,-1010 -6000,-3834 -7249,-4924 -3247,-2833 -3499,-3199 -3154,-9210 897,284 1963,1434 2749,1533 1245,156 2209,-1230 1332,-2322 -281,-350 -4841,-3472 -5431,-3531 -859,-85 -4820,2563 -5543,3187 -962,830 -631,2716 916,2672 1133,-32 2028,-1105 2955,-1533z"/>
   <path class="fil1" d="M73305 36573c124,4395 420,6879 -2761,9858 -1110,1040 -864,1962 328,2684 1559,545 3974,-3052 4567,-4360 1281,-2827 701,-5031 889,-8181 575,295 2158,1426 2691,1520 1533,273 2180,-1383 1346,-2371 -300,-355 -4856,-3444 -5446,-3478 -783,-46 -5054,2752 -5575,3320 -896,978 -427,2672 1126,2537 736,-64 2083,-1224 2836,-1530z"/>
   <path class="fil1" d="M62242 51248c-320,120 -1493,973 -1740,1174 -4202,3412 -3457,6435 -3459,11339 0,807 -497,4945 2167,3839 1731,-719 63,-8174 1259,-10574 791,-1587 1392,-2051 2849,-2942 2161,-1321 606,-3467 -1076,-2835z"/>
  </g>
  <g id="_1051568608">
   <path class="fil2" d="M22511 50730l3 -725 -30 -4655 14099 30 3587 -19 85 4841c267,4036 -2016,6806 -4222,8254 -2476,1626 -7318,2193 -9527,-133 -2142,-1384 -3902,-3768 -3995,-7594zm22523 545c-333,282 518,197 -679,305l-2741 -33 2 -3664c922,-74 3269,-426 3662,396 675,89 368,-434 894,561 189,357 198,652 163,1031 -89,958 -554,1283 -1302,1404zm-3411 1777c3235,-186 6233,237 6240,-3409 3,-1399 -912,-2419 -1860,-2885 -1095,-539 -2999,-285 -4328,-383 -110,-3268 -42,-2512 -3530,-2511 -1783,1 -15511,-217 -16553,141 -1446,498 -421,9248 84,10687 823,2343 3085,4850 5152,5728 -4240,227 -8473,-806 -7938,1253 683,385 561,314 1612,322 4157,33 21428,32 22644,-396l-54 -1029c-1327,-516 -5200,-183 -7003,-203 922,-1009 2754,-1015 4662,-5134 399,-862 414,-1447 870,-2181z"/>
   <path class="fil3" d="M26506 58324c2312,144 4574,-1417 5909,-2235 1406,-861 2825,-3001 3360,-5245l-13263 -114c93,3826 1853,6209 3995,7594z"/>
   <path class="fil4" d="M22514 50006l13536 111 -41 32c475,-1782 493,-2937 575,-4767l-14099 -30 30 4655z"/>
   <path class="fil5" d="M35775 50844c-535,2244 -1954,4384 -3360,5245 -1335,818 -3596,2380 -5909,2235 2209,2326 7050,1759 9527,133 2206,-1448 4489,-4218 4222,-8254l-4246 -55 41 -32 -275 728z"/>
   <path class="fil6" d="M36009 50148l4246 55 -85 -4841 -3587 19c-82,1830 -100,2985 -575,4767z"/>
   <polygon class="fil7" points="22511,50730 35775,50844 36050,50116 22514,50006 "/>
   <path class="fil8" d="M45034 51276l-3348 42 75 -3394c1294,92 2311,-111 3517,356 -393,-822 -2739,-470 -3662,-396l-2 3664 2741 33c1197,-108 346,-23 679,-305z"/>
  </g>
  <g id="_1051563520">
   <path class="fil2" d="M108149 33718l7878 87 -14 2153 -7875 -35 11 -2206zm-11826 3032c-1007,-316 -1687,-1561 -1758,-3126l0 -298 1 -1766c517,-367 5131,-179 5876,-178l1389 39c303,1251 27,2077 -96,2309 396,2832 -3933,4773 -5413,3020zm7844 -3062c-414,402 -976,302 -1461,88l44 -1209 225 -76c740,-133 806,-15 1047,137 451,232 469,305 349,937 -17,220 36,159 -204,124zm4017 -2457l7834 -4 20 1578 -7915 19 61 -1593zm5777 -3428l2073 -18 -7 2522 -1994 -7c-1154,23 -5017,142 -5890,-81l3 -2412 5814 -4zm-2798 -946c258,-1357 1592,-1536 1778,24l-1778 -24zm-10255 -1144l-289 -2529 8098 -159 -480 3689c-401,216 48,20 -475,163l-557 107 0 7266 -2110 -7c246,-780 416,-1414 -143,-2084 -578,-694 -1174,-504 -2183,-561l-180 -1024 -1154 -65 -527 -4796zm1402 9831l204 -409 4729 47 100 1561c826,233 8787,243 9528,-29l14 -9509c-228,-435 -248,-342 -1374,-333 -533,4 -1063,0 -1580,8l-200 -830c473,-639 1419,-1535 818,-2888l-589 11c-448,934 151,974 -778,1982 -1759,-534 -2657,-129 -2974,1711l-1022 -20c87,-1151 601,-3628 394,-4599 -698,-248 -9128,-249 -9868,-10 -363,1777 980,6409 689,8274l-6527 152c-167,-268 -981,3626 702,5814 447,581 639,588 1047,1091 -515,69 -3887,-249 -2811,838 758,348 9284,200 10511,11 163,-1328 -1305,-810 -2545,-857 368,-367 609,-388 946,-896 148,-222 492,-797 587,-1120z"/>
   <path class="fil9" d="M104652 29247c434,175 396,130 537,570 -160,357 -181,377 -537,535 -778,-242 -804,-835 0,-1105zm-1778 -1962c-167,-591 -35,-56 46,-289 520,-252 928,444 115,546 -110,-133 -108,-69 -161,-257zm-1966 -1572l527 4796 1154 65 180 1024c1009,57 1604,-132 2183,561 558,670 389,1304 143,2084l2110 7 0 -7266 557 -107c523,-144 74,52 475,-163l480 -3689 -8098 159c919,-207 5821,-154 6896,-30 -526,1440 -152,2272 -1023,2450l-5461 102c-21,-40 -82,6 -122,7z"/>
   <path class="fil4" d="M100908 25713c41,-1 101,-47 122,-7l5461 -102c871,-178 497,-1010 1023,-2450 -1075,-125 -5977,-178 -6896,30l289 2529z"/>
   <path class="fil10" d="M114033 30302l-73 -2498 -5814 4 -3 2412c872,224 4735,104 5890,81z"/>
   <path class="fil3" d="M94565 33624c70,1565 750,2810 1758,3126 881,115 1877,-540 2379,-939 585,-465 1137,-1213 1339,-2220l1695 138 -11 -360 -1587 18c-262,505 -2033,235 -2620,235 -972,0 -1991,30 -2952,1z"/>
   <path class="fil10" d="M108332 35873c1628,-246 4281,217 5762,-156l-28 -1789c-1188,-333 -4268,-56 -5760,-138l26 2083z"/>
   <path class="fil11" d="M114701 32459c-166,-639 12,-840 700,-669l-114 629 -586 40zm-1927 -67c-49,-156 -64,-122 -48,-373l118 -233c831,-249 787,850 -70,606zm-1342 15c-1057,221 -870,-841 -74,-629l74 629zm-2461 -618c600,-185 671,129 532,704l-603 -103 71 -602zm-848 1035l7915 -19 -20 -1578 -7834 4 -61 1593z"/>
   <path class="fil4" d="M94565 33326l5572 62c144,-475 226,-1202 291,-1837l-5861 9 -1 1766z"/>
   <path class="fil5" d="M101724 33370l11 360 -1695 -138c-201,1007 -753,1755 -1339,2220 -502,398 -1498,1054 -2379,939 1480,1752 5809,-189 5413,-3020 123,-232 399,-1059 96,-2309l-1389 -39 -14 169 1366 -83 -70 1902z"/>
   <path class="fil12" d="M108306 33790c1492,81 4572,-195 5760,138l28 1789c-1481,373 -4134,-90 -5762,156l-26 -2083zm-169 2134l7875 35 14 -2153 -7878 -87 -11 2206z"/>
   <path class="fil6" d="M100428 31550c-64,635 -146,1362 -291,1837l-5572 -62 0 298c961,28 1980,-1 2952,-1 587,0 2358,270 2620,-235l1587 -18 70 -1902 -1366 83 14 -169c-745,-1 -5359,-188 -5876,178l5861 -9z"/>
   <polygon class="fil12" points="114033,30302 116027,30308 116034,27786 113961,27804 "/>
   <path class="fil6" d="M102310 35544l4830 -285 48 1639c1231,113 8828,280 9593,-71 105,-129 77,42 176,-258l50 -853c-8,-1647 208,-7875 -121,-8512l-14 9509c-741,272 -8702,262 -9528,29l-100 -1561 -4729 -47 -204 409z"/>
   <path class="fil9" d="M104167 33688l204 -124c120,-632 102,-704 -349,-937l-1272 -61 22 1221 1395 -100z"/>
   <path class="fil11" d="M111163 26857l1778 24c-186,-1559 -1520,-1381 -1778,-24z"/>
   <path class="fil4" d="M104652 30352c356,-158 377,-178 537,-535 -142,-440 -104,-395 -537,-570 -804,269 -778,863 0,1105z"/>
   <path class="fil10" d="M114701 32459l586 -40 114 -629c-687,-171 -865,30 -700,669z"/>
   <path class="fil13" d="M104167 33688c239,35 186,96 204,-124l-204 124 -1395 100 -22 -1221 1272 61c-241,-152 -307,-270 -1047,-137l-225 76 -44 1209c485,214 1048,314 1461,-88z"/>
   <path class="fil10" d="M108971 31789l-71 602 603 103c139,-576 67,-889 -532,-704z"/>
   <path class="fil10" d="M111432 32406l-74 -629c-796,-212 -983,850 74,629z"/>
   <path class="fil10" d="M112844 31786l-118 233c-15,250 0,217 48,373 856,245 900,-854 70,-606z"/>
   <path class="fil4" d="M102919 26996c-80,233 -213,-302 -46,289 53,187 50,124 161,257 813,-102 405,-798 -115,-546z"/>
  </g>
  <g id="_1051629216">
   <path class="fil14" d="M108099 65180l55 -588c387,-55 237,-92 517,84 1419,256 1682,2563 -622,2608l51 -2104zm-607 -2411l-236 4713c103,826 -325,2128 -661,2812 -446,907 -833,1469 -1593,1915 -2070,1213 -3658,-637 -4141,-1990 -368,-413 -639,-1910 -604,-2578l-276 -6377 -55 -1639 1309 -34 6406 3 -149 3176zm-6611 -3853c865,-926 3285,-921 4585,-581l986 351c145,87 155,106 233,192l-5804 38zm168 -1054l-221 137 -902 548 -198 44 -189 106 -301 211c-133,2471 140,5733 219,8283 56,1808 495,3269 1443,4658 409,600 660,583 993,966l-2438 100c18,619 15,643 647,653l7667 -68 36 -646 -2331 -29c310,-324 612,-393 973,-858 794,-1022 1399,-2522 1517,-3935 1263,-107 2473,-517 2501,-2044 37,-1978 -1707,-1999 -2247,-2177 -106,-1407 402,-3765 89,-4931 -435,-506 -2226,-1182 -3216,-1366 -1933,-359 -2424,37 -4043,349z"/>
   <path class="fil15" d="M102599 67542c-11,-674 -19,-267 405,-390 12,-4 556,-2 610,0 417,14 810,13 1223,-17l2287 22 133 325 236 -4713 -42 -1227c-1037,-3 -2068,39 -3107,31 -523,-4 -1050,-7 -1573,-2 -1401,11 -1208,183 -1257,-130l-197 44 1282 6058z"/>
   <path class="fil16" d="M103112 69851c37,353 105,568 183,933 22,105 67,296 66,411 -7,804 87,-598 -27,196 -3,23 -28,111 -31,94 -3,-17 -21,63 -37,93 -685,311 -655,-769 -832,-1386 -372,38 -571,96 -965,164 -274,47 -151,76 -353,19l-256 -158c483,1353 2072,3203 4141,1990 761,-446 1148,-1008 1593,-1915 336,-684 764,-1986 661,-2812l-133 -325 -2287 -22c-17,1220 -1136,2235 -1724,2716z"/>
   <path class="fil17" d="M100504 60889c202,365 1120,5360 1321,6289l156 460 436 2437c460,-59 493,6 596,-393l-415 -2141 -1282 -6058 -2 -213 -332 -1452c84,-128 -205,-129 253,-73l0 -156 -1309 34 376 161 202 1104z"/>
   <path class="fil18" d="M101314 61271c294,0 265,-87 199,169l4049 -50 31 -1572c-1007,-14 -3508,152 -4359,-72 -458,-56 -169,-55 -253,73l332 1452z"/>
   <path class="fil15" d="M99981 61263l276 6377 61 -480 1508 19c33,455 -38,242 156,460l-156 -460c-200,-930 -1119,-5924 -1321,-6289l90 742c-833,-104 -470,299 -614,-368z"/>
   <path class="fil16" d="M101513 61440c65,-256 95,-169 -199,-169l2 213 197 -44c49,313 -144,141 1257,130 523,-4 1050,-2 1573,2 1039,8 2070,-34 3107,-31l42 1227 149 -3176 -6406 -3 0 156c851,224 3352,57 4359,72l-31 1572 -4049 50z"/>
   <path class="fil18" d="M100257 67640c-35,668 237,2165 604,2578l256 158c202,57 79,28 353,-19 394,-67 593,-126 965,-164l-17 -116 -436 -2437c-194,-218 -124,-6 -156,-460l-1508 -19 -61 480z"/>
   <path class="fil18" d="M102599 67542l415 2141 98 168c588,-481 1707,-1496 1724,-2716 -413,30 -806,30 -1223,17 -54,-2 -598,-3 -610,0 -424,123 -415,-284 -405,390z"/>
   <path class="fil4" d="M108099 65180l-51 2104c2304,-45 2042,-2352 622,-2608l-470 -54 -101 557z"/>
   <path class="fil19" d="M102417 70076l17 116c177,617 147,1697 832,1386 16,-30 34,-109 37,-93 3,17 28,-71 31,-94 114,-795 20,607 27,-196 1,-115 -43,-306 -66,-411 -78,-365 -147,-581 -183,-933l-98 -168c-104,399 -136,335 -596,393z"/>
   <path class="fil19" d="M99926 58546l-198 44c-231,-46 -189,-107 -189,106l189 -106 198 -44 902 -548 221 -137 -221 137 -223 -113c-169,-818 30,-1025 -817,-1020 -149,635 105,975 138,1682z"/>
   <path class="fil16" d="M99981 61263c143,667 -219,264 614,368l-90 -742 -202 -1104 -376 -161 55 1639z"/>
   <path class="fil19" d="M108099 65180l101 -557 470 54c-280,-176 -130,-139 -517,-84l-55 588z"/>
  </g>
  <line class="fil20 str0" x1="82377" y1="47004" x2="127292" y2= "47004" />
  <g id="_1051627360">
   <path class="fil21" d="M118710 4709c0,276 134,741 187,997 69,336 130,633 215,968l324 1431c127,493 333,366 1059,242 1974,-337 1401,245 1688,-2004l160 -2128c-16,-115 -101,-270 -225,-270 -1121,0 -2039,-43 -3102,347 -142,52 -306,239 -306,417z"/>
   <path class="fil21" d="M114771 6200c0,461 1290,2557 1475,2870 452,762 349,771 1215,343 233,-116 472,-231 730,-334 762,-305 743,-240 580,-952 -44,-195 -70,-343 -113,-535l-440 -2079c-159,-970 -401,-961 -1379,-552 -320,134 -2067,857 -2067,1239z"/>
   <path class="fil21" d="M126208 5129c0,-356 -164,-384 -516,-511l-1491 -444c-286,-72 -1194,-406 -1423,16 -123,226 -82,1235 -90,1515 -8,283 -42,258 -39,764 2,294 -41,470 -38,765 7,639 -263,977 412,1113 236,48 444,99 683,152 374,83 1047,367 1220,235 169,-128 1282,-3133 1282,-3603z"/>
   <path class="fil21" d="M125602 8991c0,96 842,861 995,1022 300,315 307,506 656,32l774 -1054c214,-306 833,-1253 833,-1606 0,-633 -226,-747 -628,-1239l-367 -357c-97,-100 -131,-127 -244,-212 -1154,-864 -545,-330 -1661,2474 -75,189 -357,773 -357,939z"/>
   <path class="fil21" d="M127117 10864c0,354 65,609 17,935 -58,392 -169,596 -169,824 720,-349 1100,-568 1607,-1322 574,-854 741,-1624 741,-2693 0,-301 -94,-446 -114,-688 -180,122 -331,584 -456,801 -240,420 -567,914 -898,1273 -77,83 -81,109 -152,191 -103,119 -577,543 -577,679z"/>
   <path class="fil21" d="M125223 14496c152,-36 599,-275 735,-367l666 -474c355,-280 888,-773 1136,-1147 -567,48 -1636,1241 -2226,1730 -96,80 -250,174 -312,259z"/>
  </g>
 </g>
</svg>
