<?xml version="1.0" encoding="UTF-8"?>
<!DOCTYPE svg PUBLIC "-//W3C//DTD SVG 1.0//EN" "http://www.w3.org/TR/2001/REC-SVG-20010904/DTD/svg10.dtd">
<!-- Creator: CorelDRAW X6 -->
<svg xmlns="http://www.w3.org/2000/svg" xml:space="preserve" width="5.84646in" height="8.26772in" version="1.0" style="shape-rendering:geometricPrecision; text-rendering:geometricPrecision; image-rendering:optimizeQuality; fill-rule:evenodd; clip-rule:evenodd"
viewBox="0 0 584646 826772"
 xmlns:xlink="http://www.w3.org/1999/xlink">
 <defs>
  <style type="text/css">
   <![CDATA[
    .fil0 {fill:#00A0E3}
    .fil1 {fill:#2B2A29}
   ]]>
  </style>
 </defs>
 <g id="Layer_x0020_1">
  <metadata id="CorelCorpID_0Corel-Layer"/>
  <g id="_949185168">
   <rect class="fil0" width="584646" height="826772"/>
   <g>
    <path class="fil1" d="M259388 450248c-63,-2820 -1564,-5131 -3295,-6290 891,-1331 1485,-2128 2817,-3173 1180,-926 2262,-1768 4072,-1919 1717,3578 -277,9160 -3594,11382zm-69790 -175522l0 5691c0,1992 300,2593 300,4493 -2800,-1875 -3395,-8057 -3814,-11462 -173,-1407 -379,-3476 -379,-4713 -1481,395 -1658,2637 -1891,4100 -1026,6443 -131,13556 393,19863 -1828,-967 -2291,-2937 -2763,-5025 -404,-1786 -831,-4686 -831,-6956l-898 0c-1706,7324 -876,15943 1921,22640 2455,5877 4773,6883 6465,9409 -2684,-625 -3897,-2656 -6290,-3295 161,1939 3425,5570 4745,6637 1937,1565 5044,3113 6337,5044 -1315,0 -3360,-199 -4193,-599 49,2214 2621,3332 4124,4562 1226,1004 4143,3052 4861,4124l-4193 0c506,1894 5941,3631 7659,4323 9576,3856 16478,5506 25531,11310 7234,4638 14816,9669 19215,17327 1338,2328 3307,6255 3307,9573 0,2383 -9158,5247 -11284,6389 -4739,2544 -9557,6296 -8185,12182 -2929,1961 -3339,6205 -1710,9198 489,898 1174,1882 2009,2184 0,-2604 706,-5392 3594,-5392 -126,1509 -599,1448 -599,3295 1283,-343 2097,-1387 3906,-1785 3163,-696 6252,-607 9267,-2115 5626,-2815 14683,-76 14683,10190 0,9397 -1789,11842 -5013,19249 -452,1039 -402,786 -709,1987 -225,881 -319,1081 -696,1999 -1279,3111 -2133,10611 -5863,10611 -1234,0 -4623,-1876 -5687,-2401 -3586,-1769 -10623,-3473 -11087,2101 1416,-749 3104,-1198 5092,-1198 1665,0 768,343 457,706 -1069,1248 -2172,1950 -2121,4228 37,1644 959,-23 1777,-622 1031,-755 1814,-717 3481,-717 -1306,1950 -1981,2834 -898,5092 741,-268 205,-13 666,-532 574,-646 -169,-145 664,-833 2729,-2254 7874,795 9693,2025 4694,3175 6461,2007 6949,3833 -3735,870 -12281,2173 -12281,6290 0,1273 484,1826 1498,2096 150,-1808 1712,-2327 3295,-2696 -283,1062 -1768,3007 898,4793 161,-1928 1737,-2841 3594,-2995 -1043,1971 -738,4694 1198,5991 111,-4991 4844,-6889 9285,-6889 2687,0 3426,2022 5819,2869 1234,437 2813,129 3501,423 1158,495 1164,1639 1164,3297l599 0c239,-896 3237,-5095 -2894,-8488 -2604,-1441 -4893,-1235 -4893,-4991 0,-1872 833,-2980 1797,-3894 3124,728 917,2440 2995,2995 789,-3385 2931,-6239 5691,-8087 664,1383 488,2119 1797,2995 72,-3223 1481,-5743 2097,-8387 47,54 102,81 120,180 167,947 770,1242 1678,1318 1050,-2189 -27,-3691 3506,-7277 581,-589 3383,-2617 3383,-511 0,6428 -7488,10646 -7488,14976 0,2930 1333,1797 1797,1797 1263,0 885,1953 1198,3295 3374,0 3042,519 4193,2696 1071,-250 1775,-718 2745,-376 981,346 1338,1201 2048,1874 2225,-185 2269,-1529 3943,849 666,946 750,1847 2047,1847 2358,0 2839,-1518 5085,-301 1080,585 2292,2697 3901,2697 1769,0 1924,-1198 4792,-1198 2176,0 4034,3243 6935,345 1843,-1841 2628,-1355 5078,-1243 2359,108 1921,-1220 3078,-2011 2211,-1510 5398,3426 6775,-2483 562,-131 1350,-239 1971,-425 1694,-508 1284,-1944 2646,-2445 370,-136 1819,-319 2271,-425 1224,-2552 -233,-5164 -1399,-7287 -3643,-6633 -16050,-5670 -30338,-30466 -626,-1087 -1193,-2228 -1801,-3291 -356,-621 -1337,-2858 -1506,-3586 5403,450 7719,9285 15276,9285 1145,0 109,92 899,-300 -323,-1208 -1198,-1244 -1198,-2396 0,-3415 5554,213 6590,300 1121,-2336 57,-3444 0,-5991 2620,58 5691,4183 5691,-300 0,-3367 -2535,-5391 1498,-5391 1673,0 1797,2158 1797,-2396 0,-1014 -2132,-3894 0,-3894 1580,0 1846,1111 3295,1498 1015,-4358 -846,-4210 -899,-6590 2750,0 3295,1425 3295,-599 0,-1965 -1700,-2790 -2097,-4493 232,-1791 2705,-1797 4194,-1797 937,0 1797,780 1797,-599 0,-2857 -3294,-3335 -3294,-4792 0,-2078 2825,-1287 3894,-1198 0,-3728 -2097,-2915 -2097,-4493 0,-1624 2791,-1198 3894,-1198 0,-4841 -1683,-3665 -1498,-5092 759,-1435 1609,-2594 3894,-1498 0,-2915 -1198,-2302 -1198,-3894 0,-2110 3931,-1644 4193,-4793 -1211,-500 -2343,621 -2396,-1797l4021 -1070c1977,-444 2377,-731 3167,-2224 -591,-283 -1383,-433 -2097,-599 -79,-928 4,-567 -300,-1198 2474,-2846 8050,511 8986,-2995 -813,-189 -983,-271 -1647,-749 -819,-590 -808,-614 -1049,-1647 2350,-3510 10055,-344 11083,-4193 -1863,0 -4442,-537 -5691,-1198 391,-4698 13950,34 14078,-5691 -3008,0 -3188,-685 -5391,-1198 96,-1156 126,-1362 2406,-1489 2417,-134 4745,-220 6524,-1865 3881,-3590 -1891,-1739 -2340,-1739 -4728,0 -4123,-2286 2174,-3518 4767,-932 9125,-3047 12587,-6283 948,-886 1380,-951 1414,-2480 -3294,0 -4867,1441 -7963,2221 -2330,587 -6645,1578 -8811,1074l0 -1198 14683 -5984c3637,-1776 9878,-6078 9878,-10790 0,-1548 -4615,979 -5096,1194 -1731,774 -3404,1492 -5257,2231 -726,289 -13363,5779 -12891,2369 189,-1361 3464,-2642 4571,-3200 7617,-3839 13550,-4799 18678,-12473 504,-754 1446,-2336 1629,-3524 357,-2317 -3133,1410 -5103,2746 -3143,2133 -6493,3962 -9910,5665 -2426,1209 -4637,2578 -7289,3195 139,-1669 1551,-2193 2606,-3085 4120,-3484 8095,-7364 11517,-11547 2472,-3024 6067,-7651 5047,-12026 -1420,31 -1278,171 -2037,958 -3787,3924 -7655,7698 -11834,11230 -13339,11273 -21749,11530 -14326,6042 5179,-3828 19537,-16745 16215,-23022 -1887,504 -3078,3043 -4188,4498 -4259,5581 -17507,16380 -22170,16768 37,-1654 1084,-2212 2028,-3363 3989,-4865 9719,-17007 2989,-10190 -5222,5289 -12144,8929 -18438,12713 -5219,3138 -10674,6020 -16133,8728 -3368,1670 -14085,6930 -16491,8669 -2436,1761 -4942,3411 -7050,5530 -6388,6420 -11646,13664 -15283,22157 -4606,10755 -5041,18528 -10266,27175 -2261,3743 -8324,11850 -13310,11850 -1568,0 -7650,-8107 -8857,-9713 -2637,-3508 -5131,-7475 -7302,-11269l-6300 -12270c-3112,-6354 -8033,-10517 -13107,-15049 -906,-809 -1598,-1245 -2515,-1978 -956,-764 -1664,-1364 -2714,-2079l-11263 -7607c-6337,-4250 -13549,-8223 -18375,-14273 -811,-1017 -1270,-1717 -2352,-2441 0,1505 33,1554 300,2696 -1669,-389 -4454,-2803 -5618,-3967 -5731,-5731 -7562,-13486 -7562,-22391 0,-2169 300,-3000 300,-5092 -1278,107 -1490,583 -2012,1583 -1432,2741 -1882,5847 -1882,9200z"/>
    <path class="fil1" d="M146167 507457c0,2116 3295,-319 3295,1797l0 19170c0,1446 -2067,1198 -3295,1198 0,2802 -997,2097 9285,2097l0 -2097c-3142,0 -1842,74 -3295,-898l515 -14892 6078 13391c1590,3197 1088,4496 3591,4496 1160,0 1937,-2471 2654,-4236l5938 -13232c295,-653 328,-683 694,-1103l0 15576c-1453,973 -153,898 -3295,898l0 2097 10783 0c1102,0 898,-640 898,-2097 -1228,0 -3294,248 -3294,-1198l0 -19170c0,-2410 3294,931 3294,-2396 0,-1583 -3394,-898 -7787,-898 -1117,0 -2157,3228 -2610,4280l-5603 12369c-404,999 -648,1692 -1372,2222 -115,-1389 -7741,-17385 -8087,-18870l-8387 0 0 1498z"/>
    <path class="fil1" d="M221348 517342l-4194 0 0 -8686c5643,0 8387,-824 8387,5092 0,2134 -1947,3594 -4193,3594zm-12880 -10483c0,1976 554,1498 2995,1498 1177,2452 599,15083 599,18571 0,3177 -1420,2696 -3594,2696 0,2891 -1085,2097 11083,2097 1101,0 898,-640 898,-2097l-2995 -300c-629,-2700 -300,-6687 -300,-9585l2097 0c313,1171 4547,7693 5513,9164 2281,3474 89,2817 8864,2817l0 -2097c-3403,0 -3508,-1351 -5333,-4252 -756,-1201 -3048,-4491 -3353,-5633 1595,-36 3483,-1189 4203,-2087 3813,-4759 995,-11691 -5401,-11691l-14378 0c-690,0 -898,209 -898,898z"/>
    <path class="fil1" d="M303419 507457c0,2027 3894,-245 3894,2097 0,3972 391,16806 -300,19769 -1934,451 -1275,300 -3594,300l0 2097 10184 0 0 -2097c-3480,0 -2084,113 -3594,-898l0 -16174c2032,1361 14963,19469 16174,19469l2097 0 0 -21266c0,-1086 252,-1672 599,-2396 2611,0 3295,516 3295,-1498 0,-690 -208,-898 -898,-898l-8686 0c-1017,0 -899,526 -899,1498 0,1918 2700,111 3800,1293 768,826 394,13298 394,14882 -814,-545 -1219,-1231 -1866,-2028l-11893 -14765c-366,-453 -411,-880 -1217,-880l-7488 0 0 1498z"/>
    <path class="fil1" d="M183009 508356c2125,0 3295,-390 3295,1797l0 17372c0,2311 -1738,2097 -3295,2097l0 2097 21267 0c690,0 899,-209 899,-899l0 -8686 -2097 0c0,8256 -4863,7189 -11681,7189l0 -9585c2935,0 5391,-263 5391,4193 2860,0 2097,1065 2097,-10483l-2097 0c0,4483 -2443,3894 -5391,3894l0 -8686c3600,0 10108,-1113 10732,3944 257,2084 -523,2046 2447,2046l0 -7788c0,-690 -209,-898 -898,-898l-20668 0 0 2396z"/>
    <path class="fil1" d="M343555 506858c0,1976 554,1498 2995,1498 572,2456 572,18512 0,20967l-2995 300c0,1457 -203,2097 899,2097l21266 0 0 -9585 -2096 0c0,8217 -4697,7189 -11681,7189l0 -9585 1797 0c4900,0 2289,4193 4792,4193 690,0 899,-208 899,-899l0 -9585 -2097 0c0,4493 -2162,3894 -5391,3894l0 -8686c3793,0 7463,-604 9513,1270 1469,1343 1570,2872 1570,4720l2097 0 0 -8686 -20667 0c-690,0 -899,209 -899,898z"/>
    <path class="fil1" d="M445993 508356l2696 0c572,2456 572,18512 0,20967l-2696 300 0 2097 21865 0 0 -9585 -2096 0c0,2337 147,4250 -1868,5920 -2128,1765 -6538,1269 -9814,1269l0 -9585c1840,0 3956,-318 4920,1370 1235,2162 -846,2824 2568,2824l0 -10483 -2096 0c0,4279 -1742,3894 -5392,3894l0 -8686c3990,0 10415,-1051 11032,3944 246,1998 -476,2046 2147,2046l0 -8686 -21267 0 0 2396z"/>
    <path class="fil1" d="M394175 517941l0 1797c0,6838 5442,12280 12281,12280 4671,0 7141,-469 10783,-2396 0,-2246 -462,-6800 300,-8387 926,-926 2696,922 2696,-1797 0,-690 -208,-898 -898,-898l-10783 0 0 1498c0,1962 3594,-163 3594,2096 0,5077 1158,7488 -4793,7488 -4838,0 -7488,-5083 -7488,-8986 0,-3639 -238,-6305 1802,-9580 2557,-4107 10848,-5110 12875,3590l2097 0 0 -6589c0,-1796 -12459,-4818 -18732,1037 -1984,1852 -3732,5140 -3732,8848z"/>
    <path class="fil1" d="M129094 513448l2995 7788 -5991 0c561,-2408 2488,-5610 2995,-7788zm-11082 16174l-1198 0c0,2774 -953,2097 8686,2097 1102,0 899,-640 899,-2097 -2808,0 -4676,581 -1198,-5991l8087 0c1081,4639 4233,5991 -1498,5991 0,2939 -1098,2097 11981,2097l0 -2097c-3546,0 -3142,-518 -4920,-4964l-7360 -18998 -2096 0c-1866,3526 -8263,22236 -9599,23349 -393,328 -1048,613 -1783,613z"/>
    <path class="fil1" d="M379798 513748l599 0c101,1215 907,2617 1371,3720 427,1016 1240,2752 1325,3768l-5991 0c535,-2295 2564,-5907 2696,-7488zm-10783 15875l-1198 0 0 2097 8686 0c1102,0 898,-640 898,-2097l-2995 -300c0,-1628 1210,-4581 1797,-5691l8087 0c281,1209 757,2220 1210,3293 1291,3050 -48,2698 -2408,2698l0 2097 11082 0c1102,0 898,-640 898,-2097 -3835,0 -3313,-202 -5305,-5178l-6419 -16046c-815,-2059 -585,-2739 -2354,-2739 -1022,0 -1043,1099 -1711,2782l-3852 9627c-910,2276 -1680,4197 -2567,6419 -403,1007 -769,2083 -1269,3224 -483,1100 -1143,1911 -2582,1911z"/>
    <path class="fil1" d="M286345 513748l599 0c86,1031 2468,6491 2995,7488l-6290 0c408,-1753 2558,-5831 2696,-7488zm-10783 15875l-1198 0 0 2097 9285 0 0 -2097c-5058,0 -2182,-1767 -1198,-5991l8387 0c282,1209 757,2220 1211,3293 1291,3050 -48,2698 -2409,2698l0 2097 11083 0c1101,0 898,-640 898,-2097 -4024,0 -3543,-654 -5262,-4922 -784,-1946 -7211,-17754 -7318,-19041l-2096 0 -5049 12623c-854,2138 -1628,4067 -2482,6205 -403,1007 -768,2083 -1269,3224 -483,1100 -1143,1911 -2581,1911z"/>
    <path class="fil1" d="M262084 532019c2340,0 10483,-231 10483,-2396l0 -7189 -2097 0c-874,10502 -14677,9478 -14677,-2696 0,-15050 10281,-12216 12518,-9822 1299,1391 1669,2624 2159,4730l2097 0 0 -7488c-2578,-215 -20669,-7062 -22342,11209 -645,7048 4978,13652 11858,13652z"/>
    <path class="fil1" d="M364522 550889l-2696 0 0 -7189 3594 0c1731,0 3294,1725 3294,3295 0,2372 -1756,3894 -4193,3894zm-9285 -8387c0,2035 2995,-527 2995,2696l0 14078c0,2374 -2995,-119 -2995,2396 0,690 209,899 899,899l8686 0 0 -2097c-3098,0 -2396,1013 -2396,-7788 2207,0 1616,656 4252,4734 3974,6148 1639,5151 8927,5151l0 -2097c-3030,0 -2183,-131 -4490,-3597 -920,-1382 -1777,-2814 -2698,-4191 7028,-156 6523,-11082 -599,-11082l-11681 0c-690,0 -899,208 -899,898z"/>
    <path class="fil1" d="M422031 507457c0,1976 3295,-214 3295,2097l0 18570c0,1794 -2385,1498 -3295,1498l0 2097 21267 0 0 -9585 -1797 0c0,8142 -5000,7189 -11083,7189l0 -20068c0,-2207 4194,410 4194,-1797l0 -1498 -12580 0 0 1498z"/>
    <path class="fil1" d="M334569 543401c1111,0 2696,-269 2696,1198l0 14976c0,1165 -770,898 -2696,898 0,1457 -203,2097 898,2097l16174 0c1543,0 898,-2961 898,-7189 0,-690 -208,-898 -898,-898 -1922,0 521,5991 -5391,5991l-4793 0 0 -7488 1797 0c3511,0 1469,3295 3294,3295 690,0 899,-208 899,-899l0 -7787 -1797 0c0,3480 -1273,3295 -4193,3295l0 -7189c4359,0 8986,-942 8986,5092l1498 0 0 -7189 -17372 0 0 1797z"/>
    <path class="fil1" d="M197985 552087c0,-5565 1686,-8686 6590,-8686 4921,0 5691,4796 5691,8985 0,4848 -1396,8387 -6290,8387 -4499,0 -5991,-4120 -5991,-8686zm-4493 0c0,14164 20891,14402 21401,220 509,-14159 -21401,-15150 -21401,-220z"/>
    <path class="fil1" d="M216556 543401c3437,0 2696,-696 2696,6290 0,2543 -81,4759 287,6902 1484,8644 15234,7890 16159,-40 501,-4296 -1107,-13152 1226,-13152l1797 0c0,-2406 632,-1797 -8087,-1797l0 1797c3750,0 2995,-348 2995,10483 0,1757 -336,3539 -1131,4559 -1995,2557 -9052,2926 -9052,-3960l0 -9285c0,-2171 1197,-1797 2995,-1797l0 -1797 -9884 0 0 1797z"/>
    <path class="fil1" d="M377701 546096c0,3345 -241,5469 5124,7157 3472,1093 6258,1003 6258,4524 0,3361 -5681,4111 -7978,1089 -1012,-1331 -1185,-2575 -1607,-4384 -2276,0 -1797,-401 -1797,5991 0,1939 14976,5604 14976,-4193 0,-7618 -11681,-5382 -11681,-10184 0,-3852 7872,-4088 8387,2096l1797 0 0 -4493c0,-1945 -8255,-3596 -11308,-1124 -887,718 -2170,2059 -2170,3521z"/>
    <path class="fil1" d="M261185 543401c1111,0 2696,-269 2696,1198 0,3589 376,12976 -300,15875l-2396 0c0,2846 -1050,2097 10184,2097l0 -2097c-4203,0 -3295,1216 -3295,-7488 2342,0 4112,-369 4193,3295l1198 0c653,-1162 300,-6992 300,-8686l-1498 0c-302,3629 -1509,3295 -4193,3295l0 -7189c4194,0 8986,-917 8986,5092l1498 0 0 -7189 -17373 0 0 1797z"/>
    <path class="fil1" d="M236324 507457c0,1976 3295,-214 3295,2097l0 18570c0,1794 -2385,1498 -3295,1498l0 2097 11681 0 0 -2097c-1492,0 -3295,385 -3295,-2097l0 -17372c0,-2187 1170,-1797 3295,-1797l0 -2396 -11681 0 0 1498z"/>
    <path class="fil1" d="M292336 547894c0,690 209,898 899,898 2386,0 -1544,-5092 6589,-5092l0 15875c0,2115 -2696,-474 -2696,2096 0,690 208,899 898,899l8686 0 0 -2097c-1926,0 -2696,266 -2696,-898l0 -15875c8224,0 4139,5092 6590,5092l898 0 0 -7189 -19170 0 0 6290z"/>
    <path class="fil1" d="M313602 548792l1498 0c0,-4764 2913,-5092 5991,-5092 0,3669 376,13872 -300,16774l-2396 0c0,2802 -998,2097 9285,2097l0 -2097c-1696,0 -2396,235 -2396,-898l0 -15875c2013,0 2981,-209 4292,1100 1459,1457 1399,2270 1399,3992l1797 0 0 -7189 -19170 0 0 7189z"/>
    <path class="fil1" d="M240219 548792l1497 0c0,-4832 2866,-5092 5991,-5092l0 15576c0,1466 -1585,1198 -2696,1198 0,2802 -997,2097 9285,2097l0 -2097c-1522,0 -2696,338 -2696,-1797l0 -14976c3185,0 5991,272 5991,5092l1498 0 0 -7189 -18870 0 0 7189z"/>
    <path class="fil1" d="M280954 543401c1522,0 2696,-338 2696,1797 0,3519 370,12404 -300,15276l-2396 0c0,2774 -953,2097 8686,2097 1102,0 898,-640 898,-2097 -1926,0 -2696,266 -2696,-898l0 -14976c0,-1467 1585,-1198 2696,-1198l0 -1797 -9585 0 0 1797z"/>
   </g>
  </g>
 </g>
</svg>
