<?xml version="1.0" encoding="UTF-8" standalone="no"?>
<!DOCTYPE svg  PUBLIC '-//W3C//DTD SVG 1.1//EN'  'http://www.w3.org/Graphics/SVG/1.1/DTD/svg11.dtd'>
<!-- Creator: CorelDRAW X6 -->
<svg style="shape-rendering:geometricPrecision;text-rendering:geometricPrecision;image-rendering:optimizeQuality" xmlns="http://www.w3.org/2000/svg" fill-rule="evenodd" xml:space="preserve" height="5.3in" width="5.8in" version="1.1" clip-rule="evenodd" xmlns:xlink="http://www.w3.org/1999/xlink" viewBox="0 0 5800 5300">
 <defs>
  <style type="text/css">
   <![CDATA[
    .str0 {stroke:#00A0E3;stroke-width:3}
    .str2 {stroke:#2B2A29;stroke-width:6.94488}
    .str1 {stroke:#00A0E3;stroke-width:15.748}
    .fil0 {fill:none}
    .fil5 {fill:#008DD2}
    .fil7 {fill:#00A0E3}
    .fil4 {fill:#FEFEFE}
    .fil2 {fill:#FFED00}
    .fil8 {fill:#00BFFF}
    .fil6 {fill:#008DD2;fill-rule:nonzero}
    .fil1 {fill:#00A0E3;fill-rule:nonzero}
    .fil3 {fill:#2B2A29;fill-rule:nonzero}
   ]]>
  </style>
     <clipPath id="id0">
      <path d="m5434 1857c-3 4-7 9-9 16-8 25 4 31 1 41-2 5-13 20-10 25 2 3 5 2 8 4 1 3 0 6 0 9 0 4 1 4 4 6 0 3-2 3 0 6 1 2 2 3 3 5 2 4-2 10 1 14 4 7 19 4 27 3 17-1 16-1 22 12 60-20 71-15 71-39 2-4 6-7 6-11v-77c0-12-25-29-37-34-30-11-68-7-88 20z"/>
     </clipPath>
 </defs>
 <g id="Layer_x0020_1">
  <rect width="5800" class="fil0" height="5300"/>
  <g id="_1347296592">
   <path class="fil0 str0" d="m3133 1233h2362c59 0 107 44 107 98v485c0 54-48-70-107-70h-2362c-59 0-107-44-107-98v-318c0-54 48-98 107-98z"/>
   <path class="fil1" d="m3100 1470l31-80h12l32 80h-12l-9-24h-34l-9 24h-11zm23-33h27l-8-22c-3-7-4-12-6-17-1 5-3 10-4 15l-9 23z"/>
   <polygon id="1" points="3181 1470 3181 1391 3191 1391 3191 1470" class="fil1"/>
   <path id="2" d="m3245 1451l10 1c-2 6-5 10-9 14-4 3-10 5-16 5-8 0-15-3-20-8s-7-12-7-22 2-17 7-23c5-5 11-8 19-8s14 3 19 8 7 13 7 22v3h-43c0 6 2 11 5 15 3 3 7 5 12 5 4 0 7-1 9-3 3-2 5-5 6-9zm-32-16h32c0-5-2-8-4-11-3-4-7-6-12-6-4 0-8 2-11 5s-5 7-5 12z" class="fil1"/>
   <path id="3" d="m3261 1470l21-30-20-28h12l9 14c2 3 3 5 4 6 2-2 3-4 4-6l10-14h12l-20 28 21 30h-12l-12-18-3-4-15 22h-12z" class="fil1"/>
   <path id="4" d="m3361 1463c-4 3-7 5-10 7-3 1-7 2-11 2-6 0-11-2-15-5-3-3-5-7-5-12 0-3 1-5 2-8 1-2 3-4 5-6 2-1 4-2 7-3 2-1 5-1 9-1 8-1 14-2 17-3v-3c0-4-1-7-3-8-3-2-6-3-11-3s-8 1-10 2c-2 2-4 4-5 9l-10-1c1-4 2-7 4-10s5-4 9-6c4-1 8-2 13-2s9 1 12 2 5 3 7 4c1 2 2 4 3 7v9 13c0 9 0 15 1 17 0 2 1 5 2 7h-10c-1-2-2-4-2-7zm-1-22c-4 1-9 3-16 4-4 1-7 1-9 2s-3 2-4 3-1 3-1 5c0 3 1 5 3 6 2 2 5 3 9 3s7-1 10-2c3-2 5-4 6-7 1-2 2-5 2-10v-4z" class="fil1"/>
   <path id="5" d="m3388 1470v-11h11v11c0 4-1 7-2 10s-4 4-7 6l-3-4c2-1 4-2 5-4s2-4 2-8h-6z" class="fil1"/>
   <path id="6" d="m3485 1463c-4 3-7 5-10 7-3 1-7 2-11 2-6 0-11-2-15-5-3-3-5-7-5-12 0-3 1-5 2-8 1-2 3-4 5-6 2-1 4-2 7-3 2-1 5-1 9-1 8-1 14-2 17-3v-3c0-4-1-7-3-8-3-2-6-3-11-3s-8 1-10 2c-2 2-4 4-5 9l-10-1c1-4 2-7 4-10s5-4 9-6c4-1 8-2 13-2s9 1 12 2 5 3 7 4c1 2 2 4 3 7v9 13c0 9 0 15 1 17 0 2 1 5 2 7h-10c-1-2-2-4-2-7zm-1-22c-4 1-9 3-16 4-4 1-7 1-9 2s-3 2-4 3-1 3-1 5c0 3 1 5 3 6 2 2 5 3 9 3s7-1 10-2c3-2 5-4 6-7 1-2 2-5 2-10v-4z" class="fil1"/>
   <path id="7" d="m3505 1453l10-2c1 4 2 7 5 9 2 2 6 3 10 3 5 0 8-1 10-3s3-4 3-6-1-4-3-5c-1-1-5-2-10-3-7-2-12-3-15-5-3-1-5-3-6-5s-2-5-2-8 1-5 2-7 3-4 5-5l6-3c3-1 5-1 8-1 5 0 8 1 12 2 3 1 6 3 8 5s3 5 3 9l-10 1c0-3-2-5-4-7s-5-3-9-3-8 1-10 2-3 3-3 5c0 1 0 2 1 3s2 2 4 3c1 0 4 1 9 3 7 2 12 3 14 5 3 1 5 3 6 5 2 2 2 5 2 8s-1 6-3 9-5 5-8 7c-4 2-8 2-12 2-7 0-13-2-17-5s-6-8-8-14z" class="fil1"/>
   <polygon id="8" points="3564 1470 3564 1391 3574 1391 3574 1436 3597 1412 3610 1412 3588 1434 3612 1470 3600 1470 3581 1441 3574 1447 3574 1470" class="fil1"/>
   <path id="9" d="m3666 1470l-21-80h11l12 52c1 5 2 11 3 16 2-8 3-13 4-15l15-54h13l11 40c3 10 5 19 6 28 1-5 2-11 4-17l12-51h11l-22 80h-10l-17-61c-1-5-2-8-3-9-1 4-2 7-2 9l-17 61h-11z" class="fil1"/>
   <path id="10" d="m3756 1470v-80h10v29c5-5 10-8 17-8 4 0 8 1 11 3s5 4 7 7c1 3 2 7 2 13v37h-10v-36c0-5-1-8-3-11-2-2-5-3-9-3-3 0-6 1-8 2-3 2-4 4-5 6-1 3-2 6-2 11v31h-10z" class="fil1"/>
   <path id="11" d="m3817 1402v-11h10v11h-10zm0 68v-58h10v58h-10z" class="fil1"/>
   <path id="12" d="m3842 1470v-58h9v9c2-4 4-7 6-8s4-2 6-2c3 0 7 1 10 3l-3 9c-2-1-5-2-7-2s-4 1-6 2-3 3-4 5c-1 3-2 7-2 11v30h-10z" class="fil1"/>
   <polygon id="13" points="3879 1470 3879 1391 3889 1391 3889 1470" class="fil1"/>
   <path id="14" d="m3913 1470h-9v-80h10v28c4-5 9-8 16-8 4 0 7 1 10 2s6 3 8 6 4 6 5 9c1 4 2 8 2 12 0 10-2 17-7 23-5 5-11 8-18 8s-12-3-16-8v7zm0-29c0 7 1 12 3 15 3 5 7 8 12 8 4 0 8-2 11-6s5-9 5-17-1-13-4-17-7-5-11-5-8 2-11 6-5 9-5 16z" class="fil1"/>
   <path id="15" d="m3962 1441c0-11 3-19 9-24 5-4 11-6 18-6 8 0 14 3 19 8s8 12 8 21c0 7-1 13-3 17s-5 8-10 10c-4 2-9 4-14 4-8 0-15-3-20-8s-7-13-7-22zm10 0c0 7 2 13 5 17s7 6 12 6 9-2 12-6 5-9 5-17c0-7-2-13-5-16-3-4-7-6-12-6s-9 2-12 5c-3 4-5 9-5 17z" class="fil1"/>
   <path id="16" d="m4049 1461l1 9c-3 1-5 1-7 1-4 0-6-1-8-2s-3-3-4-4c-1-2-1-6-1-12v-33h-7v-8h7v-14l10-6v20h10v8h-10v34c0 3 0 5 1 5 0 1 1 1 2 2 1 0 2 1 3 1h4z" class="fil1"/>
   <path id="17" d="m4091 1470v-50h-9v-8h9v-6c0-4 0-7 1-9 1-3 3-5 5-6 2-2 6-2 10-2 3 0 6 0 9 1l-1 9c-2 0-4-1-6-1-3 0-5 1-6 2s-2 4-2 7v5h11v8h-11v50h-10z" class="fil1"/>
   <path id="18" d="m4116 1441c0-11 3-19 9-24 5-4 11-6 18-6 8 0 14 3 19 8s8 12 8 21c0 7-1 13-3 17s-5 8-10 10c-4 2-9 4-14 4-8 0-15-3-20-8s-7-13-7-22zm10 0c0 7 2 13 5 17s7 6 12 6 9-2 12-6 5-9 5-17c0-7-2-13-5-16-3-4-7-6-12-6s-9 2-12 5c-3 4-5 9-5 17z" class="fil1"/>
   <path id="19" d="m4182 1470v-58h9v9c2-4 4-7 6-8s4-2 6-2c3 0 7 1 10 3l-3 9c-2-1-5-2-7-2s-4 1-6 2-3 3-4 5c-1 3-2 7-2 11v30h-10z" class="fil1"/>
   <path id="20" d="m3107 1594v-58h9v8c2-3 4-5 7-7s6-3 10-3 8 1 10 3c3 2 5 4 6 7 5-7 11-10 18-10 6 0 10 2 13 5s5 8 5 15v40h-10v-36c0-4 0-7-1-8-1-2-2-3-3-4-2-1-4-2-6-2-4 0-7 1-10 4s-4 7-4 13v33h-10v-37c0-4-1-8-2-10-2-2-4-3-8-3-3 0-5 1-8 2-2 1-4 4-5 6-1 3-2 7-2 12v30h-10z" class="fil1"/>
   <path id="21" d="m3199 1616l-1-9c2 1 4 1 6 1s4 0 5-1l3-3c1-1 2-3 3-7 0-1 0-1 1-2l-22-58h10l12 33c2 4 3 9 4 13 1-4 2-9 4-13l12-34h10l-22 59c-2 6-4 11-6 13-2 3-4 6-6 7-2 2-5 2-8 2-2 0-4 0-6-1z" class="fil1"/>
   <path id="22" d="m3283 1565c0-11 3-19 9-24 5-4 11-6 18-6 8 0 14 3 19 8s8 12 8 21c0 7-1 13-3 17s-5 8-10 10c-4 2-9 4-14 4-8 0-15-3-20-8s-7-13-7-22zm10 0c0 7 2 13 5 17s7 6 12 6 9-2 12-6 5-9 5-17c0-7-2-13-5-16-3-4-7-6-12-6s-9 2-12 5c-3 4-5 9-5 17z" class="fil1"/>
   <path id="23" d="m3348 1594v-58h9v9c2-4 4-7 6-8s4-2 6-2c3 0 7 1 10 3l-3 9c-2-1-5-2-7-2s-4 1-6 2-3 3-4 5c-1 3-2 7-2 11v30h-10z" class="fil1"/>
   <path id="24" d="m3422 1594v-7c-4 6-9 9-16 9-5 0-9-1-13-4s-7-6-9-11-3-10-3-16 1-11 3-16 5-8 9-11 8-4 13-4c3 0 7 1 9 2 3 1 5 3 7 6v-29h10v80h-9zm-31-29c0 7 2 13 5 17s7 5 11 5 8-2 11-5 4-9 4-16c0-8-2-14-5-17-3-4-7-6-11-6s-8 2-11 5c-3 4-4 9-4 17z" class="fil1"/>
   <path id="25" d="m3486 1576l10 1c-2 6-5 10-9 14-4 3-10 5-16 5-8 0-15-3-20-8s-7-12-7-22 2-17 7-23c5-5 11-8 19-8s14 3 19 8 7 13 7 22v3h-43c0 6 2 11 5 15 3 3 7 5 12 5 4 0 7-1 9-3 3-2 5-5 6-9zm-32-16h32c0-5-2-8-4-11-3-4-7-6-12-6-4 0-8 2-11 5s-5 7-5 12z" class="fil1"/>
   <path id="26" d="m3509 1594v-58h9v9c2-4 4-7 6-8s4-2 6-2c3 0 7 1 10 3l-3 9c-2-1-5-2-7-2s-4 1-6 2-3 3-4 5c-1 3-2 7-2 11v30h-10z" class="fil1"/>
   <path id="27" d="m3573 1577l10-2c1 4 2 7 5 9 2 2 6 3 10 3 5 0 8-1 10-3s3-4 3-6-1-4-3-5c-1-1-5-2-10-3-7-2-12-3-15-5-3-1-5-3-6-5s-2-5-2-8 1-5 2-7 3-4 5-5l6-3c3-1 5-1 8-1 5 0 8 1 12 2 3 1 6 3 8 5s3 5 3 9l-10 1c0-3-2-5-4-7s-5-3-9-3-8 1-10 2-3 3-3 5c0 1 0 2 1 3s2 2 4 3c1 0 4 1 9 3 7 2 12 3 14 5 3 1 5 3 6 5 2 2 2 5 2 8s-1 6-3 9-5 5-8 7c-4 2-8 2-12 2-7 0-13-2-17-5s-6-8-8-14z" class="fil1"/>
   <path id="28" d="m3653 1586l1 9c-3 1-5 1-7 1-4 0-6-1-8-2s-3-3-4-4c-1-2-1-6-1-12v-33h-7v-8h7v-14l10-6v20h10v8h-10v34c0 3 0 5 1 5 0 1 1 1 2 2 1 0 2 1 3 1h4z" class="fil1"/>
   <path id="29" d="m3701 1587c-4 3-7 5-10 7-3 1-7 2-11 2-6 0-11-2-15-5-3-3-5-7-5-12 0-3 1-5 2-8 1-2 3-4 5-6 2-1 4-2 7-3 2-1 5-1 9-1 8-1 14-2 17-3v-3c0-4-1-7-3-8-3-2-6-3-11-3s-8 1-10 2c-2 2-4 4-5 9l-10-1c1-4 2-7 4-10s5-4 9-6c4-1 8-2 13-2s9 1 12 2 5 3 7 4c1 2 2 4 3 7v9 13c0 9 0 15 1 17 0 2 1 5 2 7h-10c-1-2-2-4-2-7zm-1-22c-4 1-9 3-16 4-4 1-7 1-9 2s-3 2-4 3-1 3-1 5c0 3 1 5 3 6 2 2 5 3 9 3s7-1 10-2c3-2 5-4 6-7 1-2 2-5 2-10v-4z" class="fil1"/>
   <path id="30" d="m3746 1586l1 9c-3 1-5 1-7 1-4 0-6-1-8-2s-3-3-4-4c-1-2-1-6-1-12v-33h-7v-8h7v-14l10-6v20h10v8h-10v34c0 3 0 5 1 5 0 1 1 1 2 2 1 0 2 1 3 1h4z" class="fil1"/>
   <path id="31" d="m3793 1594v-9c-4 7-11 10-18 10-3 0-7-1-10-2s-5-3-7-5c-1-2-2-4-3-7 0-2-1-5-1-9v-36h10v32c0 5 0 9 1 10 1 3 2 5 4 6s4 2 7 2 6-1 8-2c3-2 4-4 5-6 1-3 2-6 2-11v-31h10v58h-9z" class="fil1"/>
   <path id="32" d="m3814 1577l10-2c1 4 2 7 5 9 2 2 6 3 10 3 5 0 8-1 10-3s3-4 3-6-1-4-3-5c-1-1-5-2-10-3-7-2-12-3-15-5-3-1-5-3-6-5s-2-5-2-8 1-5 2-7 3-4 5-5l6-3c3-1 5-1 8-1 5 0 8 1 12 2 3 1 6 3 8 5s3 5 3 9l-10 1c0-3-2-5-4-7s-5-3-9-3-8 1-10 2-3 3-3 5c0 1 0 2 1 3s2 2 4 3c1 0 4 1 9 3 7 2 12 3 14 5 3 1 5 3 6 5 2 2 2 5 2 8s-1 6-3 9-5 5-8 7c-4 2-8 2-12 2-7 0-13-2-17-5s-6-8-8-14z" class="fil1"/>
   <path class="fil2" d="m5495 2131h-2362c-59 0-107 44-107 98v978c0 54 48-70 107-70h2362c59 0 107-44 107-98v-811c0-54-48-98-107-98z"/>
   <path class="fil3" d="m3130 2351v-34l-31-46h13l16 24c3 4 6 9 8 13 2-4 5-9 9-14l15-23h12l-32 46v34h-11z"/>
   <path id="1" d="m3167 2323c0-11 3-19 9-24 5-4 11-6 18-6 8 0 14 3 19 8s8 12 8 21c0 7-1 13-3 17s-5 8-10 10c-4 2-9 4-14 4-8 0-15-3-20-8s-7-13-7-22zm10 0c0 7 2 13 5 17s7 6 12 6 9-2 12-6 5-9 5-17c0-7-2-13-5-16-3-4-7-6-12-6s-9 2-12 5c-3 4-5 9-5 17z" class="fil3"/>
   <path id="2" d="m3270 2351v-9c-4 7-11 10-18 10-3 0-7-1-10-2s-5-3-7-5c-1-2-2-4-3-7 0-2-1-5-1-9v-36h10v32c0 5 0 9 1 10 1 3 2 5 4 6s4 2 7 2 6-1 8-2c3-2 4-4 5-6 1-3 2-6 2-11v-31h10v58h-9z" class="fil3"/>
   <path id="3" d="m3294 2351v-58h9v9c2-4 4-7 6-8s4-2 6-2c3 0 7 1 10 3l-3 9c-2-1-5-2-7-2s-4 1-6 2-3 3-4 5c-1 3-2 7-2 11v30h-10z" class="fil3"/>
   <polygon id="4" points="3362 2351 3362 2272 3372 2272 3372 2351" class="fil3"/>
   <path id="5" d="m3424 2344c-4 3-7 5-10 7-3 1-7 2-11 2-6 0-11-2-15-5-3-3-5-7-5-12 0-3 1-5 2-8 1-2 3-4 5-6 2-1 4-2 7-3 2-1 5-1 9-1 8-1 14-2 17-3v-3c0-4-1-7-3-8-3-2-6-3-11-3s-8 1-10 2c-2 2-4 4-5 9l-10-1c1-4 2-7 4-10s5-4 9-6c4-1 8-2 13-2s9 1 12 2 5 3 7 4c1 2 2 4 3 7v9 13c0 9 0 15 1 17 0 2 1 5 2 7h-10c-1-2-2-4-2-7zm-1-22c-4 1-9 3-16 4-4 1-7 1-9 2s-3 2-4 3-1 3-1 5c0 3 1 5 3 6 2 2 5 3 9 3s7-1 10-2c3-2 5-4 6-7 1-2 2-5 2-10v-4z" class="fil3"/>
   <path id="6" d="m3470 2343l1 9c-3 1-5 1-7 1-4 0-6-1-8-2s-3-3-4-4c-1-2-1-6-1-12v-33h-7v-8h7v-14l10-6v20h10v8h-10v34c0 3 0 5 1 5 0 1 1 1 2 2 1 0 2 1 3 1h4z" class="fil3"/>
   <path id="7" d="m3519 2333l10 1c-2 6-5 10-9 14-4 3-10 5-16 5-8 0-15-3-20-8s-7-12-7-22 2-17 7-23c5-5 11-8 19-8s14 3 19 8 7 13 7 22v3h-43c0 6 2 11 5 15 3 3 7 5 12 5 4 0 7-1 9-3 3-2 5-5 6-9zm-32-16h32c0-5-2-8-4-11-3-4-7-6-12-6-4 0-8 2-11 5s-5 7-5 12z" class="fil3"/>
   <path id="8" d="m3537 2334l10-2c1 4 2 7 5 9 2 2 6 3 10 3 5 0 8-1 10-3s3-4 3-6-1-4-3-5c-1-1-5-2-10-3-7-2-12-3-15-5-3-1-5-3-6-5s-2-5-2-8 1-5 2-7 3-4 5-5l6-3c3-1 5-1 8-1 5 0 8 1 12 2 3 1 6 3 8 5s3 5 3 9l-10 1c0-3-2-5-4-7s-5-3-9-3-8 1-10 2-3 3-3 5c0 1 0 2 1 3s2 2 4 3c1 0 4 1 9 3 7 2 12 3 14 5 3 1 5 3 6 5 2 2 2 5 2 8s-1 6-3 9-5 5-8 7c-4 2-8 2-12 2-7 0-13-2-17-5s-6-8-8-14z" class="fil3"/>
   <path id="9" d="m3618 2343l1 9c-3 1-5 1-7 1-4 0-6-1-8-2s-3-3-4-4c-1-2-1-6-1-12v-33h-7v-8h7v-14l10-6v20h10v8h-10v34c0 3 0 5 1 5 0 1 1 1 2 2 1 0 2 1 3 1h4z" class="fil3"/>
   <path id="10" d="m3655 2323c0-11 3-19 9-24 5-4 11-6 18-6 8 0 14 3 19 8s8 12 8 21c0 7-1 13-3 17s-5 8-10 10c-4 2-9 4-14 4-8 0-15-3-20-8s-7-13-7-22zm10 0c0 7 2 13 5 17s7 6 12 6 9-2 12-6 5-9 5-17c0-7-2-13-5-16-3-4-7-6-12-6s-9 2-12 5c-3 4-5 9-5 17z" class="fil3"/>
   <path id="11" d="m3720 2351v-58h9v9c2-4 4-7 6-8s4-2 6-2c3 0 7 1 10 3l-3 9c-2-1-5-2-7-2s-4 1-6 2-3 3-4 5c-1 3-2 7-2 11v30h-10z" class="fil3"/>
   <path id="12" d="m3795 2351v-7c-4 6-9 9-16 9-5 0-9-1-13-4s-7-6-9-11-3-10-3-16 1-11 3-16 5-8 9-11 8-4 13-4c3 0 7 1 9 2 3 1 5 3 7 6v-29h10v80h-9zm-31-29c0 7 2 13 5 17s7 5 11 5 8-2 11-5 4-9 4-16c0-8-2-14-5-17-3-4-7-6-11-6s-8 2-11 5c-3 4-4 9-4 17z" class="fil3"/>
   <path id="13" d="m3858 2333l10 1c-2 6-5 10-9 14-4 3-10 5-16 5-8 0-15-3-20-8s-7-12-7-22 2-17 7-23c5-5 11-8 19-8s14 3 19 8 7 13 7 22v3h-43c0 6 2 11 5 15 3 3 7 5 12 5 4 0 7-1 9-3 3-2 5-5 6-9zm-32-16h32c0-5-2-8-4-11-3-4-7-6-12-6-4 0-8 2-11 5s-5 7-5 12z" class="fil3"/>
   <path id="14" d="m3881 2351v-58h9v9c2-4 4-7 6-8s4-2 6-2c3 0 7 1 10 3l-3 9c-2-1-5-2-7-2s-4 1-6 2-3 3-4 5c-1 3-2 7-2 11v30h-10z" class="fil3"/>
   <path id="15" d="m3986 2344c-4 3-7 5-10 7-3 1-7 2-11 2-6 0-11-2-15-5-3-3-5-7-5-12 0-3 1-5 2-8 1-2 3-4 5-6 2-1 4-2 7-3 2-1 5-1 9-1 8-1 14-2 17-3v-3c0-4-1-7-3-8-3-2-6-3-11-3s-8 1-10 2c-2 2-4 4-5 9l-10-1c1-4 2-7 4-10s5-4 9-6c4-1 8-2 13-2s9 1 12 2 5 3 7 4c1 2 2 4 3 7v9 13c0 9 0 15 1 17 0 2 1 5 2 7h-10c-1-2-2-4-2-7zm-1-22c-4 1-9 3-16 4-4 1-7 1-9 2s-3 2-4 3-1 3-1 5c0 3 1 5 3 6 2 2 5 3 9 3s7-1 10-2c3-2 5-4 6-7 1-2 2-5 2-10v-4z" class="fil3"/>
   <path id="16" d="m4032 2343l1 9c-3 1-5 1-7 1-4 0-6-1-8-2s-3-3-4-4c-1-2-1-6-1-12v-33h-7v-8h7v-14l10-6v20h10v8h-10v34c0 3 0 5 1 5 0 1 1 1 2 2 1 0 2 1 3 1h4z" class="fil3"/>
   <path id="17" d="m4087 2351l-21-80h11l12 52c1 5 2 11 3 16 2-8 3-13 4-15l15-54h13l11 40c3 10 5 19 6 28 1-5 2-11 4-17l12-51h11l-22 80h-10l-17-61c-1-5-2-8-3-9-1 4-2 7-2 9l-17 61h-11z" class="fil3"/>
   <path id="18" d="m4177 2351v-80h10v29c5-5 10-8 17-8 4 0 8 1 11 3s5 4 7 7c1 3 2 7 2 13v37h-10v-36c0-5-1-8-3-11-2-2-5-3-9-3-3 0-6 1-8 2-3 2-4 4-5 6-1 3-2 6-2 11v31h-10z" class="fil3"/>
   <path id="19" d="m4239 2283v-11h10v11h-10zm0 68v-58h10v58h-10z" class="fil3"/>
   <path id="20" d="m4264 2351v-58h9v9c2-4 4-7 6-8s4-2 6-2c3 0 7 1 10 3l-3 9c-2-1-5-2-7-2s-4 1-6 2-3 3-4 5c-1 3-2 7-2 11v30h-10z" class="fil3"/>
   <polygon id="21" points="4300 2351 4300 2272 4310 2272 4310 2351" class="fil3"/>
   <path id="22" d="m4363 2351v-7c-4 6-9 9-16 9-5 0-9-1-13-4s-7-6-9-11-3-10-3-16 1-11 3-16 5-8 9-11 8-4 13-4c3 0 7 1 9 2 3 1 5 3 7 6v-29h10v80h-9zm-31-29c0 7 2 13 5 17s7 5 11 5 8-2 11-5 4-9 4-16c0-8-2-14-5-17-3-4-7-6-11-6s-8 2-11 5c-3 4-4 9-4 17z" class="fil3"/>
   <path id="23" d="m4425 2344c-4 3-7 5-10 7-3 1-7 2-11 2-6 0-11-2-15-5-3-3-5-7-5-12 0-3 1-5 2-8 1-2 3-4 5-6 2-1 4-2 7-3 2-1 5-1 9-1 8-1 14-2 17-3v-3c0-4-1-7-3-8-3-2-6-3-11-3s-8 1-10 2c-2 2-4 4-5 9l-10-1c1-4 2-7 4-10s5-4 9-6c4-1 8-2 13-2s9 1 12 2 5 3 7 4c1 2 2 4 3 7v9 13c0 9 0 15 1 17 0 2 1 5 2 7h-10c-1-2-2-4-2-7zm-1-22c-4 1-9 3-16 4-4 1-7 1-9 2s-3 2-4 3-1 3-1 5c0 3 1 5 3 6 2 2 5 3 9 3s7-1 10-2c3-2 5-4 6-7 1-2 2-5 2-10v-4z" class="fil3"/>
   <path id="24" d="m4470 2343l1 9c-3 1-5 1-7 1-4 0-6-1-8-2s-3-3-4-4c-1-2-1-6-1-12v-33h-7v-8h7v-14l10-6v20h10v8h-10v34c0 3 0 5 1 5 0 1 1 1 2 2 1 0 2 1 3 1h4z" class="fil3"/>
   <path id="25" d="m4518 2344c-4 3-7 5-10 7-3 1-7 2-11 2-6 0-11-2-15-5-3-3-5-7-5-12 0-3 1-5 2-8 1-2 3-4 5-6 2-1 4-2 7-3 2-1 5-1 9-1 8-1 14-2 17-3v-3c0-4-1-7-3-8-3-2-6-3-11-3s-8 1-10 2c-2 2-4 4-5 9l-10-1c1-4 2-7 4-10s5-4 9-6c4-1 8-2 13-2s9 1 12 2 5 3 7 4c1 2 2 4 3 7v9 13c0 9 0 15 1 17 0 2 1 5 2 7h-10c-1-2-2-4-2-7zm-1-22c-4 1-9 3-16 4-4 1-7 1-9 2s-3 2-4 3-1 3-1 5c0 3 1 5 3 6 2 2 5 3 9 3s7-1 10-2c3-2 5-4 6-7 1-2 2-5 2-10v-4z" class="fil3"/>
   <path id="26" d="m4573 2283v-11h10v11h-10zm0 68v-58h10v58h-10z" class="fil3"/>
   <path id="27" d="m4593 2334l10-2c1 4 2 7 5 9 2 2 6 3 10 3 5 0 8-1 10-3s3-4 3-6-1-4-3-5c-1-1-5-2-10-3-7-2-12-3-15-5-3-1-5-3-6-5s-2-5-2-8 1-5 2-7 3-4 5-5l6-3c3-1 5-1 8-1 5 0 8 1 12 2 3 1 6 3 8 5s3 5 3 9l-10 1c0-3-2-5-4-7s-5-3-9-3-8 1-10 2-3 3-3 5c0 1 0 2 1 3s2 2 4 3c1 0 4 1 9 3 7 2 12 3 14 5 3 1 5 3 6 5 2 2 2 5 2 8s-1 6-3 9-5 5-8 7c-4 2-8 2-12 2-7 0-13-2-17-5s-6-8-8-14z" class="fil3"/>
   <path id="28" d="m4699 2351l-21-80h11l12 52c1 5 2 11 3 16 2-8 3-13 4-15l15-54h13l11 40c3 10 5 19 6 28 1-5 2-11 4-17l12-51h11l-22 80h-10l-17-61c-1-5-2-8-3-9-1 4-2 7-2 9l-17 61h-11z" class="fil3"/>
   <path id="29" d="m4801 2308c-4-1-7-4-9-6-2-3-3-6-3-10 0-6 2-11 6-15s10-6 17-6 13 2 17 6 6 9 6 15c0 4-1 7-3 10s-5 5-9 6c5 2 9 4 11 8 3 4 4 8 4 13 0 7-2 13-7 17-5 5-11 7-19 7s-14-2-19-7-7-10-7-17c0-5 1-10 4-13 3-4 6-6 11-7zm-2-17c0 4 1 7 4 9 2 2 6 4 9 4 4 0 7-1 9-4 2-2 4-5 4-9s-1-7-4-9c-2-2-6-4-9-4-4 0-7 1-9 4-2 2-4 5-4 9zm-3 37c0 3 1 5 2 8s3 5 6 6 5 2 8 2c5 0 9-2 12-5s5-7 5-11c0-5-2-9-5-12s-7-5-12-5-8 2-11 5-5 7-5 11z" class="fil3"/>
   <path id="30" d="m4848 2330l10-1c1 6 3 10 6 12s6 4 10 4c5 0 9-2 12-5s5-7 5-12c0-4-1-8-4-11s-7-4-11-4c-2 0-4 0-7 1l1-9h2c4 0 8-1 11-3s5-6 5-10-1-7-4-9c-2-2-6-4-9-4-4 0-7 1-10 4-3 2-4 6-5 11l-10-2c1-7 4-12 8-15 4-4 10-5 16-5 4 0 8 1 12 3s6 4 8 8c2 3 3 7 3 10s-1 7-3 9c-2 3-5 5-8 7 5 1 8 3 11 7 3 3 4 8 4 13 0 7-3 13-8 18s-11 7-19 7c-7 0-13-2-17-6-5-4-7-10-8-16z" class="fil3"/>
   <polygon id="31" points="4914 2351 4914 2272 4924 2272 4924 2305 4965 2305 4965 2272 4976 2272 4976 2351 4965 2351 4965 2314 4924 2314 4924 2351" class="fil3"/>
   <path id="32" d="m5041 2342v9h-53c0-2 0-5 1-7 1-4 4-7 7-11 3-3 7-7 13-12 9-7 14-13 18-17 3-4 5-8 5-12s-1-7-4-10-6-4-11-4-9 1-11 4c-3 3-4 7-4 12l-10-1c1-7 3-13 8-17s11-6 18-6c8 0 14 2 18 6s7 10 7 16c0 3-1 6-2 9s-3 6-6 10c-3 3-8 8-15 14-6 5-10 8-11 10-2 2-3 4-4 5h39z" class="fil3"/>
   <path id="33" d="m5102 2291l-10 1c-1-4-2-7-4-8-3-3-6-4-10-4-3 0-6 1-8 3-3 2-5 6-7 10s-3 10-3 18c2-4 5-6 9-8 3-2 7-3 11-3 7 0 12 2 17 7s7 11 7 19c0 5-1 10-3 14s-5 8-9 10-8 3-13 3c-8 0-15-3-20-9s-8-16-8-30c0-15 3-27 9-34 5-6 12-9 20-9 6 0 11 2 15 5 4 4 6 8 7 15zm-40 34c0 3 1 7 2 10s3 5 6 7 5 2 8 2c4 0 8-2 11-5s4-8 4-14-1-10-4-13-7-5-11-5-8 2-11 5-5 7-5 12z" class="fil3"/>
   <path id="34" d="m5109 2351l31-41-27-38h13l15 20c3 4 5 7 6 10l6-9 16-21h12l-28 38 30 42h-13l-20-28c-1-2-2-3-3-5-2 3-3 5-4 6l-20 28h-13z" class="fil3"/>
   <path id="35" d="m3144 2489c-4 3-7 5-10 7-3 1-7 2-11 2-6 0-11-2-15-5-3-3-5-7-5-12 0-3 1-5 2-8 1-2 3-4 5-6 2-1 4-2 7-3 2-1 5-1 9-1 8-1 14-2 17-3v-3c0-4-1-7-3-8-3-2-6-3-11-3s-8 1-10 2c-2 2-4 4-5 9l-10-1c1-4 2-7 4-10s5-4 9-6c4-1 8-2 13-2s9 1 12 2 5 3 7 4c1 2 2 4 3 7v9 13c0 9 0 15 1 17 0 2 1 5 2 7h-10c-1-2-2-4-2-7zm-1-22c-4 1-9 3-16 4-4 1-7 1-9 2s-3 2-4 3-1 3-1 5c0 3 1 5 3 6 2 2 5 3 9 3s7-1 10-2c3-2 5-4 6-7 1-2 2-5 2-10v-4z" class="fil3"/>
   <path id="36" d="m3169 2496v-58h9v8c4-6 10-9 18-9 3 0 7 1 10 2s5 3 7 5c1 2 2 4 3 7 0 2 1 5 1 10v35h-10v-35c0-4 0-7-1-9s-2-4-4-5-4-2-7-2c-4 0-8 1-11 4s-5 8-5 15v31h-10z" class="fil3"/>
   <path id="37" d="m3268 2496v-7c-4 6-9 9-16 9-5 0-9-1-13-4s-7-6-9-11-3-10-3-16 1-11 3-16 5-8 9-11 8-4 13-4c3 0 7 1 9 2 3 1 5 3 7 6v-29h10v80h-9zm-31-29c0 7 2 13 5 17s7 5 11 5 8-2 11-5 4-9 4-16c0-8-2-14-5-17-3-4-7-6-11-6s-8 2-11 5c-3 4-4 9-4 17z" class="fil3"/>
   <path id="38" d="m3344 2487l1 9c-3 1-5 1-7 1-4 0-6-1-8-2s-3-3-4-4c-1-2-1-6-1-12v-33h-7v-8h7v-14l10-6v20h10v8h-10v34c0 3 0 5 1 5 0 1 1 1 2 2 1 0 2 1 3 1h4z" class="fil3"/>
   <path id="39" d="m3354 2496v-80h10v29c5-5 10-8 17-8 4 0 8 1 11 3s5 4 7 7c1 3 2 7 2 13v37h-10v-36c0-5-1-8-3-11-2-2-5-3-9-3-3 0-6 1-8 2-3 2-4 4-5 6-1 3-2 6-2 11v31h-10z" class="fil3"/>
   <path id="40" d="m3455 2478l10 1c-2 6-5 10-9 14-4 3-10 5-16 5-8 0-15-3-20-8s-7-12-7-22 2-17 7-23c5-5 11-8 19-8s14 3 19 8 7 13 7 22v3h-43c0 6 2 11 5 15 3 3 7 5 12 5 4 0 7-1 9-3 3-2 5-5 6-9zm-32-16h32c0-5-2-8-4-11-3-4-7-6-12-6-4 0-8 2-11 5s-5 7-5 12z" class="fil3"/>
   <path id="41" d="m3546 2475l10 1c-1 7-4 12-8 15-4 4-10 6-16 6-8 0-14-3-19-8s-7-13-7-22c0-6 1-12 3-16 2-5 5-8 9-10s9-4 14-4c6 0 11 2 15 5s7 8 8 13l-9 1c-1-4-3-7-5-9s-5-3-8-3c-5 0-9 2-12 5-3 4-5 9-5 17s1 13 4 17 7 5 12 5c4 0 7-1 10-4 3-2 4-6 5-11z" class="fil3"/>
   <path id="42" d="m3602 2496v-9c-4 7-11 10-18 10-3 0-7-1-10-2s-5-3-7-5c-1-2-2-4-3-7 0-2-1-5-1-9v-36h10v32c0 5 0 9 1 10 1 3 2 5 4 6s4 2 7 2 6-1 8-2c3-2 4-4 5-6 1-3 2-6 2-11v-31h10v58h-9z" class="fil3"/>
   <path id="43" d="m3626 2496v-58h9v9c2-4 4-7 6-8s4-2 6-2c3 0 7 1 10 3l-3 9c-2-1-5-2-7-2s-4 1-6 2-3 3-4 5c-1 3-2 7-2 11v30h-10z" class="fil3"/>
   <path id="44" d="m3663 2496v-58h9v9c2-4 4-7 6-8s4-2 6-2c3 0 7 1 10 3l-3 9c-2-1-5-2-7-2s-4 1-6 2-3 3-4 5c-1 3-2 7-2 11v30h-10z" class="fil3"/>
   <path id="45" d="m3739 2478l10 1c-2 6-5 10-9 14-4 3-10 5-16 5-8 0-15-3-20-8s-7-12-7-22 2-17 7-23c5-5 11-8 19-8s14 3 19 8 7 13 7 22v3h-43c0 6 2 11 5 15 3 3 7 5 12 5 4 0 7-1 9-3 3-2 5-5 6-9zm-32-16h32c0-5-2-8-4-11-3-4-7-6-12-6-4 0-8 2-11 5s-5 7-5 12z" class="fil3"/>
   <path id="46" d="m3761 2496v-58h9v8c4-6 10-9 18-9 3 0 7 1 10 2s5 3 7 5c1 2 2 4 3 7 0 2 1 5 1 10v35h-10v-35c0-4 0-7-1-9s-2-4-4-5-4-2-7-2c-4 0-8 1-11 4s-5 8-5 15v31h-10z" class="fil3"/>
   <path id="47" d="m3844 2487l1 9c-3 1-5 1-7 1-4 0-6-1-8-2s-3-3-4-4c-1-2-1-6-1-12v-33h-7v-8h7v-14l10-6v20h10v8h-10v34c0 3 0 5 1 5 0 1 1 1 2 2 1 0 2 1 3 1h4z" class="fil3"/>
   <path id="48" d="m3881 2479l10-2c1 4 2 7 5 9 2 2 6 3 10 3 5 0 8-1 10-3s3-4 3-6-1-4-3-5c-1-1-5-2-10-3-7-2-12-3-15-5-3-1-5-3-6-5s-2-5-2-8 1-5 2-7 3-4 5-5l6-3c3-1 5-1 8-1 5 0 8 1 12 2 3 1 6 3 8 5s3 5 3 9l-10 1c0-3-2-5-4-7s-5-3-9-3-8 1-10 2-3 3-3 5c0 1 0 2 1 3s2 2 4 3c1 0 4 1 9 3 7 2 12 3 14 5 3 1 5 3 6 5 2 2 2 5 2 8s-1 6-3 9-5 5-8 7c-4 2-8 2-12 2-7 0-13-2-17-5s-6-8-8-14z" class="fil3"/>
   <path id="49" d="m3962 2487l1 9c-3 1-5 1-7 1-4 0-6-1-8-2s-3-3-4-4c-1-2-1-6-1-12v-33h-7v-8h7v-14l10-6v20h10v8h-10v34c0 3 0 5 1 5 0 1 1 1 2 2 1 0 2 1 3 1h4z" class="fil3"/>
   <path id="50" d="m4009 2489c-4 3-7 5-10 7-3 1-7 2-11 2-6 0-11-2-15-5-3-3-5-7-5-12 0-3 1-5 2-8 1-2 3-4 5-6 2-1 4-2 7-3 2-1 5-1 9-1 8-1 14-2 17-3v-3c0-4-1-7-3-8-3-2-6-3-11-3s-8 1-10 2c-2 2-4 4-5 9l-10-1c1-4 2-7 4-10s5-4 9-6c4-1 8-2 13-2s9 1 12 2 5 3 7 4c1 2 2 4 3 7v9 13c0 9 0 15 1 17 0 2 1 5 2 7h-10c-1-2-2-4-2-7zm-1-22c-4 1-9 3-16 4-4 1-7 1-9 2s-3 2-4 3-1 3-1 5c0 3 1 5 3 6 2 2 5 3 9 3s7-1 10-2c3-2 5-4 6-7 1-2 2-5 2-10v-4z" class="fil3"/>
   <path id="51" d="m4054 2487l1 9c-3 1-5 1-7 1-4 0-6-1-8-2s-3-3-4-4c-1-2-1-6-1-12v-33h-7v-8h7v-14l10-6v20h10v8h-10v34c0 3 0 5 1 5 0 1 1 1 2 2 1 0 2 1 3 1h4z" class="fil3"/>
   <path id="52" d="m4102 2496v-9c-4 7-11 10-18 10-3 0-7-1-10-2s-5-3-7-5c-1-2-2-4-3-7 0-2-1-5-1-9v-36h10v32c0 5 0 9 1 10 1 3 2 5 4 6s4 2 7 2 6-1 8-2c3-2 4-4 5-6 1-3 2-6 2-11v-31h10v58h-9z" class="fil3"/>
   <path id="53" d="m4122 2479l10-2c1 4 2 7 5 9 2 2 6 3 10 3 5 0 8-1 10-3s3-4 3-6-1-4-3-5c-1-1-5-2-10-3-7-2-12-3-15-5-3-1-5-3-6-5s-2-5-2-8 1-5 2-7 3-4 5-5l6-3c3-1 5-1 8-1 5 0 8 1 12 2 3 1 6 3 8 5s3 5 3 9l-10 1c0-3-2-5-4-7s-5-3-9-3-8 1-10 2-3 3-3 5c0 1 0 2 1 3s2 2 4 3c1 0 4 1 9 3 7 2 12 3 14 5 3 1 5 3 6 5 2 2 2 5 2 8s-1 6-3 9-5 5-8 7c-4 2-8 2-12 2-7 0-13-2-17-5s-6-8-8-14z" class="fil3"/>
   <path id="54" d="m4212 2428v-11h10v11h-10zm0 68v-58h10v58h-10z" class="fil3"/>
   <path id="55" d="m4233 2479l10-2c1 4 2 7 5 9 2 2 6 3 10 3 5 0 8-1 10-3s3-4 3-6-1-4-3-5c-1-1-5-2-10-3-7-2-12-3-15-5-3-1-5-3-6-5s-2-5-2-8 1-5 2-7 3-4 5-5l6-3c3-1 5-1 8-1 5 0 8 1 12 2 3 1 6 3 8 5s3 5 3 9l-10 1c0-3-2-5-4-7s-5-3-9-3-8 1-10 2-3 3-3 5c0 1 0 2 1 3s2 2 4 3c1 0 4 1 9 3 7 2 12 3 14 5 3 1 5 3 6 5 2 2 2 5 2 8s-1 6-3 9-5 5-8 7c-4 2-8 2-12 2-7 0-13-2-17-5s-6-8-8-14z" class="fil3"/>
   <path id="56" d="m4361 2475l10 1c-1 7-4 12-8 15-4 4-10 6-16 6-8 0-14-3-19-8s-7-13-7-22c0-6 1-12 3-16 2-5 5-8 9-10s9-4 14-4c6 0 11 2 15 5s7 8 8 13l-9 1c-1-4-3-7-5-9s-5-3-8-3c-5 0-9 2-12 5-3 4-5 9-5 17s1 13 4 17 7 5 12 5c4 0 7-1 10-4 3-2 4-6 5-11z" class="fil3"/>
   <path id="57" d="m4375 2467c0-11 3-19 9-24 5-4 11-6 18-6 8 0 14 3 19 8s8 12 8 21c0 7-1 13-3 17s-5 8-10 10c-4 2-9 4-14 4-8 0-15-3-20-8s-7-13-7-22zm10 0c0 7 2 13 5 17s7 6 12 6 9-2 12-6 5-9 5-17c0-7-2-13-5-16-3-4-7-6-12-6s-9 2-12 5c-3 4-5 9-5 17z" class="fil3"/>
   <path id="58" d="m4441 2496v-58h9v8c2-3 4-5 7-7s6-3 10-3 8 1 10 3c3 2 5 4 6 7 5-7 11-10 18-10 6 0 10 2 13 5s5 8 5 15v40h-10v-36c0-4 0-7-1-8-1-2-2-3-3-4-2-1-4-2-6-2-4 0-7 1-10 4s-4 7-4 13v33h-10v-37c0-4-1-8-2-10-2-2-4-3-8-3-3 0-5 1-8 2-2 1-4 4-5 6-1 3-2 7-2 12v30h-10z" class="fil3"/>
   <path id="59" d="m4533 2518v-80h9v8c2-3 4-5 7-7 3-1 6-2 10-2 5 0 9 1 13 4s7 6 9 11 3 10 3 15c0 6-1 11-3 16s-5 8-9 11-8 4-13 4c-3 0-6-1-9-2s-5-3-6-5v28h-10zm9-51c0 7 2 13 4 16 3 4 7 5 11 5s8-2 11-6 5-9 5-17c0-7-2-13-5-16-3-4-7-5-11-5s-8 2-11 6-5 10-5 17z" class="fil3"/>
   <polygon id="60" points="4595 2496 4595 2417 4605 2417 4605 2496" class="fil3"/>
   <path id="61" d="m4659 2478l10 1c-2 6-5 10-9 14-4 3-10 5-16 5-8 0-15-3-20-8s-7-12-7-22 2-17 7-23c5-5 11-8 19-8s14 3 19 8 7 13 7 22v3h-43c0 6 2 11 5 15 3 3 7 5 12 5 4 0 7-1 9-3 3-2 5-5 6-9zm-32-16h32c0-5-2-8-4-11-3-4-7-6-12-6-4 0-8 2-11 5s-5 7-5 12z" class="fil3"/>
   <path id="62" d="m4703 2487l1 9c-3 1-5 1-7 1-4 0-6-1-8-2s-3-3-4-4c-1-2-1-6-1-12v-33h-7v-8h7v-14l10-6v20h10v8h-10v34c0 3 0 5 1 5 0 1 1 1 2 2 1 0 2 1 3 1h4z" class="fil3"/>
   <path id="63" d="m4752 2478l10 1c-2 6-5 10-9 14-4 3-10 5-16 5-8 0-15-3-20-8s-7-12-7-22 2-17 7-23c5-5 11-8 19-8s14 3 19 8 7 13 7 22v3h-43c0 6 2 11 5 15 3 3 7 5 12 5 4 0 7-1 9-3 3-2 5-5 6-9zm-32-16h32c0-5-2-8-4-11-3-4-7-6-12-6-4 0-8 2-11 5s-5 7-5 12z" class="fil3"/>
   <polygon id="64" points="4777 2496 4777 2485 4788 2485 4788 2496" class="fil3"/>
   <path id="65" d="m4834 2457c0-13 4-24 11-31s16-11 27-11c7 0 14 2 20 5 6 4 10 8 13 15 3 6 5 13 5 21s-2 15-5 22c-3 6-8 11-14 14s-12 5-19 5c-8 0-14-2-20-5-6-4-10-9-13-15s-5-13-5-20zm11 0c0 10 3 17 8 23s12 8 19 8c8 0 14-3 20-8 5-6 8-13 8-24 0-6-1-12-3-17s-5-9-10-11c-4-3-9-4-14-4-7 0-14 3-19 8s-8 14-8 26z" class="fil3"/>
   <path id="66" d="m4922 2496v-58h9v9c2-4 4-7 6-8s4-2 6-2c3 0 7 1 10 3l-3 9c-2-1-5-2-7-2s-4 1-6 2-3 3-4 5c-1 3-2 7-2 11v30h-10z" class="fil3"/>
   <path id="67" d="m4997 2496v-7c-4 6-9 9-16 9-5 0-9-1-13-4s-7-6-9-11-3-10-3-16 1-11 3-16 5-8 9-11 8-4 13-4c3 0 7 1 9 2 3 1 5 3 7 6v-29h10v80h-9zm-31-29c0 7 2 13 5 17s7 5 11 5 8-2 11-5 4-9 4-16c0-8-2-14-5-17-3-4-7-6-11-6s-8 2-11 5c-3 4-4 9-4 17z" class="fil3"/>
   <path id="68" d="m5061 2478l10 1c-2 6-5 10-9 14-4 3-10 5-16 5-8 0-15-3-20-8s-7-12-7-22 2-17 7-23c5-5 11-8 19-8s14 3 19 8 7 13 7 22v3h-43c0 6 2 11 5 15 3 3 7 5 12 5 4 0 7-1 9-3 3-2 5-5 6-9zm-32-16h32c0-5-2-8-4-11-3-4-7-6-12-6-4 0-8 2-11 5s-5 7-5 12z" class="fil3"/>
   <path id="69" d="m5083 2496v-58h9v9c2-4 4-7 6-8s4-2 6-2c3 0 7 1 10 3l-3 9c-2-1-5-2-7-2s-4 1-6 2-3 3-4 5c-1 3-2 7-2 11v30h-10z" class="fil3"/>
   <path id="70" d="m5188 2496v-7c-4 6-9 9-16 9-5 0-9-1-13-4s-7-6-9-11-3-10-3-16 1-11 3-16 5-8 9-11 8-4 13-4c3 0 7 1 9 2 3 1 5 3 7 6v-29h10v80h-9zm-31-29c0 7 2 13 5 17s7 5 11 5 8-2 11-5 4-9 4-16c0-8-2-14-5-17-3-4-7-6-11-6s-8 2-11 5c-3 4-4 9-4 17z" class="fil3"/>
   <path id="71" d="m5250 2489c-4 3-7 5-10 7-3 1-7 2-11 2-6 0-11-2-15-5-3-3-5-7-5-12 0-3 1-5 2-8 1-2 3-4 5-6 2-1 4-2 7-3 2-1 5-1 9-1 8-1 14-2 17-3v-3c0-4-1-7-3-8-3-2-6-3-11-3s-8 1-10 2c-2 2-4 4-5 9l-10-1c1-4 2-7 4-10s5-4 9-6c4-1 8-2 13-2s9 1 12 2 5 3 7 4c1 2 2 4 3 7v9 13c0 9 0 15 1 17 0 2 1 5 2 7h-10c-1-2-2-4-2-7zm-1-22c-4 1-9 3-16 4-4 1-7 1-9 2s-3 2-4 3-1 3-1 5c0 3 1 5 3 6 2 2 5 3 9 3s7-1 10-2c3-2 5-4 6-7 1-2 2-5 2-10v-4z" class="fil3"/>
   <path id="72" d="m5296 2487l1 9c-3 1-5 1-7 1-4 0-6-1-8-2s-3-3-4-4c-1-2-1-6-1-12v-33h-7v-8h7v-14l10-6v20h10v8h-10v34c0 3 0 5 1 5 0 1 1 1 2 2 1 0 2 1 3 1h4z" class="fil3"/>
   <path id="73" d="m5345 2478l10 1c-2 6-5 10-9 14-4 3-10 5-16 5-8 0-15-3-20-8s-7-12-7-22 2-17 7-23c5-5 11-8 19-8s14 3 19 8 7 13 7 22v3h-43c0 6 2 11 5 15 3 3 7 5 12 5 4 0 7-1 9-3 3-2 5-5 6-9zm-32-16h32c0-5-2-8-4-11-3-4-7-6-12-6-4 0-8 2-11 5s-5 7-5 12z" class="fil3"/>
   <path id="74" d="m5398 2428v-11h10v11h-10zm0 68v-58h10v58h-10z" class="fil3"/>
   <path id="75" d="m5419 2479l10-2c1 4 2 7 5 9 2 2 6 3 10 3 5 0 8-1 10-3s3-4 3-6-1-4-3-5c-1-1-5-2-10-3-7-2-12-3-15-5-3-1-5-3-6-5s-2-5-2-8 1-5 2-7 3-4 5-5l6-3c3-1 5-1 8-1 5 0 8 1 12 2 3 1 6 3 8 5s3 5 3 9l-10 1c0-3-2-5-4-7s-5-3-9-3-8 1-10 2-3 3-3 5c0 1 0 2 1 3s2 2 4 3c1 0 4 1 9 3 7 2 12 3 14 5 3 1 5 3 6 5 2 2 2 5 2 8s-1 6-3 9-5 5-8 7c-4 2-8 2-12 2-7 0-13-2-17-5s-6-8-8-14z" class="fil3"/>
   <path id="76" d="m3103 2618l9-1c0 6 1 10 3 13 2 2 5 3 8 3s5-1 7-2 3-3 4-5 1-5 1-10v-55h11v54c0 7-1 12-2 15-2 4-4 6-8 8-3 2-8 3-12 3-7 0-12-2-16-6s-5-10-5-18z" class="fil3"/>
   <path id="77" d="m3200 2641v-9c-4 7-11 10-18 10-3 0-7-1-10-2s-5-3-7-5c-1-2-2-4-3-7 0-2-1-5-1-9v-36h10v32c0 5 0 9 1 10 1 3 2 5 4 6s4 2 7 2 6-1 8-2c3-2 4-4 5-6 1-3 2-6 2-11v-31h10v58h-9z" class="fil3"/>
   <polygon id="78" points="3224 2641 3224 2561 3234 2561 3234 2641" class="fil3"/>
   <path id="79" d="m3248 2663l-1-9c2 1 4 1 6 1s4 0 5-1l3-3c1-1 2-3 3-7 0-1 0-1 1-2l-22-58h10l12 33c2 4 3 9 4 13 1-4 2-9 4-13l12-34h10l-22 59c-2 6-4 11-6 13-2 3-4 6-6 7-2 2-5 2-8 2-2 0-4 0-6-1z" class="fil3"/>
   <path id="80" d="m3369 2641h-10v-62c-2 2-5 5-9 7s-7 4-10 5v-9c5-3 10-6 14-9 4-4 7-7 9-11h6v80z" class="fil3"/>
   <path id="81" d="m3394 2602c0-9 1-17 3-23s5-10 9-13 9-5 14-5c4 0 8 1 11 3s6 4 8 7 4 7 5 12 2 11 2 19c0 9-1 17-3 23s-5 10-9 13-9 5-14 5c-8 0-14-3-18-8-5-7-8-17-8-32zm10 0c0 13 2 22 5 26s7 6 11 6 8-2 11-6 5-13 5-26-2-22-5-26-7-6-11-6-8 2-11 6c-3 5-5 14-5 27z" class="fil3"/>
   <path id="82" d="m3527 2634c-4 3-7 5-10 7-3 1-7 2-11 2-6 0-11-2-15-5-3-3-5-7-5-12 0-3 1-5 2-8 1-2 3-4 5-6 2-1 4-2 7-3 2-1 5-1 9-1 8-1 14-2 17-3v-3c0-4-1-7-3-8-3-2-6-3-11-3s-8 1-10 2c-2 2-4 4-5 9l-10-1c1-4 2-7 4-10s5-4 9-6c4-1 8-2 13-2s9 1 12 2 5 3 7 4c1 2 2 4 3 7v9 13c0 9 0 15 1 17 0 2 1 5 2 7h-10c-1-2-2-4-2-7zm-1-22c-4 1-9 3-16 4-4 1-7 1-9 2s-3 2-4 3-1 3-1 5c0 3 1 5 3 6 2 2 5 3 9 3s7-1 10-2c3-2 5-4 6-7 1-2 2-5 2-10v-4z" class="fil3"/>
   <path id="83" d="m3551 2641v-58h9v8c4-6 10-9 18-9 3 0 7 1 10 2s5 3 7 5c1 2 2 4 3 7 0 2 1 5 1 10v35h-10v-35c0-4 0-7-1-9s-2-4-4-5-4-2-7-2c-4 0-8 1-11 4s-5 8-5 15v31h-10z" class="fil3"/>
   <path id="84" d="m3650 2641v-7c-4 6-9 9-16 9-5 0-9-1-13-4s-7-6-9-11-3-10-3-16 1-11 3-16 5-8 9-11 8-4 13-4c3 0 7 1 9 2 3 1 5 3 7 6v-29h10v80h-9zm-31-29c0 7 2 13 5 17s7 5 11 5 8-2 11-5 4-9 4-16c0-8-2-14-5-17-3-4-7-6-11-6s-8 2-11 5c-3 4-4 9-4 17z" class="fil3"/>
   <path id="85" d="m3727 2632l1 9c-3 1-5 1-7 1-4 0-6-1-8-2s-3-3-4-4c-1-2-1-6-1-12v-33h-7v-8h7v-14l10-6v20h10v8h-10v34c0 3 0 5 1 5 0 1 1 1 2 2 1 0 2 1 3 1h4z" class="fil3"/>
   <path id="86" d="m3733 2612c0-11 3-19 9-24 5-4 11-6 18-6 8 0 14 3 19 8s8 12 8 21c0 7-1 13-3 17s-5 8-10 10c-4 2-9 4-14 4-8 0-15-3-20-8s-7-13-7-22zm10 0c0 7 2 13 5 17s7 6 12 6 9-2 12-6 5-9 5-17c0-7-2-13-5-16-3-4-7-6-12-6s-9 2-12 5c-3 4-5 9-5 17z" class="fil3"/>
   <path id="87" d="m3820 2632l1 9c-3 1-5 1-7 1-4 0-6-1-8-2s-3-3-4-4c-1-2-1-6-1-12v-33h-7v-8h7v-14l10-6v20h10v8h-10v34c0 3 0 5 1 5 0 1 1 1 2 2 1 0 2 1 3 1h4z" class="fil3"/>
   <path id="88" d="m3867 2634c-4 3-7 5-10 7-3 1-7 2-11 2-6 0-11-2-15-5-3-3-5-7-5-12 0-3 1-5 2-8 1-2 3-4 5-6 2-1 4-2 7-3 2-1 5-1 9-1 8-1 14-2 17-3v-3c0-4-1-7-3-8-3-2-6-3-11-3s-8 1-10 2c-2 2-4 4-5 9l-10-1c1-4 2-7 4-10s5-4 9-6c4-1 8-2 13-2s9 1 12 2 5 3 7 4c1 2 2 4 3 7v9 13c0 9 0 15 1 17 0 2 1 5 2 7h-10c-1-2-2-4-2-7zm-1-22c-4 1-9 3-16 4-4 1-7 1-9 2s-3 2-4 3-1 3-1 5c0 3 1 5 3 6 2 2 5 3 9 3s7-1 10-2c3-2 5-4 6-7 1-2 2-5 2-10v-4z" class="fil3"/>
   <polygon id="89" points="3891 2641 3891 2561 3901 2561 3901 2641" class="fil3"/>
   <path id="90" d="m3947 2573v-11h10v11h-10zm0 68v-58h10v58h-10z" class="fil3"/>
   <path id="91" d="m3993 2632l1 9c-3 1-5 1-7 1-4 0-6-1-8-2s-3-3-4-4c-1-2-1-6-1-12v-33h-7v-8h7v-14l10-6v20h10v8h-10v34c0 3 0 5 1 5 0 1 1 1 2 2 1 0 2 1 3 1h4z" class="fil3"/>
   <path id="92" d="m4042 2622l10 1c-2 6-5 10-9 14-4 3-10 5-16 5-8 0-15-3-20-8s-7-12-7-22 2-17 7-23c5-5 11-8 19-8s14 3 19 8 7 13 7 22v3h-43c0 6 2 11 5 15 3 3 7 5 12 5 4 0 7-1 9-3 3-2 5-5 6-9zm-32-16h32c0-5-2-8-4-11-3-4-7-6-12-6-4 0-8 2-11 5s-5 7-5 12z" class="fil3"/>
   <path id="93" d="m4064 2641v-58h9v8c2-3 4-5 7-7s6-3 10-3 8 1 10 3c3 2 5 4 6 7 5-7 11-10 18-10 6 0 10 2 13 5s5 8 5 15v40h-10v-36c0-4 0-7-1-8-1-2-2-3-3-4-2-1-4-2-6-2-4 0-7 1-10 4s-4 7-4 13v33h-10v-37c0-4-1-8-2-10-2-2-4-3-8-3-3 0-5 1-8 2-2 1-4 4-5 6-1 3-2 7-2 12v30h-10z" class="fil3"/>
   <path id="94" d="m4153 2624l10-2c1 4 2 7 5 9 2 2 6 3 10 3 5 0 8-1 10-3s3-4 3-6-1-4-3-5c-1-1-5-2-10-3-7-2-12-3-15-5-3-1-5-3-6-5s-2-5-2-8 1-5 2-7 3-4 5-5l6-3c3-1 5-1 8-1 5 0 8 1 12 2 3 1 6 3 8 5s3 5 3 9l-10 1c0-3-2-5-4-7s-5-3-9-3-8 1-10 2-3 3-3 5c0 1 0 2 1 3s2 2 4 3c1 0 4 1 9 3 7 2 12 3 14 5 3 1 5 3 6 5 2 2 2 5 2 8s-1 6-3 9-5 5-8 7c-4 2-8 2-12 2-7 0-13-2-17-5s-6-8-8-14z" class="fil3"/>
   <path id="95" d="m4243 2573v-11h10v11h-10zm0 68v-58h10v58h-10z" class="fil3"/>
   <path id="96" d="m4268 2641v-58h9v8c4-6 10-9 18-9 3 0 7 1 10 2s5 3 7 5c1 2 2 4 3 7 0 2 1 5 1 10v35h-10v-35c0-4 0-7-1-9s-2-4-4-5-4-2-7-2c-4 0-8 1-11 4s-5 8-5 15v31h-10z" class="fil3"/>
   <path id="97" d="m4382 2632l1 9c-3 1-5 1-7 1-4 0-6-1-8-2s-3-3-4-4c-1-2-1-6-1-12v-33h-7v-8h7v-14l10-6v20h10v8h-10v34c0 3 0 5 1 5 0 1 1 1 2 2 1 0 2 1 3 1h4z" class="fil3"/>
   <path id="98" d="m4391 2641v-80h10v29c5-5 10-8 17-8 4 0 8 1 11 3s5 4 7 7c1 3 2 7 2 13v37h-10v-36c0-5-1-8-3-11-2-2-5-3-9-3-3 0-6 1-8 2-3 2-4 4-5 6-1 3-2 6-2 11v31h-10z" class="fil3"/>
   <path id="99" d="m4492 2622l10 1c-2 6-5 10-9 14-4 3-10 5-16 5-8 0-15-3-20-8s-7-12-7-22 2-17 7-23c5-5 11-8 19-8s14 3 19 8 7 13 7 22v3h-43c0 6 2 11 5 15 3 3 7 5 12 5 4 0 7-1 9-3 3-2 5-5 6-9zm-32-16h32c0-5-2-8-4-11-3-4-7-6-12-6-4 0-8 2-11 5s-5 7-5 12z" class="fil3"/>
   <path id="100" d="m4542 2612c0-11 3-19 9-24 5-4 11-6 18-6 8 0 14 3 19 8s8 12 8 21c0 7-1 13-3 17s-5 8-10 10c-4 2-9 4-14 4-8 0-15-3-20-8s-7-13-7-22zm10 0c0 7 2 13 5 17s7 6 12 6 9-2 12-6 5-9 5-17c0-7-2-13-5-16-3-4-7-6-12-6s-9 2-12 5c-3 4-5 9-5 17z" class="fil3"/>
   <path id="101" d="m4607 2641v-58h9v9c2-4 4-7 6-8s4-2 6-2c3 0 7 1 10 3l-3 9c-2-1-5-2-7-2s-4 1-6 2-3 3-4 5c-1 3-2 7-2 11v30h-10z" class="fil3"/>
   <path id="102" d="m4682 2641v-7c-4 6-9 9-16 9-5 0-9-1-13-4s-7-6-9-11-3-10-3-16 1-11 3-16 5-8 9-11 8-4 13-4c3 0 7 1 9 2 3 1 5 3 7 6v-29h10v80h-9zm-31-29c0 7 2 13 5 17s7 5 11 5 8-2 11-5 4-9 4-16c0-8-2-14-5-17-3-4-7-6-11-6s-8 2-11 5c-3 4-4 9-4 17z" class="fil3"/>
   <path id="103" d="m4746 2622l10 1c-2 6-5 10-9 14-4 3-10 5-16 5-8 0-15-3-20-8s-7-12-7-22 2-17 7-23c5-5 11-8 19-8s14 3 19 8 7 13 7 22v3h-43c0 6 2 11 5 15 3 3 7 5 12 5 4 0 7-1 9-3 3-2 5-5 6-9zm-32-16h32c0-5-2-8-4-11-3-4-7-6-12-6-4 0-8 2-11 5s-5 7-5 12z" class="fil3"/>
   <path id="104" d="m4768 2641v-58h9v9c2-4 4-7 6-8s4-2 6-2c3 0 7 1 10 3l-3 9c-2-1-5-2-7-2s-4 1-6 2-3 3-4 5c-1 3-2 7-2 11v30h-10z" class="fil3"/>
   <path id="105" d="m4836 2573v-11h10v11h-10zm0 68v-58h10v58h-10z" class="fil3"/>
   <path id="106" d="m4857 2624l10-2c1 4 2 7 5 9 2 2 6 3 10 3 5 0 8-1 10-3s3-4 3-6-1-4-3-5c-1-1-5-2-10-3-7-2-12-3-15-5-3-1-5-3-6-5s-2-5-2-8 1-5 2-7 3-4 5-5l6-3c3-1 5-1 8-1 5 0 8 1 12 2 3 1 6 3 8 5s3 5 3 9l-10 1c0-3-2-5-4-7s-5-3-9-3-8 1-10 2-3 3-3 5c0 1 0 2 1 3s2 2 4 3c1 0 4 1 9 3 7 2 12 3 14 5 3 1 5 3 6 5 2 2 2 5 2 8s-1 6-3 9-5 5-8 7c-4 2-8 2-12 2-7 0-13-2-17-5s-6-8-8-14z" class="fil3"/>
   <path id="107" d="m4968 2632l1 9c-3 1-5 1-7 1-4 0-6-1-8-2s-3-3-4-4c-1-2-1-6-1-12v-33h-7v-8h7v-14l10-6v20h10v8h-10v34c0 3 0 5 1 5 0 1 1 1 2 2 1 0 2 1 3 1h4z" class="fil3"/>
   <path id="108" d="m4978 2641v-80h10v29c5-5 10-8 17-8 4 0 8 1 11 3s5 4 7 7c1 3 2 7 2 13v37h-10v-36c0-5-1-8-3-11-2-2-5-3-9-3-3 0-6 1-8 2-3 2-4 4-5 6-1 3-2 6-2 11v31h-10z" class="fil3"/>
   <path id="109" d="m5040 2641v-58h9v9c2-4 4-7 6-8s4-2 6-2c3 0 7 1 10 3l-3 9c-2-1-5-2-7-2s-4 1-6 2-3 3-4 5c-1 3-2 7-2 11v30h-10z" class="fil3"/>
   <path id="110" d="m5116 2622l10 1c-2 6-5 10-9 14-4 3-10 5-16 5-8 0-15-3-20-8s-7-12-7-22 2-17 7-23c5-5 11-8 19-8s14 3 19 8 7 13 7 22v3h-43c0 6 2 11 5 15 3 3 7 5 12 5 4 0 7-1 9-3 3-2 5-5 6-9zm-32-16h32c0-5-2-8-4-11-3-4-7-6-12-6-4 0-8 2-11 5s-5 7-5 12z" class="fil3"/>
   <path id="111" d="m5178 2622l10 1c-2 6-5 10-9 14-4 3-10 5-16 5-8 0-15-3-20-8s-7-12-7-22 2-17 7-23c5-5 11-8 19-8s14 3 19 8 7 13 7 22v3h-43c0 6 2 11 5 15 3 3 7 5 12 5 4 0 7-1 9-3 3-2 5-5 6-9zm-32-16h32c0-5-2-8-4-11-3-4-7-6-12-6-4 0-8 2-11 5s-5 7-5 12z" class="fil3"/>
   <polygon id="112" points="5203 2641 5203 2630 5214 2630 5214 2641" class="fil3"/>
   <path id="113" d="m3105 2747c0-13 4-24 11-31s16-11 27-11c7 0 14 2 20 5 6 4 10 8 13 15 3 6 5 13 5 21s-2 15-5 22c-3 6-8 11-14 14s-12 5-19 5c-8 0-14-2-20-5-6-4-10-9-13-15s-5-13-5-20zm11 0c0 10 3 17 8 23s12 8 19 8c8 0 14-3 20-8 5-6 8-13 8-24 0-6-1-12-3-17s-5-9-10-11c-4-3-9-4-14-4-7 0-14 3-19 8s-8 14-8 26z" class="fil3"/>
   <path id="114" d="m3193 2786v-58h9v9c2-4 4-7 6-8s4-2 6-2c3 0 7 1 10 3l-3 9c-2-1-5-2-7-2s-4 1-6 2-3 3-4 5c-1 3-2 7-2 11v30h-10z" class="fil3"/>
   <path id="115" d="m3267 2786v-7c-4 6-9 9-16 9-5 0-9-1-13-4s-7-6-9-11-3-10-3-16 1-11 3-16 5-8 9-11 8-4 13-4c3 0 7 1 9 2 3 1 5 3 7 6v-29h10v80h-9zm-31-29c0 7 2 13 5 17s7 5 11 5 8-2 11-5 4-9 4-16c0-8-2-14-5-17-3-4-7-6-11-6s-8 2-11 5c-3 4-4 9-4 17z" class="fil3"/>
   <path id="116" d="m3331 2767l10 1c-2 6-5 10-9 14-4 3-10 5-16 5-8 0-15-3-20-8s-7-12-7-22 2-17 7-23c5-5 11-8 19-8s14 3 19 8 7 13 7 22v3h-43c0 6 2 11 5 15 3 3 7 5 12 5 4 0 7-1 9-3 3-2 5-5 6-9zm-32-16h32c0-5-2-8-4-11-3-4-7-6-12-6-4 0-8 2-11 5s-5 7-5 12z" class="fil3"/>
   <path id="117" d="m3354 2786v-58h9v9c2-4 4-7 6-8s4-2 6-2c3 0 7 1 10 3l-3 9c-2-1-5-2-7-2s-4 1-6 2-3 3-4 5c-1 3-2 7-2 11v30h-10z" class="fil3"/>
   <path id="118" d="m3443 2777l1 9c-3 1-5 1-7 1-4 0-6-1-8-2s-3-3-4-4c-1-2-1-6-1-12v-33h-7v-8h7v-14l10-6v20h10v8h-10v34c0 3 0 5 1 5 0 1 1 1 2 2 1 0 2 1 3 1h4z" class="fil3"/>
   <path id="119" d="m3449 2757c0-11 3-19 9-24 5-4 11-6 18-6 8 0 14 3 19 8s8 12 8 21c0 7-1 13-3 17s-5 8-10 10c-4 2-9 4-14 4-8 0-15-3-20-8s-7-13-7-22zm10 0c0 7 2 13 5 17s7 6 12 6 9-2 12-6 5-9 5-17c0-7-2-13-5-16-3-4-7-6-12-6s-9 2-12 5c-3 4-5 9-5 17z" class="fil3"/>
   <path id="120" d="m3536 2777l1 9c-3 1-5 1-7 1-4 0-6-1-8-2s-3-3-4-4c-1-2-1-6-1-12v-33h-7v-8h7v-14l10-6v20h10v8h-10v34c0 3 0 5 1 5 0 1 1 1 2 2 1 0 2 1 3 1h4z" class="fil3"/>
   <path id="121" d="m3583 2779c-4 3-7 5-10 7-3 1-7 2-11 2-6 0-11-2-15-5-3-3-5-7-5-12 0-3 1-5 2-8 1-2 3-4 5-6 2-1 4-2 7-3 2-1 5-1 9-1 8-1 14-2 17-3v-3c0-4-1-7-3-8-3-2-6-3-11-3s-8 1-10 2c-2 2-4 4-5 9l-10-1c1-4 2-7 4-10s5-4 9-6c4-1 8-2 13-2s9 1 12 2 5 3 7 4c1 2 2 4 3 7v9 13c0 9 0 15 1 17 0 2 1 5 2 7h-10c-1-2-2-4-2-7zm-1-22c-4 1-9 3-16 4-4 1-7 1-9 2s-3 2-4 3-1 3-1 5c0 3 1 5 3 6 2 2 5 3 9 3s7-1 10-2c3-2 5-4 6-7 1-2 2-5 2-10v-4z" class="fil3"/>
   <polygon id="122" points="3607 2786 3607 2706 3617 2706 3617 2786" class="fil3"/>
   <path id="123" d="m3663 2717v-11h10v11h-10zm0 68v-58h10v58h-10z" class="fil3"/>
   <path id="124" d="m3683 2769l10-2c1 4 2 7 5 9 2 2 6 3 10 3 5 0 8-1 10-3s3-4 3-6-1-4-3-5c-1-1-5-2-10-3-7-2-12-3-15-5-3-1-5-3-6-5s-2-5-2-8 1-5 2-7 3-4 5-5l6-3c3-1 5-1 8-1 5 0 8 1 12 2 3 1 6 3 8 5s3 5 3 9l-10 1c0-3-2-5-4-7s-5-3-9-3-8 1-10 2-3 3-3 5c0 1 0 2 1 3s2 2 4 3c1 0 4 1 9 3 7 2 12 3 14 5 3 1 5 3 6 5 2 2 2 5 2 8s-1 6-3 9-5 5-8 7c-4 2-8 2-12 2-7 0-13-2-17-5s-6-8-8-14z" class="fil3"/>
   <path id="125" d="m3770 2757c0-11 3-19 9-24 5-4 11-6 18-6 8 0 14 3 19 8s8 12 8 21c0 7-1 13-3 17s-5 8-10 10c-4 2-9 4-14 4-8 0-15-3-20-8s-7-13-7-22zm10 0c0 7 2 13 5 17s7 6 12 6 9-2 12-6 5-9 5-17c0-7-2-13-5-16-3-4-7-6-12-6s-9 2-12 5c-3 4-5 9-5 17z" class="fil3"/>
   <path id="126" d="m3835 2786v-58h9v8c4-6 10-9 18-9 3 0 7 1 10 2s5 3 7 5c1 2 2 4 3 7 0 2 1 5 1 10v35h-10v-35c0-4 0-7-1-9s-2-4-4-5-4-2-7-2c-4 0-8 1-11 4s-5 8-5 15v31h-10z" class="fil3"/>
   <path id="127" d="m3937 2767l10 1c-2 6-5 10-9 14-4 3-10 5-16 5-8 0-15-3-20-8s-7-12-7-22 2-17 7-23c5-5 11-8 19-8s14 3 19 8 7 13 7 22v3h-43c0 6 2 11 5 15 3 3 7 5 12 5 4 0 7-1 9-3 3-2 5-5 6-9zm-32-16h32c0-5-2-8-4-11-3-4-7-6-12-6-4 0-8 2-11 5s-5 7-5 12z" class="fil3"/>
   <path id="128" d="m3990 2786v-80h10v29c5-5 10-8 17-8 4 0 8 1 11 3s5 4 7 7c1 3 2 7 2 13v37h-10v-36c0-5-1-8-3-11-2-2-5-3-9-3-3 0-6 1-8 2-3 2-4 4-5 6-1 3-2 6-2 11v31h-10z" class="fil3"/>
   <path id="129" d="m4089 2786v-9c-4 7-11 10-18 10-3 0-7-1-10-2s-5-3-7-5c-1-2-2-4-3-7 0-2-1-5-1-9v-36h10v32c0 5 0 9 1 10 1 3 2 5 4 6s4 2 7 2 6-1 8-2c3-2 4-4 5-6 1-3 2-6 2-11v-31h10v58h-9z" class="fil3"/>
   <path id="130" d="m4113 2786v-58h9v8c4-6 10-9 18-9 3 0 7 1 10 2s5 3 7 5c1 2 2 4 3 7 0 2 1 5 1 10v35h-10v-35c0-4 0-7-1-9s-2-4-4-5-4-2-7-2c-4 0-8 1-11 4s-5 8-5 15v31h-10z" class="fil3"/>
   <path id="131" d="m4212 2786v-7c-4 6-9 9-16 9-5 0-9-1-13-4s-7-6-9-11-3-10-3-16 1-11 3-16 5-8 9-11 8-4 13-4c3 0 7 1 9 2 3 1 5 3 7 6v-29h10v80h-9zm-31-29c0 7 2 13 5 17s7 5 11 5 8-2 11-5 4-9 4-16c0-8-2-14-5-17-3-4-7-6-11-6s-8 2-11 5c-3 4-4 9-4 17z" class="fil3"/>
   <path id="132" d="m4237 2786v-58h9v9c2-4 4-7 6-8s4-2 6-2c3 0 7 1 10 3l-3 9c-2-1-5-2-7-2s-4 1-6 2-3 3-4 5c-1 3-2 7-2 11v30h-10z" class="fil3"/>
   <path id="133" d="m4313 2767l10 1c-2 6-5 10-9 14-4 3-10 5-16 5-8 0-15-3-20-8s-7-12-7-22 2-17 7-23c5-5 11-8 19-8s14 3 19 8 7 13 7 22v3h-43c0 6 2 11 5 15 3 3 7 5 12 5 4 0 7-1 9-3 3-2 5-5 6-9zm-32-16h32c0-5-2-8-4-11-3-4-7-6-12-6-4 0-8 2-11 5s-5 7-5 12z" class="fil3"/>
   <path id="134" d="m4373 2786v-7c-4 6-9 9-16 9-5 0-9-1-13-4s-7-6-9-11-3-10-3-16 1-11 3-16 5-8 9-11 8-4 13-4c3 0 7 1 9 2 3 1 5 3 7 6v-29h10v80h-9zm-31-29c0 7 2 13 5 17s7 5 11 5 8-2 11-5 4-9 4-16c0-8-2-14-5-17-3-4-7-6-11-6s-8 2-11 5c-3 4-4 9-4 17z" class="fil3"/>
   <path id="135" d="m4450 2777l1 9c-3 1-5 1-7 1-4 0-6-1-8-2s-3-3-4-4c-1-2-1-6-1-12v-33h-7v-8h7v-14l10-6v20h10v8h-10v34c0 3 0 5 1 5 0 1 1 1 2 2 1 0 2 1 3 1h4z" class="fil3"/>
   <path id="136" d="m4459 2786v-80h10v29c5-5 10-8 17-8 4 0 8 1 11 3s5 4 7 7c1 3 2 7 2 13v37h-10v-36c0-5-1-8-3-11-2-2-5-3-9-3-3 0-6 1-8 2-3 2-4 4-5 6-1 3-2 6-2 11v31h-10z" class="fil3"/>
   <path id="137" d="m4521 2717v-11h10v11h-10zm0 68v-58h10v58h-10z" class="fil3"/>
   <path id="138" d="m4546 2786v-58h9v9c2-4 4-7 6-8s4-2 6-2c3 0 7 1 10 3l-3 9c-2-1-5-2-7-2s-4 1-6 2-3 3-4 5c-1 3-2 7-2 11v30h-10z" class="fil3"/>
   <path id="139" d="m4604 2777l1 9c-3 1-5 1-7 1-4 0-6-1-8-2s-3-3-4-4c-1-2-1-6-1-12v-33h-7v-8h7v-14l10-6v20h10v8h-10v34c0 3 0 5 1 5 0 1 1 1 2 2 1 0 2 1 3 1h4z" class="fil3"/>
   <path id="140" d="m4613 2808l-1-9c2 1 4 1 6 1s4 0 5-1l3-3c1-1 2-3 3-7 0-1 0-1 1-2l-22-58h10l12 33c2 4 3 9 4 13 1-4 2-9 4-13l12-34h10l-22 59c-2 6-4 11-6 13-2 3-4 6-6 7-2 2-5 2-8 2-2 0-4 0-6-1z" class="fil3"/>
   <path id="141" d="m4696 2769l10-2c1 4 2 7 5 9 2 2 6 3 10 3 5 0 8-1 10-3s3-4 3-6-1-4-3-5c-1-1-5-2-10-3-7-2-12-3-15-5-3-1-5-3-6-5s-2-5-2-8 1-5 2-7 3-4 5-5l6-3c3-1 5-1 8-1 5 0 8 1 12 2 3 1 6 3 8 5s3 5 3 9l-10 1c0-3-2-5-4-7s-5-3-9-3-8 1-10 2-3 3-3 5c0 1 0 2 1 3s2 2 4 3c1 0 4 1 9 3 7 2 12 3 14 5 3 1 5 3 6 5 2 2 2 5 2 8s-1 6-3 9-5 5-8 7c-4 2-8 2-12 2-7 0-13-2-17-5s-6-8-8-14z" class="fil3"/>
   <path id="142" d="m4795 2767l10 1c-2 6-5 10-9 14-4 3-10 5-16 5-8 0-15-3-20-8s-7-12-7-22 2-17 7-23c5-5 11-8 19-8s14 3 19 8 7 13 7 22v3h-43c0 6 2 11 5 15 3 3 7 5 12 5 4 0 7-1 9-3 3-2 5-5 6-9zm-32-16h32c0-5-2-8-4-11-3-4-7-6-12-6-4 0-8 2-11 5s-5 7-5 12z" class="fil3"/>
   <path id="143" d="m4833 2786l-22-58h10l12 35c1 4 3 8 4 12 1-3 2-7 4-11l13-35h10l-22 58h-9z" class="fil3"/>
   <path id="144" d="m4912 2767l10 1c-2 6-5 10-9 14-4 3-10 5-16 5-8 0-15-3-20-8s-7-12-7-22 2-17 7-23c5-5 11-8 19-8s14 3 19 8 7 13 7 22v3h-43c0 6 2 11 5 15 3 3 7 5 12 5 4 0 7-1 9-3 3-2 5-5 6-9zm-32-16h32c0-5-2-8-4-11-3-4-7-6-12-6-4 0-8 2-11 5s-5 7-5 12z" class="fil3"/>
   <path id="145" d="m4935 2786v-58h9v8c4-6 10-9 18-9 3 0 7 1 10 2s5 3 7 5c1 2 2 4 3 7 0 2 1 5 1 10v35h-10v-35c0-4 0-7-1-9s-2-4-4-5-4-2-7-2c-4 0-8 1-11 4s-5 8-5 15v31h-10z" class="fil3"/>
   <path id="146" d="m3162 2851h11v46c0 8-1 14-3 19s-5 9-10 11c-5 3-11 4-19 4-7 0-14-1-18-4-5-3-8-6-10-11s-3-12-3-20v-46h11v46c0 7 1 12 2 15s3 6 7 8c3 2 7 3 11 3 8 0 13-2 16-5 3-4 5-10 5-20v-46z" class="fil3"/>
   <path id="147" d="m3191 2905l10-1c0 4 2 7 3 10 2 3 4 5 8 6 4 2 8 2 12 2s8-1 11-2 5-3 7-5 2-4 2-7c0-2-1-5-2-7s-4-3-7-5c-2-1-7-2-14-4s-12-3-15-5c-4-2-7-4-8-7-2-3-3-6-3-10s1-8 3-11c2-4 6-6 10-8s9-3 15-3 11 1 16 3 8 5 10 8c2 4 4 8 4 13l-10 1c-1-5-2-9-6-11-3-3-8-4-14-4s-11 1-14 4c-3 2-4 5-4 8s1 5 3 7 7 4 16 6 14 4 18 5c5 2 8 5 10 8s3 7 3 11-1 8-4 12c-2 4-6 7-10 9-5 2-10 3-15 3-7 0-13-1-18-3s-9-5-11-9c-3-4-4-9-4-14z" class="fil3"/>
   <path id="148" d="m3337 2931v-7c-4 6-9 9-16 9-5 0-9-1-13-4s-7-6-9-11-3-10-3-16 1-11 3-16 5-8 9-11 8-4 13-4c3 0 7 1 9 2 3 1 5 3 7 6v-29h10v80h-9zm-31-29c0 7 2 13 5 17s7 5 11 5 8-2 11-5 4-9 4-16c0-8-2-14-5-17-3-4-7-6-11-6s-8 2-11 5c-3 4-4 9-4 17z" class="fil3"/>
   <path id="149" d="m3358 2902c0-11 3-19 9-24 5-4 11-6 18-6 8 0 14 3 19 8s8 12 8 21c0 7-1 13-3 17s-5 8-10 10c-4 2-9 4-14 4-8 0-15-3-20-8s-7-13-7-22zm10 0c0 7 2 13 5 17s7 6 12 6 9-2 12-6 5-9 5-17c0-7-2-13-5-16-3-4-7-6-12-6s-9 2-12 5c-3 4-5 9-5 17z" class="fil3"/>
   <polygon id="150" points="3423 2931 3423 2851 3433 2851 3433 2931" class="fil3"/>
   <polygon id="151" points="3448 2931 3448 2851 3458 2851 3458 2931" class="fil3"/>
   <path id="152" d="m3510 2924c-4 3-7 5-10 7-3 1-7 2-11 2-6 0-11-2-15-5-3-3-5-7-5-12 0-3 1-5 2-8 1-2 3-4 5-6 2-1 4-2 7-3 2-1 5-1 9-1 8-1 14-2 17-3v-3c0-4-1-7-3-8-3-2-6-3-11-3s-8 1-10 2c-2 2-4 4-5 9l-10-1c1-4 2-7 4-10s5-4 9-6c4-1 8-2 13-2s9 1 12 2 5 3 7 4c1 2 2 4 3 7v9 13c0 9 0 15 1 17 0 2 1 5 2 7h-10c-1-2-2-4-2-7zm-1-22c-4 1-9 3-16 4-4 1-7 1-9 2s-3 2-4 3-1 3-1 5c0 3 1 5 3 6 2 2 5 3 9 3s7-1 10-2c3-2 5-4 6-7 1-2 2-5 2-10v-4z" class="fil3"/>
   <path id="153" d="m3534 2931v-58h9v9c2-4 4-7 6-8s4-2 6-2c3 0 7 1 10 3l-3 9c-2-1-5-2-7-2s-4 1-6 2-3 3-4 5c-1 3-2 7-2 11v30h-10z" class="fil3"/>
   <path id="154" d="m3568 2914l10-2c1 4 2 7 5 9 2 2 6 3 10 3 5 0 8-1 10-3s3-4 3-6-1-4-3-5c-1-1-5-2-10-3-7-2-12-3-15-5-3-1-5-3-6-5s-2-5-2-8 1-5 2-7 3-4 5-5l6-3c3-1 5-1 8-1 5 0 8 1 12 2 3 1 6 3 8 5s3 5 3 9l-10 1c0-3-2-5-4-7s-5-3-9-3-8 1-10 2-3 3-3 5c0 1 0 2 1 3s2 2 4 3c1 0 4 1 9 3 7 2 12 3 14 5 3 1 5 3 6 5 2 2 2 5 2 8s-1 6-3 9-5 5-8 7c-4 2-8 2-12 2-7 0-13-2-17-5s-6-8-8-14z" class="fil3"/>
   <path id="155" d="m3696 2924c-4 3-7 5-10 7-3 1-7 2-11 2-6 0-11-2-15-5-3-3-5-7-5-12 0-3 1-5 2-8 1-2 3-4 5-6 2-1 4-2 7-3 2-1 5-1 9-1 8-1 14-2 17-3v-3c0-4-1-7-3-8-3-2-6-3-11-3s-8 1-10 2c-2 2-4 4-5 9l-10-1c1-4 2-7 4-10s5-4 9-6c4-1 8-2 13-2s9 1 12 2 5 3 7 4c1 2 2 4 3 7v9 13c0 9 0 15 1 17 0 2 1 5 2 7h-10c-1-2-2-4-2-7zm-1-22c-4 1-9 3-16 4-4 1-7 1-9 2s-3 2-4 3-1 3-1 5c0 3 1 5 3 6 2 2 5 3 9 3s7-1 10-2c3-2 5-4 6-7 1-2 2-5 2-10v-4z" class="fil3"/>
   <path id="156" d="m3720 2931v-58h9v8c4-6 10-9 18-9 3 0 7 1 10 2s5 3 7 5c1 2 2 4 3 7 0 2 1 5 1 10v35h-10v-35c0-4 0-7-1-9s-2-4-4-5-4-2-7-2c-4 0-8 1-11 4s-5 8-5 15v31h-10z" class="fil3"/>
   <path id="157" d="m3819 2931v-7c-4 6-9 9-16 9-5 0-9-1-13-4s-7-6-9-11-3-10-3-16 1-11 3-16 5-8 9-11 8-4 13-4c3 0 7 1 9 2 3 1 5 3 7 6v-29h10v80h-9zm-31-29c0 7 2 13 5 17s7 5 11 5 8-2 11-5 4-9 4-16c0-8-2-14-5-17-3-4-7-6-11-6s-8 2-11 5c-3 4-4 9-4 17z" class="fil3"/>
   <path id="158" d="m3872 2910l10-1c1 6 3 10 6 12s6 4 10 4c5 0 9-2 12-5s5-7 5-12c0-4-1-8-4-11s-7-4-11-4c-2 0-4 0-7 1l1-9h2c4 0 8-1 11-3s5-6 5-10-1-7-4-9c-2-2-6-4-9-4-4 0-7 1-10 4-3 2-4 6-5 11l-10-2c1-7 4-12 8-15 4-4 10-5 16-5 4 0 8 1 12 3s6 4 8 8c2 3 3 7 3 10s-1 7-3 9c-2 3-5 5-8 7 5 1 8 3 11 7 3 3 4 8 4 13 0 7-3 13-8 18s-11 7-19 7c-7 0-13-2-17-6-5-4-7-10-8-16z" class="fil3"/>
   <path id="159" d="m3933 2910l10-1c1 5 3 9 5 11 3 3 6 4 10 4 5 0 9-2 12-5 3-4 5-8 5-14s-2-10-5-13-7-5-12-5c-3 0-6 1-9 2s-4 3-6 6l-9-1 8-41h39v9h-32l-4 21c5-3 10-5 15-5 7 0 13 2 18 7s7 11 7 19c0 7-2 13-6 19-5 6-12 10-21 10-7 0-13-2-18-6s-7-9-8-16z" class="fil3"/>
   <path id="160" d="m4066 2910l10 1c-1 7-4 12-8 15-4 4-10 6-16 6-8 0-14-3-19-8s-7-13-7-22c0-6 1-12 3-16 2-5 5-8 9-10s9-4 14-4c6 0 11 2 15 5s7 8 8 13l-9 1c-1-4-3-7-5-9s-5-3-8-3c-5 0-9 2-12 5-3 4-5 9-5 17s1 13 4 17 7 5 12 5c4 0 7-1 10-4 3-2 4-6 5-11z" class="fil3"/>
   <path id="161" d="m4124 2912l10 1c-2 6-5 10-9 14-4 3-10 5-16 5-8 0-15-3-20-8s-7-12-7-22 2-17 7-23c5-5 11-8 19-8s14 3 19 8 7 13 7 22v3h-43c0 6 2 11 5 15 3 3 7 5 12 5 4 0 7-1 9-3 3-2 5-5 6-9zm-32-16h32c0-5-2-8-4-11-3-4-7-6-12-6-4 0-8 2-11 5s-5 7-5 12z" class="fil3"/>
   <path id="162" d="m4146 2931v-58h9v8c4-6 10-9 18-9 3 0 7 1 10 2s5 3 7 5c1 2 2 4 3 7 0 2 1 5 1 10v35h-10v-35c0-4 0-7-1-9s-2-4-4-5-4-2-7-2c-4 0-8 1-11 4s-5 8-5 15v31h-10z" class="fil3"/>
   <path id="163" d="m4229 2922l1 9c-3 1-5 1-7 1-4 0-6-1-8-2s-3-3-4-4c-1-2-1-6-1-12v-33h-7v-8h7v-14l10-6v20h10v8h-10v34c0 3 0 5 1 5 0 1 1 1 2 2 1 0 2 1 3 1h4z" class="fil3"/>
   <path id="164" d="m4235 2914l10-2c1 4 2 7 5 9 2 2 6 3 10 3 5 0 8-1 10-3s3-4 3-6-1-4-3-5c-1-1-5-2-10-3-7-2-12-3-15-5-3-1-5-3-6-5s-2-5-2-8 1-5 2-7 3-4 5-5l6-3c3-1 5-1 8-1 5 0 8 1 12 2 3 1 6 3 8 5s3 5 3 9l-10 1c0-3-2-5-4-7s-5-3-9-3-8 1-10 2-3 3-3 5c0 1 0 2 1 3s2 2 4 3c1 0 4 1 9 3 7 2 12 3 14 5 3 1 5 3 6 5 2 2 2 5 2 8s-1 6-3 9-5 5-8 7c-4 2-8 2-12 2-7 0-13-2-17-5s-6-8-8-14z" class="fil3"/>
   <polygon id="165" points="4297 2931 4297 2920 4308 2920 4308 2931" class="fil3"/>
   <polygon id="166" points="4375 2931 4375 2861 4349 2861 4349 2851 4412 2851 4412 2861 4386 2861 4386 2931" class="fil3"/>
   <path id="167" d="m4422 2931v-80h10v29c5-5 10-8 17-8 4 0 8 1 11 3s5 4 7 7c1 3 2 7 2 13v37h-10v-36c0-5-1-8-3-11-2-2-5-3-9-3-3 0-6 1-8 2-3 2-4 4-5 6-1 3-2 6-2 11v31h-10z" class="fil3"/>
   <path id="168" d="m4521 2924c-4 3-7 5-10 7-3 1-7 2-11 2-6 0-11-2-15-5-3-3-5-7-5-12 0-3 1-5 2-8 1-2 3-4 5-6 2-1 4-2 7-3 2-1 5-1 9-1 8-1 14-2 17-3v-3c0-4-1-7-3-8-3-2-6-3-11-3s-8 1-10 2c-2 2-4 4-5 9l-10-1c1-4 2-7 4-10s5-4 9-6c4-1 8-2 13-2s9 1 12 2 5 3 7 4c1 2 2 4 3 7v9 13c0 9 0 15 1 17 0 2 1 5 2 7h-10c-1-2-2-4-2-7zm-1-22c-4 1-9 3-16 4-4 1-7 1-9 2s-3 2-4 3-1 3-1 5c0 3 1 5 3 6 2 2 5 3 9 3s7-1 10-2c3-2 5-4 6-7 1-2 2-5 2-10v-4z" class="fil3"/>
   <path id="169" d="m4545 2931v-58h9v8c4-6 10-9 18-9 3 0 7 1 10 2s5 3 7 5c1 2 2 4 3 7 0 2 1 5 1 10v35h-10v-35c0-4 0-7-1-9s-2-4-4-5-4-2-7-2c-4 0-8 1-11 4s-5 8-5 15v31h-10z" class="fil3"/>
   <polygon id="170" points="4607 2931 4607 2851 4617 2851 4617 2897 4640 2873 4653 2873 4631 2895 4655 2931 4643 2931 4624 2901 4617 2908 4617 2931" class="fil3"/>
   <path id="171" d="m4693 2953l-1-9c2 1 4 1 6 1s4 0 5-1l3-3c1-1 2-3 3-7 0-1 0-1 1-2l-22-58h10l12 33c2 4 3 9 4 13 1-4 2-9 4-13l12-34h10l-22 59c-2 6-4 11-6 13-2 3-4 6-6 7-2 2-5 2-8 2-2 0-4 0-6-1z" class="fil3"/>
   <path id="172" d="m4746 2902c0-11 3-19 9-24 5-4 11-6 18-6 8 0 14 3 19 8s8 12 8 21c0 7-1 13-3 17s-5 8-10 10c-4 2-9 4-14 4-8 0-15-3-20-8s-7-13-7-22zm10 0c0 7 2 13 5 17s7 6 12 6 9-2 12-6 5-9 5-17c0-7-2-13-5-16-3-4-7-6-12-6s-9 2-12 5c-3 4-5 9-5 17z" class="fil3"/>
   <path id="173" d="m4849 2931v-9c-4 7-11 10-18 10-3 0-7-1-10-2s-5-3-7-5c-1-2-2-4-3-7 0-2-1-5-1-9v-36h10v32c0 5 0 9 1 10 1 3 2 5 4 6s4 2 7 2 6-1 8-2c3-2 4-4 5-6 1-3 2-6 2-11v-31h10v58h-9z" class="fil3"/>
   <path id="174" d="m4878 2911l-3-42v-18h12v18l-3 42h-6zm-3 20v-11h11v11h-11z" class="fil3"/>
    <path class="fil4" d="m1439 3204c29-30 58 15 36 37-21 21-67-5-36-37zm-52 19c-2 18-4 12-9 24l-30 2c-4-7-9-5-9-25 1-31 15-26 44-23 3 15 5 6 3 23zm1090-236c-17 1-15 6-15-9l-8-6c-313 315-1126 380-1649 240-24-6-50-14-75-23l-89-33c-60-27-179-84-228-128l-15-14c-1-1-4-3-5-4l-94-109c-48-84-73-242 7-318-1-45 4-4-18-30l-6 15-6 12-36 80-13 27c-2 111-14 129 39 220 66 114 164 181 282 234 50 22 171 63 186 82-107 13-337-148-428-228 65 112 407 274 505 267-16-16-38-14-59-25-19-10-11-6-18-14 39-3 238 50 307 59 194 25 402 33 596 8 76-10 178-16 319-56 49-14 46-24 80 1-81 7-191 46-283 58-237 31-401 39-648 14l-225-37c-42-10-39-18-73 3 119 5 315 95 692 62 463-41 523-104 643-118-54-30-36 15-111 7 7-8 3-7 23-17l134-47c83-33 265-126 289-172zm-2057-549c-35 25-95 96-119 104 37 58-8 2 98-79 40-31 26-13 21-24zm20-20l-10 10c6 4-15 29 8 3l2-13zm101-53l-55 29c0 14 3 10-13 8-28 17-14 2-5 13l73-50zm33-20l-3 1-14 8-5 1 22-11zm1847 611c-62-22-95-48-147-63 21-16-36-29 85 10 56 18 45 15 86 41 33-2 43-25 69-52 27-29 31-51 47-74l-96 18c31 6 26 3 33 25-20 13-27 9-64 8 34 17 32 14 34 42-8 0-45 0-50-2-57-17-21 8-37-39l59-2c-66-31-65-17-194 9-51 10-162 35-214 32 1 73-11 87-53 119-36 27-71 42-122 53-100 21-214 11-298-26-15-7-47-24-54-31-11-10-10-8-18-21l-12-29c-1-3-1-5-2-9-28-155 273-169 373-161-44 32-81 10-146 16l-40 12c51 5 95-6 153 0 11 1 23 3 33 5l21 6c2 1 5 2 7 2 172 58 102 169-8 203-48 14-94 18-149 15-28-1-41-4-66-11-189-49-123-192-30-192-13 20-25 20-47 39-68 60-10 113 92 138 50 12 120 12 170 0 81-19 72-28 123-65 2-71-6-80-74-105-125-47-182-1-264-6l40-28c-55-1-140 36-162 87-7 15-6 7-7 28 0 3 0 11 1 15 27 146 467 142 516 17 40-103-88-131-136-149-2-1-10 3-30-17 80-8 155 45 184 98 47-57 289-71 380-92 23-5 28-6 42-17 51-38 8 8 22-45l9-86c-6-66-33-83 63-67 14 27 0 8 6 40 7 40 8 52-4 96-8 28-41-2-3 36 25 25-1 13 44 10 17-216-8-212-110-341l-24 6-17-7c14 15-12 4 24 23-7 20-5 18-21 29h49c9 38 27 52 27 52 1-2 3 5 4 11h-75c8-73 0 6 42-34l-70 4c10-29-1-21 23-33-62-1-45-13-58-31l-26 4-45 4c-27 26-25 16-44 4 5 107-92 136-196 150-199 25-383-81-292-175 20-21 84-47 119-55 144-33 182 6 300 17l-63 18c112 25 114 133-21 157l37-26c112-63 12-118-68-132-258-43-345 112-143 149 111 20 99 2 181-3l-60 25c-3 1-94 6-156-13l-43-17c-2-1-5-2-7-3-53-26-85-99 21-138l15-5c37-12-8 3 33-9-54-17-123 29-148 78 12 104 185 123 296 111 307-32 121-176 119-179 47 3 56 23 75 48 14-11 11-12 41-19l106-31 28-5c-1-1-2-4-3-3-7 23-5-5-7-6l-199-114c-25-10-59-24-87-31l-29 38c-45-1-37-12-72-1l-700 297c-62 25-209 96-263 101l-22 29c49 25 69 73 22 123-50 54-78 74-117 50 266-58 73-298-264-189l-58 27c-2 1-4 3-5 4-133 87-31 164 101 184 87 13 169-20 234-14-18 19 32-2-32 19-13 4-20 4-32 6-344 55-423-135-291-205l51-26c36-16 81-27 121-31 98-9 198-4 268 42 24-41 1-25 50-43l680-286c67-25 171-92 237-88 1-19-8-27 8-49 74-3 9 19 66 6-15-16 0-5-23-15-32-15-16-9-39-14l-11-1c-34 11 5-9-12 13-13 16 0 9-17 21-24 17-28 10-46 2 7-35 12-31 48-41-92-28-28 30-80 30-44 0-18 7-35-29 37-17 26-9 68-16l-68-12c-14 15-1 14-21 44-55 1-30-10-26-31l-1-19c-60-16-13-3-32 24s-22 23-47 4c18-19 17-24 12-36-33 8-25 35-59 39-25 3-14-16-15-28 0-2 0-5-1-6 0-2-1-5-1-7 0-1 0-5-2-7-28 11-23 29-48 44-32-11-23-32-24-33l-5-16c-21 20-18 34-48 47l-19-53c-48 21 8 23-48 53-26-17 7 19-10-14-1-2-3-5-4-7-17-36 34-9-15-32-35 16-4-3-18 24-21 40 24-16-10 27-27-4-12 0-27-16-15-17-3-22-30-31-1 2-2 3-2 6l-2 47c-68-4-30-2-44-19-21-26 29-19-29-25l-1 32c-5 16-4 13-30 12-27-39 22-48-53-38 18 23 11 38-2 55l-29-29c-17-19 40-12-28-20-6 10 18 58-16 51-64-12 25-39-64-40 1 3 3 3 4 7l11 27c0 1 21 15-13 18-27 3-24-9-29-14-10-12-2-19-9-27l-91 32c7 39 12-4 9 37-32 9-14 12-41-7-47-33 28-23-47-30l32 58c-33 1-52-3-70-32-1-2-2-5-3-7l-101 31 44 22 19-36c37 6 39 5 49 34-47 20-39 0-62 16-6 4-5 41-56-4-1-1-3-4-4-5-14-12 33-22-39-10 1 2 5 2 6 6s4 5 6 6l6 6c31 30 3-25 35 39-30 2-43 11-64-14-11-13-2 0-3-15-4-69 34 32 2-17l-134 69c-7 4-16 9-24 14-43 26-107 72-139 111-95 118-147 240-53 386l39 47 24 24 140 108c23 12 35 19 57 31 117 64 247 94 377 120 210 40 397 41 619 33-34-24-65-22-57-71 60-13 44 36 60 67 78-9 145-15 220-28 68-12 145-37 209-45-39-28-54-16-73-59 55-34 62 27 76 53 165-45 299-117 415-202l-5-22zm-370-736l5-1-5 1zm224 76l-12 3c3 1 9-2 12-3zm-33-10l8 4-8-4zm139 67l-13-6-80-38c-5 9-14-9 15 7l37 22c2 1 4 3 6 4l35 12zm75 51l-61-41c-18 10-17-2 7 3l54 38zm43 587l-7 4c-8 17 3 1-12 16-47 48-166 108-228 138-2 1-4 2-7 3l-110 52c44-1 146-51 203-85l125-85c29-24 26-9 34-44zm-882 194c25-22 41 22 44 44-59 19-63-29-44-44zm-373 66c5-48 3-68 49-51 0 1 14 18 2 33-18 22-19 13-51 18zm-84-11c0-47 14-57 54-46-5 39-12 53-54 46zm589-19c-46 8-50-5-55-46 30-20 53 11 55 46zm-678 11c-1-31 8-68 55-47-1 42-18 51-55 47zm-78-14c-16-37 9-51 49-50 5 43-10 58-49 50zm789-60c46-3 52 6 57 47-42 12-62 5-57-47zm-881 36c11-30 28-48 64-39-8 32-23 57-64 39zm1023-10c-41 13-54-2-66-41 39-24 60 14 66 41zm-1108-2c17-41 32-52 74-48-11 43-23 48-74 48zm-69-28c6-27 33-55 71-37-12 30-29 47-71 37zm1336-13c-40 6-57-5-72-33 4-19 21-18 38-10 21 10 29 25 34 43zm-1409-8c4-10 4-47 53-45 20 1 16 5 26 10-20 38-37 39-78 35zm1477-28c-17 10-13 17-44 3-26-12-22-14-26-37 35-7 58 3 69 34zm-1540-6c14-38 49-46 73-40 0 26 10 22-26 38-19 8-31 6-48 2zm1607-30c-28 32-37 10-75-4 9-54 58-13 75 4zm-1718-39c15-27 50-37 81-27-7 15-5 9-14 21-3 4-7 13-8 11s-3 4-4 6c56 2 9-1 47-11 25-6 22 2 32 11-13 18-5 26-69 32l-19-38c-38 8-18 14-44-5zm1778 19c-31 7-55-2-74-28 0 0 4-28 53-5 37 18 21 25 22 33zm44-60l5 5c7 10 4 1 11 19-82 19-78-33-78-34l49-6c-1-7-1-21 0-26 36-8 62-4 75 25-33 17-36 0-75 0l13 16zm-1967-112c18-18 47-21 75-20 0 1 4 20 5 21 5 9 1 2 12 12 38 35 15 22 12 35 51 8 37 12 36 19l-8 19c55 2 36-9 51 25l-69 17c-15-16-12-10-10-32-18-3-28-1-37-10-17-16-2-4-3-14 0-1 1-4 1-7s1-5 2-7c-47-7-39-12-37-21l9-19c-42-7-24 5-38-18zm135 98c-22-21 8-13-38-16 19 15-16 15 38 16zm-27-41c-28-14-7-10-49-9 31 20-8 17 49 9zm-30-34c-19-15 7-17-44-11 26 16 6 10 44 11zm1292 47l-11-37 36 28 73-13-41 61c-75-47-58 7-97-25l41-14zm-1111-152c1-3 2-5 3-7 6-14 5-14 15-24 20-21 83-45 114-52 3-1 5-1 8-1 3-1 5-1 8-1 112-22 271-7 284 83 16 112-241 154-356 113l-56-30c-1-1-3-4-4-5l-20-33c-1-4-2-5-4-8l8-34zm237-77c-24 0-49-2-72 3-11 2-45 11-59 16-145 48-125 158 64 168 277 14 340-185 67-186zm14 87c-17 35-46 30-76 11 1-12 17-22 33-23 23-2 31 4 42 12zm-552-42c3-26 59-20 80-10-8 12 9 18-40 19l-40-10zm49-69c-29 1-28 0-45-8 5-25 61-21 80-9-13 21 4 16-35 18zm1111-36c-28 17-36 16-70 7 2-26 7-43 42-38 29 5 23 14 28 30zm-1050-49c-29 17-63 12-77-10 8-6 29-9 45-8 41 2 18-7 32 18zm659-320c74-14 118-17 194-1 32 7 90 24 112 43 21 18 29 47 17 83-18 54-109 79-163 89-293 57-507-147-159-214zm255 55c1 2 2 5 3 6 18 35 20 19 14 74-21-28-4-5-12-28-13-33-9-63-118-76-93-11-143 20-200 18 6-10-6 0 14-14 5-4 13-7 19-10 14-6 23-7 34-11-215 33-208 153-44 182h184c5-1 33-7 38-9 22-7 12-3 25-12-73 13-97 30-193 22-101-9-185-68-118-131l34-16c1-3 6-1 9-2l-9 11c-28 31-59 38-22 77 50 53 218 59 315 5 36-20 19 6 25-13 1-3 4-2 7-3l-36 41c-1 1-4 6-5 4s-4 3-5 4c108-11 139-122 38-135l6 13zm-227-44c38-1 86-4 123 2 40 7 65 24 98 28-2-2-4-4-5-4-34-23-56-27-92-28-40-2-88-2-124 2zm937 148c5 85 53 67 34 95-11 15-30 9-30 9-76 0-4-14-68 7 6-86-27-4-24-84l-39 1c60-51 49-2 128-27zm-1557 39l-15-34c27-8 47-2 67 10-25 39-35 3-40 54-4 0-40-2-44-3-50-13-9 0-29-20 19-12 16-16 61-8zm1780-98c32-45 70-10 70-10-12 14 3 4-17 16-43 25-53-6-53-6zm-1662-19c8-5 0-17 40-9 19 3 23 14 28 19-9 8-10 16-30 14-29-3-37-23-37-23zm1572-29c10-13 6-13 25-21 28-12 11-2 27-3l-9 32c50-2 30-22 68 1-35 39-50 19-67 9l-45-18zm-1202-105c31-17 40-3 52 19-37 21-43 3-52-19z"/>
    <path class="fil4" d="m1939 3779c62-10 134-42 211-66l92-39c29-17 20-11 23-26l-26-20c16-10 1-14 30-4l32 6c21-53 79-142 4-181l-34-19c176-7 71 149 66 233l58 29 28 11c65-44 125-147 152-243 28-96 32-121-5-154-21-19-94-83-100-95l-25-21-12-8c-31-15-54-35-81-54-105 75-356 153-505 180-375 68-846 68-1207-76-137-55-337-166-399-298l-2 15c13 162 64 519 123 645 38 81 118 162 176 207 77 60 159 96 256 137 283 119 700 134 1013 65 112-25 198-58 301-90-15-30-12-18-46-39-23-10 0 2-22-10l-24-16c-54-17-117 41-168 18l130-30-12-20-31-13c-24-6-119 35-164 48l-68 21c84 12 65 2 145 0-176 101-366-160-96-268 16-7 40-13 70-20 13-21 41-28 61-14 76-17 171-41 264-80 38-16 87-44 126-50-79 65-252 104-382 135 2 2 4 5 6 7l33 51c11 9 16 17 16 24l8 13c13 20 7 47-13 60s-47 7-60-13l-6-10c-30 11-62 20-85 28-22 7-40 13-58 16-25-42 13-75 54-90l50-16-10-16c-7-11-8-24-5-36-26 7-48 13-64 20-181 74-174 288 28 224 21-7 40-14 65-22l50-18c14-7 10-6 19-13-26-16-58-26-63-51l85 43zm43 28l1 2c36 9 38 13 83-6 89-37 192-69 232-139l-28 9c-32 19-13 19-82 42l-220 73c2 2 4 4 4 7 1 4 6 8 8 11zm98 56c42 19 38 40 85 22 50-19 212-114 236-165l-31-16c-24-18-25-19-53-27-28 18-9 5-28 24-11 11-16 18-30 29l-217 98c10 18 26 27 37 34zm-238-201l-39 13c-1 0-18 6-21 7l-25 17c-1-2-4 4-5 6 19-6 62-18 98-31l-7-11zm18 28c-40 14-85 23-117 40l83-25c13-5 25-8 36-12l-2-4zm343-85c31-16 53-39 53-70-18 21-12 30-31 45-5 3-17 6-22 7 1-2 2-5 3-7 26-47 20-15 26-63-42 9-60 23-70 60 2 2 6 3 8 4l33 25zm68-81c-5 129-110 105-121 87-34-51 29-121 99-109l22 22z"/>
    <path class="fil5" d="m227 2687l13-27-13 27c-37 135 6 104 9 211 1 45-13 36 4 53l2-15c62 132 262 244 399 298 361 144 832 143 1207 76 149-27 400-105 505-180 27 19 49 39 81 54l36 29c0-19 5-15-13-13l-58-47c-2-1-4-3-6-4l60 20c-20-31-34-30-63-57 16-8 52-38 72-52 22-15 51-42 78-47l-40-22c-8 34-5 20-34 44l-125 85c-57 34-159 84-203 85l116-55c62-30 181-90 228-138 15-15 4 0 12-16l-16-8c6-21 8-14-15-9 0 15-3 10 15 9-23 46-206 139-289 172l-134 47c-20 10-17 9-23 17 75 8 57-37 111-7-119 15-179 78-643 118-377 33-573-57-692-62 34-22 31-13 73-3l225 37c247 25 411 16 648-14 93-12 202-51 283-58-33-25-31-15-80-1-141 40-243 45-319 56-194 26-403 17-596-8-69-9-268-62-307-59 7 8-1 3 18 14 21 11 42 10 59 25-98 6-440-155-505-267 91 81 321 241 428 228-15-19-137-60-186-82-118-53-216-120-282-234-53-92-41-109-39-220zm2320 307l13 7-13-7c13-27 32-42 50-68 14-21 30-71 35-43 6-12 7-12 8-34 0-2-1-21-2-23-10-42 9 2-8-18l-31 43c-8 15-17 30-26 42-23 31-40 47-58 74l-31-4c17-43 76-83 98-149l11-9-30 11-13-15c72-13 13-3 34-18l17-1c7-78 17-141-16-209-14-29-21-45-40-74-17-25-35-39-51-65l-20 9c-26-3-19 2-24 6l24-6c102 128 127 125 110 341-46 4-19 16-44-10l-9 49 34-6c-16 23-20 45-47 74l-2 2c-5 10-13 19-22 26l-3 3c-6 13-16 24-29 30l4 2c5 3 17 6 22 9 2 1 6 0 7 3s5 3 7 3c7 3 13 7 20 10 20 9 10 7 30 13zm-518-92c-3 2-5 4-7 7-29-53-103-105-184-98 20 20 28 16 30 17 48 17 176 45 136 149-49 125-489 130-516-17-1-3-1-12-1-15 1-21 0-13 7-28 22-52 108-88 162-87l-40 28c83 5 139-41 264 6 68 26 76 34 74 105-52 37-43 46-123 65-50 12-120 12-170 0-102-24-159-78-92-138 22-19 34-19 47-39-94 0-159 143 30 192 25 7 38 9 66 11 55 3 101-1 149-15 111-33 180-144 8-203-9-3-18-6-28-8-11-2-22-4-33-5-58-6-102 5-153 0l40-12c66-6 103 16 146-16-100-8-400 6-373 161 1 3 1 5 2 9l12 29c8 13 7 11 18 21 8 7 39 24 54 31 84 38 198 47 298 26 51-11 86-26 122-53 42-31 53-45 53-116-1-3-1-5-1-8zm394 57l4 18c-116 85-251 157-415 202-14-25-21-86-76-53 20 43 34 31 73 59-65 7-141 33-209 45-75 13-141 20-220 28-16-31 0-80-60-67-8 49 23 47 57 71-223 8-410 8-619-33-131-25-260-56-377-120-21-12-34-19-57-31l-140-108c-10-10-15-14-24-24l-39-47c-94-145-42-268 53-386 32-39 96-85 139-111 8-5 16-10 24-14l134-69c31 49-6-52-2 17 1 15-8 2 3 15 21 25 34 16 64 14-32-64-4-9-35-39l-6-6c-2-1-5-2-6-6s-4-4-6-6c73-11 25-1 39 10 1 1 3 4 4 5 51 45 49 8 56 4 23-16 15 4 62-16-10-29-12-28-49-34l-19 36-44-22 101-31c1 2 2 6 3 7 18 29 37 33 70 32l-32-58c75 7 0-2 47 30 27 19 8 16 41 7 2-41-3 1-9-37l91-32c7 8-1 15 9 27 4 5 2 17 29 14 34-4 13-17 13-18l-11-27c-1-4-3-5-4-7 89 1 1 28 64 40 34 6 10-41 16-51 68 7 11 1 28 20l29 29c13-17 20-32 2-55 76-10 27-1 53 38 26 1 25 4 30-12l1-32c59 6 9-1 29 25 14 17-23 16 44 19l2-47c0-3 1-4 2-6 27 8 15 14 30 31s0 12 27 16c34-43-11 13 10-27 14-26-16-8 18-24 48 23-2-3 15 32 1 2 3 5 4 7 17 33-15-3 10 14 56-30 0-32 48-53l19 53c30-13 27-27 48-47l5 16c0 1-9 22 24 33 25-15 20-33 48-44 2 3 3 16 3 20 1 12-10 31 15 28 33-4 26-31 59-39 5 12 5 17-12 36 25 19 28 22 47-4 19-27-28-40 32-24l1 19c-4 21-29 32 26 31 20-29 7-28 21-44l68 12c-42 6-31-1-68 16 17 36-9 29 35 29 52 0-12-58 80-30-36 10-40 6-48 41 18 8 22 15 46-2 17-12 4-5 17-21 17-22-21-2 12-13 21-29-12 0 8-17l-91-18c-115-22-187-24-291-40-108-16-316-5-422 8l-398 79c-20 5-39 11-59 17-44 13-164 47-193 86l-22 11c-22-6-22-12-11 9l-73 50c-9-11-23 4 5-13 16 2 13 6 13-8-19-7-16-11-13 8-55 5-17-1-33 16l-2 13c-23 26-1 1-8-3l-10 11c5 11 19-7-21 24-106 82-61 138-98 79-19 0-17-5-13 12l-12 27 12-27c22 26 17-15 18 30-80 77-54 234-7 318l94 109c7 6 13 12 20 18 49 44 168 101 228 128l89 33c26 9 51 16 75 23 523 140 1336 75 1649-240-13-10-15-13-16-13-5 1-10 1-16 0zm-1936-588l-32 14m135-72l-59 25c-1 1-5 6-6 4s-4 3-6 4c26-5 9 2 37-12 13-6 22-13 34-21zm-17 34c-24-5-25-13-14 8l14-8zm43-41c32-10 11 4 11-15l-11 15zm139-63c-30 12-76 26-94 41 22-5 25-6 51-15 5-2 16-6 20-9 21-11 14-6 22-17zm8 0c39 0 16 5 19-10l-19 10zm31-8c42-2 15 5 18-11l-18 11zm126-36l-56 13c25-1 18 1 31-2 41-10 11-3 26-11zm1176 61l37-15c-1-1-4-4-4-3l-23-11c-37-12-18-7-52-11l5-1c-43-1-19-4-25 11 24 5 8-2 39 14 22 11 7-1 23 15zm8-46l-17-11c-3 19-25 13 17 11zm69 11l-55-6m340 185l-54-38c-25-5-26 8-7-3 0-16 4-12-14-10 5-19 6-13-13-6l13 6-35-12c-2-1-4-3-6-4l-37-22c-29-16-21 2-15-7 0-17 4-13-13-12-3 1-9 4-12 3 12-23 12-16-12-9l-8-4c-28-29-9-19-46-19 12-9 0-6 23-10l-17-14 19-18-22 17c-32 23-27 11-58 26 28 7 62 21 87 31l199 114c2 1 0 29 7 6 0-1 2 2 3 3l-28 5c44 36 25 1 28-5l44 3c-8-26-1-12-23-20zm-167-120c-19-19-32-20-61-29 22 16 40 22 61 29zm127 64l-48-26c2 2 5 1 7 5 1 4 11 8 13 9 15 8 14 7 28 12zm82 54c-19-26-18-18-54-31 2 2 6 1 7 5l47 26zm-2270 602c-1-8-1-19-4-29-6-21-3-9-9-18l13 47z"/>
    <path class="fil5" d="m1808 4005c-313 70-730 54-1013-65-97-41-178-76-256-137-58-45-138-126-176-207-59-126-109-484-123-645-17-17-3-8-4-53-3-107-47-76-9-211l61-134c-4-17-6-12 13-12 25-8 84-78 119-104l20-20c16-16-22-11 33-16-4-20-7-15 13-8l55-29c-11-21-11-15 11-9l5-1c-11-21-10-13 14-8l3-1c29-40 149-73 193-86 20-6 39-12 59-17l398-79c106-13 313-24 422-8 104 15 175 18 291 40l91 18c-20 18 14-12-8 17l11 1c5-15-19-12 25-11l-5 1c34 4 15-1 52 11l23 11c1-1 3 2 4 3l-37 15c-57 12 8-9-66-6-8 11-10 18-10 26 10 5 19 13 24 24 31-10 25 1 69 2l29-38c30-14 27-3 54-23-9-4-16-11-21-20l-72-10c-42 2-20 8-17-11-83-7-192-40-288-52-100-12-202-19-305-20-154-1-439 21-575 68-14 7 15 0-26 11-12 3-6 2-31 2l-52 13c-3 15 24 9-18 11l-12-2c-3 15 20 10-19 10h-8c-9 11-2 6-22 17-5 3-15 7-20 9-26 10-29 10-51 15l-34 6c0 19 21 5-11 15l-25 8c-12 7-21 14-34 21-28 14-12 7-37 12l-31 26-32 14c-90 51-159 120-212 211-74 125-36 213-26 361 6 9 2-3 9 18 3 10 3 21 4 29 2 102 53 402 76 497 39 159 149 254 240 326 328 258 958 298 1387 169 211-65 532-232 631-443 29-62 32-114 49-172h1c0 4 1 8 3 11-128 16-252-134-74-279 17-14 47-31 83-52 1 2 2 4 4 6-35 21-64 39-82 54-136 111-88 288 48 234-1 6-5 10-2 15 0 14 12 18 0 0-6 40-14 79-17 90-84 295-486 481-768 544zm803-612l12-113 33-535c1-17 5-33 10-48-6-94-19-146-125-250-15-9-25-24-27-41-6-1-11-2-15-4l-47-26c-1-4-5-3-7-5-12-26 1-10-28-23-14-5-13-4-28-12-2-1-12-5-13-9-1-3-4-3-7-5l-79-39c-21-7-39-13-61-29l-8 2c-22 4-11 0-23 10 37 0 18-10 46 19l8 4c24-7 24-14 12 9l12-3c17-1 13-5 13 12l80 38c20-6 19-13 13 6 17-2 14-6 14 10l61 41c22 7 16-6 23 20l-44-3c-3 6 16 41-28 5l-106 31-31 22 78-11 81-24 17 7c5-4-2-9 24-6l20-9c68 35 184 205 146 322-4 12-8 15-10 20l-46 8c-20 15 38 4-34 18l13 15 30-11 38 3c18 21-2-23 8 18 1 2 2 21 2 23-1 21-2 21-8 34-12 132-19 264-31 398 6 29-35 134 10 111zm-72-402c-10-3-6-3-22-11-7-3-13-7-20-10-2-1-6 0-7-3s-5-2-7-3c-6-2-17-6-22-9-22-11-6-3-16-12-12-8-20-13-26-17-3 9-7 17-14 23 5 2 10 4 16 6 32 10 1-7 32 17l8 6c22-6 21-12 15 9l16 8 7-4 28 14c3-5 7-10 10-14z"/>
    <path class="fil5" d="m1092 2305c-10 4-20 5-34 11-6 3-14 6-19 10-20 14-8 4-14 14 57 2 107-30 200-18 109 13 106 43 118 76 8 22-9 0 12 28 5-55 3-39-14-74-1-2-2-5-3-6l-6-13c101 14 70 124-38 135 2-2 4-6 5-4s4-3 5-4l36-41c-2 1-6 0-7 3-7 19 11-7-25 13-97 54-265 49-315-5-37-39-6-47 22-77l9-11c-3 0-7-2-9 2l-34 16c-67 63 17 122 118 131 97 8 120-9 193-22-13 9-3 4-25 12-5 2-33 8-38 9h-184c-164-29-170-149 44-182zm19-5c36-5 84-4 124-2 35 1 58 5 92 28 1 1 4 3 5 4-33-4-58-22-98-28-37-6-85-3-123-2zm-28-11c-347 67-133 271 159 214 54-11 145-36 163-89 12-35 4-64-17-83-22-19-79-36-112-43-76-16-120-13-194 1z"/>
    <path class="fil5" d="m2305 2471l-33 7 31-22c-30 6-27 8-41 19-19-25-28-45-75-48 2 2 188 147-119 179-111 12-284-7-296-111 25-49 94-95 148-78-41 12 4-3-33 9l-15 5c-106 39-74 112-21 138 2 1 5 2 7 3l43 17c62 19 153 13 156 13l60-25c-82 5-70 23-181 3-203-37-116-192 143-149 80 13 180 68 68 132l-37 26c135-24 133-132 21-157l63-18c-118-11-156-51-300-17-34 8-99 34-119 55-92 94 92 200 292 175 104-13 201-43 196-150 19 12 17 21 44-4z"/>
    <path class="fil5" d="m1077 2701c-16-17-3-2 26-25-50 18-26 2-50 43-71-45-170-51-268-42-40 4-85 15-121 31l-51 26c-132 71-53 260 291 205 12-2 19-2 32-6 64-21 14-1 32-19-64-6-146 27-234 14-132-19-234-96-101-184 2-1 4-3 5-4l58-27c338-109 530 131 264 189 39 24 67 4 117-50 47-51 27-99-22-123l22-29z"/>
    <path class="fil5" d="m852 2718c274 1 211 200-67 186-189-10-209-119-64-168 13-4 47-14 59-16 23-4 48-3 72-3zm-245 111c1 2 3 3 4 8l20 33c1 2 3 4 4 5l56 30c115 41 372-1 356-113-12-90-172-104-284-83-3 1-5 1-8 1-3 1-5 1-8 1-31 6-94 31-114 52-10 11-9 10-15 24-1 2-2 5-3 7l-8 34z"/>
    <path class="fil5" d="m2616 3220l-73 57c18-22 46-42 73-63v-25c-28 24-61 49-75 61 1-2 1-9 3-7l18-24c2-2 16-13 17-14l38-31v-14l-5-5c-19 16-38 31-57 47-33 29-56 73-18 103 16-9 31-21 49-35 8-7 19-15 30-24v-3-21z"/>
    <path class="fil5" d="m2599 2783l29-6c3-5 6-8 10-20 38-116-78-287-146-322 16 26 33 40 51 65 20 29 26 44 40 74 33 68 23 131 16 209z"/>
    <path class="fil5" d="m453 2960c45 2 15-5 38 16-53 0-18-1-38-16zm-38-35c41 0 21-5 49 9-56 7-17 10-49-9zm-25-36c51-5 24-4 44 11-38-1-17 4-44-11zm-35-11c13 23-4 11 38 18l-9 19c-2 9-10 14 37 21-1 2-2 4-2 7s-1 6-1 7c1 10-14-2 3 14 9 9 19 6 37 10-2 23-5 16 10 32l69-17c-16-35 4-23-51-25l8-19c1-7 15-11-36-19 3-13 26 0-12-35-11-10-7-3-12-12-1-2-5-21-5-21-28-1-56 2-75 20z"/>
    <path class="fil5" d="m2350 2467l26-4c12 19-4 30 58 31-24 12-14 4-23 33l70-4c-43 40-34-39-42 34h75c-1-5-3-12-4-11 0 0-18-14-27-52h-49c16-11 14-9 21-29-36-19-10-8-24-23l-81 24z"/>
    <path class="fil5" d="m2581 2814c-21 66-80 106-98 149l31 4c19-27 35-43 58-74 9-12 18-27 26-42l31-43-38-3-11 9z"/>
    <path class="fil5" d="m500 3031c26 18 6 13 44 5l19 38c64-7 56-14 69-32-10-9-8-17-32-11-38 10 9 13-47 11 1-2 4-7 4-6 1 2 5-7 8-11 9-12 7-5 14-21-31-10-66 0-81 27z"/>
    <path class="fil5" d="m2309 2974l-49 6s-4 53 78 34c-7-18-4-9-11-19l-5-5-13-16c40 0 43 17 75 0-13-30-39-33-75-25-1 5-1 19 0 26z"/>
    <path class="fil5" d="m476 2453l15 34c-44-8-41-5-61 8 21 20-21 6 29 20 4 1 40 3 44 3 4-52 15-15 40-54-20-12-40-18-67-10z"/>
    <path class="fil5" d="m2180 2341l45 18c17 10 32 30 67-9-39-23-18-3-68-1l9-32c-17 1 1-9-27 3-20 8-16 8-25 21z"/>
    <path class="fil5" d="m674 3133c41 4 59 3 78-35-10-5-6-10-26-10-49-1-49 35-53 45z"/>
    <path class="fil5" d="m1839 3205c-5-41-11-50-57-47-6 53 15 60 57 47z"/>
    <path class="fil5" d="m1246 3251c33-5 34 4 51-18 12-15-2-32-2-33-47-18-45 2-49 51z"/>
    <path class="fil5" d="m1403 2666c35 8 42 9 70-7-6-17 0-26-28-30-35-6-40 12-42 38z"/>
    <path class="fil5" d="m1859 3143c12 39 26 55 66 41-7-27-28-65-66-41z"/>
    <path class="fil5" d="m1072 3232c37 4 54-6 55-47-47-20-56 16-55 47z"/>
    <path class="fil5" d="m2011 3108c15 29 32 40 72 33-5-18-13-34-34-43-18-8-34-9-38 10z"/>
    <path class="fil5" d="m994 3218c38 8 53-7 49-50-40-2-65 12-49 50z"/>
    <path class="fil5" d="m817 3182c52 0 63-5 74-48-43-4-58 7-74 48z"/>
    <path class="fil5" d="m2204 3022c20 26 44 35 74 28 0-7 16-15-22-33-49-23-53 5-53 5z"/>
    <path class="fil5" d="m612 3100c17 3 28 6 48-2 36-15 25-12 26-38-24-6-59 2-73 40z"/>
    <path class="fil5" d="m1439 3204c-31 32 15 58 36 37 22-22-6-67-36-37z"/>
    <path class="fil5" d="m1161 3240c42 6 49-7 54-46-41-11-55 0-54 46z"/>
    <path class="fil5" d="m1695 3174c5 41 9 54 55 46-2-35-25-67-55-46z"/>
    <path class="fil5" d="m2152 3106c-11-31-34-41-69-34 3 23-1 25 26 37 31 15 27 7 44-3z"/>
    <path class="fil5" d="m2143 3066c38 14 48 36 75 4-17-17-66-58-75-4z"/>
    <path class="fil5" d="m1663 3230c-3-22-19-66-44-44-18 16-14 63 44 44z"/>
    <path class="fil5" d="m748 3154c42 11 59-6 71-37-38-18-65 10-71 37z"/>
    <path class="fil5" d="m1349 3248l30-2c5-12 7-6 9-24 1-17 0-9-3-23-29-3-43-8-44 23-1 20 5 18 9 25z"/>
    <path class="fil5" d="m902 3194c41 18 56-7 64-39-36-9-53 9-64 39z"/>
    <path class="fil5" d="m2271 2389s11 31 53 6c20-12 5-1 17-16 0 0-38-35-70 10z"/>
    <path class="fil5" d="m317 2686c17 8 16 10 45 8 39-2 22 3 35-18-19-12-76-15-80 9z"/>
    <path class="fil5" d="m314 2763l40 10c49-1 32-8 40-19-21-11-77-16-80 10z"/>
    <path class="fil5" d="m346 2600c15 22 48 27 77 10-14-25 8-16-32-18-16-1-37 2-45 8z"/>
    <path class="fil5" d="m608 2370s9 20 37 23c21 2 22-6 30-14-5-5-9-16-28-19-39-7-32 5-40 9z"/>
    <path class="fil5" d="m978 2235c8 22 15 40 52 19-12-23-21-36-52-19z"/>
    <ellipse cy="2811" cx="828" rx="38" class="fil5" ry="16"/>
    <polygon points="1184 2439 1155 2410 1117 2421 1105 2409 1143 2397 1115 2368 1131 2363 1160 2393 1197 2381 1209 2393 1171 2405 1200 2434" class="fil6"/>
    <rect width="146.12" height="38.272" class="fil5" transform="matrix(.94165 -.29594 .19717 1 1675.2 2948.6)"/>
     <path class="fil0 str1" d="m1123 3578c1-16 5-18-13-21-11-2-26-3-34-1-3 7-6 35-6 66-1 31 0 64-1 79v11c1 7-1-4 1 4 2 7 8 9 14 11 8 1 16 2 25 3h5c7 0 8-1 9-5 2-10 2-34 2-57s0-44 2-49 6-12 12-14c5-2 10-6 19 7 7 11 5 12 4 19-1 56-3 82-2 94 2 12 7 11 22 12 4 0 12 1 15 1 21 0 17-8 17-39 0-25 1-50 2-75 0-1 4-8 6-10 5-4 8-2 13-8 2 2 4 3 5 5 14 12 9 21 9 54v69c1 5 3 3 4 5 1 1 2 1 2 1 7 3-2 1 7 3 1 0 11 1 12 1h22c9-1 5-29 5-34 0-13 1-36 1-58s0-42-2-51c-6-26-25-38-54-36-13 1 12-2-5 1h-2c-5 2-11 3-16 5-8 4-15 10-17 19 3-5-6-27-38-29-36-4-49 16-44 19z"/>
     <path class="fil0 str1" d="m985 3657c-1 1-1 2-1 2s0 1-1 1c-18 32-41 9-40-7 0-11 12-16 12-16 7-2 13-3 20-5h2c2 0 6 1 9 1v22zm5-70c1 2 2 4 2 6-1 5-2 9-3 14-5 0-10-1-15-1-12-5-8-4-21-4h-16c-32 3-45 15-49 47-1 6 0 4 0 10 2 9 4 17 7 26 16 29 54 32 81 26 10-2 31-17 19-10 4 4 6 8 10 12 7 7 8 7 19 9 6-6 22-14 26-19 0-1 1-3 1-2 0 0 4-7-2-16-3-5-7-8-8-15-2-9-1-19 0-31s1-27-1-46c-1-13 3-24-17-39-9-7-16-9-27-13-12-5-18-7-32-8h-2-2c-35-2-65 6-61 46 1 0 2 0 2 1s2 1 2 1c3 1 5 2 8 3 15 6 14 6 26 6h2c4 0 3-2 3-2 1-1 2-3 3-4 18-26 37 0 42 4z"/>
     <path class="fil0 str1" d="m1420 3679c0 11-3 21-13 29-28 24-54-42 13-41v11zm-90-54c15 2 31 4 46 6 4-10 7-20 18-22 6-1 13 0 16 2 2 3 5 6 8 9 3 4 2 11 2 16-11 1-22 3-33 4-30 5-55 9-63 47-3 17-1 37 11 50 5 5 6 6 13 9 12 2 25 4 38 6 3 0 8-1 9-1 13-3 28-7 34-19 2 7 3 6 8 11 15 15 18 11 33-1 26-20 22-16 8-41-6-11 4 11-2-5 0-1-1-2-1-3v-2c-5-27 2-55-1-77s-15-39-55-46c-19-3-24-1-42 3-1 0-3 1-4 1-13 3-19 6-28 15-6 6-8 7-11 15-2 6-5 17-2 24z"/>
     <path class="fil0 str1" d="m1703 3673v-37c-3-41 31-56 43-14 2 10 4 42-2 58-2 5-1 4-4 7l-1 1c-3 3-6 5-9 8-5 2-11 1-14-1-6-4-9-14-11-18-1-1-1-2-2-3l-1-1zm-3-107s-27-4-44 36c-2 9-5 19-7 28v2c-1 15-1 33 3 50 3 17 10 33 23 43 12 9 22 10 38 11h2c46 1 80-31 89-73-2-20-4-40-7-59-4-11-13-24-24-32-9-7-19-9-30-11-30-5-40 6-41 6z"/>
     <path class="fil0 str1" d="m1860 3552c-5 1-4 2-4-2-13 2-26 4-39 6 0 1-1 1-1 2 3 21 5 42 6 62 1 21 1 41 1 62 0 15 0 25-4 39 5-1 44-4 48-8 0-1 1-2 1-2 1-16 2-33 2-49s0-33-1-49v-2c0-1 0-1 1-2 3-12 13-36 29-25 8 6 12 23 13 40 1 18 0 36 0 46v18c0 3-1 6-1 9 2 4 3 8 5 12 14-2 28-4 41-6v-2c1-23 1-47 1-70-1-15 0-31-1-45-1-15-3-28-8-36 0-1-1-3-2-3-8-12-15-15-30-16-42-2-63 30-55 34-1-5-2-9-3-14z"/>
     <path class="fil0 str1" d="m1095 3754c-23-10-58-38-56-19 1 4 30 27 36 31l27 18c5 3 9 5 14 9 9 6 18 10 27 15 43 24 91 41 140 49s98 7 143-3c30-7 124-45 132-61 12-27-40-1-40-1-10 4-22 8-33 11-49 14-139 27-186 16-46-11-48-6-110-26-7-3-11-4-17-6-38-13-47-20-76-33z"/>
     <path class="fil0 str1" d="m1506 3571c-1 3 2 20 0 39 20 0 40-1 60-2h-1c-1 1-2 2-4 3-2 2-3 5-5 7-11 15-21 30-32 45-19 28-27 27-26 64 2 5 5 10 7 14 0 0 1 2 13-2 15-5 5-4 29-10 13-4 12-8 27-5 16 4 31 7 47 10 0 0 2 2 12-2 1-1 1-3 2-4 0-1 0-1 1-2 0-10 0-19-1-29-3-10-26-12-38-14-19-2-13 0-26 2 19-26 37-52 54-77 7-13 7-29 1-41-8-2-100-2-120 3-1 0-2 0-2 1z"/>
     <path class="fil0 str1" d="m1507 3765c0 4 1 3-4 3 0 2 0 4-1 7 3 0 7 0 10-1 6 0 13 0 19-1 11-2 17-6 35-3 6 1 3 0 7 2 9 3 6 13 4 20l-6 18c-4 11-13 23-13 36 18-3 31-20 40-41 9-20 12-44 10-56-27-10-90 1-101 16z"/>
     <path class="fil0 str1" d="m1817 3552c-4 8 0 21 1 30s2 32 3 53 1 41 4 44c0-21 0-42-1-63s-4-42-7-64c1-1 1-1 1-2 13-2 26-4 38-7 0 5-1 3 4 2-2-4 0-4-4-2-3-4 0-3-19 1-9 2-14 1-19 6 0 1-1 1-1 2z"/>
     <path class="fil0 str1" d="m974 3605c5 0 10 1 15 1 1-5 2-9 3-14-1-2-2-4-2-6-1 7-1 14-1 20-1 0-7-2-7-2-8-1-3-1-7 1z"/>
     <path class="fil0 str1" d="m1503 3775c2 2-3 3 5 2 6-1 2 0 5-2-3 0-7 0-10 1 0-2 1-4 1-7 5 1 4 2 4-3-5 0-4-1-4 3-8-1-1 7-1 7z"/>
    <circle cy="1915" cx="5488" r="114" class="fil7"/>
    <path class="fil4" d="m5434 1857c-3 4-7 9-9 16-8 25 4 31 1 41-2 5-13 20-10 25 2 3 5 2 8 4 1 3 0 6 0 9 0 4 1 4 4 6 0 3-2 3 0 6 1 2 2 3 3 5 2 4-2 10 1 14 4 7 19 4 27 3 17-1 16-1 22 12 60-20 71-15 71-39 2-4 6-7 6-11v-77c0-12-25-29-37-34-30-11-68-7-88 20z"/>
    <g style="clip-path:url(#id0)">
      <rect y="1923" x="5682" height="17.496" class="fil0 str2" width="17.48"/>
    </g>
    <path class="fil0" d="m5434 1857c-3 4-7 9-9 16-8 25 4 31 1 41-2 5-13 20-10 25 2 3 5 2 8 4 1 3 0 6 0 9 0 4 1 4 4 6 0 3-2 3 0 6 1 2 2 3 3 5 2 4-2 10 1 14 4 7 19 4 27 3 17-1 16-1 22 12 60-20 71-15 71-39 2-4 6-7 6-11v-77c0-12-25-29-37-34-30-11-68-7-88 20z"/>
   <path class="fil8" d="m3121 3419c-1-15 3-30-8-36s-14-4-27-15-27-31-27-58c-1-47 41-86 91-77 42 8 76 51 59 102-18 53-82 79-87 84 8 0 17 1 26 0 49-5 91-44 97-96 8-65-39-116-96-123-65-8-117 40-123 96-7 54 26 101 73 118 8 3 15 3 22 6z"/>
  </g>
 </g>
</svg>
