<?xml version="1.0" encoding="UTF-8"?>
<!DOCTYPE svg PUBLIC "-//W3C//DTD SVG 1.0//EN" "http://www.w3.org/TR/2001/REC-SVG-20010904/DTD/svg10.dtd">
<!-- Creator: CorelDRAW X6 -->
<svg xmlns="http://www.w3.org/2000/svg" xml:space="preserve" width="1.33962in" height="1.13912in" version="1.0" style="shape-rendering:geometricPrecision; text-rendering:geometricPrecision; image-rendering:optimizeQuality; fill-rule:evenodd; clip-rule:evenodd"
viewBox="0 0 169989 144547"
 xmlns:xlink="http://www.w3.org/1999/xlink">
 <defs>
  <style type="text/css">
   <![CDATA[
    .fil3 {fill:#FEFEFE}
    .fil5 {fill:#121149}
    .fil4 {fill:#273B7A}
    .fil6 {fill:#366695}
    .fil1 {fill:#D48B07}
    .fil2 {fill:#FF5419}
    .fil0 {fill:#FFC007}
    .fil7 {fill:#FFEDB5}
   ]]>
  </style>
 </defs>
 <g id="Layer_x0020_1">
  <metadata id="CorelCorpID_0Corel-Layer"/>
  <g id="_1101348832">
   <path class="fil0" d="M2830 7587c-22,251 52,214 -175,171l-25 234c-94,163 -151,242 -257,389l-129 258 -128 258 -156 230 -77 182 -152 234c75,282 154,235 -105,235 -1294,3266 -1625,4347 -1625,8126l0 107439c0,3526 73,5738 1242,8570 1874,4540 5431,7877 10036,9578 2928,1081 5390,995 8745,995 39081,0 78161,0 117241,0 4042,0 16145,284 19283,-381 7940,-1684 13028,-8545 13376,-15921 147,-3126 3,-6637 3,-9806l0 -97636c0,-3488 128,-6058 -826,-8982 -784,-2402 -2238,-4757 -3630,-6198 -3425,-3544 -6958,-5511 -14018,-5511l-127043 0c-7642,0 -13507,-913 -19435,4996 -1293,1288 -1556,1919 -2143,2539z"/>
   <g>
    <path class="fil1" d="M50930 43230l-33387 58427 77087 0 -33387 -58427c-2281,-3990 -8034,-3990 -10314,0z"/>
    <path class="fil2" d="M108745 43230l-33387 58427 77087 0 -33386 -58427c-2281,-3990 -8035,-3990 -10315,0z"/>
    <path class="fil3" d="M79567 27145l-33116 74511 77087 0 -33116 -74511c-2090,-4703 -8765,-4703 -10855,0z"/>
    <path class="fil1" d="M90422 27145c-1030,-2317 -3172,-3487 -5330,-3521l0 78032 38446 0 -33116 -74511z"/>
    <path class="fil4" d="M33895 72554l0 38932c0,5215 4227,9442 9441,9442l83317 0c5214,0 9441,-4227 9441,-9442l0 -38932c0,-5215 -4227,-9442 -9441,-9442l-83316 0c-5215,0 -9442,4227 -9442,9442z"/>
    <path class="fil5" d="M126653 63113l-41561 0 0 57816 41561 0c5214,0 9441,-4227 9441,-9442l0 -38932c0,-5215 -4226,-9442 -9441,-9442z"/>
    <rect class="fil6" x="46451" y="63112" width="77088" height="57816"/>
    <rect class="fil4" x="85094" y="63112" width="38446" height="57816"/>
    <path class="fil1" d="M67794 93382l-16647 24242 38683 0 -16647 -24242c-1298,-1891 -4090,-1891 -5389,0z"/>
    <path class="fil2" d="M96806 93382l-16647 24242 38683 0 -16647 -24242c-1300,-1891 -4091,-1891 -5389,0z"/>
    <path class="fil3" d="M82112 86809l-16458 30815 38683 0 -16458 -30815c-1231,-2305 -4535,-2305 -5766,0z"/>
    <path class="fil1" d="M87878 86809c-598,-1120 -1685,-1691 -2786,-1723l0 32537 19244 0 -16458 -30815z"/>
    <g>
     <rect class="fil7" x="88499" y="71581" width="31536" height="3504"/>
     <rect class="fil7" x="112443" y="80048" width="7592" height="2336"/>
     <polygon class="fil7" points="96091,80048 93463,80048 93463,77421 91127,77421 91127,80048 88498,80048 88498,82385 91127,82385 91127,85012 93463,85012 93463,82385 96091,82385 "/>
    </g>
   </g>
  </g>
 </g>
</svg>
