<?xml version="1.0" encoding="UTF-8"?>
<!DOCTYPE svg PUBLIC "-//W3C//DTD SVG 1.0//EN" "http://www.w3.org/TR/2001/REC-SVG-20010904/DTD/svg10.dtd">
<!-- Creator: CorelDRAW X6 -->
<svg xmlns="http://www.w3.org/2000/svg" xml:space="preserve" width="5.84646in" height="8.26772in" version="1.0" style="shape-rendering:geometricPrecision; text-rendering:geometricPrecision; image-rendering:optimizeQuality; fill-rule:evenodd; clip-rule:evenodd"
viewBox="0 0 584646 826772"
 xmlns:xlink="http://www.w3.org/1999/xlink">
 <defs>
  <style type="text/css">
   <![CDATA[
    .fil1 {fill:#2B2A29}
    .fil0 {fill:#FFED00}
    .fil2 {fill:#2B2A29;fill-rule:nonzero}
   ]]>
  </style>
 </defs>
 <g id="Layer_x0020_1">
  <metadata id="CorelCorpID_0Corel-Layer"/>
  <g id="_1013040160">
   <rect class="fil0" width="584646" height="826772"/>
   <g>
    <path class="fil1" d="M159046 469607c5772,-2378 22230,-2188 28343,-141 1332,1494 890,-393 1737,3390 122,543 354,2624 361,3222 66,5185 122,4515 -2057,6144l-28374 -98c-437,-499 -3784,-439 -1241,-10439l1231 -2078zm39817 -5168c-1,-282 -420,835 -592,610l592 -610zm1439 -6511c-3297,2421 -3173,5319 -3377,4667 -80,-257 -265,773 -494,1104 -4715,-6894 -4173,-5944 -15216,-5856 -24614,196 -23034,-3107 -34059,7936 -4850,4857 -4036,5476 -4022,16410l25 57256c5388,-1692 10428,-4509 14920,-6893l176 -39093 29957 -4 213 13792 14759 103 889 -35733 15941 29191c3631,6884 1720,6679 12223,6691 12451,14 20441,-34134 31685,-46481l302 46468c32192,98 48348,4687 56331,-11239l-41430 -481 591 -7623c19969,-1394 27117,4511 35599,-10547l-36229 387 32 -8263c22118,-3961 33891,6935 43084,-11787l-70804 -4c-7970,3891 -13597,25414 -21281,32541l-17330 -32207 -12485 -335z"/>
    <path class="fil1" d="M396476 469027l29896 215 40 12298 -29861 841 -74 -13355zm-26515 38328c1594,-1983 -51,-226 2506,-2976 5453,-5867 4533,-5496 9982,-6993l1170 9956 12736 -30 248 -13925 29768 682 316 39067 14871 6439 14 -68563c-2146,-5488 -8648,-12450 -16027,-13139 -56341,-5253 -41661,15867 -44557,38334l-30672 -12c6247,-10025 26167,-28802 31015,-38262l-57205 13c6928,15046 12033,9939 30817,11418 -4278,9726 -25401,26592 -31250,38106l46268 -114z"/>
    <path class="fil1" d="M270204 421465l-13872 15793c38600,12328 23474,19085 54362,6830 6375,-2530 13194,-4433 17240,-8535l-13635 -14247c-8389,-2533 -36017,-2723 -44096,158z"/>
    <path class="fil1" d="M345949 384012c-6641,4914 -12203,3265 -21102,3265 -10877,23 -2289,648 -5596,-3181 -2909,3231 -7110,9001 -9750,12635 -3074,4231 -6522,7013 -9198,11611l41682 511c7246,-1639 15267,-5713 22442,-8444 13649,-5196 8523,-2174 15028,-13362 -7085,3269 -22319,1559 -32254,1545 -614,-1405 -2616,964 272,-3765l-6368 3881 4843 -4697z"/>
    <path class="fil1" d="M236598 383504l-1555 -77c1778,2038 2272,2685 4166,5165 -10231,4 -27168,2176 -33995,-2125 6655,12130 2516,9106 15935,14198 7089,2691 14576,6598 21862,8360l41668 123 1493 937 -1493 -937c-3297,-4967 -14815,-20806 -19289,-23589 -180,4242 1541,351 -1218,3048 -13113,-42 -16513,2141 -25459,-4944l1446 1914 -1199 492 -2362 -2565z"/>
    <path class="fil1" d="M358856 372437c-5330,1871 -7948,1454 -14850,1494 -2013,12 -6321,207 -8061,54 -7800,-690 -3474,101 -6209,-1971 -6349,4017 -5270,6310 -10484,12083 3307,3829 -5281,3204 5596,3181 8899,0 14461,1649 21102,-3265l4345 -2430c-1481,2835 2928,75 -2820,3245 -2889,4730 -887,2361 -272,3765 9934,14 25169,1724 32254,-1545l7437 -15980c-6281,5794 -3100,4056 -22119,4115l4164 -4638c-4415,2581 -4726,2359 -9469,5797 -3357,2433 -5137,4026 -9422,4983l8810 -8887z"/>
    <path class="fil1" d="M270204 421465c8078,-2881 35707,-2691 44096,-158l27685 -12453 -41682 -511c-2334,2265 -2330,3360 -4137,5228 -4231,4370 458,1443 -5452,3822l-4544 -7306 -1493 -937 -41668 -123 27194 12438z"/>
    <path class="fil1" d="M356915 337688c-3112,2342 -1131,824 -3380,3939 -1892,2622 -1107,1981 -3421,4759 -2261,2714 -4099,4770 -6920,7283l-1417 1689 -1256 1841 -1130 1974 -1648 1472 1648 -1472 1130 -1974 1256 -1841 1417 -1689 26490 -576c2069,152 2448,63 4371,741 5335,1880 37,-2374 3489,2181l-1721 1395 -1837 1301 -1534 1970 1534 -1970 1837 -1301 1721 -1395c4257,-2754 8015,-5547 11852,-9082 4598,-4237 7962,-6211 9259,-11791l-39563 837c430,2594 809,1708 -2175,1708z"/>
    <path class="fil1" d="M359090 335980l-2175 1708c2984,0 2605,886 2175,-1708l39563 -837 -86 -20027 -23195 -517 -12906 15435c-3134,3704 -1730,695 -3376,5945z"/>
    <path class="fil1" d="M185961 336601l41046 680c-200,2398 -653,1639 2013,1639l-2013 -1639c-2040,-5345 -8840,-12561 -13954,-18144l-27072 -400 -20 17864z"/>
    <path class="fil1" d="M200491 349493c-354,2380 -815,1793 1643,1500 -124,2250 -613,1677 1719,1447l1769 1407 1769 1378 1855 1363 1867 2273c0,-3046 869,-2544 -1867,-2273l-1855 -1363 -1769 -1378 -1769 -1407c-65,-2237 504,-1749 -1719,-1447 118,-2419 702,-1959 -1643,-1500 8493,-3946 24745,-481 35115,-1544 -650,2472 -1107,1892 1456,1663 -399,2265 -901,1707 1344,1800l1249 1865c-350,2651 -818,1827 2103,1827l-2103 -1827 -1249 -1865c239,-2448 902,-2054 -1344,-1800 383,-2706 1072,-2370 -1456,-1663l-6587 -9030c-2666,0 -2213,759 -2013,-1639l-41046 -680c3425,5643 8885,10847 14531,12892z"/>
    <path class="fil1" d="M202135 350993c2222,-302 1654,-790 1719,1447l1769 1407 1769 1378 1855 1363c2736,-271 1867,-773 1867,2273 3037,6506 -396,1609 4065,2963 -433,2727 -938,1787 1886,2573 0,-3671 1153,-3433 -1886,-2573 4995,-2311 24439,-1815 30450,146 -937,3161 -1237,2052 2447,2052 -724,-3097 294,-2723 -2447,-2052 -933,-4494 719,-3214 -3867,-6864 -2921,0 -2452,824 -2103,-1827l-1249 -1865c-2246,-93 -1744,465 -1344,-1800 -2563,229 -2107,808 -1456,-1663 -10370,1063 -26622,-2402 -35115,1544 2345,-460 1761,-919 1643,1500z"/>
    <path class="fil1" d="M217063 364396c1935,5467 7602,5524 10896,10866l1928 171c4767,-297 8865,-310 13636,-255 1545,18 4972,146 6323,28 6909,-604 2680,676 6186,-1684 -1248,-2686 -1572,-3119 -3652,-5734 -2563,-3221 -1314,-2814 -4306,-3766 -3684,0 -3384,1109 -2447,-2052 -6010,-1961 -25454,-2457 -30450,-146 3039,-860 1886,-1098 1886,2573z"/>
    <path class="fil1" d="M198612 373112l6601 13356c6828,4301 23764,2129 33995,2125 -1894,-2481 -2389,-3128 -4166,-5165l-1063 -1613 -1326 -183 -4469 -2795c-3573,-4110 -5839,-3938 -10311,-6365 252,372 609,986 708,1149l881 1519c-7849,24 -15331,1158 -20850,-2027z"/>
    <path class="fil1" d="M229887 375433l6030 6317 680 1754 2115 159c8946,7085 12346,4902 25459,4944 2759,-2697 1038,1194 1218,-3048 -2530,-5261 -5311,-8385 -9357,-12038 -3506,2361 724,1080 -6186,1684 -1351,118 -4778,-10 -6323,-28 -4771,-55 -8869,-42 -13636,255z"/>
    <path class="fil1" d="M185981 318737l27072 400 -13970 -17112 -12529 769c-41,-1054 -487,-8514 -361,-9232 949,-5426 -820,-2926 3196,-4958l1074 2059 1046 2168c-107,2669 -746,1999 1928,1999l-1928 -1999 -1046 -2168 -1074 -2059 -3026 -3317 -383 33450z"/>
    <path class="fil1" d="M341777 355359l-1256 1841 -1130 1974 -1648 1472 -3130 4813 -780 2219 -2428 2732c3924,0 3233,1008 2428,-2732l780 -2219c4443,-3703 16713,-3360 23888,-2916 1490,92 3119,178 4485,683 5380,1988 -88,-2376 3561,2480l-1719 1302c-2474,-59 -1757,-609 -1757,2038l1757 -2038 1719 -1302 5904 -5024 1534 -1970 1837 -1301 1721 -1395c-3452,-4554 1846,-301 -3489,-2181 -1923,-678 -2302,-589 -4371,-741l-26490 576 -1417 1689z"/>
    <path class="fil1" d="M334612 365459l-780 2219c805,3740 1496,2732 -2428,2732 -3093,-689 -1022,-595 -1669,1604 2736,2072 -1591,1281 6209,1971 1740,154 6048,-42 8061,-54 6903,-40 9521,378 14850,-1494 3031,-1643 1972,-404 4214,-3391 0,-2646 -717,-2097 1757,-2038l1719 -1302c-3650,-4856 1819,-492 -3561,-2480 -1366,-505 -2995,-591 -4485,-683 -7176,-444 -19445,-787 -23888,2916z"/>
    <path class="fil1" d="M368937 370544l-4164 4638c19019,-59 15838,1679 22119,-4115l9778 -19586 -27733 19063z"/>
    <path class="fil1" d="M375372 314600l23195 517 94 -12325c-629,2 -6705,165 -6883,134 -5200,-927 -2999,665 -5269,-3084 -4534,5393 -6989,8465 -11137,14759z"/>
    <path class="fil1" d="M198612 373112c5519,3185 13002,2050 20850,2027l-881 -1519c-99,-163 -456,-776 -708,-1149 -2377,-4242 -3783,-3798 -7184,-6065 -2078,-1385 -3130,-2332 -4771,-3204 -3166,-1680 -1237,-928 -4344,-1544 -5770,-1183 -5198,-2417 -7657,1276l4695 10178z"/>
    <path class="fil1" d="M280588 396827c5647,2520 17302,2513 23520,691l4129 -5717c-5572,556 -11163,2579 -16854,2365 -5482,-206 -9536,-2400 -14903,-2243l4107 4904z"/>
    <path class="fil1" d="M386509 299841c2270,3750 70,2157 5269,3084 178,31 6254,-132 6883,-134l-326 -16829c-4600,4374 -7765,8469 -11826,13879z"/>
    <path class="fil1" d="M286931 405601l10789 -279c3528,-3285 3167,-4348 6388,-7804 -6218,1822 -17873,1829 -23520,-691 2926,3378 3547,4948 6343,8774z"/>
    <path class="fil1" d="M199083 302025c-2011,-4198 -1948,-4140 -5646,-7194 -2674,0 -2035,670 -1928,-1999l-1046 -2168 -1074 -2059c-4017,2033 -2247,-468 -3196,4958 -126,718 320,8178 361,9232l12529 -769z"/>
    <path class="fil1" d="M159056 482123l-10 -12517 28343 -141 41 12756c2180,-1630 2124,-959 2057,-6144 -7,-598 -240,-2680 -361,-3222 -848,-3783 -405,-1896 -1737,-3390 -6112,-2047 -22570,-2236 -28343,141l-1231 2078c-2543,10000 804,9940 1241,10439z"/>
    <path class="fil1" d="M193917 362934c2459,-3694 1887,-2459 7657,-1276l-3260 -3691c-10146,-9395 -8566,-6909 -10706,-4701 596,694 518,241 1820,2496l4489 7172z"/>
    <path class="fil1" d="M369960 507355c6983,-4050 3879,-4404 10903,-8083 78,9781 21,5809 2756,8070l-1170 -9956c-5449,1496 -4529,1126 -9982,6993 -2557,2750 -912,993 -2506,2976z"/>
    <path class="fil1" d="M297720 405322l-10789 279c3819,3112 2058,3122 6015,6091l4774 -6370z"/>
    <path class="fil1" d="M228184 378836l4469 2795c1135,-2580 164,-2444 1326,183l1938 -64 -6030 -6317 -1928 -171c295,407 576,1076 776,1294 185,202 739,846 928,1039 1521,1560 2833,714 2682,1600l-4161 -359z"/>
    <path class="fil2" d="M188761 522728l0 10556 -2281 0 0 -10556 -5308 0 0 -1481 13131 0 0 1481 -5541 0zm9721 0l0 3333 5379 0 0 1398 -5379 0 0 4343 7543 0 0 1481 -9826 0 0 -12037 9826 0 0 1481 -7543 0zm20830 -1044l-760 1406c-729,-387 -1870,-580 -3434,-580 -1459,0 -2631,454 -3516,1364 -880,912 -1322,2085 -1322,3519 0,1372 454,2483 1357,3333 904,852 2072,1279 3504,1279 1555,0 2759,-396 3597,-1189l1249 1257c-1319,943 -3015,1414 -5091,1414 -2177,0 -3888,-567 -5141,-1703 -1250,-1133 -1874,-2630 -1874,-4489 0,-1798 668,-3291 2002,-4481 1335,-1189 3057,-1785 5177,-1785 1812,0 3228,219 4252,656zm12832 11600l0 -5825 -7264 0 0 5825 -2281 0 0 -12037 2281 0 0 4815 7264 0 0 -4815 2282 0 0 12037 -2282 0zm14987 -4626l0 4626 -2281 0 0 -12040c1723,-53 2763,-81 3120,-81 4842,0 7264,1170 7264,3513 0,2707 -2139,4063 -6419,4063 -257,0 -819,-28 -1684,-81zm0 -5932l0 4450c963,54 1471,81 1522,81 2820,0 4230,-802 4230,-2410 0,-1467 -1506,-2203 -4513,-2203 -303,0 -714,28 -1238,81zm9911 4433c0,-1743 605,-3198 1816,-4371 1207,-1173 2840,-1759 4893,-1759 2314,0 4087,539 5320,1619 1231,1080 1848,2584 1848,4511 0,1978 -616,3528 -1854,4647 -1235,1120 -3008,1681 -5314,1681 -2099,0 -3740,-592 -4927,-1776 -1187,-1181 -1782,-2700 -1782,-4552zm2399 0c0,1381 376,2531 1128,3457 753,926 1816,1389 3186,1389 1549,0 2732,-424 3547,-1274 810,-847 1218,-2039 1218,-3572 0,-3100 -1587,-4649 -4765,-4649 -1408,0 -2479,415 -3213,1248 -733,834 -1102,1967 -1102,3400zm26887 6294l-721 0 -3946 -8300 -3714 8300 -721 0 -5263 -12206 2376 0 3341 8401 3667 -8401 792 0 3598 8383 3411 -8383 2376 0 -5193 12206zm9313 -10724l0 3333 5378 0 0 1398 -5378 0 0 4343 7543 0 0 1481 -9825 0 0 -12037 9825 0 0 1481 -7543 0zm19433 10556l-4435 -5169c-508,0 -1311,-28 -2410,-81l0 5250 -2281 0 0 -12048c86,0 676,-20 1769,-62 1098,-43 1894,-62 2394,-62 4009,0 6011,1153 6011,3457 0,757 -322,1439 -967,2045 -644,606 -1409,982 -2297,1131l4823 5539 -2607 0zm-6845 -10576l0 3929c544,53 1076,81 1591,81 1363,0 2352,-159 2973,-477 621,-320 931,-889 931,-1708 0,-676 -333,-1162 -997,-1459 -667,-297 -1719,-446 -3159,-446 -225,0 -671,28 -1339,81zm23822 20l0 10556 -2281 0 0 -10556 -5309 0 0 -1481 13131 0 0 1481 -5541 0zm5362 4430c0,-1743 606,-3198 1815,-4371 1208,-1173 2841,-1759 4894,-1759 2313,0 4087,539 5320,1619 1230,1080 1847,2584 1847,4511 0,1978 -617,3528 -1854,4647 -1234,1120 -3008,1681 -5313,1681 -2099,0 -3741,-592 -4928,-1776 -1187,-1181 -1781,-2700 -1781,-4552zm2399 0c0,1381 376,2531 1128,3457 753,926 1817,1389 3186,1389 1548,0 2731,-424 3546,-1274 811,-847 1219,-2039 1219,-3572 0,-3100 -1587,-4649 -4765,-4649 -1409,0 -2480,415 -3213,1248 -734,834 -1102,1967 -1102,3400zm26774 735l0 5390 -2281 0 0 -5390 -5354 -6647 2352 0 4143 5258 4145 -5258 2352 0 -5356 6647zm6387 -735c0,-1743 606,-3198 1816,-4371 1207,-1173 2841,-1759 4894,-1759 2313,0 4086,539 5319,1619 1231,1080 1848,2584 1848,4511 0,1978 -617,3528 -1854,4647 -1235,1120 -3008,1681 -5313,1681 -2099,0 -3741,-592 -4928,-1776 -1187,-1181 -1782,-2700 -1782,-4552zm2399 0c0,1381 376,2531 1129,3457 752,926 1815,1389 3185,1389 1548,0 2731,-424 3547,-1274 811,-847 1218,-2039 1218,-3572 0,-3100 -1586,-4649 -4765,-4649 -1408,0 -2479,415 -3213,1248 -733,834 -1101,1967 -1101,3400zm14082 -5911l2281 0 0 8235c0,734 322,1338 962,1813 644,474 1494,709 2554,709 1121,0 2002,-230 2647,-690 639,-460 962,-1083 962,-1872l0 -8196 2281 0 0 8370c0,1215 -524,2166 -1576,2848 -1048,682 -2479,1021 -4292,1021 -1862,0 -3301,-334 -4307,-1002 -1009,-668 -1513,-1628 -1513,-2876l0 -8361z"/>
   </g>
  </g>
 </g>
</svg>
