<?xml version="1.0" encoding="UTF-8"?>
<!DOCTYPE svg PUBLIC "-//W3C//DTD SVG 1.0//EN" "http://www.w3.org/TR/2001/REC-SVG-20010904/DTD/svg10.dtd">
<!-- Creator: CorelDRAW X6 -->
<svg xmlns="http://www.w3.org/2000/svg" xml:space="preserve" width="5.84646in" height="8.26772in" version="1.0" style="shape-rendering:geometricPrecision; text-rendering:geometricPrecision; image-rendering:optimizeQuality; fill-rule:evenodd; clip-rule:evenodd"
viewBox="0 0 584646 826772"
 xmlns:xlink="http://www.w3.org/1999/xlink">
 <defs>
  <style type="text/css">
   <![CDATA[
    .fil0 {fill:#00A0E3}
    .fil1 {fill:#2B2A29}
    .fil4 {fill:#734B1A}
    .fil3 {fill:#A56B24}
    .fil5 {fill:#FCD6A9}
    .fil2 {fill:#FFFEFD}
   ]]>
  </style>
 </defs>
 <g id="Layer_x0020_1">
  <metadata id="CorelCorpID_0Corel-Layer"/>
  <g id="_702832864">
   <rect class="fil0" width="584646" height="826772"/>
   <g>
    <path class="fil1" d="M421069 439841l13723 -102c3973,-7182 1224,-12051 10524,-14418 3731,-950 20931,-943 24743,-167l93 63439c-3799,823 -20488,866 -24261,34 -9257,-2041 -7258,-6817 -11101,-13526l-13617 -252 -105 -35007zm-146667 9669c2322,1136 1808,-2542 1805,7335 0,834 163,4048 86,4565 -648,4357 309,1627 -1891,2656 -1408,-2302 -1669,-11721 0,-14556zm-55554 14051l-6951 -617c-1531,-3012 -1494,-13646 -217,-17478 1711,414 2180,-1630 1995,5053 9620,-3593 11822,7021 5173,13042zm-69114 -14781c1813,-3006 7609,-3771 11231,-4467l-165 16206 -11008 3328 -58 -15067zm-14111 -4416l10972 3153 170 16101 -11081 -3228 -61 -16025zm157934 15676l880 1007 3321 388 946 -952c-318,-1596 -715,-1312 815,-1172 2760,1151 1037,-842 1725,2235 -5102,4731 -10531,1846 -11207,-3204 -1242,-9273 9515,-12185 11028,-3978 106,154 1202,-911 857,1667 -274,2048 775,1576 -9154,1554l789 2454zm-52144 -2786c654,2622 833,4689 3446,4520 3080,-200 175,-1956 5322,-2173 -767,5024 -4036,4976 -9126,3574 -2702,-4146 -3643,-13295 3795,-13453 3253,-69 5843,2198 5791,5657 -47,3155 -6298,1901 -9228,1874zm-40121 2760l875 1007 3232 353 1011 -884c-270,-1527 -652,-1234 802,-1167 1901,869 1181,-17 1625,2003 -7050,7385 -14731,-2044 -9946,-9193 2466,-3684 8933,-3838 9702,2281l720 2352c-4774,1167 -2262,1056 -8944,607l922 2641zm80501 1785c7175,-917 1156,-833 6048,-3093 3111,7905 -15144,6200 -9115,-5645 2443,-4800 11433,-3532 9115,1898 -4101,-2025 656,-1267 -4480,-3056 -3876,2859 -3232,5889 -1569,9895zm-28000 2157c-1105,-1269 -1391,2543 -1305,-6194 25,-2567 23,-5125 20,-7691 6548,1433 2593,-1378 6761,500 -1920,4004 -3235,551 -4057,5293 -632,3647 1265,6178 -1419,8092zm-23811 -2564l4031 3c-86,-4519 1045,-1145 -2637,-3907 -2948,-243 -2337,-274 -4239,-1642 -1256,-8689 9327,-7256 9069,-2314 -2167,-248 -2053,-1805 -4598,-1403 -4039,638 -409,-267 -2222,1130 1196,2432 -1207,704 4083,2505 4571,1556 3661,2721 3577,6764 -4083,1783 -9450,3211 -10420,-3031 3452,952 674,-769 3356,1895zm-37119 2528c-2557,-1133 -1431,94 -2574,-3544l-2000 -4594c-1671,6993 -739,6705 -3491,8206 -1833,-2285 -1894,-3589 -2772,-6997 -943,-3664 -1987,-5055 -813,-7278 2497,1336 1412,92 2508,3746 1019,3398 68,2074 1984,4609 459,-2915 894,-6088 2676,-8276 2631,1295 2783,4874 3574,8126 495,-595 680,-559 1201,-1743 2189,-4976 -392,-4611 3289,-6351 969,2402 -1974,11572 -3584,14095zm112964 -9487c4975,2119 8427,-111 7823,6890 -3400,3664 -9552,4137 -10585,-1690 4918,463 5751,5120 8150,-102 -3481,-2704 -4459,-633 -7811,-4480 -55,-7453 7780,-6673 9906,-2134 -3171,1722 -333,488 -3811,-665 -2213,-733 -3377,-73 -3670,2182zm-43970 -4894c2778,1666 3043,4164 4304,9259 4672,-4598 225,-6920 5989,-9339 -789,4406 -1958,12698 -5814,14502 -1889,-1515 -3956,-7427 -4814,-10593 -720,-2656 -1387,-2422 334,-3830zm12320 -5010c3854,1259 3715,2104 -122,3195 -1234,-2153 -1037,-1273 122,-3195zm-134600 -1645c1587,-1549 -1030,-123 2556,-1815l6612 -1633c910,43 3313,753 4620,1205l3872 2106c-10317,2753 -7467,2331 -17660,136zm141275 -21941c13466,-6596 17814,15775 8270,21089 -7418,4131 -16020,-3645 -12802,-15468 1163,-4274 1636,-4203 4532,-5621zm-105675 -307l-30 14702c-1843,2979 -7678,3992 -11209,4891l58 -16656 11181 -2937zm-28422 -45l-23 14747c-1629,2576 -2245,2201 -5448,3236 -2326,752 -3204,1138 -5685,1461l-7 -16384 11163 -3060zm-24996 -24l11003 3120 -50 16696 -11195 -4149 242 -15668zm28026 15l11196 2853 -39 16886 -11210 -3683 53 -16056zm147824 -385c2323,-94 2026,-402 4117,351 227,82 465,233 661,324l1816 1384c3486,-5205 9341,-2421 10009,3390 478,4155 204,12140 16,16811l-5452 -123c-263,-5389 1150,-13609 -1678,-17244 -7484,91 -2041,12117 -4921,17579l-4777 -72 209 -22399zm-31997 4457c-3506,-76 -4867,512 -7474,-965l58 -2688c2879,-1791 10880,-1496 14815,-451 242,5813 -3239,6945 -7359,14644 6460,996 7882,188 7964,6866 -10007,-2024 -6361,-1772 -16292,-135 7,-5635 835,-6063 3283,-9626 1618,-2354 4261,-5432 5005,-7646zm-61655 -4211c4867,-818 4043,-1100 5626,2015 2831,-3883 7402,-4107 9880,456l2218 -1792c3098,-1971 4990,-1429 8354,-468 2494,5287 1843,14929 1371,21978l-5379 -41c-451,-6752 2408,-18756 -4609,-17168 -4343,13191 4882,17370 -6461,17251 -789,-10654 1972,-17582 -3635,-17526 -6027,6309 3897,20109 -7528,17161l163 -21866zm31914 5968c766,-4106 1809,-5607 5946,-6577 12655,-2968 11259,7641 11311,11966 98,8181 3454,7083 -939,10809 -3356,-377 -2597,14 -4215,-2309 -8122,7654 -16800,-1995 -11215,-8530 2230,-2609 6852,-2822 10603,-3634l-469 -3889c-9837,-1831 -943,3868 -11022,2165zm-54063 169c1307,-6458 8969,-9661 14654,-5582 4346,3119 850,5980 4238,18840l-2555 2550c-6800,-313 967,-3303 -6731,-494 -3768,1375 -5473,1007 -8770,0 -3075,-6594 -1223,-11090 5741,-12778l4899 -1840c-853,-3394 -1411,-4441 -4622,-2514 -3282,1970 736,2543 -6853,1819zm-28619 -8538c12336,-2637 6144,-2465 18443,-36 -2204,1983 -6504,3127 -9252,3084 -3006,-46 -7021,-1140 -9191,-3048zm-28377 230c10915,-3229 7713,-3289 18707,11 -4791,3554 -13952,3550 -18707,-11zm81507 -16981c1588,-2845 7919,-4070 11196,-4204l-111 15436c-2670,1448 -7588,3189 -11035,3786l-51 -15018zm-14037 -4546l11060 3651 -251 16138 -10893 -3789 83 -16000zm-3027 13l-174 16121 -11118 3356 235 -16262 11057 -3215zm-25250 -135l11162 3774 -292 16080 -10912 -3294 42 -16559zm31562 -1600c5955,-4167 12291,-3413 18578,-149 -8362,3370 -10230,2835 -18578,149zm-28386 -229c6435,-3356 12815,-3687 18587,292 -8174,2402 -10463,3363 -18587,-292zm-98868 62265l0 9661c4287,9196 2308,17776 18531,28950 11983,8255 25457,6600 41502,6600l191749 0c31609,1 47420,-6620 57848,-37722l27581 -171 322 26039 18203 -127c15180,15161 2776,5661 19827,14045l41803 0 -69 -19713 29 -996c6051,0 12117,-90 18162,85 9421,273 8320,-171 12524,-5496l0 -4095c-1797,-2151 -1259,-2354 -3259,-3897 -8574,-1161 -24365,-833 -26052,-1246 -3816,-936 -1783,-23002 -1161,-23709 1336,-1520 21154,-899 25111,-1098 3348,-750 3418,-2127 5361,-4534l0 -4085c-4159,-5131 -3511,-5661 -12515,-5383 -6041,186 -12102,76 -18174,87l-116 -20692c-8924,-927 -28959,-743 -38165,-138 -12158,799 -18915,7261 -23404,15037l-17910 24c122,5460 962,20572 -328,24859l-23871 360c-3330,-53 -4217,163 -4437,-3084 -915,-10250 -10035,-22828 -15136,-26547 -9073,-6615 -15913,-9795 -30999,-11090 -1126,-11702 -1404,-15536 -5761,-25644 -9011,-20910 -33086,-36573 -58150,-33831 -15078,1649 -19751,7110 -24695,5567 -5899,-1841 -20583,-21716 -46699,-29472 -3734,-1109 -9222,-1687 -12367,-3160l-11648 0c-6836,2764 -16236,607 -32895,10733 -32609,19822 -42712,49587 -34939,88900 -14708,2269 -25288,10125 -31417,22146 -1746,3426 -2621,9234 -4389,12837z"/>
    <path class="fil2" d="M203796 442309c11426,2948 1502,-10852 7528,-17161 5607,-56 2846,6872 3635,17526 11343,119 2118,-4060 6461,-17251 7017,-1588 4158,10416 4609,17168l5379 41c472,-7049 1123,-16692 -1371,-21978 -3364,-961 -5256,-1503 -8354,468l-2218 1792c-2477,-4563 -7048,-4339 -9880,-456 -1583,-3116 -760,-2833 -5626,-2015l-163 21866z"/>
    <path class="fil2" d="M247179 431977c50,2622 -1531,9415 -5061,6101 -3549,-3331 1002,-6170 5061,-6101zm-11306 -5567c10080,1703 1185,-3996 11022,-2165l469 3889c-3751,811 -8373,1024 -10603,3634 -5585,6535 3093,16184 11215,8530 1617,2324 859,1932 4215,2309 4393,-3726 1037,-2628 939,-10809 -52,-4325 1344,-14934 -11311,-11966 -4137,970 -5180,2471 -5946,6577z"/>
    <path class="fil2" d="M187508 433398c1543,-962 3031,-1393 5535,-1648 508,8597 -6574,10177 -5535,1648zm-5698 -6819c7589,724 3571,150 6853,-1819 3211,-1927 3769,-880 4622,2514l-4899 1840c-6964,1689 -8816,6184 -5741,12778 3297,1007 5002,1375 8770,0 7698,-2809 -68,181 6731,494l2555 -2550c-3389,-12860 108,-15722 -4238,-18840 -5685,-4079 -13346,-876 -14654,5582z"/>
    <path class="fil2" d="M297402 442596l4777 72c2880,-5462 -2563,-17488 4921,-17579 2828,3635 1415,11855 1678,17244l5452 123c188,-4671 462,-12656 -16,-16811 -668,-5811 -6524,-8595 -10009,-3390l-1816 -1384c-195,-91 -433,-243 -661,-324 -2090,-753 -1794,-446 -4117,-351l-209 22399z"/>
    <path class="fil2" d="M285155 438701c-5359,-2062 -4200,-13700 -580,-14552 4806,-1131 5230,11809 580,14552zm-4301 -17758c-2896,1418 -3369,1347 -4532,5621 -3217,11823 5384,19599 12802,15468 9543,-5314 5195,-27685 -8270,-21089z"/>
    <path class="fil2" d="M258198 421002l-58 2688c2607,1477 3967,888 7474,965 -744,2214 -3387,5292 -5005,7646 -2449,3563 -3277,3991 -3283,9626 9931,-1637 6285,-1889 16292,135 -82,-6678 -1504,-5870 -7964,-6866 4120,-7699 7601,-8831 7359,-14644 -3935,-1044 -11935,-1339 -14815,451z"/>
    <polygon class="fil2" points="149734,436638 160944,440321 160983,423435 149787,420582 "/>
    <path class="fil2" d="M163998 423573l-58 16656c3531,-900 9367,-1913 11209,-4891l30 -14702 -11181 2937z"/>
    <path class="fil2" d="M149735 448779l58 15067 11008 -3328 165 -16206c-3622,696 -9418,1462 -11231,4467z"/>
    <path class="fil2" d="M135594 423651l7 16384c2482,-323 3359,-709 5685,-1461 3203,-1035 3819,-660 5448,-3236l23 -14747 -11163 3060z"/>
    <path class="fil2" d="M206322 401289l51 15018c3446,-597 8365,-2338 11035,-3786l111 -15436c-3278,133 -9608,1359 -11196,4204z"/>
    <polygon class="fil2" points="163966,413180 174878,416474 175170,400394 164008,396620 "/>
    <polygon class="fil2" points="121519,436234 132714,440383 132764,423687 121761,420567 "/>
    <polygon class="fil2" points="178201,399971 177966,416233 189084,412877 189258,396756 "/>
    <polygon class="fil2" points="192201,412743 203094,416532 203345,400394 192285,396743 "/>
    <polygon class="fil2" points="135685,460388 146766,463617 146596,447516 135624,444363 "/>
    <path class="fil2" d="M192864 463920c1610,-2523 4552,-11693 3584,-14095 -3681,1740 -1100,1375 -3289,6351 -521,1184 -706,1148 -1201,1743 -790,-3252 -942,-6830 -3574,-8126 -1781,2188 -2216,5361 -2676,8276 -1916,-2535 -965,-1211 -1984,-4609 -1096,-3654 -11,-2410 -2508,-3746 -1174,2222 -130,3614 813,7278 877,3408 939,4711 2772,6997 2752,-1501 1820,-1213 3491,-8206l2000 4594c1143,3638 16,2411 2574,3544z"/>
    <path class="fil2" d="M216331 461803c-2039,-1130 -3006,-1897 -2598,-5800 307,-2930 1387,-3800 4088,-4222 3012,3248 3096,8628 -1491,10022zm2518 1757c6649,-6021 4446,-16634 -5173,-13042 185,-6683 -284,-4639 -1995,-5053 -1278,3831 -1315,14466 217,17478l6951 617z"/>
    <path class="fil2" d="M241685 455343c1544,-5180 4400,-4716 6332,19l-6332 -19zm-271 1910c2930,26 9181,1281 9228,-1874 52,-3460 -2538,-5726 -5791,-5657 -7438,158 -6496,9307 -3795,13453 5090,1402 8359,1450 9126,-3574 -5147,217 -2241,1973 -5322,2173 -2613,169 -2792,-1898 -3446,-4520z"/>
    <path class="fil2" d="M203613 455416c-5402,144 -1783,-420 -2911,-1261 495,-1639 811,-2246 2945,-2297 3426,-81 1888,390 2904,2297 -1694,1228 2795,1108 -2937,1261zm3601 3906l-802 1167c299,1520 561,1150 -1011,884l-1896 1278 -1336 -1630c-1517,214 -1189,516 -875,-1007l-1284 -2274c2724,-1478 5609,-965 8815,-913l-229 -2412c-769,-6119 -7237,-5965 -9702,-2281 -4785,7149 2897,16578 9946,9193 -444,-2020 276,-1134 -1625,-2003z"/>
    <path class="fil2" d="M305828 454433c293,-2255 1457,-2915 3670,-2182 3478,1153 640,2387 3811,665 -2126,-4539 -9960,-5319 -9906,2134 3353,3847 4330,1776 7811,4480 -2398,5222 -3231,565 -8150,102 1033,5827 7185,5354 10585,1690 604,-7001 -2848,-4771 -7823,-6890z"/>
    <path class="fil2" d="M295960 451716c2839,-76 2400,1202 2994,3643l-6122 -84c614,-2271 717,-3494 3128,-3559zm3561 7595l-815 1172c341,1563 639,1229 -946,952l-1802 1211 -1520 -1599c-1537,250 -1199,544 -880,-1007l-1601 -2154c3190,-1594 6154,-1126 9495,-869l-385 -2652c-1513,-8207 -12270,-5295 -11028,3978 676,5049 6106,7935 11207,3204 -688,-3076 1035,-1083 -1725,-2235z"/>
    <path class="fil1" d="M285155 438701c4650,-2743 4226,-15683 -580,-14552 -3620,852 -4778,12490 580,14552z"/>
    <path class="fil3" d="M513070 470220l-2369 -1355c-3024,-1009 -21454,-547 -24760,-441l-83 -23160c5951,55 21143,1497 25111,-1098 -3957,198 -23774,-423 -25111,1098 -622,707 -2655,22773 1161,23709 1687,414 17477,85 26052,1246z"/>
    <path class="fil2" d="M231377 457488c3554,793 2888,443 4058,2939 -487,437 -1218,1586 -2481,1802 -4687,802 -2248,-425 -2971,-837 -2681,-2664 96,-943 -3356,-1895 971,6242 6337,4814 10420,3031 83,-4043 994,-5208 -3577,-6764 -5291,-1801 -2887,-72 -4083,-2505 1814,-1396 -1816,-491 2222,-1130 2544,-402 2431,1155 4598,1403 257,-4943 -10325,-6376 -9069,2314 1902,1368 1291,1399 4239,1642z"/>
    <path class="fil2" d="M261858 449539c-1721,1408 -1054,1174 -334,3830 857,3166 2924,9078 4814,10593 3856,-1803 5026,-10096 5814,-14502 -5765,2419 -1317,4740 -5989,9339 -1262,-5096 -1526,-7594 -4304,-9259z"/>
    <path class="fil2" d="M281794 461798c-1664,-4006 -2307,-7037 1569,-9895 5136,1789 379,1030 4480,3056 2319,-5430 -6672,-6698 -9115,-1898 -6030,11846 12226,13550 9115,5645 -4893,2259 1127,2175 -6048,3093z"/>
    <path class="fil2" d="M124815 418271c4755,3560 13917,3565 18707,11 -10995,-3300 -7792,-3240 -18707,-11z"/>
    <path class="fil2" d="M195570 395021c8348,2686 10216,3221 18578,-149 -6287,-3264 -12623,-4019 -18578,149z"/>
    <path class="fil2" d="M167184 394792c8124,3655 10413,2694 18587,292 -5772,-3979 -12152,-3648 -18587,-292z"/>
    <path class="fil2" d="M153191 418041c2170,1908 6185,3002 9191,3048 2748,43 7048,-1101 9252,-3084 -12299,-2429 -6107,-2601 -18443,36z"/>
    <path class="fil2" d="M139579 442883c10193,2195 7343,2617 17660,-136l-3872 -2106c-1307,-452 -3710,-1162 -4620,-1205l-6612 1633c-3585,1692 -969,266 -2556,1815z"/>
    <path class="fil1" d="M216331 461803c4587,-1394 4502,-6774 1491,-10022 -2702,422 -3781,1292 -4088,4222 -409,3902 559,4669 2598,5800z"/>
    <path class="fil2" d="M253794 463956c2684,-1913 787,-4445 1419,-8092 822,-4743 2137,-1289 4057,-5293 -4169,-1879 -214,933 -6761,-500 4,2567 5,5125 -20,7691 -85,8737 200,4925 1305,6194z"/>
    <path class="fil2" d="M274402 449509c-1669,2835 -1408,12254 0,14556 2200,-1029 1243,1700 1891,-2656 77,-517 -86,-3731 -86,-4565 3,-9877 517,-6199 -1805,-7335z"/>
    <path class="fil4" d="M377410 446617c220,3247 1107,3031 4437,3084l23871 -360c1289,-4287 449,-19399 328,-24859l-382 24226 -26426 -3 -1827 -2088z"/>
    <path class="fil1" d="M187508 433398c-1039,8529 6043,6949 5535,-1648 -2504,256 -3992,686 -5535,1648z"/>
    <path class="fil1" d="M247179 431977c-4059,-69 -8610,2770 -5061,6101 3530,3314 5111,-3479 5061,-6101z"/>
    <path class="fil1" d="M200702 454155c1128,840 -2491,1404 2911,1261 5733,-153 1244,-33 2937,-1261 -1016,-1907 523,-2378 -2904,-2297 -2134,50 -2450,658 -2945,2297z"/>
    <path class="fil1" d="M292831 455275l6122 84c-594,-2441 -156,-3719 -2994,-3643 -2411,65 -2514,1288 -3128,3559z"/>
    <path class="fil1" d="M241685 455343l6332 19c-1932,-4735 -4789,-5199 -6332,-19z"/>
    <path class="fil5" d="M293558 460039c-319,1551 -657,1257 880,1007l1520 1599 1802 -1211c1585,278 1287,611 946,-952l815 -1172c-1531,-141 -1133,-424 -815,1172l-946 952 -3321 -388 -880 -1007 -789 -2454c9929,22 8880,493 9154,-1554 345,-2578 -751,-1513 -857,-1667l385 2652c-3341,-257 -6306,-726 -9495,869l1601 2154z"/>
    <path class="fil5" d="M201293 460013c-314,1523 -642,1221 875,1007l1336 1630 1896 -1278c1572,266 1310,636 1011,-884l802 -1167c-1454,-67 -1072,-361 -802,1167l-1011 884 -3232 -353 -875 -1007 -922 -2641c6682,449 4170,559 8944,-607l-720 -2352 229 2412c-3206,-52 -6090,-564 -8815,913l1284 2274z"/>
    <path class="fil5" d="M229983 461392c723,413 -1717,1639 2971,837 1263,-216 1994,-1366 2481,-1802 -1170,-2496 -504,-2146 -4058,-2939 3682,2761 2551,-612 2637,3907l-4031 -3z"/>
    <path class="fil2" d="M274056 447723c3838,-1091 3977,-1936 122,-3195 -1159,1922 -1357,1042 -122,3195z"/>
   </g>
  </g>
 </g>
</svg>
