<?xml version="1.0" encoding="UTF-8"?>
<!DOCTYPE svg PUBLIC "-//W3C//DTD SVG 1.0//EN" "http://www.w3.org/TR/2001/REC-SVG-20010904/DTD/svg10.dtd">
<!-- Creator: CorelDRAW X6 -->
<svg xmlns="http://www.w3.org/2000/svg" xml:space="preserve" width="1.33962in" height="1.13912in" version="1.0" style="shape-rendering:geometricPrecision; text-rendering:geometricPrecision; image-rendering:optimizeQuality; fill-rule:evenodd; clip-rule:evenodd"
viewBox="0 0 19169 16300"
 xmlns:xlink="http://www.w3.org/1999/xlink">
 <defs>
  <style type="text/css">
   <![CDATA[
    .fil2 {fill:#376895}
    .fil4 {fill:#734B1A}
    .fil3 {fill:#A56B24}
    .fil5 {fill:#FCD6A9}
    .fil1 {fill:#FFC007}
    .fil0 {fill:#FFFEFD}
   ]]>
  </style>
 </defs>
 <g id="Layer_x0020_1">
  <metadata id="CorelCorpID_0Corel-Layer"/>
  <g id="_955460064">
   <polygon class="fil0" points="4547,8972 4943,9102 4944,8505 4549,8404 "/>
   <path class="fil0" d="M5051 8510l-2 588c125,-32 331,-68 396,-173l1 -519 -395 104z"/>
   <path class="fil0" d="M4547 9400l2 532 389 -118 6 -573c-128,25 -333,52 -397,158z"/>
   <path class="fil0" d="M4047 8513l0 579c88,-11 119,-25 201,-52 113,-37 135,-23 193,-114l1 -521 -394 108z"/>
   <path class="fil0" d="M6546 7723l2 531c122,-21 295,-83 390,-134l4 -545c-116,5 -339,48 -396,149z"/>
   <polygon class="fil0" points="5050,8143 5435,8259 5446,7691 5051,7558 "/>
   <polygon class="fil0" points="3550,8957 3946,9104 3947,8514 3559,8404 "/>
   <polygon class="fil0" points="5553,7676 5544,8251 5937,8132 5943,7563 "/>
   <polygon class="fil0" points="6047,8127 6432,8261 6441,7691 6050,7562 "/>
   <polygon class="fil0" points="4051,9811 4442,9925 4436,9356 4048,9244 "/>
   <path class="fil0" d="M3666 8323c168,126 492,126 661,0 -388,-117 -275,-114 -661,0z"/>
   <path class="fil0" d="M6166 7501c295,95 361,114 656,-5 -222,-115 -446,-142 -656,5z"/>
   <path class="fil0" d="M5163 7493c287,129 368,95 657,10 -204,-141 -429,-129 -657,-10z"/>
   <path class="fil0" d="M4669 8315c77,67 219,106 325,108 97,2 249,-39 327,-109 -435,-86 -216,-92 -652,1z"/>
   <path class="fil0" d="M4188 9192c360,78 259,92 624,-5l-137 -74c-46,-16 -131,-41 -163,-43l-234 58c-127,60 -34,9 -90,64z"/>
  </g>
  <path class="fil1" d="M319 856c-2,28 6,24 -20,19l-3 26c-11,18 -17,27 -29,44l-15 29 -14 29 -18 26 -9 20 -17 26c8,32 17,26 -12,26 -146,368 -183,490 -183,916l0 12116c0,398 8,647 140,966 211,512 612,888 1132,1080 330,122 608,112 986,112 4407,0 8814,0 13221,0 456,0 1821,32 2174,-43 895,-190 1469,-964 1508,-1795 17,-352 0,-748 0,-1106l0 -11010c0,-393 14,-683 -93,-1013 -88,-271 -252,-536 -409,-699 -386,-400 -785,-622 -1581,-622l-14326 0c-862,0 -1523,-103 -2192,563 -146,145 -175,217 -242,286z"/>
  <path class="fil2" d="M14133 9085l485 -4c140,-254 43,-426 372,-509 132,-34 739,-33 874,-6l3 2241c-134,29 -724,31 -857,1 -327,-72 -256,-241 -392,-478l-481 -9 -4 -1237zm-5182 342c82,40 64,-90 64,259 0,29 6,143 3,161 -23,154 11,57 -67,94 -50,-81 -59,-414 0,-514zm-1963 496l-246 -22c-54,-106 -53,-482 -8,-618 60,15 77,-58 70,179 340,-127 418,248 183,461zm-2442 -522c64,-106 269,-133 397,-158l-6 573 -389 118 -2 -532zm-499 -156l388 111 6 569 -391 -114 -2 -566zm5580 554l31 36 117 14 33 -34c-11,-56 -25,-46 29,-41 98,41 37,-30 61,79 -180,167 -372,65 -396,-113 -44,-328 336,-431 390,-141 4,5 42,-32 30,59 -10,72 27,56 -323,55l28 87zm-1842 -98c23,93 29,166 122,160 109,-7 6,-69 188,-77 -27,178 -143,176 -322,126 -95,-146 -129,-470 134,-475 115,-2 206,78 205,200 -2,111 -223,67 -326,66zm-1417 98l31 36 114 12 36 -31c-10,-54 -23,-44 28,-41 67,31 42,-1 57,71 -249,261 -520,-72 -351,-325 87,-130 316,-136 343,81l25 83c-169,41 -80,37 -316,21l33 93zm2844 63c254,-32 41,-29 214,-109 110,279 -535,219 -322,-199 86,-170 404,-125 322,67 -145,-72 23,-45 -158,-108 -137,101 -114,208 -55,350zm-989 76c-39,-45 -49,90 -46,-219 1,-91 1,-181 1,-272 231,51 92,-49 239,18 -68,141 -114,19 -143,187 -22,129 45,218 -50,286zm-841 -91l142 0c-3,-160 37,-40 -93,-138 -104,-9 -83,-10 -150,-58 -44,-307 330,-256 320,-82 -77,-9 -73,-64 -162,-50 -143,23 -14,-9 -79,40 42,86 -43,25 144,89 161,55 129,96 126,239 -144,63 -334,113 -368,-107 122,34 24,-27 119,67zm-1311 89c-90,-40 -51,3 -91,-125l-71 -162c-59,247 -26,237 -123,290 -65,-81 -67,-127 -98,-247 -33,-129 -70,-179 -29,-257 88,47 50,3 89,132 36,120 2,73 70,163 16,-103 32,-215 95,-292 93,46 98,172 126,287 18,-21 24,-20 42,-62 77,-176 -14,-163 116,-224 34,85 -70,409 -127,498zm3991 -335c176,75 298,-4 276,243 -120,129 -338,146 -374,-60 174,16 203,181 288,-4 -123,-95 -158,-22 -276,-158 -2,-263 275,-236 350,-75 -112,61 -12,17 -135,-23 -78,-26 -119,-3 -130,77zm-1553 -173c98,59 108,147 152,327 165,-162 8,-244 212,-330 -28,156 -69,449 -205,512 -67,-54 -140,-262 -170,-374 -25,-94 -49,-86 12,-135zm435 -177c136,44 131,74 -4,113 -44,-76 -37,-45 4,-113zm-4755 -58c56,-55 -36,-4 90,-64l234 -58c32,2 117,27 163,43l137 74c-364,97 -264,82 -624,5zm4991 -775c476,-233 629,557 292,745 -262,146 -566,-129 -452,-547 41,-151 58,-149 160,-199zm-3734 -11l-1 519c-65,105 -271,141 -396,173l2 -588 395 -104zm-1004 -2l-1 521c-58,91 -79,78 -193,114 -82,27 -113,40 -201,52l0 -579 394 -108zm-883 -1l389 110 -2 590 -395 -147 9 -554zm990 1l396 101 -1 597 -396 -130 2 -567zm5223 -14c82,-3 72,-14 145,12 8,3 16,8 23,11l64 49c123,-184 330,-86 354,120 17,147 7,429 1,594l-193 -4c-9,-190 41,-481 -59,-609 -264,3 -72,428 -174,621l-169 -3 7 -791zm-1130 157c-124,-3 -172,18 -264,-34l2 -95c102,-63 384,-53 523,-16 9,205 -114,245 -260,517 228,35 278,7 281,243 -354,-71 -225,-63 -576,-5 0,-199 29,-214 116,-340 57,-83 151,-192 177,-270zm-2178 -149c172,-29 143,-39 199,71 100,-137 262,-145 349,16l78 -63c109,-70 176,-50 295,-17 88,187 65,527 48,776l-190 -1c-16,-239 85,-663 -163,-607 -153,466 173,614 -228,609 -28,-376 70,-621 -128,-619 -213,223 138,711 -266,606l6 -773zm1128 211c27,-145 64,-198 210,-232 447,-105 398,270 400,423 3,289 122,250 -33,382 -119,-13 -92,1 -149,-82 -287,270 -594,-70 -396,-301 79,-92 242,-100 375,-128l-17 -137c-348,-65 -33,137 -389,77zm-1910 6c46,-228 317,-341 518,-197 154,110 30,211 150,666l-90 90c-240,-11 34,-117 -238,-17 -133,49 -193,36 -310,0 -109,-233 -43,-392 203,-451l173 -65c-30,-120 -50,-157 -163,-89 -116,70 26,90 -242,64zm-1011 -302c436,-93 217,-87 652,-1 -78,70 -230,110 -327,109 -106,-2 -248,-40 -325,-108zm-1003 8c386,-114 272,-116 661,0 -169,126 -493,125 -661,0zm2880 -600c56,-101 280,-144 396,-149l-4 545c-94,51 -268,113 -390,134l-2 -531zm-496 -161l391 129 -9 570 -385 -134 3 -565zm-107 0l-6 570 -393 119 8 -575 391 -114zm-892 -5l394 133 -10 568 -386 -116 1 -585zm1115 -57c210,-147 434,-121 656,-5 -295,119 -361,100 -656,5zm-1003 -8c227,-119 453,-130 657,10 -289,85 -370,119 -657,-10zm-3493 2200l0 341c151,325 82,628 655,1023 423,292 899,233 1466,233l6775 0c1117,0 1675,-234 2044,-1333l974 -6 11 920 643 -4c536,536 98,200 700,496l1477 0 -2 -696 1 -35c214,0 428,-3 642,3 333,10 294,-6 442,-194l0 -145c-63,-76 -44,-83 -115,-138 -303,-41 -861,-29 -920,-44 -135,-33 -63,-813 -41,-838 47,-54 747,-32 887,-39 118,-26 121,-75 189,-160l0 -144c-147,-181 -124,-200 -442,-190 -213,7 -428,3 -642,3l-4 -731c-315,-33 -1023,-26 -1348,-5 -430,28 -668,257 -827,531l-633 1c4,193 34,727 -12,878l-843 13c-118,-2 -149,6 -157,-109 -32,-362 -355,-807 -535,-938 -321,-234 -562,-346 -1095,-392 -40,-413 -50,-549 -203,-906 -318,-739 -1169,-1292 -2055,-1195 -533,58 -698,251 -872,197 -208,-65 -727,-767 -1650,-1041 -132,-39 -326,-60 -437,-112l-411 0c-242,98 -574,21 -1162,379 -1152,700 -1509,1752 -1234,3141 -520,80 -893,358 -1110,782 -62,121 -93,326 -155,454z"/>
  <path class="fil0" d="M6457 9172c404,104 53,-383 266,-606 198,-2 101,243 128,619 401,4 75,-143 228,-609 248,-56 147,368 163,607l190 1c17,-249 40,-590 -48,-776 -119,-34 -186,-53 -295,17l-78 63c-87,-161 -249,-153 -349,-16 -56,-110 -27,-100 -199,-71l-6 773z"/>
  <path class="fil0" d="M7990 8807c2,93 -54,333 -179,216 -125,-118 35,-218 179,-216zm-399 -197c356,60 42,-141 389,-77l17 137c-133,29 -296,36 -375,128 -197,231 109,572 396,301 57,82 30,68 149,82 155,-132 37,-93 33,-382 -2,-153 47,-528 -400,-423 -146,34 -183,87 -210,232z"/>
  <path class="fil0" d="M5881 8857c55,-34 107,-49 196,-58 18,304 -232,360 -196,58zm-201 -241c268,26 126,5 242,-64 113,-68 133,-31 163,89l-173 65c-246,60 -311,218 -203,451 117,36 177,49 310,0 272,-99 -2,6 238,17l90 -90c-120,-454 4,-555 -150,-666 -201,-144 -472,-31 -518,197z"/>
  <path class="fil0" d="M9764 9182l169 3c102,-193 -91,-618 174,-621 100,128 50,419 59,609l193 4c7,-165 16,-447 -1,-594 -24,-205 -231,-304 -354,-120l-64 -49c-7,-3 -15,-9 -23,-11 -74,-27 -63,-16 -145,-12l-7 791z"/>
  <path class="fil0" d="M9331 9044c-189,-73 -148,-484 -21,-514 170,-40 185,417 21,514zm-152 -627c-102,50 -119,48 -160,199 -114,418 190,692 452,547 337,-188 184,-978 -292,-745z"/>
  <path class="fil0" d="M8379 8419l-2 95c92,52 140,31 264,34 -26,78 -120,187 -177,270 -87,126 -116,141 -116,340 351,-58 222,-67 576,5 -3,-236 -53,-207 -281,-243 146,-272 269,-312 260,-517 -139,-37 -422,-47 -523,16z"/>
  <path class="fil0" d="M6071 9935c57,-89 161,-413 127,-498 -130,61 -39,49 -116,224 -18,42 -25,41 -42,62 -28,-115 -33,-241 -126,-287 -63,77 -78,189 -95,292 -68,-90 -34,-43 -70,-163 -39,-129 0,-85 -89,-132 -41,78 -5,128 29,257 31,120 33,166 98,247 97,-53 64,-43 123,-290l71 162c40,129 1,85 91,125z"/>
  <path class="fil0" d="M6900 9861c-72,-40 -106,-67 -92,-205 11,-104 49,-134 144,-149 106,115 109,305 -53,354zm89 62c235,-213 157,-588 -183,-461 7,-236 -10,-164 -70,-179 -45,135 -46,511 8,618l246 22z"/>
  <path class="fil0" d="M7796 9632c55,-183 155,-167 224,1l-224 -1zm-10 67c103,1 324,45 326,-66 2,-122 -90,-202 -205,-200 -263,6 -230,329 -134,475 180,50 295,51 322,-126 -182,8 -79,70 -188,77 -92,6 -99,-67 -122,-160z"/>
  <path class="fil0" d="M6450 9635c-191,5 -63,-15 -103,-45 17,-58 29,-79 104,-81 121,-3 67,14 103,81 -60,43 99,39 -104,45zm127 138l-28 41c11,54 20,41 -36,31l-67 45 -47 -58c-54,8 -42,18 -31,-36l-45 -80c96,-52 198,-34 311,-32l-8 -85c-27,-216 -256,-211 -343,-81 -169,253 102,586 351,325 -16,-71 10,-40 -57,-71z"/>
  <path class="fil0" d="M10062 9600c10,-80 52,-103 130,-77 123,41 23,84 135,23 -75,-160 -352,-188 -350,75 118,136 153,63 276,158 -85,185 -114,20 -288,4 37,206 254,189 374,60 21,-247 -101,-169 -276,-243z"/>
  <path class="fil0" d="M9713 9504c100,-3 85,42 106,129l-216 -3c22,-80 25,-123 111,-126zm126 268l-29 41c12,55 23,43 -33,34l-64 43 -54 -57c-54,9 -42,19 -31,-36l-57 -76c113,-56 217,-40 335,-31l-14 -94c-53,-290 -434,-187 -390,141 24,178 216,280 396,113 -24,-109 37,-38 -61,-79z"/>
  <path class="fil2" d="M9331 9044c164,-97 149,-554 -21,-514 -128,30 -169,441 21,514z"/>
  <path class="fil3" d="M17384 10158l-84 -48c-107,-36 -758,-19 -875,-16l-3 -818c210,2 747,53 887,-39 -140,7 -840,-15 -887,39 -22,25 -94,805 41,838 60,15 617,3 920,44z"/>
  <path class="fil0" d="M7431 9708c126,28 102,16 143,104 -17,15 -43,56 -88,64 -166,28 -79,-15 -105,-30 -95,-94 3,-33 -119,-67 34,221 224,170 368,107 3,-143 35,-184 -126,-239 -187,-64 -102,-3 -144,-89 64,-49 -64,-17 79,-40 90,-14 86,41 162,50 9,-175 -365,-225 -320,82 67,48 46,49 150,58z"/>
  <path class="fil0" d="M8508 9427c-61,50 -37,41 -12,135 30,112 103,321 170,374 136,-64 178,-357 205,-512 -204,85 -47,167 -212,330 -45,-180 -54,-268 -152,-327z"/>
  <path class="fil0" d="M9213 9860c-59,-142 -82,-249 55,-350 181,63 13,36 158,108 82,-192 -236,-237 -322,-67 -213,418 432,479 322,199 -173,80 40,77 -214,109z"/>
  <path class="fil2" d="M6900 9861c162,-49 159,-239 53,-354 -95,15 -134,46 -144,149 -14,138 20,165 92,205z"/>
  <path class="fil0" d="M8223 9937c95,-68 28,-157 50,-286 29,-168 75,-46 143,-187 -147,-66 -8,33 -239,-18 0,91 0,181 -1,272 -3,309 7,174 46,219z"/>
  <path class="fil0" d="M8951 9426c-59,100 -50,433 0,514 78,-36 44,60 67,-94 3,-18 -3,-132 -3,-161 0,-349 18,-219 -64,-259z"/>
  <path class="fil4" d="M12591 9324c8,115 39,107 157,109l843 -13c46,-151 16,-685 12,-878l-14 856 -934 0 -65 -74z"/>
  <path class="fil2" d="M5881 8857c-37,301 214,246 196,-58 -88,9 -141,24 -196,58z"/>
  <path class="fil2" d="M7990 8807c-143,-2 -304,98 -179,216 125,117 181,-123 179,-216z"/>
  <path class="fil2" d="M6348 9590c40,30 -88,50 103,45 203,-5 44,-1 104,-45 -36,-67 18,-84 -103,-81 -75,2 -87,23 -104,81z"/>
  <path class="fil2" d="M9603 9630l216 3c-21,-86 -6,-131 -106,-129 -85,2 -89,46 -111,126z"/>
  <path class="fil2" d="M7796 9632l224 1c-68,-167 -169,-184 -224,-1z"/>
  <path class="fil5" d="M9628 9798c-11,55 -23,44 31,36l54 57 64 -43c56,10 45,22 33,-34l29 -41c-54,-5 -40,-15 -29,41l-33 34 -117 -14 -31 -36 -28 -87c351,1 314,17 323,-55 12,-91 -27,-53 -30,-59l14 94c-118,-9 -223,-26 -335,31l57 76z"/>
  <path class="fil5" d="M6368 9797c-11,54 -23,43 31,36l47 58 67 -45c56,9 46,22 36,-31l28 -41c-51,-2 -38,-13 -28,41l-36 31 -114 -12 -31 -36 -33 -93c236,16 147,20 316,-21l-25 -83 8 85c-113,-2 -215,-20 -311,32l45 80z"/>
  <path class="fil5" d="M7382 9846c26,15 -61,58 105,30 45,-8 70,-48 88,-64 -41,-88 -18,-76 -143,-104 130,98 90,-22 93,138l-142 0z"/>
  <path class="fil0" d="M8939 9363c136,-39 141,-68 4,-113 -41,68 -48,37 -4,113z"/>
 </g>
</svg>
