<?xml version="1.0" encoding="UTF-8"?>
<!DOCTYPE svg PUBLIC "-//W3C//DTD SVG 1.0//EN" "http://www.w3.org/TR/2001/REC-SVG-20010904/DTD/svg10.dtd">
<!-- Creator: CorelDRAW X6 -->
<svg xmlns="http://www.w3.org/2000/svg" xml:space="preserve" width="1.33962in" height="1.13912in" version="1.0" style="shape-rendering:geometricPrecision; text-rendering:geometricPrecision; image-rendering:optimizeQuality; fill-rule:evenodd; clip-rule:evenodd"
viewBox="0 0 169989 144547"
 xmlns:xlink="http://www.w3.org/1999/xlink">
 <defs>
  <style type="text/css">
   <![CDATA[
    .fil3 {fill:#273B7A}
    .fil2 {fill:#376895}
    .fil0 {fill:#FFC007}
    .fil1 {fill:white}
   ]]>
  </style>
 </defs>
 <g id="Layer_x0020_1">
  <metadata id="CorelCorpID_0Corel-Layer"/>
  <path class="fil0" d="M2830 7587c-22,252 52,214 -175,171l-25 234c-94,163 -151,242 -257,389l-129 258 -128 258 -156 231 -77 181 -152 234c75,282 154,235 -105,235 -1294,3267 -1625,4347 -1625,8126l0 107439c0,3526 73,5738 1242,8570 1874,4541 5431,7878 10036,9578 2928,1082 5390,995 8745,995 39081,0 78161,0 117241,0 4042,0 16145,284 19283,-381 7940,-1684 13028,-8544 13376,-15921 147,-3125 3,-6637 3,-9805l0 -97637c0,-3488 128,-6057 -826,-8982 -784,-2402 -2238,-4757 -3630,-6197 -3425,-3545 -6958,-5511 -14018,-5511l-127044 0c-7642,0 -13507,-912 -19435,4996 -1293,1288 -1556,1920 -2143,2539z"/>
  <path class="fil1" d="M70888 57259l14305 25c97,206 111,1971 72,2411 -27,304 27,-123 -25,150l-55 115c-224,100 -13343,182 -14277,33 -179,-377 -92,-936 -92,-1371 0,-611 -56,-1076 72,-1364zm-20968 -14122c211,-263 343,-177 999,-174 2544,12 15118,-93 15992,31 128,802 26,13512 34,15985 0,171 12,379 8,544 -17,564 -34,371 -119,397 -339,202 -6526,77 -7055,77l0 2671c884,-162 32818,-49 34837,-49 2292,0 9933,-114 11579,21l-15 16983 -7025 30 -31 2465 7141 41c-95,1031 -22,14312 -10,16156 6,827 206,960 -596,953l-8016 -5c-2425,0 -5777,75 -8107,8 -549,-15 -427,-46 -425,-1135 5,-2570 -130,-15449 78,-15930 438,-164 6367,-167 7034,-64l-3 -2483 -16751 -47 -9 2573 6960 25c18,3 54,46 66,25 276,-463 122,7921 122,8514 0,372 126,8078 -82,8472l-16952 14 -75 -473c-30,-2404 -69,-15983 54,-16526 512,-125 6092,-53 7098,-53l-9 -2563 -16855 -42 -5 2651 6958 25 201 221 1 16544c-24,160 -31,110 -79,198l-16900 -10 -98 -445c-45,-2727 -59,-16321 71,-16477 242,-292 6093,83 7112,-157l10 -2505 -7145 -13 0 -16993 7151 -20 -34 -2599 -7117 -18 12 -16844zm20970 9350l33982 11 -27 2759 -33974 -42 19 -2728zm33945 -4670l15 2593c-214,211 -685,121 -978,120 -4395,-15 -32109,114 -32986,-37 -136,-430 -151,-2376 18,-2766 997,-134 28485,1 33057,-26 667,-4 755,-92 874,117zm-33932 -4839l33948 10 -7 2728 -33963 -33 22 -2705zm-20545 80628l143 -55c23,-6 49,-16 75,-23l1228 -194c6552,-1308 11021,-6631 11281,-13670l57808 -4 -11 -82926 -36983 29c-144,3278 -2550,5854 -5926,5814 -3293,-39 -5687,-2638 -5765,-5863l-36981 20 0 77098c0,2156 -142,4853 36,6945 489,5748 4203,10175 9038,11951 2680,984 3536,726 6057,877z"/>
  <path class="fil2" d="M91921 85027c490,-267 4805,-96 5721,-96 1281,0 4841,-159 5857,69 -62,1987 144,10542 -52,11533l-11554 19 29 -11525zm-8221 -52c209,173 143,73 134,701 -24,1637 -67,10222 37,10882 -825,-93 -8913,-65 -10972,-23 -701,14 -516,44 -627,-174 -8,-1302 -80,-10886 50,-11343 431,-116 10241,-93 11377,-43zm-30996 -10l11431 20c234,280 89,2298 89,2829l-23 8664c-351,172 -11103,153 -11554,30 -90,-602 -33,-4872 -33,-5847 0,-721 -122,-5353 89,-5697zm-27 -19623l50768 5 2 11534 -50792 -44 22 -11495zm-21 -19624l11557 -2 1 11216 -7 343 -11552 -34 0 -11522zm4387 36413c-123,238 -1364,129 -1674,129 -1358,0 -4444,-72 -5437,27l27 16922 16900 10 -8 -16902c-375,82 -6816,175 -7073,-66 -228,-215 -140,-2405 -128,-2455 70,-290 -27,-99 133,-216l16855 42c180,284 91,911 91,1249 0,427 78,975 -67,1355l-7086 35 -6 16975 16952 -14 0 -16956 -7081 -7c-97,-224 -206,-2375 23,-2646l16751 47c227,101 113,848 112,1123 -2,1815 451,1464 -2160,1464 -1147,0 -4015,-141 -4962,44l-3 16899 16952 16c19,-1343 -107,-16172 53,-16916 -1037,-160 -4722,-52 -6256,-43 -1083,7 -947,374 -923,-2094 3,-361 -66,-335 122,-500l7025 -30 15 -16983c-1646,-136 -9287,-21 -11579,-21 -2019,0 -33953,-113 -34837,49 -171,-177 -147,-268 -142,-662 8,-596 -41,-1604 69,-2075 544,-120 6621,-130 7128,-11l25 -16892c-2822,0 -5643,0 -8464,0 -1291,0 -7776,-173 -8475,110l-12 16844 7117 18 34 2599 -7151 20 0 16993 7145 13 -10 2505z"/>
  <path class="fil2" d="M50359 123606c1986,84 4159,5 6167,5 18422,0 36844,0 55266,0 2795,0 9651,190 12002,-326 5965,-1311 10987,-6527 11021,-13613l-13922 -12 -57808 4c-260,7039 -4729,12361 -11281,13670l-1228 194c-26,7 -52,16 -75,23l-143 55z"/>
  <path class="fil3" d="M72272 96362c801,259 9841,83 11461,83l-33 -11469c-1136,-50 -10947,-72 -11377,43 -131,457 -58,10041 -50,11343z"/>
  <path class="fil3" d="M72209 26715c78,3225 2472,5824 5765,5863 3376,40 5782,-2535 5926,-5814 -124,-1881 -788,-3253 -1679,-4160 -2149,-2188 -5893,-2357 -8301,15 -1086,1070 -1485,2099 -1712,4095z"/>
  <polygon class="fil2" points="70882,45683 104844,45717 104852,42988 70904,42978 "/>
  <polygon class="fil2" points="70957,55209 104873,55209 104850,52531 70966,52531 "/>
  <polygon class="fil2" points="104850,50410 104835,47817 70917,47784 70890,50448 "/>
  <polygon class="fil2" points="85185,59960 85193,57284 70888,57259 70889,59954 "/>
  <path class="fil2" d="M104850 50410l-33961 38 27 -2664 33918 33c-119,-210 -207,-122 -874,-117 -4572,28 -32060,-108 -33057,26 -169,390 -154,2337 -18,2766 877,152 28591,22 32986,37 293,1 764,91 978,-120z"/>
  <path class="fil2" d="M99154 79653c-189,165 -119,139 -122,500 -24,2468 -159,2101 923,2094 1534,-9 5219,-117 6256,43 -160,744 -34,15573 -53,16916l-16952 -16 3 -16899c947,-185 3815,-44 4962,-44 2611,0 2158,351 2160,-1464 0,-275 115,-1022 -112,-1123l3 2483c-667,-102 -6596,-100 -7034,64 -208,481 -72,13360 -78,15930 -2,1089 -124,1119 425,1135 2330,67 5682,-8 8107,-8l8016 5c802,7 602,-126 596,-953 -12,-1844 -85,-15125 10,-16156l-7141 -41 31 -2465z"/>
  <path class="fil2" d="M92012 84986l11381 0 0 11459 -11381 0 -1 -11459zm-120 11567l11554 -19c197,-992 -10,-9546 52,-11533 -1016,-228 -4576,-69 -5857,-69 -916,0 -5231,-171 -5721,96l-29 11525z"/>
  <path class="fil2" d="M66834 59919c-507,-119 -6584,-109 -7128,11 -110,471 -60,1479 -69,2075 -5,394 -29,485 142,662l0 -2671c529,0 6716,125 7055,-77 84,-26 102,167 119,-397 4,-165 -7,-372 -8,-544 -7,-2473 94,-15183 -34,-15985 -874,-124 -13448,-19 -15992,-31 -656,-3 -788,-89 -999,174 699,-283 7184,-110 8475,-110 2821,0 5643,0 8464,0l-25 16892z"/>
  <path class="fil2" d="M64136 84985l32 11494 -11485 0 21 -11514c-211,344 -89,4975 -89,5697 0,975 -57,5245 33,5847 451,123 11203,141 11554,-30l23 -8664c0,-531 145,-2549 -89,-2829z"/>
  <path class="fil2" d="M66860 99220c48,-88 55,-37 79,-198l-1 -16544 -201 -221 -6958 -25 5 -2651c-160,117 -63,-73 -133,216 -12,50 -100,2240 128,2455 256,241 6697,148 7073,66l8 16902z"/>
  <path class="fil2" d="M86525 99222c208,-394 82,-8100 82,-8472 0,-593 154,-8977 -122,-8514 -12,21 -48,-22 -66,-25l-6960 -25 9 -2573c-229,271 -121,2421 -23,2646l7081 7 0 16956z"/>
  <path class="fil2" d="M70966 52531l33885 0 23 2678 -33917 0 9 -2678zm-94 2684l33974 42 27 -2759 -33982 -11 -19 2728z"/>
  <path class="fil2" d="M69572 99237l6 -16975 7086 -35c145,-380 67,-928 67,-1355 0,-338 88,-965 -91,-1249l9 2563c-1005,0 -6586,-72 -7098,53 -123,543 -84,14122 -54,16526l75 473z"/>
  <path class="fil2" d="M49959 99210l-27 -16922c993,-100 4079,-27 5437,-27 310,0 1551,108 1674,-129 -1018,240 -6869,-135 -7112,157 -130,156 -116,13750 -71,16477l98 445z"/>
  <path class="fil2" d="M85185 59960l55 -115c52,-273 -2,154 25,-150 39,-440 25,-2205 -72,-2411l-8 2676 -14296 -6 -1 -2695c-129,288 -72,752 -72,1364 0,435 -87,994 92,1371 934,148 14053,67 14277,-33z"/>
  <path class="fil2" d="M72272 96362c111,219 -74,189 627,174 2059,-42 10147,-70 10972,23 -104,-660 -61,-9245 -37,-10882 9,-628 74,-528 -134,-701l33 11469c-1620,0 -10660,176 -11461,-83z"/>
 </g>
</svg>
