<?xml version="1.0" encoding="UTF-8"?>
<!DOCTYPE svg PUBLIC "-//W3C//DTD SVG 1.0//EN" "http://www.w3.org/TR/2001/REC-SVG-20010904/DTD/svg10.dtd">
<!-- Creator: CorelDRAW X6 -->
<svg xmlns="http://www.w3.org/2000/svg" xml:space="preserve" width="1.33962in" height="1.13911in" version="1.0" style="shape-rendering:geometricPrecision; text-rendering:geometricPrecision; image-rendering:optimizeQuality; fill-rule:evenodd; clip-rule:evenodd"
viewBox="0 0 19169 16300"
 xmlns:xlink="http://www.w3.org/1999/xlink">
 <defs>
  <style type="text/css">
   <![CDATA[
    .fil1 {fill:#203A77}
    .fil4 {fill:#273B7A}
    .fil2 {fill:#376895}
    .fil5 {fill:#8493B4}
    .fil6 {fill:#B0B9CF}
    .fil3 {fill:#FEFEFE}
    .fil0 {fill:#FFC007}
   ]]>
  </style>
 </defs>
 <g id="Layer_x0020_1">
  <metadata id="CorelCorpID_0Corel-Layer"/>
  <path class="fil0" d="M319 856c-2,28 6,24 -20,19l-3 26c-11,18 -17,27 -29,44l-15 29 -14 29 -18 26 -9 21 -17 26c8,32 17,26 -12,26 -146,368 -183,490 -183,916l0 12116c0,398 8,647 140,966 211,512 612,888 1132,1080 330,122 608,112 986,112 4407,0 8814,0 13221,0 456,0 1821,32 2174,-43 895,-190 1469,-964 1508,-1795 17,-352 0,-748 0,-1106l0 -11010c0,-393 14,-683 -93,-1013 -88,-271 -252,-536 -409,-699 -386,-400 -785,-622 -1581,-622l-14326 0c-862,0 -1523,-103 -2192,563 -146,145 -175,217 -242,286z"/>
  <g id="_955473664">
   <path class="fil1" d="M11711 15122c-144,-214 -129,-55 -73,-366 296,-105 57,-116 359,2 57,309 72,150 -72,368l-214 -4zm-2083 -1973c593,-289 936,671 359,907 -527,215 -1017,-586 -359,-907zm2583 -292c-369,-68 -181,-418 -112,-537 411,0 542,65 397,453 -14,8 74,151 -285,85zm2332 -2794c1131,-494 1766,1317 624,1695 -1085,359 -1781,-1190 -624,-1695zm-9372 442c499,-355 860,370 450,651 -469,322 -934,-306 -450,-651zm-3512 -3186c871,-476 1348,1030 549,1284 -880,279 -1428,-803 -549,-1284zm15455 -1121c702,-367 1136,665 607,975 -694,408 -1333,-596 -607,-975zm-2055 3365l-398 9c-13,-96 -19,-160 -54,-331l-494 -3218 2134 498c81,111 38,48 99,201 198,501 -45,207 424,773l-1257 2162 -454 -94zm-12751 -3527c-8,-224 -36,-471 114,-583 62,-38 24,-36 167,-74 90,-24 180,-20 262,-28 364,-68 571,-236 760,-422 283,150 377,216 566,424 -334,299 -727,799 -1037,1163 -997,1171 -792,-67 -832,-480zm-162 -2858c1184,-581 1769,1240 805,1692 -1131,531 -1964,-1123 -805,-1692zm12120 2699c-194,-64 -270,-21 -270,-253 -3,-714 -239,-1389 -322,-2111 -64,-554 148,-640 411,-390l1599 1849c288,351 1273,1217 631,1302 -535,71 375,19 -142,13 -213,-2 -1342,-362 -1907,-410zm-10481 -2502c271,-183 2229,-769 2668,-865l104 240 -2173 2410c-276,-128 -361,-260 -630,-380 170,-711 228,-664 30,-1404zm9373 -1832c764,-244 1022,894 387,1128 -786,290 -1210,-865 -387,-1128zm-5753 -341c1069,-343 1487,1301 535,1607 -1134,364 -1643,-1251 -535,-1607zm512 9743l-28 -204 -1670 -35c-110,-467 -219,-393 -480,-716l535 -1626 -178 -58 -596 1608c-112,46 -794,258 -812,255 -187,-36 -415,-310 -611,-469 -395,-319 -813,-642 -1236,-995 83,-282 179,-380 232,-765l2324 -377 -74 -189 -2248 347 -255 -563c268,-364 513,-514 803,-845 257,-293 463,-632 785,-829 296,240 762,490 1053,777 157,-163 1,11 123,-175 -182,-171 -807,-638 -1029,-732 521,-781 1511,-1672 2156,-2387 874,482 746,-35 194,2661l161 37 544 -2310 787 -282c230,203 1036,1071 1158,1311l142 -163c-355,-379 -682,-847 -1088,-1275 159,-336 232,-359 299,-815 4561,66 2809,-194 3824,904l-406 850c86,97 16,59 183,83 135,-311 263,-717 561,-858 322,30 392,-13 413,322l350 2300 -406 -78 -18 212 475 133c121,600 647,3326 522,3653 -331,33 -299,-78 -507,-400l-1174 -1804 -162 134 1456 2166 -431 563 -3298 -1597 260 -824 -166 -59 -217 782 -2170 -1034 -100 183 2169 1027 -175 500 186 46c143,-635 218,-421 784,-141 363,180 676,329 1043,507 1464,711 1645,583 1608,1244l-2504 -205 -20 206c524,32 1064,84 1584,126 832,66 970,-120 1122,639l-716 500c-929,-658 -537,-267 -1424,-123 -188,-298 -427,-386 -703,-552l-110 169c312,143 594,369 819,611l-7 531 -789 397c-399,-278 -178,-466 -950,-598l-31 -346 -205 38 27 315c-1624,742 -236,2485 772,1702 325,-252 251,-576 450,-947l857 -388c177,223 0,85 286,216l-133 959c-1820,659 391,2217 629,854 86,-494 -222,-598 -426,-842l117 -833c637,-157 674,-189 854,-784 110,-362 369,-461 850,-746 877,936 3474,77 1806,-2112 479,-642 820,-1476 1300,-2104 775,254 1496,-253 1421,-1060 -122,-1320 -1668,-756 -1742,-744 -166,-328 -2129,-2550 -2520,-2985 314,-719 364,-1391 -387,-1686 -1219,-478 -1337,757 -1619,822l-3204 -48c-106,-763 -582,-1341 -1504,-1194 -804,128 -1032,724 -1076,1583 -669,178 -1382,424 -2034,635 -582,188 -495,284 -932,-22 -278,-194 -503,-324 -946,-290 -1099,83 -1631,1283 -1001,2234 147,222 139,191 367,321l387 245 -88 1316c-526,122 -723,82 -1029,434 -234,270 -360,698 -238,1120 318,1107 1417,699 1841,571 366,216 632,509 1006,794 339,258 622,436 935,750 -175,596 60,1114 598,1239 661,154 853,-317 1072,-749l1642 31z"/>
   <path class="fil2" d="M9554 6126c358,2181 3793,1652 3375,-642 -153,-840 -923,-1553 -1978,-1384 -840,135 -1566,999 -1397,2026z"/>
   <path class="fil3" d="M14606 9241c5,6 149,181 153,184 93,68 177,75 299,138l454 94 1257 -2162c-468,-566 -226,-272 -424,-773 -61,-153 -19,-90 -99,-201l-2134 -498 494 3218z"/>
   <path class="fil3" d="M9696 4221c365,-188 566,-460 1161,-559 565,-94 1027,87 1467,224l406 -850c-1015,-1098 737,-838 -3824,-904 -67,456 -140,479 -299,815 406,428 733,896 1088,1275z"/>
   <path class="fil3" d="M7065 5665c468,194 725,461 920,888l1098 -193c167,-1332 -57,-840 471,-1976 -121,-240 -928,-1108 -1158,-1311l-787 282 -544 2310z"/>
   <path class="fil3" d="M6095 8306c-416,-286 -474,-241 -698,-742l-2324 377c-53,385 -149,483 -232,765 423,353 841,676 1236,995 196,158 425,433 611,469 17,3 699,-209 812,-255l596 -1608z"/>
   <path class="fil3" d="M6273 8364l-535 1626c262,323 370,249 480,716l1670 35c156,-786 396,-1022 909,-1395 -80,-73 -470,-537 -580,-690 -181,-253 -346,-451 -518,-629 -419,284 -764,465 -1426,337z"/>
   <path class="fil4" d="M9554 6126c-168,-1027 558,-1891 1397,-2026 1054,-170 1825,544 1978,1384 418,2295 -3017,2823 -3375,642zm142 -1906l-142 163c-528,1136 -304,644 -471,1976l119 171c313,711 566,883 1177,1300l166 59c1246,207 1118,11 2014,-309l162 -134c338,-450 613,-788 685,-1581l18 -212c-282,-1348 -637,-1164 -917,-1686 -167,-23 -97,15 -183,-83 -440,-137 -902,-318 -1467,-224 -595,99 -796,372 -1161,559z"/>
   <path class="fil3" d="M10546 7890l-260 824 3298 1597 431 -563 -1456 -2166c-896,320 -768,516 -2014,309z"/>
   <path class="fil3" d="M5583 6086c345,-290 643,-469 1321,-458 553,-2696 681,-2180 -194,-2661 -646,714 -1635,1606 -2156,2387 221,95 847,562 1029,732z"/>
   <path class="fil3" d="M13995 5625c92,91 178,169 270,253 565,48 1694,408 1907,410 516,6 -394,58 142,-13 643,-85 -342,-951 -631,-1302l-1599 -1849c-263,-251 -474,-165 -411,390 83,721 319,1396 322,2111z"/>
   <path class="fil2" d="M9233 9722c-1570,377 -809,2486 514,2114 1213,-342 920,-2458 -514,-2114z"/>
   <path class="fil4" d="M9233 9722c1434,-344 1727,1772 514,2114 -1323,373 -2085,-1737 -514,-2114zm-435 -377c-513,373 -753,609 -909,1395l28 204c184,914 648,1326 1659,1392l205 -38c648,-227 567,-317 957,-596l110 -169 137 -590 20 -206c-117,-836 -432,-1011 -932,-1406l-186 -46 -877 -27 -211 85z"/>
   <path class="fil3" d="M5323 7375c-87,-532 -13,-648 138,-1113 -290,-287 -756,-537 -1053,-777 -323,197 -528,536 -785,829 -290,330 -535,481 -803,845l255 563 2248 -347z"/>
   <path class="fil3" d="M3784 3376c199,740 140,693 -30,1404 269,120 353,252 630,380l2173 -2410 -104 -240c-439,96 -2397,682 -2668,865z"/>
   <path class="fil4" d="M6481 6112c1186,-306 1542,1447 532,1795 -1226,422 -1882,-1446 -532,-1795zm-898 -26c-122,186 34,12 -123,175 -151,465 -224,581 -138,1113l74 189c224,502 283,456 698,742l178 58c663,127 1008,-53 1426,-337l143 -158 49 -108 100 -183 76 -847 -83 -179c-195,-426 -452,-694 -920,-888l-161 -37c-678,-11 -976,168 -1321,458z"/>
   <path class="fil3" d="M12721 7447l1174 1804c208,322 177,433 507,400 125,-327 -401,-3052 -522,-3653l-475 -133c-72,793 -346,1132 -685,1581z"/>
   <path class="fil3" d="M10073 9333c500,395 815,570 932,1406l2504 205c36,-661 -145,-533 -1608,-1244 -367,-179 -681,-328 -1043,-507 -566,-280 -641,-494 -784,141z"/>
   <path class="fil2" d="M6481 6112c-1350,349 -694,2216 532,1795 1010,-347 654,-2101 -532,-1795z"/>
   <path class="fil4" d="M2145 3178c-1159,569 -326,2223 805,1692 963,-452 379,-2273 -805,-1692z"/>
   <path class="fil3" d="M8068 6731l-76 847 2170 1034 217 -782c-611,-417 -864,-589 -1177,-1300l-1134 201z"/>
   <path class="fil4" d="M14543 10063c-1157,506 -461,2055 624,1695 1142,-378 507,-2190 -624,-1695z"/>
   <path class="fil3" d="M10848 11535c276,167 515,254 703,552 886,-144 495,-535 1424,123l716 -500c-152,-759 -290,-573 -1122,-639 -520,-41 -1059,-94 -1584,-126l-137 590z"/>
   <path class="fil4" d="M7405 1203c-1108,356 -599,1971 535,1607 952,-305 534,-1950 -535,-1607z"/>
   <path class="fil3" d="M2850 5351c-224,139 -108,102 -429,102l-114 583c40,412 -166,1650 832,480 310,-364 703,-864 1037,-1163 -188,-208 -283,-274 -566,-424 -190,186 -397,354 -760,422z"/>
   <path class="fil3" d="M12507 3968c280,522 635,338 917,1686l406 78 -350 -2300c-267,-417 -11,-52 -413,-322 -297,141 -425,547 -561,858z"/>
   <path class="fil3" d="M9781 12300l31 346c772,132 551,319 950,598l789 -397 7 -531c-225,-242 -507,-468 -819,-611 -390,279 -310,369 -957,596z"/>
   <path class="fil4" d="M1659 7319c-879,480 -331,1563 549,1284 799,-253 321,-1759 -549,-1284z"/>
   <path class="fil3" d="M9009 9261l877 27 175 -500 -2169 -1027 -49 108c171,133 332,418 565,679 222,248 409,513 601,714z"/>
   <path class="fil4" d="M13157 1543c-823,263 -400,1418 387,1128 635,-234 378,-1373 -387,-1128z"/>
   <path class="fil4" d="M17113 6198c-726,380 -87,1383 607,975 528,-311 95,-1342 -607,-975z"/>
   <path class="fil4" d="M9628 13149c-658,321 -167,1122 359,907 577,-236 234,-1196 -359,-907z"/>
   <path class="fil4" d="M5170 10505c-484,345 -19,974 450,651 410,-282 49,-1007 -450,-651z"/>
   <path class="fil1" d="M7700 8027c173,177 338,376 518,629 110,153 499,617 580,690l211 -85c-192,-200 -380,-466 -601,-714 -233,-261 -394,-545 -565,-679l-143 158z"/>
   <path class="fil4" d="M12496 12772c145,-388 14,-453 -397,-453 -69,119 -257,469 112,537 359,66 271,-76 285,-85z"/>
   <polygon class="fil1" points="7985,6553 8068,6731 9202,6531 9083,6360 "/>
   <path class="fil4" d="M11638 14757c-56,311 -71,151 73,366l214 4c144,-218 130,-58 72,-368 -302,-117 -64,-107 -359,-2z"/>
   <path class="fil5" d="M2307 6036l114 -583c321,0 205,37 429,-102 -82,8 -172,4 -262,28 -143,38 -105,37 -167,74 -149,112 -122,360 -114,583z"/>
   <path class="fil6" d="M15058 9563c-122,-62 -205,-69 -299,-138 -5,-3 -148,-178 -153,-184 34,170 41,234 54,331l398 -9z"/>
   <path class="fil5" d="M13480 3432c-20,-335 -91,-292 -413,-322 401,270 145,-95 413,322z"/>
   <path class="fil5" d="M14265 5878c-92,-84 -178,-162 -270,-253 0,232 76,189 270,253z"/>
  </g>
 </g>
</svg>
