<?xml version="1.0" encoding="UTF-8"?>
<!DOCTYPE svg PUBLIC "-//W3C//DTD SVG 1.0//EN" "http://www.w3.org/TR/2001/REC-SVG-20010904/DTD/svg10.dtd">
<!-- Creator: CorelDRAW X6 -->
<svg xmlns="http://www.w3.org/2000/svg" xml:space="preserve" width="5.84646in" height="8.26772in" version="1.0" style="shape-rendering:geometricPrecision; text-rendering:geometricPrecision; image-rendering:optimizeQuality; fill-rule:evenodd; clip-rule:evenodd"
viewBox="0 0 292323 413386"
 xmlns:xlink="http://www.w3.org/1999/xlink">
 <defs>
  <style type="text/css">
   <![CDATA[
    .fil0 {fill:#00A0E3}
    .fil1 {fill:#2B2A29}
    .fil2 {fill:#2B2A29;fill-rule:nonzero}
   ]]>
  </style>
 </defs>
 <g id="Layer_x0020_1">
  <metadata id="CorelCorpID_0Corel-Layer"/>
  <rect class="fil0" width="292323" height="413386"/>
  <g id="_826877200">
   <path class="fil1" d="M65169 221019l0 9668 28199 0 0 -22559c0,-2384 -2535,-3223 -4834,-3223l-9936 4566c-4274,3371 -1835,11289 -13429,11547z"/>
   <path class="fil1" d="M127206 225048l0 5640 28199 0 0 -24976c0,-2865 -1571,-2417 -4834,-2417 -1740,0 -5241,3186 -6928,4352 -11657,8054 -4459,5958 -9159,13400 -1438,2276 -3863,3718 -7278,4002z"/>
   <path class="fil1" d="M97396 208128l0 22559 25782 0 0 -5640c-10700,-890 -6319,-9340 -12355,-13427 -2260,-1532 -13427,-10168 -13427,-3493z"/>
   <path class="fil1" d="M150571 192820c0,-6466 8862,-6466 8862,0 0,5019 -8862,5019 -8862,0zm-4834 2036c1803,1771 2118,3269 3936,5215 18651,9239 18849,-23301 1424,-16405 -4484,1774 -5360,5123 -5360,11190z"/>
   <path class="fil1" d="M90950 195237c0,-5639 10735,-8270 8057,3223 -2698,629 -8057,1757 -8057,-3223zm-4834 1133c1143,2018 2103,4257 3040,6118 3976,1855 7914,2881 11906,0 808,-1506 2203,-3510 3585,-5325 0,-16158 -18531,-15040 -18531,-793z"/>
   <path class="fil1" d="M61140 209740c0,-6893 8862,-5681 8862,-806 0,2176 -385,2222 -806,4029 -2698,629 -8057,1757 -8057,-3223zm13589 -806l-2679 -6445c-4117,-2569 -7782,-3845 -12241,-525 -3079,2291 -4617,7227 -2512,11607 4002,8323 18013,6586 17431,-4637z"/>
   <path class="fil1" d="M120761 214574c0,-6466 8863,-6466 8863,0 0,5273 -8863,5273 -8863,0zm-1141 -8057c-2332,2344 -1644,2915 -3694,5446 0,4032 313,6182 2246,8423 3546,4110 16285,6421 16285,-8795 -1747,-1941 -3515,-3692 -4353,-5880 -6410,-642 -4321,-1810 -10484,806z"/>
   <path class="fil1" d="M130104 205711c838,2187 2606,3938 4353,5880 3231,-2280 13724,-9245 15216,-11519 -1819,-1946 -2133,-3444 -3936,-5215 -2349,1143 -5058,3665 -7256,5210 -2773,1948 -5366,4047 -8377,5645z"/>
   <path class="fil1" d="M101062 202488c2000,1932 4895,3638 7356,5092 2893,1708 4753,3319 7508,4383 2049,-2531 1361,-3102 3694,-5446 -1854,-1699 -4692,-3068 -7080,-4671 -2669,-1791 -5124,-3861 -7893,-4683 -1382,1815 -2777,3819 -3585,5325z"/>
   <path class="fil1" d="M72050 202488l2679 6445c3139,-1539 11091,-6139 14427,-6445 -937,-1860 -1897,-4100 -3040,-6118 -2668,102 -4877,1584 -7383,2764 -2359,1110 -4851,1926 -6683,3354z"/>
   <path class="fil2" d="M166401 226996l1408 0c719,0 1222,-53 1510,-155 288,-102 519,-280 689,-533 295,-444 507,-1049 632,-1821 125,-772 189,-2010 189,-3710 0,-1654 -75,-2858 -223,-3612 -147,-757 -397,-1325 -753,-1707 -185,-193 -424,-329 -716,-405 -292,-79 -750,-117 -1370,-117l-1367 0 0 12061zm-3112 2521l0 -17081 5110 0c1041,0 1870,87 2491,265 618,178 1124,466 1522,867 602,583 1022,1321 1272,2210 246,894 371,2275 371,4157 0,2423 -83,4138 -254,5141 -170,999 -462,1852 -867,2555 -390,701 -939,1193 -1635,1469 -700,276 -1912,417 -3634,417l-4377 0zm16180 0l0 -7242 -4475 -9839 3521 0 2581 6421 2552 -6421 3430 0 -4407 9839 0 7242 -3202 0zm8491 0l0 -2884 5996 -11539 -5701 0 0 -2657 9085 0 0 2627 -5925 11569 6174 0 0 2884 -9630 0zm15078 -6859l2707 0 -1363 -7162 -1344 7162zm-4566 6859l3846 -17081 4267 0 3881 17081 -3427 0 -840 -4293 -3657 0 -821 4293 -3248 0zm16736 -9858l1829 0c928,0 1568,-185 1927,-556 359,-367 538,-1030 538,-1983 0,-852 -197,-1446 -587,-1787 -393,-341 -1105,-511 -2143,-511l-1564 0 0 4838zm-3066 9858l0 -17081 5698 0c1722,0 2968,348 3725,1049 761,700 1140,1840 1140,3422 0,1109 -204,1984 -613,2624 -405,639 -1007,1014 -1798,1128 1511,398 2301,1673 2366,3823 0,99 0,170 0,223l90 2260c30,644 110,1159 243,1549 132,386 340,723 621,1003l-3778 0c-87,-288 -155,-625 -201,-1014 -42,-390 -72,-939 -87,-1647l-45 -1787 0 -455c0,-988 -212,-1669 -632,-2040 -420,-367 -1280,-553 -2574,-553l-1087 0 0 7496 -3066 0zm16017 -8536c0,2812 163,4580 492,5307 329,730 939,1094 1825,1094 871,0 1468,-356 1791,-1071 321,-711 481,-2491 481,-5330 0,-2839 -163,-4619 -489,-5346 -326,-723 -928,-1086 -1806,-1086 -878,0 -1480,364 -1805,1086 -326,727 -489,2506 -489,5346zm-3248 -4c0,-1809 83,-3259 254,-4342 170,-1083 439,-1896 799,-2445 495,-776 1086,-1329 1776,-1662 685,-333 1590,-500 2714,-500 1124,0 2029,167 2715,500 689,333 1284,886 1787,1662 360,564 625,1382 791,2464 167,1079 250,2517 250,4323 0,1798 -83,3237 -254,4320 -170,1083 -436,1904 -787,2468 -503,776 -1098,1330 -1787,1662 -685,333 -1590,500 -2715,500 -1124,0 -2029,-166 -2714,-500 -689,-333 -1280,-886 -1776,-1662 -359,-548 -629,-1362 -799,-2445 -171,-1083 -254,-2533 -254,-4342z"/>
  </g>
 </g>
</svg>
