<?xml version="1.0" encoding="UTF-8"?>
<!DOCTYPE svg PUBLIC "-//W3C//DTD SVG 1.1//EN" "http://www.w3.org/Graphics/SVG/1.1/DTD/svg11.dtd">
<!-- Creator: CorelDRAW X6 -->
<svg xmlns="http://www.w3.org/2000/svg" xml:space="preserve" width="0.393701in" height="0.409449in" version="1.1" style="shape-rendering:geometricPrecision; text-rendering:geometricPrecision; image-rendering:optimizeQuality; fill-rule:evenodd; clip-rule:evenodd"
viewBox="0 0 79 82"
 xmlns:xlink="http://www.w3.org/1999/xlink">
 <defs>
  <style type="text/css">
   <![CDATA[
    .str0 {stroke:#FFED00;stroke-width:3.14961}
    .fil0 {fill:none}
   ]]>
  </style>
 </defs>
 <g id="Layer_x0020_1">
  <metadata id="CorelCorpID_0Corel-Layer"/>
  <rect class="fil0" y="2" width="78.7402" height="78.7402"/>
  <g id="_1442719776">
   <path class="fil0 str0" d="M46 80c0,0 -1,0 -1,0 -5,0 -11,0 -16,0 -1,0 -1,0 -1,-1 0,-12 0,-25 0,-37 0,0 0,-1 0,-1 -3,0 -6,0 -9,0 0,-4 0,-9 0,-13 0,0 1,0 1,0 2,0 5,0 7,0 1,0 1,0 1,-1 0,-3 0,-7 0,-10 0,-2 0,-5 2,-7 2,-3 4,-5 7,-6 3,-1 5,-1 8,-1 5,0 9,0 14,0 0,0 1,0 1,1 0,4 0,9 0,13 0,0 0,0 0,0 0,0 -1,0 -1,0 -3,0 -6,0 -8,0 -2,0 -3,1 -4,2 0,0 0,1 0,1 0,3 0,5 0,8 0,1 0,1 1,1 4,0 8,0 12,0 0,0 1,0 1,0 -1,4 -1,9 -2,13 -4,0 -8,0 -12,0 0,13 0,26 0,39z"/>
  </g>
 </g>
</svg>
