<?xml version="1.0" encoding="UTF-8"?>
<!DOCTYPE svg PUBLIC "-//W3C//DTD SVG 1.0//EN" "http://www.w3.org/TR/2001/REC-SVG-20010904/DTD/svg10.dtd">
<!-- Creator: CorelDRAW X6 -->
<svg xmlns="http://www.w3.org/2000/svg" xml:space="preserve" width="5.84646in" height="8.26772in" version="1.0" style="shape-rendering:geometricPrecision; text-rendering:geometricPrecision; image-rendering:optimizeQuality; fill-rule:evenodd; clip-rule:evenodd"
viewBox="0 0 584646 826772"
 xmlns:xlink="http://www.w3.org/1999/xlink">
 <defs>
  <style type="text/css">
   <![CDATA[
    .fil0 {fill:#00A0E3}
    .fil1 {fill:#2B2A29}
   ]]>
  </style>
 </defs>
 <g id="Layer_x0020_1">
  <metadata id="CorelCorpID_0Corel-Layer"/>
  <g id="_1098671216">
   <rect class="fil0" width="584646" height="826772"/>
   <g>
    <path class="fil1" d="M303670 403502c0,-7098 -808,-15800 8906,-15800 6056,0 10304,-396 11895,7065 926,4345 744,9630 744,14767 -3162,845 -3250,3735 -12640,3735 -6158,0 -8906,-3599 -8906,-9767zm-15513 -5458c0,6362 -313,12988 2992,18553 4253,7161 10590,8737 18841,8737 3143,0 6411,-580 8660,-1394 4140,-1499 5349,-3452 6565,-3777 0,3889 -1083,10672 -2879,13782 -2061,3568 -5867,5178 -11484,5178l-13215 0c-2254,0 -3267,-287 -5458,-287 -34,1522 -492,3901 -569,5463 -105,2130 -293,3466 -293,5740 3774,314 6170,1724 14076,1724 11848,0 24857,1076 31257,-10685 6110,-11227 6028,-45689 1209,-55392 -1800,-3625 -3360,-5848 -7276,-7949 -6403,-3434 -22345,-3504 -29326,-1066 -9364,3270 -13100,11599 -13100,21372z"/>
    <path class="fil1" d="M394160 383968c0,2443 1689,9353 1724,10917 2866,-668 5874,-1516 8680,-2237l8557 -2359c-42,1886 -575,3733 -575,6607l0 53719 15800 0c662,0 862,-200 862,-862l0 -72679c0,-662 -200,-862 -862,-862l-14650 0c-1377,0 -8203,2877 -9931,3570 -1023,410 -9603,3560 -9603,4186z"/>
    <path class="fil1" d="M347910 383681c147,1767 667,3696 985,5622 322,1957 615,3820 1026,5581l17236 -4596c-368,1580 -575,3499 -575,5458l0 54868 16374 0 0 -74402 -15800 0c-1509,0 -16821,6904 -19247,7469z"/>
    <path class="fil1" d="M263740 421600l-22120 0c0,-11820 3081,-16949 14651,-16949 7393,0 12927,1549 12927,9480 0,3609 -1265,7469 -5458,7469zm-9767 30163c6713,0 18071,-122 23269,-2873 0,-754 -758,-5567 -982,-5883 -369,-522 346,-471 -2623,-24l-12768 1026c-11845,639 -18141,-1917 -19248,-15227 8232,0 16478,-48 24709,4 7768,49 12061,-5229 12061,-12931 0,-5929 -260,-11437 -5796,-15174 -3444,-2326 -8071,-3798 -13746,-3778 -1591,6 -2363,-412 -3883,-184 -3300,495 -5826,-287 -11339,1896 -8838,3500 -10402,10507 -11615,18835 -230,1574 -45,2858 -175,4422 -733,8834 811,20984 8397,26106 3361,2269 8206,3785 13738,3785z"/>
    <path class="fil1" d="M179857 423898c0,15006 3786,27865 22120,27865 5159,0 8794,187 13867,-783 1332,-255 2251,-441 3546,-764 1414,-353 2315,-748 3558,-1038 -96,-1155 -793,-5578 -1149,-6320 -2239,187 -5079,736 -7468,863 -6318,337 -16942,1226 -20818,-3890 -3969,-5238 -3601,-11703 -3601,-18231 0,-21609 16030,-16374 31025,-16374 0,-6783 5330,-6013 -9887,-8211 -1490,-215 -2943,6 -4400,-199 -3725,-524 -11956,533 -15498,2182 -4181,1946 -7085,4885 -8796,9301 -1274,3285 -2218,7691 -2208,11294 5,1814 -291,2393 -291,4306z"/>
    <path class="fil1" d="M155439 450614l8906 0c662,0 862,-200 862,-862l0 -72679c0,-662 -200,-862 -862,-862l-8906 0 0 74402z"/>
   </g>
  </g>
 </g>
</svg>
