<?xml version="1.0" encoding="UTF-8"?>
<!DOCTYPE svg PUBLIC "-//W3C//DTD SVG 1.1//EN" "http://www.w3.org/Graphics/SVG/1.1/DTD/svg11.dtd">
<!-- Creator: CorelDRAW X6 -->
<svg xmlns="http://www.w3.org/2000/svg" xml:space="preserve" width="2.28346in" height="2.08661in" version="1.1" style="shape-rendering:geometricPrecision; text-rendering:geometricPrecision; image-rendering:optimizeQuality; fill-rule:evenodd; clip-rule:evenodd"
viewBox="0 0 2283 2087"
 xmlns:xlink="http://www.w3.org/1999/xlink">
 <defs>
  <style type="text/css">
   <![CDATA[
    .fil3 {fill:none}
    .fil0 {fill:none}
    .fil2 {fill:#00A0E3}
    .fil4 {fill:#FFED00}
    .fil1 {fill:#057DBB;fill-opacity:0.419608}
   ]]>
  </style>
   <clipPath id="id0">
    <path d="M0 0l2283 0 0 2087 -2283 0 0 -2087z"/>
   </clipPath>
   <clipPath id="id1">
    <path d="M0 0l2283 0 0 2087 -2283 0 0 -2087z"/>
   </clipPath>
    <clipPath id="id2">
     <path d="M0 0l2283 0 0 2087 -2283 0 0 -2087z"/>
    </clipPath>
    <clipPath id="id3">
     <path d="M0 0l2283 0 0 2087 -2283 0 0 -2087z"/>
    </clipPath>
    <clipPath id="id4">
     <path d="M0 0l2283 0 0 2087 -2283 0 0 -2087z"/>
    </clipPath>
    <clipPath id="id5">
     <path d="M0 0l2283 0 0 2087 -2283 0 0 -2087z"/>
    </clipPath>
 </defs>
 <g id="Layer_x0020_1">
  <metadata id="CorelCorpID_0Corel-Layer"/>
  <g style="clip-path:url(#id0)">
   <polygon class="fil0" points="0,0 2283,0 2283,2087 0,2087 "/>
  </g>
  <g style="clip-path:url(#id1)">
   <g id="_797008432">
   </g>
   <g style="clip-path:url(#id2)">
    <polygon id="1" class="fil1" points="-2005,-876 4289,-876 4289,2962 -2005,2962 "/>
   </g>
   <g style="clip-path:url(#id3)">
   </g>
   <g style="clip-path:url(#id4)">
    <g>
     <path id="2" class="fil2" d="M765 712c4,-12 2,-22 -13,-16 -3,5 -3,9 -2,17l16 -1zm-220 -707c-13,-6 -22,6 -11,19l12 -2c2,-8 2,-10 -1,-17zm-26 13l-30 0 -1 373c-20,4 -116,2 -146,1l0 307 394 0c1,0 8,-15 21,-15 22,0 28,39 0,39 -20,0 -10,-14 -25,-15 -35,-2 -200,0 -248,0l-134 0c-22,0 -16,2 -16,-68l0 -256c16,-6 120,-2 146,-2l0 -371 38 -2c23,-34 38,-3 39,2 3,17 -24,36 -39,7z"/>
     <path class="fil2" d="M-85 845c-5,12 -3,18 11,17 3,-3 4,-3 6,-9l-3 -10 -14 1zm768 77l0 -73 58 -1c13,1 7,-1 15,7 -5,-4 -2,-6 -1,-7l129 0 1 -54c-17,-5 -17,-18 -10,-34 26,-11 39,10 31,24l-8 8c-3,3 -1,1 -4,4l0 58c-7,5 -6,3 -24,3l-123 0c-18,0 -36,0 -54,0l0 72c-15,6 -175,2 -206,2 -60,0 -48,8 -79,-24l-39 -40c-8,-8 -6,-9 -16,-10l-408 0c-10,5 -6,14 -21,15 -26,2 -27,-36 -4,-39 15,-2 16,6 23,14l391 0c0,0 4,2 -1,7 7,-8 7,-8 20,-7 14,1 30,21 45,38 43,45 29,37 70,37 43,0 184,2 215,-1zm206 -137c15,-7 13,-22 -8,-19 -5,10 -5,16 8,19z"/>
     <path class="fil2" d="M2331 528c-15,-3 -19,1 -16,16 9,2 7,3 16,0 2,-7 2,-9 0,-16zm-251 -71l176 0 1 74 49 0c3,-10 7,-16 20,-14 11,1 18,7 17,19 0,21 -26,29 -38,5 -73,1 -59,16 -58,-74 -64,-3 -166,0 -239,0 -10,0 -10,2 -15,-4 -7,-7 -3,-193 -3,-228 0,-14 -3,-68 3,-74 3,-3 -5,-4 20,-3 8,0 15,0 23,0l338 0c6,-1 7,-15 23,-14 24,1 24,37 2,39 -17,2 -16,-7 -23,-14l-376 0 -1 289c13,1 30,1 43,1 31,0 29,-4 38,7 -1,-1 -1,-1 -2,-2 -1,-6 -2,-1 0,-5zm309 -301c-3,8 -3,5 0,14 11,6 16,2 17,-12 -7,-7 -10,-7 -17,-3z"/>
     <path class="fil2" d="M57 1303c-2,-6 -4,-8 -9,-12l-11 4 1 16 12 1 6 -9zm705 -383c-17,1 -17,11 -9,21l10 1c3,-4 3,-4 6,-10l-6 -11zm-9 29c-10,-3 -15,-6 -15,-20 1,-39 68,-9 24,21 -1,12 2,122 -3,131 -15,4 -287,1 -327,1 -59,0 -26,-5 -71,35l-21 21c-1,1 -3,3 -5,5 -16,16 -12,13 -12,40l0 123c-33,7 -247,-3 -257,2 -6,7 -9,15 -23,14 -23,-3 -23,-37 2,-38 13,-1 15,7 21,14l247 0 1 -127c0,-20 1,-18 10,-30l31 -32c36,-36 26,-34 67,-34 110,0 220,1 330,0l0 -125z"/>
     <path class="fil2" d="M1224 1580c-16,-26 -30,15 -8,12 9,-5 5,-4 8,-12zm47 -208l230 0c1,-54 -2,-164 0,-211 1,-10 -2,-6 3,-11 8,-6 222,-2 251,-2 13,-2 4,-14 23,-14 12,0 18,7 19,18 1,21 -28,33 -37,6l-251 0 0 222c-21,7 -239,-2 -291,2l0 177c2,8 13,5 14,21 1,35 -53,20 -34,-10 3,-5 1,-2 5,-5 1,0 3,-2 3,-2 0,0 1,-1 2,-1 0,0 1,-1 2,-1l0 -188c10,-3 23,-1 34,-2 14,0 20,-3 29,6 -5,-3 -3,-4 -1,-6zm513 -209c6,-13 0,-25 -11,-19 -7,4 -11,22 11,19z"/>
     <path class="fil2" d="M54 1369c-12,-4 -19,1 -15,15 14,10 22,-2 15,-15zm697 -206c18,6 21,-14 6,-20 -11,4 -12,10 -6,20zm25 -11c0,11 -7,20 -17,21 -15,1 -18,-9 -23,-15l-307 0c-3,8 -13,14 -23,26 -3,3 -4,4 -8,7 -1,28 4,176 -2,188 -8,10 -309,-1 -326,3 -7,3 -9,9 -13,13 -10,1 -20,1 -25,-5 -4,-6 -4,-18 0,-24 16,-23 36,6 36,6l321 0c1,-44 0,-88 0,-133 0,-31 -4,-46 7,-58l34 -33 301 0c18,0 6,-12 26,-14 12,-1 21,7 21,18z"/>
     <path class="fil2" d="M1724 544c11,4 10,3 18,-3l0 -12 -17 -2 -1 17zm-699 -228l-1 -10 -12 -4c-6,4 -12,8 -7,16 2,3 5,5 8,4 6,0 8,-3 11,-6zm93 1l-2 0 -21 0 -3 0 -34 0 -27 0 -1 8 0 -1c-4,0 -3,-1 -2,3 -18,10 -37,1 -32,-20 4,-17 31,-22 36,0 47,-1 467,-2 476,1 6,5 2,201 3,223l204 0c14,-26 37,-14 37,5 0,11 -7,19 -17,19 -13,1 -16,-8 -23,-14 -11,-4 -198,6 -209,-3l-1 -221 -384 0z"/>
     <path class="fil2" d="M2350 1457l1 -13c-12,-5 -10,-6 -20,2 1,13 7,20 18,11zm59 -539c26,7 18,-30 -3,-13 -1,7 0,9 3,13zm202 -3l-177 0c-14,29 -38,11 -38,-5 0,-19 27,-29 37,-4l142 0c56,0 44,-15 45,82 0,56 3,204 0,242 -15,5 -233,1 -274,2l0 196c8,10 15,6 14,24 0,12 -7,18 -19,18 -22,-1 -27,-28 -4,-37l1 -209 274 0 -1 -308z"/>
     <path class="fil2" d="M693 1386c2,-6 6,-10 2,-16 -3,-4 -9,-5 -14,-2 -7,4 -10,22 13,18zm80 -91c-14,5 -3,-6 -16,-2 -8,2 -7,8 -6,18 22,6 13,-5 22,-16 0,0 1,0 1,0 31,8 116,-3 153,4 2,92 1,192 1,284 0,30 -1,23 -31,23 -59,0 -52,4 -52,-16l0 -208 -138 0c-6,9 -7,16 -23,14 -22,-2 -19,-25 -11,-33 3,-3 7,-6 13,-6 12,0 14,8 21,15l147 1 0 224 63 0 0 -289 -140 0c-6,19 -22,17 -31,9 -18,-14 2,-31 3,-33 6,0 14,-2 19,1 6,3 5,4 4,10z"/>
     <path class="fil2" d="M1255 811l0 37 66 0 0 -147c16,-5 273,1 286,-2 9,-4 8,-14 21,-15 11,-1 19,7 20,18 1,13 -5,20 -16,21 -17,2 -15,-10 -25,-15l-278 0 0 149 -84 0c-1,-12 -1,-25 0,-38l0 -33c0,-26 0,-52 0,-78l-326 -1c-1,0 -11,0 -11,0 -7,-1 -4,1 -7,-4 1,-3 -2,-5 16,-5l331 1c1,0 1,0 2,1 11,3 5,47 5,58 0,23 4,44 -5,53 0,-1 -1,-1 1,-2 6,-2 0,-3 4,0zm384 -102c2,-19 -15,-18 -20,-5 3,7 1,4 6,8 9,1 8,1 14,-4z"/>
     <path class="fil2" d="M1914 1599c-6,-16 -26,-9 -17,9l11 2c9,-8 3,-4 6,-10zm-11 -698c-5,2 -5,2 -8,6 -1,16 5,16 18,12 2,-10 0,-15 -10,-17zm-4 681c1,-53 -7,-51 13,-70 4,-4 7,-9 12,-14l80 -82c12,-11 17,-16 27,-27l26 -27c10,-9 17,-17 27,-27 13,-14 14,-13 14,-39 0,-18 0,-36 0,-55 0,-96 4,-241 0,-326l-176 0c-4,9 -8,17 -22,15 -11,-2 -17,-8 -17,-20 0,-8 1,-10 5,-13 19,-17 33,8 36,9l182 1c3,23 1,284 1,330 0,101 11,74 -39,126 -6,6 -9,9 -14,14 -5,5 -7,8 -12,13 -9,10 -17,18 -27,27 -5,5 -10,9 -14,14l-67 69c-34,33 -27,19 -27,81 27,17 12,39 -5,39 -18,0 -31,-27 -4,-38z"/>
     <path class="fil2" d="M1827 454c-11,-4 -11,-3 -18,2l-1 9c9,10 9,6 19,3l-1 -15zm-28 3c12,-26 37,-16 38,3 0,13 -6,20 -17,21 -14,1 -16,-9 -23,-14 -34,0 -210,3 -221,-2 -7,-23 5,-260 -2,-298l-247 0c-6,7 -6,14 -19,15 -11,1 -19,-7 -21,-16 -3,-22 27,-35 37,-9 5,0 252,-3 258,2 7,7 0,241 2,286 1,13 0,10 11,11l-5 7c8,-10 6,-7 19,-8l190 0zm-485 -285c4,-19 -6,-26 -17,-12 0,14 4,14 17,12z"/>
     <path class="fil2" d="M1151 1453c-2,-7 -3,-9 -9,-12 -10,3 -11,6 -8,18 9,5 13,3 17,-6zm-310 -521c-4,-16 -19,-15 -20,-2 -1,14 12,17 20,2zm-6 59l0 84 265 0c55,0 46,-6 46,30l0 328c7,3 13,5 14,16 3,26 -33,30 -37,9 -3,-17 4,-21 14,-26 0,-112 -2,-238 0,-348 -79,-3 -237,-1 -309,-1l-1 -133c-10,-6 -16,-10 -14,-26 2,-15 13,-14 28,-12 5,7 16,20 2,33 -12,11 -8,3 -8,45z"/>
     <path class="fil2" d="M1627 620c23,4 21,-25 -1,-17 -3,9 -2,11 1,17zm-13 -14c5,-9 6,-15 19,-15 42,-1 6,70 -19,23l-184 -1 0 -223 -447 0c-11,4 -6,15 -23,15 -25,0 -24,-38 0,-39 16,0 12,10 23,15 13,3 440,-2 451,1l5 222c3,1 6,2 8,4 6,4 -4,3 3,1 19,-6 143,-2 166,-3zm-646 -215c3,-22 -15,-15 -17,-9 -4,12 7,17 17,9z"/>
     <path class="fil2" d="M1349 602l-15 0c-4,11 -3,13 5,19 11,-1 15,-5 11,-19zm-566 -187c4,-15 4,-20 -13,-19 -3,9 -6,8 -1,19l14 0zm-2 12l0 179 539 0c6,-7 4,-12 15,-14 8,-2 17,1 21,6 5,7 4,18 -1,24 -5,7 -14,8 -25,6 -9,-6 1,-13 -20,-14 -97,-2 -499,4 -539,-1 -2,-30 0,-179 -1,-185l-7 -9c-26,-28 28,-51 31,-17 2,15 -7,17 -14,23z"/>
     <path class="fil2" d="M146 1460c3,-15 2,-19 -15,-17 -6,14 -4,21 15,17zm541 -242c-13,0 -16,6 -11,18l15 2c3,-12 5,-12 -4,-20zm-23 5c6,-9 7,-17 23,-15 10,1 20,13 15,27 -3,9 -8,12 -17,12 -16,1 -14,-5 -21,-15l-194 0 -3 221c0,0 -1,1 -1,2 -14,7 -265,-2 -310,2 -6,9 -9,15 -23,14 -10,-1 -17,-10 -16,-20 1,-16 25,-31 38,-3l304 0c3,-32 1,-79 1,-113 0,-119 -9,-111 25,-110l178 0z"/>
     <path class="fil2" d="M1297 1577c-12,-11 -25,-4 -17,14l12 1c3,-5 5,-7 5,-15zm419 -353c-5,-6 -6,-7 -15,-5 -8,12 -4,24 13,17l2 -12zm-423 233l0 104c15,15 22,17 5,38 -16,2 -27,0 -29,-15 -2,-21 12,-17 14,-26l0 -112 292 0 1 -223 96 0c23,0 12,-1 23,-11 15,-15 38,6 29,25 -3,8 -13,12 -23,9 -13,-3 -6,-10 -17,-14l-100 0 -3 222c-6,6 -251,0 -289,3z"/>
     <path class="fil2" d="M2327 1890c-14,0 -14,5 -11,18 18,5 23,-6 11,-18zm-279 -148c-10,1 -8,7 -8,16 11,4 12,6 20,-4 -1,-8 -3,-13 -12,-12zm-17 5c9,-22 28,-15 34,-8 13,17 -10,47 -30,24 -7,-8 3,-5 -12,-7 -8,-1 -22,0 -30,0 -20,0 -41,0 -61,0l0 140 366 0c17,-1 4,-13 23,-14 45,-4 10,70 -16,24l-379 -1c0,-1 -1,0 -3,-1l0 -157 108 0z"/>
     <path class="fil2" d="M2580 770c11,-5 10,-9 5,-20l-12 1c-6,10 -4,16 7,19zm-208 -15l188 0c7,-9 5,-18 23,-15 21,3 21,40 -4,39 -13,0 -12,-7 -19,-14 -45,-1 -90,0 -134,0l-394 -1 0 -133c-24,-14 -15,-40 5,-39 13,1 32,18 4,39l0 124 92 1c5,8 -8,0 18,0 27,0 206,-2 217,2 6,2 1,7 5,0 0,0 0,-1 0,-1zm-327 -141c-2,-20 -22,-20 -19,2 12,6 10,5 19,-2z"/>
     <path class="fil2" d="M1742 858c1,-4 2,-1 1,-7 -2,-10 0,-1 -3,-6l-12 -2 -5 12c7,8 10,11 20,3zm160 -442c4,-11 6,-14 -5,-20 -12,3 -13,7 -9,20l14 1zm-2 11l0 405c0,30 8,26 -31,26l-113 0c-10,5 -1,1 -8,8 -23,25 -51,-24 -19,-32 17,-4 22,9 25,14l138 0 0 -421 -11 -9c-20,-29 35,-48 35,-12 0,13 -8,15 -15,21z"/>
     <path class="fil2" d="M1700 921c-12,-6 -18,-4 -18,11 3,3 4,4 9,6l9 -3 0 -13zm-581 -2l-1 14 8 5c6,-2 7,-2 11,-7 0,-14 -5,-15 -18,-12zm29 13c-24,31 -39,7 -39,-4 -1,-11 6,-19 16,-21 16,-2 15,9 25,14l524 0c9,-29 50,-10 34,16 -4,6 -16,13 -27,4 -15,-13 -1,-11 -30,-11 -56,0 -111,0 -167,0 -111,0 -225,3 -335,0z"/>
     <path class="fil2" d="M202 1534c13,3 21,1 16,-14 -5,-4 -3,-3 -10,-3l-6 5 0 12zm341 -41c0,43 3,39 -23,39l-290 0c-8,6 -8,16 -23,14 -10,-1 -17,-8 -17,-19 1,-19 26,-30 37,-5l17 0c77,0 219,3 288,0l1 -16 7 5c-9,-8 -7,-6 -7,-20 0,-36 -2,-156 1,-173l53 0c12,-4 3,-15 23,-15 27,0 23,38 0,39 -15,0 -13,-13 -23,-14l-44 0 0 166zm72 -162c4,-7 6,-8 2,-19l-14 0c-4,15 -4,19 12,19z"/>
     <path class="fil2" d="M1480 846c-14,-6 -20,-5 -19,13l9 4 9 -4 0 -12zm111 1l33 0 1 -75 187 -1 1 -193c-1,-13 -23,-14 -12,-36 9,-18 29,-4 34,0 4,39 -11,19 -13,37l0 201 -188 0 0 78c-47,-1 -93,-1 -145,0 -8,28 -49,11 -35,-14 3,-7 11,-12 21,-9 12,2 10,8 17,14l79 0c14,0 14,-2 22,7 -5,-5 -2,-6 -1,-7zm220 -286c23,3 21,-16 5,-19 -10,6 -10,10 -5,19z"/>
     <path class="fil2" d="M1937 305c-9,-4 -8,-7 -18,0l-1 13c7,2 12,2 18,-1l1 -12zm396 -287c-1,-10 -2,-11 -8,-16l-9 2c-6,19 3,23 17,13zm-29 -1l-373 0 -1 275c24,10 16,38 -4,38 -10,0 -18,-6 -19,-17 -1,-14 6,-17 14,-21l0 -282 381 -1c19,-34 37,-6 39,2 3,18 -25,35 -38,6z"/>
     <path class="fil2" d="M1914 1668c-17,-5 -24,3 -15,16 8,2 8,2 15,-1l0 -15zm291 -433c2,-12 0,-13 -9,-16 -6,3 -8,4 -10,11 4,9 9,12 19,5zm-55 147c0,0 1,-1 1,-1 0,0 1,-1 1,-1l15 -15c4,-4 7,-6 10,-9 7,-7 15,-12 15,-25 1,-23 1,-57 0,-81 -8,-6 -16,-8 -14,-23 1,-9 9,-17 18,-17 10,0 18,8 19,19 1,14 -6,15 -14,21 -1,27 0,56 0,83 0,16 -7,19 -15,27l-136 138c-17,19 -24,28 -44,45 -30,26 -23,29 -23,60 0,71 7,79 -15,79l-44 0c-7,23 -38,18 -37,-6 0,-11 8,-18 18,-19 17,-1 14,8 23,15l46 -1c0,-27 0,-54 0,-81 0,-16 -3,-25 6,-35 27,-31 80,-81 113,-116 2,-2 3,-3 5,-5l52 -53z"/>
     <path class="fil2" d="M1367 1573l-14 0c-4,14 -2,19 12,19 7,-10 7,-7 2,-19zm-2 -11c6,5 16,11 14,24 -3,21 -37,23 -38,-2 -1,-15 5,-15 15,-20 0,-2 0,-7 0,-9 0,-1 0,-1 0,-2l1 -4c0,0 1,-1 1,-1 2,-6 2,0 1,-3 0,0 -1,3 -2,-1 0,0 -1,0 -1,0 0,-4 0,-8 0,-12l1 -4c0,-1 0,-1 1,-2 0,-1 0,-1 1,-2l20 0c2,3 4,1 -1,6 9,-9 33,-9 42,0 -6,-4 -1,-5 -1,-5 32,0 216,2 230,-1l1 -222 35 0c10,-4 6,-15 23,-14 25,1 24,37 0,38 -16,1 -12,-10 -23,-14l-28 0 0 224c-43,1 -87,0 -130,0l-156 -1c-1,0 -4,1 -5,1l-1 14c0,6 1,10 1,16zm351 -261c-5,-10 -8,-12 -19,-4l1 13c11,5 16,4 17,-9z"/>
     <path class="fil2" d="M1658 359c-20,-5 -20,11 -7,19 11,-3 14,-9 7,-19zm-360 -263c14,3 22,-3 13,-17l-13 1c-3,8 -2,7 0,16zm26 -13l331 0 1 263c7,7 15,9 14,24 -3,35 -57,8 -31,-16 10,-10 8,3 8,-14l0 -247 -324 0c-10,27 -37,12 -37,-5 0,-18 26,-31 37,-5z"/>
     <path class="fil2" d="M2532 378l-14 -1c-2,4 -3,4 -4,9 7,14 23,15 18,-8zm-456 -58c3,-9 5,-11 -4,-18 -8,0 -15,2 -12,12 2,9 8,7 16,6zm15 -14c35,0 298,-4 307,2 4,3 2,0 4,7l1 66 101 0c6,-8 7,-15 21,-15 24,1 24,38 0,39 -16,1 -12,-11 -23,-15 -24,-1 -89,4 -108,-1l-1 -73 -281 0c-44,0 -21,15 -44,14 -8,0 -14,-4 -17,-11 -8,-19 10,-31 22,-28 10,3 8,9 17,14z"/>
     <path class="fil2" d="M1230 1218c-8,7 -8,8 -4,18 7,3 6,3 14,0 5,-11 3,-18 -11,-18zm302 -150l-13 0c-4,12 -3,8 0,20l10 0c8,-8 6,-8 3,-19zm-2 -11c6,7 9,3 13,13 9,25 -23,40 -34,18 -10,-20 9,-23 12,-33 2,-8 1,-38 -1,-46l-152 0c-7,39 6,195 -3,223l-110 0c-5,7 -3,9 -11,13 -7,3 -12,2 -18,0 -22,-9 -7,-48 18,-35 6,3 6,7 11,13 16,0 93,3 101,-1 2,-3 1,1 2,-5 0,-2 0,-4 1,-6 0,-4 0,-10 0,-14 0,-40 -2,-177 1,-196l172 1 0 56z"/>
     <path class="fil2" d="M2504 455c6,-7 8,-15 21,-14 23,0 25,36 2,39 -14,2 -17,-7 -23,-14 -8,-4 -156,3 -181,-1 -5,-9 -3,-58 -3,-71l-231 -1c-5,7 -9,15 -21,14 -40,-2 -7,-69 20,-24l240 0 1 72 96 1c0,0 4,1 -1,7 7,-8 3,-6 15,-7l65 0zm28 13c1,-6 1,-12 -1,-17l-11 0c-6,5 -4,1 -7,10l7 9 12 -1zm-455 -75c2,-9 3,-15 -6,-16 -10,-1 -10,5 -11,12 6,7 8,9 17,4z"/>
     <path class="fil2" d="M2569 690c4,4 4,4 11,6 5,-4 7,-4 10,-11l-7 -9c-13,0 -13,1 -13,14zm-459 -69c6,-12 6,-6 1,-19 -17,-1 -18,3 -14,19l13 0zm0 10l-1 50 450 0c6,-9 7,-15 21,-15 25,0 23,38 0,39 -12,0 -15,-8 -21,-14l-458 0 -1 -60c-8,-4 -15,-8 -14,-21 2,-24 37,-22 38,0 1,12 -7,16 -14,21z"/>
     <path class="fil2" d="M1772 1292c-17,-6 -19,3 -15,17 13,4 9,2 17,-4l-2 -12zm-182 -243c-2,5 -2,9 0,16 9,4 10,4 17,-3 -1,-13 -5,-16 -16,-13zm25 4l278 0 1 79c-29,29 -89,94 -116,118 -7,6 -15,21 -5,32 3,3 0,-1 5,4 24,27 -32,48 -33,14 0,-17 13,-15 14,-24 5,-32 -7,-11 33,-52l83 -85c11,-11 9,-12 8,-33 -1,-15 0,-29 0,-44l-268 -1c-10,23 -39,18 -38,-5 1,-10 8,-18 17,-18 13,-1 16,6 19,15z"/>
     <path class="fil2" d="M1332 1745l0 11c9,6 9,5 19,1l-1 -14c-5,-4 -14,-1 -18,1zm-336 -153c-10,-1 -11,12 -6,17 7,6 23,-2 13,-13 -2,-2 4,-3 -6,-4zm324 164c-67,1 -135,0 -201,0 -69,0 -55,32 -55,-150 -7,0 -45,-2 -48,1l-8 9c-4,3 -9,5 -14,4 -36,-3 -8,-69 21,-24l57 1c6,30 0,112 2,148l247 0c8,-7 8,-16 23,-14 10,1 17,8 17,20 0,13 -7,20 -19,19 -11,0 -14,-9 -21,-14z"/>
     <path class="fil2" d="M2753 816c16,5 26,-6 17,-15 -8,-8 -21,-3 -17,15zm-348 -214c-1,-1 -7,-1 -9,-1 -17,4 -1,34 13,11l-4 -10zm13 5l238 0 0 149 109 0 1 31c8,6 15,8 15,21 0,23 -36,27 -38,2 -1,-18 6,-16 14,-23 0,-15 4,-22 -8,-23l-101 0 0 -148 -230 -1c-6,8 -9,15 -21,15 -24,-1 -27,-37 0,-38 12,0 15,7 21,15z"/>
     <path class="fil2" d="M2524 322l8 -5 0 -11 -8 -5c-9,3 -7,1 -11,8 0,10 2,10 10,13zm-465 -87c3,19 17,14 19,5 1,-7 -3,-11 -8,-12 -7,-1 -8,3 -11,7zm32 -2l382 0 1 74 29 0c7,-7 10,-15 21,-15 10,0 18,8 18,19 0,11 -7,19 -16,20 -11,2 -16,-8 -23,-14l-36 0c-5,-14 -1,-57 -2,-74 -32,-4 -289,0 -361,-1 -25,0 -12,0 -25,10 -14,12 -38,-4 -29,-25 3,-6 11,-12 20,-10 14,2 10,11 20,15z"/>
     <path class="fil2" d="M1350 1668l-17 -2 -2 13c9,8 8,6 19,3l0 -15zm-350 -149c-13,-8 -18,10 -10,16 5,4 12,1 14,-3 5,-8 -1,-11 -4,-13zm139 162c-6,-15 -1,-122 -3,-149l-121 0c-6,8 -9,17 -23,14 -23,-4 -17,-39 4,-38 11,0 14,9 21,15l129 1 0 149 174 0c0,0 1,-1 1,-2l8 -9c30,-22 45,35 12,35 -13,0 -19,-14 -21,-15l-181 0z"/>
     <path class="fil2" d="M435 545c4,-7 6,-8 1,-18 -15,-2 -18,4 -15,18l13 0zm203 -297c-14,-7 -23,3 -15,17 16,4 19,-4 15,-17zm-4 30l0 242c0,23 4,22 -25,22l-160 0c-17,29 -45,9 -36,-14 4,-11 18,-13 27,-8 17,10 -3,12 28,12l157 0 0 -237c0,-30 -3,-12 -12,-28 -14,-25 28,-41 35,-16 5,18 -6,22 -12,27 0,0 -1,1 -1,1z"/>
     <path class="fil2" d="M877 530c-8,-6 -8,-4 -17,-1l0 13c12,6 22,1 18,-12zm457 14c8,3 8,3 16,-1l1 -14 -17 -2c-3,9 -3,9 0,17zm-62 -3l-373 0c-17,0 -7,-1 -18,9 -2,2 -4,3 -6,4 -12,4 -23,-5 -25,-14 -4,-22 18,-29 30,-20 6,4 1,0 5,5 0,1 2,2 2,3 3,3 0,1 3,4l426 0c16,-2 7,-15 25,-15 12,0 20,8 19,21 -1,12 -16,28 -34,8 -7,-8 -1,-6 -15,-6 -13,0 -26,0 -40,0z"/>
     <path class="fil2" d="M1775 1454c-1,-7 -2,-7 -6,-11 -21,0 -19,20 0,19l5 -8zm194 -404c-15,-11 -18,4 -16,17 15,2 21,0 16,-17zm-13 27c-9,-6 -15,-5 -14,-21 2,-38 68,-5 24,21 0,24 0,48 0,72 0,51 2,39 -45,87l-71 75c-10,11 -24,23 -34,34 -55,59 -46,40 -47,89 22,12 17,37 -3,38 -21,2 -24,-22 -17,-32 3,-4 5,-4 10,-6 1,-37 -6,-36 14,-57 11,-12 22,-22 33,-35 31,-34 93,-95 119,-125 16,-19 29,-24 31,-37l-1 -102z"/>
     <path class="fil2" d="M2026 1217c19,7 18,-13 11,-17 -10,-6 -19,5 -11,17zm-200 -239c-6,4 -4,10 -3,16 14,4 19,4 19,-13 -3,-2 -10,-6 -16,-3zm201 13l-174 0c-8,7 -8,15 -23,14 -12,-1 -17,-8 -17,-21 1,-12 9,-19 21,-18 17,2 9,11 21,15 32,0 159,-4 181,1 3,36 1,150 1,193 0,25 5,9 13,26 5,11 -2,22 -10,25 -21,9 -41,-24 -12,-36l0 -190 0 -10z"/>
     <path class="fil2" d="M439 469c3,-14 -3,-22 -17,-15l0 14c8,4 8,4 17,1zm117 -350c12,-3 12,-12 7,-21 -11,-1 -15,2 -17,12l10 8zm6 10c-1,111 2,229 -1,338l-113 0c-4,10 -12,18 -25,13 -15,-6 -13,-18 -9,-33 8,-4 17,-9 27,-2 15,10 -2,12 25,12l87 0c3,-88 1,-234 0,-328 -8,-7 -14,-9 -14,-21 0,-6 1,-10 5,-13 7,-8 31,-10 33,12 1,14 -6,16 -14,23z"/>
     <path class="fil2" d="M1060 1460c2,0 5,1 7,1l6 -2c0,0 1,-1 2,-1 9,-22 -22,-27 -15,2zm-145 -308c-10,-19 -21,-3 -22,0 -1,9 17,22 22,0zm148 6l-109 0c-41,0 -27,-1 -36,9 -7,7 -16,8 -24,4 -1,0 -2,-1 -3,-2 -12,-11 -6,-37 16,-34 12,2 10,10 19,14l147 0 0 280c5,6 14,10 14,22 1,11 -6,19 -17,20 -24,1 -28,-29 -6,-38l0 -274z"/>
     <path class="fil2" d="M1350 454l-16 -2 -3 13c8,10 9,7 20,4l-1 -15zm-422 -2l-10 0c-6,8 -7,13 2,19 16,0 15,-9 8,-19zm281 5l111 0c7,-8 5,-14 19,-15 12,-1 19,6 21,16 3,27 -27,31 -37,9l-378 0c-8,5 -10,15 -23,14 -11,0 -17,-8 -18,-19 0,-11 5,-19 16,-20 14,-2 19,7 23,15l238 0c27,0 21,-2 29,7 -5,-4 -2,-7 -1,-7z"/>
     <path class="fil2" d="M2133 1683l0 -14c-12,-5 -18,-4 -20,9 6,10 9,9 20,5zm387 -16c-7,8 -9,11 0,19l11 -2c2,-5 2,-10 1,-17l-12 -1zm-334 14c-60,0 -36,-2 -51,10 -15,12 -38,-3 -29,-24 3,-7 11,-12 21,-10 16,3 13,18 16,13 0,0 1,1 1,1l190 0c15,0 47,-4 57,5 -6,-5 -1,-5 -1,-5l113 0c6,-7 9,-16 23,-14 23,2 21,38 -2,39 -13,0 -15,-8 -21,-15l-317 0z"/>
     <path class="fil2" d="M1082 245c7,4 6,2 14,1 1,-16 2,-10 -7,-18l-12 7c1,6 -2,2 4,9 0,0 1,1 1,1zm400 1c22,7 19,-25 -2,-15 -3,9 -3,9 2,15zm-15 -3l-359 0c-6,7 -7,15 -21,14 -36,-1 -13,-56 13,-35 7,6 2,4 8,11l361 0c12,-26 37,-14 37,5 0,11 -7,18 -17,19 -13,1 -17,-9 -23,-14z"/>
     <path class="fil2" d="M422 605c-4,19 13,20 17,11 5,-11 -5,-19 -17,-11zm25 15c-4,6 -5,10 -16,10 -10,0 -15,-6 -18,-11 -7,-31 24,-37 36,-13 12,5 46,0 61,2 11,1 6,5 9,0l54 0c-11,13 -38,5 -57,6 -21,2 -46,0 -67,1 -2,2 0,2 -2,5zm259 -7l0 1 -138 0c7,-11 36,-7 61,-7 20,0 51,2 69,-1l0 -104c0,-15 -4,-22 7,-29l0 139zm-16 -267c-7,-15 -13,-21 7,-33 20,-2 29,9 23,28 -4,6 -6,7 -13,11l0 100c0,15 3,19 -7,27l0 -127 -9 -4zm21 -9c3,-12 1,-15 -10,-17l-9 10 4 10c9,1 9,2 15,-3z"/>
     <path class="fil2" d="M2474 1164c3,-4 7,-6 6,-14 -1,-6 -5,-9 -12,-7 -10,3 -12,19 7,21zm-116 -305c1,-19 -7,-19 -19,-13l0 10c8,8 8,6 19,3zm-5 14l0 183 119 0c0,1 1,2 1,3 0,1 1,1 1,2 3,12 1,57 2,73 28,17 10,39 -4,39 -23,1 -28,-33 -5,-38l0 -69 -106 0c-21,0 -15,-6 -15,-46l0 -147c-8,-6 -16,-7 -15,-21 1,-24 35,-25 38,-2 2,15 -5,17 -14,24z"/>
     <path class="fil2" d="M1224 34c-2,-6 -2,-9 -7,-10 -12,-4 -22,19 2,20l5 -9zm-316 76l-11 -22 -1 1c1,2 3,5 5,6l6 4c10,3 40,35 51,44 5,5 8,5 13,10 26,23 18,24 47,24 31,0 173,2 191,-1l1 -123c-15,-12 -20,-14 -9,-37 34,-7 43,18 18,36l0 133c-28,3 -155,1 -193,1 -43,0 -28,3 -52,-19l-65 -58z"/>
     <path class="fil2" d="M1230 1292c-13,10 -9,22 12,18 2,-13 2,-18 -12,-18zm212 -188c2,-16 -4,-19 -18,-13l-1 14c11,4 9,5 19,-1zm-5 192c-1,11 1,4 -3,8 -7,7 -157,1 -181,3 -6,8 -9,16 -23,14 -25,-3 -20,-40 4,-38 14,1 13,11 21,14l174 0 -1 -179c-9,-6 -15,-8 -14,-24 2,-22 36,-23 37,2 0,15 -5,15 -14,21 -3,34 1,161 0,178z"/>
     <path class="fil2" d="M1005 1450c-8,-16 -23,-11 -17,8l12 3c2,-4 4,-5 5,-11zm-178 -232c-3,4 -7,6 -5,13 1,5 7,8 13,6 8,-3 11,-20 -9,-19zm177 250c-25,8 -38,-16 -19,-34 8,-8 5,-13 5,-29l0 -173 -138 0c-2,2 -1,1 -3,4 -4,5 -4,8 -11,10 -31,8 -31,-32 -11,-38 12,-4 24,14 24,14 0,0 1,1 1,1 28,0 56,0 83,0 67,0 64,-7 64,18l0 190c23,10 14,31 4,36z"/>
     <path class="fil2" d="M2041 1668l0 13c25,14 28,-25 0,-13zm238 -221l-11 -6 -9 6c0,21 21,20 21,0zm-29 0c12,-27 37,-15 38,3 1,21 -24,32 -39,7 -10,-1 -35,-2 -44,-1 -10,1 -38,31 -46,39l-10 11c-4,4 -7,7 -11,11l-80 82c-3,3 -1,0 -5,5l0 47c2,10 15,7 15,24 0,26 -37,26 -38,0 0,-19 12,-13 14,-24 0,-9 -1,-45 1,-51 2,-5 92,-96 99,-104l44 -45c12,-10 43,-4 60,-4z"/>
     <path class="fil2" d="M56 688c-1,-17 -16,-17 -18,-7 -3,14 9,19 18,7zm-4 -419l0 395c7,7 15,9 14,21 -1,23 -37,28 -38,0 0,-17 10,-13 14,-24l0 -398c6,2 4,2 10,5z"/>
     <path class="fil2" d="M1214 1124l-8 5 0 11 8 5c15,-5 15,-16 0,-20zm-322 -107c-2,-4 -1,-1 -3,-6 2,-2 7,-2 8,-3l7 7c8,-2 9,-3 12,-10 -2,-6 -4,-8 -8,-10 4,-4 2,-4 9,-4 13,7 -2,9 19,10l282 0 1 113c8,6 15,6 14,21 -2,23 -34,25 -37,2 -2,-16 6,-17 14,-23l1 -105 -287 0c-2,17 -24,20 -32,8z"/>
     <path class="fil2" d="M2333 609c-13,-28 -30,12 -10,12 6,-2 8,-4 10,-12zm-107 -3l51 0c4,8 -8,0 28,0 4,-9 6,-15 19,-15 26,0 24,34 4,38 -17,3 -18,-6 -24,-14l-130 0 3 -52c0,0 -1,-1 -2,-4 -3,-8 -2,-8 -2,-17l-117 -1c-8,5 -6,14 -21,14 -25,1 -26,-37 -2,-39 13,-1 14,9 23,15l125 0 2 74c9,2 17,1 26,1 17,1 11,5 16,0zm-181 -68c-3,-28 -37,-1 -9,8l9 -8z"/>
     <path class="fil2" d="M2490 843c-10,1 -8,7 -8,16 11,4 12,7 20,-4 0,-8 -3,-13 -12,-12zm207 195l-10 -5 0 -175 -174 0c-7,7 -8,14 -21,15 -25,0 -25,-37 -2,-39 15,-2 15,8 23,14l180 2c11,3 3,165 4,189z"/>
     <path class="fil2" d="M2002 81c-13,-10 -20,10 -11,16 11,6 21,-8 11,-16zm316 -1c-3,5 -3,10 -2,17l16 -1c3,-9 3,-7 0,-17l-14 1zm-12 13l-291 0c-9,23 -37,17 -37,-4 0,-19 26,-31 38,-5l290 0c23,-44 60,20 20,24 -13,1 -17,-6 -20,-14z"/>
     <path class="fil2" d="M1962 862c29,-8 -12,-37 -8,-4l8 4zm9 -333c-7,-8 -24,-5 -16,14 13,3 17,-1 16,-14zm-4 29l0 275c7,4 15,9 14,21 -1,23 -35,26 -38,2 -2,-16 5,-16 14,-23l1 -275c-5,-13 -15,-3 -14,-24 1,-38 56,-10 33,14 -6,6 -5,1 -9,9z"/>
     <path class="fil2" d="M2187 1608c13,6 24,2 16,-14 -15,-5 -18,1 -16,14zm332 3c13,-1 17,-5 11,-18l-11 -2c-10,10 -7,11 0,19zm-3 8c-16,-6 2,-14 -29,-13 -90,1 -182,-3 -271,0 -6,7 -8,16 -23,14 -24,-3 -19,-40 4,-39 12,1 13,8 19,15l287 0c6,-7 5,-10 14,-14 31,-12 33,50 -1,37z"/>
     <path class="fil2" d="M2770 1235c5,-11 2,-17 -12,-18l-7 11 8 10 11 -3zm1 -354c2,-12 -1,-13 -11,-16 -8,5 -11,6 -8,17 8,3 11,2 18,-2zm-28 -9c2,-18 23,-22 33,-9 16,20 -10,31 -11,35l0 308c31,24 8,40 -5,40 -10,0 -12,-4 -17,-8 -3,-31 5,-21 13,-34l0 -287c0,-4 0,-11 0,-14 -2,-22 -17,-6 -14,-31z"/>
     <path class="fil2" d="M954 920c-8,19 9,21 15,16 8,-7 3,-22 -15,-16zm237 -74c-11,-3 -20,-7 -20,10 8,9 9,6 19,3l0 -13zm-152 12c0,95 12,74 -59,75 -6,22 -36,18 -37,-4 -1,-21 23,-32 39,-7l49 1c0,-16 -2,-62 2,-75 41,-4 83,1 119,-1 16,-1 7,0 18,-9 11,-10 28,-6 30,9 3,16 -8,28 -22,25 -15,-3 -7,-13 -24,-15 -3,0 -10,0 -14,0 -33,0 -67,-1 -100,0z"/>
     <path class="fil2" d="M1595 991c1,0 -3,4 7,2 4,-1 6,-2 7,-6 3,-8 -3,-12 -7,-16 -23,5 -8,19 -8,19zm249 -91c-15,-8 -18,5 -15,18 18,2 20,-1 15,-18zm-26 13l-49 0c0,7 2,69 -3,73 -10,4 -124,2 -146,2l-7 10c-23,22 -50,-29 -16,-34 18,-3 19,11 23,15l139 0 1 -69c0,-1 1,-1 1,-2 4,-11 40,-5 58,-5 8,-25 38,-15 37,6 -1,18 -29,31 -38,3z"/>
     <path class="fil2" d="M2543 1163l10 -5 -1 -14c-8,-3 -16,-5 -19,5 -3,9 5,12 10,15zm-119 -185c-14,-8 -19,3 -15,16 15,4 19,-1 15,-16zm10 3c25,0 87,-1 112,1l0 149c0,0 1,0 1,1 1,2 15,5 14,22 -2,27 -46,23 -37,-9 2,-9 4,-6 9,-10 4,-4 2,0 4,-5l1 -140 -88 0c-29,0 -10,4 -25,12 -10,5 -23,0 -27,-9 -9,-22 23,-44 36,-13z"/>
     <path class="fil2" d="M2386 1162c12,-31 -37,-17 -10,3l10 -3zm-181 -95c3,-17 -7,-17 -18,-11l0 9c6,9 9,9 18,2zm-5 19l0 63 157 0c9,-10 13,-18 27,-13 12,4 15,20 8,30 -4,6 -11,10 -21,7 -11,-3 -8,-9 -17,-14l-157 0c-14,-3 -7,-52 -7,-78 -26,-9 -14,-39 6,-38 17,1 23,23 12,34 -9,8 -6,0 -9,10z"/>
     <path class="fil2" d="M1461 1682c3,-24 -20,-23 -17,0 7,5 9,5 17,0zm239 1c17,9 20,-8 14,-14 -7,-7 -22,-2 -14,14zm-16 -12c11,-5 3,-5 11,-11 11,-9 32,-2 31,17 -1,10 -10,19 -20,18 -13,-1 -12,-12 -21,-15l-214 0c-10,26 -39,13 -36,-8 1,-11 8,-16 19,-17 14,0 14,8 21,15l211 0z"/>
     <path class="fil2" d="M1444 1596c-3,5 -1,11 3,14 6,4 10,0 13,-2 7,-19 -12,-18 -16,-11zm269 -2c-13,-9 -22,11 -11,16 10,5 21,-10 11,-16zm-21 -3c25,-29 50,19 21,29 -19,7 -22,-12 -29,-14l-214 0c-3,9 -6,16 -20,14 -37,-3 -5,-68 21,-24 59,2 121,0 180,0 8,0 16,0 23,0 14,0 10,2 17,-6z"/>
     <path class="fil2" d="M973 832c-7,-12 -15,-11 -21,0 2,8 3,9 9,12 8,-2 10,-4 12,-12zm211 -47c2,-7 2,-12 -1,-18 -17,-3 -17,5 -13,19l14 0zm-25 -5l-191 0c0,45 -2,28 10,41 3,3 5,7 5,13 0,20 -22,22 -32,14 -3,-3 -6,-6 -6,-12 -1,-14 7,-17 14,-23 1,-30 -6,-40 10,-42 3,0 9,0 12,0l179 0c9,-25 37,-16 37,4 0,21 -30,29 -37,5z"/>
     <path class="fil2" d="M242 1200l-4 2c-25,10 2,5 -29,6 6,2 9,4 20,3 8,7 -5,-7 2,6 -5,-2 -1,-1 -8,-2l-244 0 0 218c-4,-5 -3,7 -4,-9 0,-32 -3,-193 2,-210 24,-8 175,3 217,-3 -36,-10 -169,2 -223,-4 3,46 0,107 0,155 0,75 -8,65 18,92l15 15c0,0 1,1 1,1l3 4c0,0 1,1 1,1 -6,-3 -36,-33 -39,-38 -5,-9 -3,-165 -3,-193 0,-6 0,-13 0,-19 0,-2 0,-8 0,-10 1,-16 6,-11 53,-11l160 0 3 0 21 1 6 -1c17,0 12,2 19,-6 5,-5 -1,-1 6,-5l4 -1c-3,4 -6,6 1,7z"/>
     <path class="fil2" d="M2262 1534l16 0 2 -12c-7,-8 -9,-9 -18,-4 -2,7 -1,9 1,16zm271 -12c-9,-10 -13,-8 -20,2 3,13 5,12 18,10l2 -12zm-30 -1c7,-8 10,-16 23,-14 10,1 17,10 16,22 -1,11 -9,17 -20,16 -11,-1 -12,-7 -19,-15l-213 0c-7,7 -3,11 -16,14 -27,7 -40,-41 5,-37 3,4 7,10 10,14l213 0z"/>
     <path class="fil2" d="M2280 1092c6,-29 -27,-19 -14,1l14 -1zm-1 -245c-10,-11 -23,5 -14,14 8,7 24,-3 14,-14zm-2 26l0 192c42,21 -17,62 -23,23 -2,-15 5,-19 14,-23l0 -193c-6,-2 -6,-1 -10,-6 -20,-26 27,-49 33,-17 3,17 -9,20 -14,23z"/>
     <path class="fil2" d="M1396 865c17,-2 16,-18 4,-20 -14,-2 -15,11 -4,20zm178 -80c5,-13 4,-20 -11,-18 -8,8 -7,8 -3,19l14 -1zm-28 -5l-144 0 0 55c6,4 12,6 14,15 2,12 -1,18 -8,22 -18,11 -31,-5 -29,-26 4,-4 11,-7 14,-13l0 -60 153 0c6,-7 6,-15 21,-15 11,0 18,7 19,19 0,12 -5,18 -16,19 -16,1 -16,-7 -23,-14z"/>
     <path class="fil2" d="M1769 1534c-21,-2 -19,18 -2,19 8,-7 9,-10 2,-19zm-55 -146c5,-24 -20,-26 -17,-1 8,4 8,3 17,1zm-3 151l28 0c12,-3 9,-15 25,-15 10,0 19,10 18,21 -1,10 -9,19 -20,18 -11,-1 -13,-11 -21,-15l-40 -1 0 -147c-6,-5 -15,-8 -14,-20 1,-23 33,-26 38,-4 5,21 -11,14 -14,30l0 133z"/>
     <path class="fil2" d="M1297 1133c-3,-6 -2,-5 -7,-9l-12 3 0 14c10,3 17,6 20,-8zm-1 -149l-1 -13 -17 0 -1 16c12,4 12,6 19,-3zm-4 130c0,0 24,13 10,32 -8,11 -27,10 -33,-3 -6,-19 2,-22 12,-29l0 -114c-9,-7 -13,-4 -14,-17 -1,-11 2,-19 11,-22 20,-7 35,17 21,31 -10,10 -9,-1 -9,21l0 100z"/>
     <path class="fil2" d="M2267 1366c-9,7 -12,8 -4,21l13 -2c3,-4 4,-7 4,-15l-12 -4zm0 -147c-11,7 -13,21 2,20 14,0 15,-17 -2,-20zm21 11c-1,12 -7,13 -15,19l0 107c8,7 15,7 15,21 0,12 -7,19 -18,19 -13,0 -19,-6 -20,-19 0,-15 6,-14 14,-21l0 -107c-7,-6 -16,-9 -14,-24 4,-22 39,-22 37,4z"/>
     <path class="fil2" d="M616 858c0,-9 0,-15 -11,-14 -10,1 -8,7 -7,16 10,8 11,7 18,-2zm-148 6c9,0 8,-1 13,-6l-1 -12 -14 -1 -5 9c3,10 1,6 6,11zm120 -5l-97 0c-2,2 -5,16 -21,15 -22,-1 -25,-35 -2,-39 15,-2 17,7 23,15l96 0c4,-10 5,-15 19,-15 11,0 18,7 18,18 1,21 -26,32 -37,5z"/>
     <path class="fil2" d="M2186 984c7,16 21,11 20,-2 -2,-13 -15,-13 -20,2zm19 -136c-8,-7 -16,-3 -19,8 7,15 21,15 19,-8zm-5 32l0 81c5,8 14,6 14,21 1,25 -35,29 -37,4 -1,-14 6,-18 14,-23l0 -88c-25,-12 -14,-39 6,-38 17,1 22,23 11,33 -6,6 -6,1 -9,10z"/>
     <path class="fil2" d="M2050 844c1,0 1,0 2,1l49 3c14,-24 39,-15 38,5 -1,20 -27,31 -37,5l-45 0 -7 10c-22,21 -48,-21 -20,-33 3,-1 7,-2 12,-1 11,3 9,10 9,10 -12,7 -1,-2 -16,0 -8,1 -8,6 -7,14 22,10 13,-1 23,-15zm79 12c3,-16 -17,-16 -19,-5 -2,14 17,15 19,5z"/>
     <path class="fil2" d="M1727 692c-5,13 -7,22 13,19 4,-11 2,-19 -13,-19zm15 -91c-10,-7 -19,-2 -19,13 14,9 20,3 19,-13zm-5 27l0 52c6,7 14,9 14,21 0,12 -7,19 -19,19 -12,0 -18,-7 -19,-17 -1,-14 8,-16 14,-23l0 -52c-27,-16 -11,-38 5,-38 21,0 28,26 5,38z"/>
     <path class="fil2" d="M449 606l249 0 0 -252c-1,0 -1,-2 -1,-1 0,1 -1,-2 -2,-2l-4 -4 9 4 0 127c10,-8 7,-12 7,-27l0 -100c6,-3 9,-4 13,-11l-11 12 -2 260 0 -139c-11,7 -7,15 -7,29l0 104c-18,3 -49,1 -69,1 -25,0 -54,-5 -61,7l138 0c-3,3 4,2 -7,3 -42,0 -85,0 -127,0 -21,0 -114,-3 -125,3 2,-3 1,-3 2,-5 21,0 46,1 67,-1 19,-2 46,7 57,-6l-54 0c-3,5 2,2 -9,0 -15,-2 -49,3 -61,-2z"/>
     <path class="fil2" d="M2765 1300c-22,-4 -219,-1 -273,-1 -15,0 -24,-4 -30,7l293 1c0,0 3,-1 4,8 0,1 0,6 0,7 0,49 3,205 -1,226l6 4c-8,-3 -6,2 -7,-10l0 -234 -322 0c10,-9 19,5 30,-10l-33 -5c7,3 11,2 21,2l273 0c13,0 36,-3 39,4z"/>
     <polygon class="fil2" points="1063,-9 1001,-10 1000,-29 1062,-29 "/>
     <path class="fil2" d="M1806 358c-7,-2 -10,-2 -17,-1l-2 13c14,6 22,7 19,-13zm-5 -37l0 25 12 6c2,14 4,24 -7,30 -13,7 -21,-3 -28,-9 -1,-14 0,-21 11,-25l4 -2c5,-7 3,-19 3,-32l5 6z"/>
     <polygon class="fil2" points="2696,1200 2686,1201 2686,1118 2697,1114 "/>
     <polygon class="fil2" points="2696,1038 2697,1114 2686,1118 2686,1033 "/>
     <path class="fil2" d="M1808 276l-6 0 0 44 -5 -6c-1,13 2,25 -3,32l-4 2 4 -2 0 -70c1,-13 -1,-4 3,-8 6,-6 41,-2 53,-4 -4,5 6,3 -10,5l-35 0c5,2 2,-1 4,6z"/>
     <path class="fil2" d="M2677 1215l7 -1 0 5 -3 4 5 13c13,1 16,-3 14,-16l-7 -2 7 -8c10,4 12,16 9,23 -11,32 -53,-4 -32,-17z"/>
     <polygon class="fil2" points="1858,178 1858,235 1847,241 1847,172 "/>
     <path class="fil2" d="M1808 276c-2,-7 1,-3 -4,-6l35 0c16,-2 6,0 10,-5l-2 -25 10 -6 -1 40c-14,4 -34,2 -49,2z"/>
     <path class="fil2" d="M1058 317l34 0 0 12 -9 8c-18,2 -23,-1 -24,-20z"/>
     <path class="fil2" d="M52 217l-1 52c-6,-3 -4,-3 -10,-5l0 -50c5,3 3,2 10,3z"/>
     <path class="fil2" d="M949 261c1,0 1,-1 2,-1 0,0 1,-1 2,-1 0,0 1,-1 1,-2 2,-2 2,-2 3,-6l-6 0 3 -12 -6 -6 -12 1c1,4 2,3 -2,3 -1,-4 -2,-4 2,-3 -2,-7 -3,-7 -9,-11 -3,-2 -4,-3 -5,-4 -5,-4 -2,-2 -5,-6l15 11c32,-10 33,15 29,25 -4,9 -4,5 -8,7 -1,6 2,1 -5,4z"/>
     <path class="fil2" d="M896 89l8 6c0,0 1,1 1,1l2 3 -6 -4c-1,-1 -3,-5 -5,-6zm12 21l-48 -43 9 4 0 -6c9,5 6,3 13,11 7,7 8,5 13,13l11 22z"/>
     <path class="fil2" d="M908 995c-9,-1 -9,1 -13,6l1 8c0,0 -6,1 -8,3 3,5 1,3 3,6 -9,-3 -11,-33 14,-32 11,1 8,0 11,5 -7,0 -4,0 -9,4z"/>
     <path class="fil2" d="M693 1386c-22,4 -20,-14 -13,-18 5,-3 12,-1 14,2 4,6 1,10 -2,16z"/>
     <path class="fil2" d="M2543 1163c-5,-3 -13,-6 -10,-15 3,-9 11,-7 19,-5l1 14 -10 5z"/>
     <path class="fil2" d="M915 1152c-5,22 -23,9 -22,0 0,-3 12,-19 22,0z"/>
     <path class="fil2" d="M2753 816c-4,-18 9,-23 17,-15 9,9 -1,20 -17,15z"/>
     <path class="fil2" d="M-21 98c4,11 6,13 -3,21l-12 -4c-2,-15 -1,-18 15,-18z"/>
     <path class="fil2" d="M954 920c18,-6 24,9 15,16 -6,5 -23,3 -15,-16z"/>
     <path class="fil2" d="M638 248c4,13 1,21 -15,17 -8,-15 1,-24 15,-17z"/>
     <path class="fil2" d="M2474 1164c-19,-2 -16,-18 -7,-21 7,-2 11,1 12,7 2,8 -3,10 -6,14z"/>
     <path class="fil2" d="M616 858c-7,8 -8,10 -18,2 -1,-9 -3,-14 7,-16 11,-2 12,4 11,14z"/>
     <path class="fil2" d="M1595 991c0,0 -15,-14 8,-19 4,4 10,7 7,16 -1,3 -3,5 -7,6 -10,1 -7,-2 -7,-2z"/>
     <path class="fil2" d="M1844 900c4,16 3,20 -15,18 -3,-13 0,-26 15,-18z"/>
     <path class="fil2" d="M2386 1162l-10 3c-28,-19 22,-34 10,-3z"/>
     <path class="fil2" d="M1970 1051c5,16 0,19 -16,17 -2,-12 1,-27 16,-17z"/>
     <path class="fil2" d="M2267 1219c17,3 16,20 2,20 -15,0 -13,-13 -2,-20z"/>
     <path class="fil2" d="M2279 1370c0,7 -1,10 -4,15l-13 2c-8,-13 -5,-14 4,-21l12 4z"/>
     <path class="fil2" d="M202 688c-7,10 -19,10 -20,-3 -1,-14 19,-17 20,3z"/>
     <path class="fil2" d="M841 931c-8,15 -21,12 -20,-2 1,-13 15,-14 20,2z"/>
     <path class="fil2" d="M2133 1683c-11,4 -13,5 -20,-5 2,-13 7,-14 20,-9l0 14z"/>
     <path class="fil2" d="M769 931c-3,6 -3,6 -6,10l-10 -1c-7,-10 -7,-20 9,-21l6 11z"/>
     <path class="fil2" d="M827 1218c20,0 17,16 9,19 -6,2 -12,-1 -13,-6 -2,-8 2,-9 5,-13z"/>
     <path class="fil2" d="M2186 984c5,-16 18,-15 20,-2 2,13 -12,18 -20,2z"/>
     <path class="fil2" d="M1351 468c-11,4 -12,6 -20,-4l3 -13 16 2 1 15z"/>
     <path class="fil2" d="M1024 316c-3,3 -5,6 -11,6 -3,0 -6,-2 -8,-4 -6,-8 1,-12 7,-16l12 4 1 10z"/>
     <path class="fil2" d="M1785 1163c-22,4 -18,-14 -11,-19 11,-7 17,5 11,19z"/>
     <path class="fil2" d="M1297 1577c0,8 -2,10 -5,15l-12 -1c-7,-17 6,-25 17,-14z"/>
     <path class="fil2" d="M1842 980c0,17 -5,17 -19,13 -1,-6 -3,-12 3,-16 5,-3 13,0 16,3z"/>
     <path class="fil2" d="M1828 468c-11,3 -11,6 -19,-3l1 -9c7,-5 7,-6 18,-2l1 15z"/>
     <path class="fil2" d="M711 337c-6,5 -6,4 -15,3l-4 -10 9 -10c11,2 14,5 10,17z"/>
     <path class="fil2" d="M2262 1534c-2,-7 -3,-9 -1,-16 9,-5 11,-4 18,4l-2 12 -16 0z"/>
     <path class="fil2" d="M1902 416l-14 -1c-4,-13 -3,-17 9,-20 11,7 9,9 5,20z"/>
     <path class="fil2" d="M111 692c-7,-23 21,-26 17,-1 -7,3 -8,4 -17,1z"/>
     <path class="fil2" d="M1720 375c-6,-8 -7,-6 -4,-17 8,-2 10,-3 18,1l1 12c-7,3 -5,4 -15,4z"/>
     <path class="fil2" d="M1442 1104c-10,6 -8,4 -19,1l1 -14c14,-6 19,-2 18,13z"/>
     <path class="fil2" d="M1396 865c-11,-9 -10,-22 4,-20 12,2 13,18 -4,20z"/>
     <path class="fil2" d="M2110 621l-13 0c-4,-16 -4,-20 14,-19 4,13 5,8 -1,19z"/>
     <path class="fil2" d="M1575 784l-14 1c-4,-11 -5,-11 3,-19 15,-1 16,5 11,18z"/>
     <path class="fil2" d="M1367 1573c5,12 5,10 -2,19 -14,-1 -16,-5 -12,-19l14 0z"/>
     <path class="fil2" d="M2502 856c-7,10 -9,7 -20,4 0,-9 -2,-15 8,-16 9,-1 11,4 12,12z"/>
     <path class="fil2" d="M1994 1291c1,15 -6,17 -18,11 -5,-17 7,-23 18,-11z"/>
     <path class="fil2" d="M-20 22l-14 0c-5,-15 -1,-19 14,-19 4,10 4,8 1,19z"/>
     <path class="fil2" d="M845 1704c-4,-5 -2,-2 -5,-8 2,-16 9,-15 19,-6 2,13 -1,16 -14,14z"/>
     <path class="fil2" d="M146 1460c-19,4 -21,-3 -15,-17 17,-2 17,2 15,17z"/>
     <path class="fil2" d="M2279 1447c0,20 -21,21 -21,0l9 -6 11 6z"/>
     <path class="fil2" d="M2770 1235l-11 3 -8 -10 7 -11c14,0 17,6 12,18z"/>
     <path class="fil2" d="M1297 984c-8,9 -8,7 -19,3l1 -16 17 0 1 13z"/>
     <path class="fil2" d="M1351 1683c-11,3 -10,5 -19,-3l2 -13 17 2 0 15z"/>
     <path class="fil2" d="M688 1218c9,8 7,8 4,20l-15 -2c-5,-12 -2,-18 11,-18z"/>
     <path class="fil2" d="M54 1369c7,13 -1,25 -15,15 -4,-14 3,-19 15,-15z"/>
     <path class="fil2" d="M2115 1745c8,-6 19,-9 18,12 -12,5 -8,4 -20,0l2 -12z"/>
     <path class="fil2" d="M1241 1236c-8,3 -7,3 -14,0 -5,-9 -4,-11 4,-18 14,1 16,7 11,18z"/>
     <path class="fil2" d="M1774 1304c-8,7 -4,8 -17,4 -4,-14 -2,-23 15,-17l2 12z"/>
     <path class="fil2" d="M1230 1292c14,1 13,6 12,18 -20,4 -25,-8 -12,-18z"/>
     <path class="fil2" d="M2590 685c-3,7 -5,8 -10,11 -7,-2 -6,-2 -11,-6 0,-13 0,-15 13,-14l7 9z"/>
     <path class="fil2" d="M2842 785l-10 0c-5,-11 -5,-9 -1,-20l13 1c3,11 5,11 -3,19z"/>
     <path class="fil2" d="M2350 1457c-11,9 -18,2 -18,-11 9,-8 7,-7 20,-2l-1 13z"/>
     <path class="fil2" d="M2423 1369c1,5 3,13 -2,17 -3,3 -10,2 -12,-1 -9,-8 -3,-21 14,-16z"/>
     <path class="fil2" d="M1351 1743l1 14c-11,3 -11,5 -19,-1l0 -11c5,-3 13,-6 18,-1z"/>
     <path class="fil2" d="M783 415l-14 0c-5,-11 -2,-11 1,-19 16,-1 17,5 13,19z"/>
     <path class="fil2" d="M2205 848c2,22 -12,23 -19,8 3,-11 11,-14 19,-8z"/>
     <path class="fil2" d="M2059 1753c-8,10 -9,7 -20,4 0,-9 -2,-15 8,-16 9,-1 11,4 12,12z"/>
     <path class="fil2" d="M698 1535c20,1 20,20 0,22l-5 -14 5 -7z"/>
     <path class="fil2" d="M616 1331c-16,0 -16,-4 -12,-19l14 0c4,11 3,12 -2,19z"/>
     <path class="fil2" d="M2841 973c9,7 7,10 4,21l-12 -1c-4,-11 -5,-19 9,-20z"/>
     <path class="fil2" d="M1626 1891c16,-6 18,2 15,17l-13 1c-4,-6 -5,-11 -2,-18z"/>
     <path class="fil2" d="M2462 169c-4,-12 -2,-13 7,-17 7,2 8,4 11,8 -1,12 -7,17 -18,9z"/>
     <path class="fil2" d="M2279 846c10,11 -6,21 -14,14 -9,-9 3,-25 14,-14z"/>
     <path class="fil2" d="M1297 1133c-2,15 -10,11 -20,8l0 -14 12 -3c5,4 4,2 7,9z"/>
     <path class="fil2" d="M1742 602c2,16 -4,22 -19,13 -1,-14 8,-20 19,-13z"/>
     <path class="fil2" d="M1191 859c-10,3 -12,6 -19,-3 0,-17 9,-13 20,-10l0 13z"/>
     <path class="fil2" d="M1118 919c13,-3 18,-2 18,12 -4,5 -4,5 -11,7l-8 -5 1 -14z"/>
     <path class="fil2" d="M2045 615c-9,7 -7,8 -19,2 -3,-22 18,-22 19,-2z"/>
     <path class="fil2" d="M2327 1890c11,12 7,23 -11,18 -3,-13 -3,-18 11,-18z"/>
     <path class="fil2" d="M1528 1088l-10 0c-4,-11 -5,-8 0,-20l13 0c3,11 5,11 -3,19z"/>
     <path class="fil2" d="M1914 1683c-7,2 -7,3 -15,1 -9,-13 -2,-21 15,-16l0 15z"/>
     <path class="fil2" d="M1811 562c-5,-10 -5,-13 5,-19 16,3 18,22 -5,19z"/>
     <path class="fil2" d="M1334 544c-3,-8 -3,-8 0,-17l17 2 -1 14c-8,4 -8,5 -16,1z"/>
     <path class="fil2" d="M973 832c-2,8 -4,10 -12,12 -6,-3 -8,-4 -9,-12 6,-11 14,-12 21,0z"/>
     <path class="fil2" d="M1076 1458c-1,0 -1,1 -2,1l-6 2c-2,0 -5,-1 -7,-1 -7,-29 24,-23 15,-2z"/>
     <path class="fil2" d="M1461 1753c-2,10 -21,10 -19,-4 2,-12 21,-11 19,4z"/>
     <path class="fil2" d="M2041 1668c27,-13 25,26 0,13l0 -13z"/>
     <path class="fil2" d="M2333 609c-2,8 -4,9 -10,12 -20,0 -3,-40 10,-12z"/>
     <path class="fil2" d="M1184 785l-14 0c-4,-14 -4,-22 13,-19 3,6 3,11 1,18z"/>
     <path class="fil2" d="M2798 621c-6,-3 -6,-3 -9,-9 2,-11 8,-12 18,-10 3,13 3,17 -9,19z"/>
     <path class="fil2" d="M2771 881c-7,4 -10,5 -18,2 -3,-11 -1,-12 8,-17 10,2 13,3 11,16z"/>
     <path class="fil2" d="M889 785c-12,-3 -12,-10 -8,-19 21,-3 22,12 8,19z"/>
     <path class="fil2" d="M2129 856c-2,10 -20,9 -19,-5 2,-12 22,-12 19,5z"/>
     <path class="fil2" d="M1480 859l-9 4 -9 -4c-1,-17 5,-18 19,-13l0 12z"/>
     <path class="fil2" d="M1224 34l-5 9c-24,-1 -14,-24 -2,-20 5,2 6,5 7,10z"/>
     <path class="fil2" d="M534 1890c20,-2 15,17 7,19 -12,4 -16,-9 -7,-19z"/>
     <path class="fil2" d="M688 1012c-7,-2 -8,-4 -11,-10 4,-12 9,-12 20,-6l0 11 -9 5z"/>
     <path class="fil2" d="M2532 1533c-13,3 -15,3 -18,-10 7,-10 10,-12 20,-2l-2 12z"/>
     <path class="fil2" d="M1699 1683c-8,-16 7,-21 14,-14 6,6 3,23 -14,14z"/>
     <path class="fil2" d="M1313 5c2,7 5,15 -4,18 -9,3 -11,-4 -13,-11l7 -10 10 2z"/>
     <path class="fil2" d="M1727 692c15,0 17,8 13,19 -21,3 -19,-6 -13,-19z"/>
     <path class="fil2" d="M556 119l-10 -8c2,-11 6,-14 17,-12 5,9 4,17 -7,21z"/>
     <path class="fil2" d="M468 864c-5,-5 -4,-2 -6,-11l5 -9 14 1 1 12c-5,5 -4,6 -13,6z"/>
     <path class="fil2" d="M2405 602l4 10c-14,23 -30,-7 -13,-11 2,0 8,0 9,1z"/>
     <path class="fil2" d="M56 688c-9,13 -22,7 -18,-7 3,-10 18,-10 18,7z"/>
     <path class="fil2" d="M2076 321c-8,1 -14,3 -16,-6 -2,-10 4,-12 12,-12 9,7 7,10 4,18z"/>
     <path class="fil2" d="M2331 544c-8,3 -6,3 -16,0 -3,-15 1,-20 16,-16 2,7 2,9 0,16z"/>
     <path class="fil2" d="M952 251c-15,5 -17,1 -16,-13 4,0 3,1 2,-3l12 -1 6 6 -3 12z"/>
     <path class="fil2" d="M751 1162c-6,-10 -5,-16 6,-20 15,6 12,25 -6,20z"/>
     <path class="fil2" d="M422 605c11,-9 21,-1 17,11 -4,10 -21,9 -17,-11z"/>
     <path class="fil2" d="M1339 621c-7,-6 -8,-8 -5,-19l15 0c5,14 0,17 -11,19z"/>
     <path class="fil2" d="M1712 1593c9,7 -1,22 -11,16 -11,-6 -2,-26 11,-16z"/>
     <path class="fil2" d="M1716 1224l-2 12c-17,6 -20,-5 -13,-17 9,-2 10,0 15,5z"/>
     <path class="fil2" d="M2424 978c3,15 -1,20 -15,16 -4,-13 2,-24 15,-16z"/>
     <path class="fil2" d="M1460 1607c-3,2 -7,6 -13,2 -4,-2 -6,-8 -3,-14 4,-7 23,-8 16,11z"/>
     <path class="fil2" d="M1627 620c-3,-7 -4,-9 -1,-17 22,-7 24,21 1,17z"/>
     <path class="fil2" d="M545 5c2,7 3,8 1,17l-12 2c-11,-13 -2,-25 11,-19z"/>
     <path class="fil2" d="M1806 358c3,19 -5,18 -19,13l2 -13c7,-2 11,-1 17,1z"/>
     <path class="fil2" d="M928 452c7,10 8,19 -8,19 -9,-7 -8,-12 -2,-19l10 0z"/>
     <path class="fil2" d="M2026 1217c-8,-12 1,-23 11,-17 7,4 8,24 -11,17z"/>
     <path class="fil2" d="M1224 1580c-3,7 1,7 -8,12 -21,3 -7,-38 8,-12z"/>
     <path class="fil2" d="M2333 19c-14,9 -23,5 -17,-13l9 -2c5,5 7,6 8,16z"/>
     <path class="fil2" d="M439 469c-9,3 -9,3 -17,-1l0 -14c14,-7 19,1 17,15z"/>
     <path class="fil2" d="M2187 1608c-1,-14 1,-19 16,-14 8,16 -3,20 -16,14z"/>
     <path class="fil2" d="M2580 770c-11,-3 -13,-10 -7,-19l12 -1c5,11 5,15 -5,20z"/>
     <path class="fil2" d="M1314 172c-12,2 -17,1 -17,-12 11,-14 21,-6 17,12z"/>
     <path class="fil2" d="M52 21l-13 1c-3,-10 -4,-11 1,-18 13,-4 19,4 12,17z"/>
     <path class="fil2" d="M1716 1301c-2,12 -6,14 -17,9l-1 -13c10,-8 14,-5 19,4z"/>
     <path class="fil2" d="M1725 527l17 2 0 12c-8,6 -7,7 -18,3l1 -17z"/>
     <path class="fil2" d="M896 1008l-1 -8c5,-5 4,-6 13,-6 4,2 5,4 8,10 -3,7 -4,8 -12,10l-7 -7z"/>
     <path class="fil2" d="M2520 1611c-6,-9 -10,-9 0,-19l11 2c6,13 2,17 -11,18z"/>
     <path class="fil2" d="M2358 859c-11,3 -10,5 -19,-3l0 -10c12,-6 20,-6 19,13z"/>
     <path class="fil2" d="M130 13l-6 11 -12 -2c-3,-11 -3,-13 4,-18 9,0 10,3 14,9z"/>
     <path class="fil2" d="M2532 1667c1,7 1,12 -1,17l-11 2c-9,-8 -8,-11 0,-19l12 1z"/>
     <path class="fil2" d="M1005 1696c-5,9 -8,11 -17,6 -2,-8 -2,-10 0,-17l14 0 3 11z"/>
     <path class="fil2" d="M623 1450c-3,12 -5,14 -19,10l0 -12c6,-7 12,-10 19,2z"/>
     <path class="fil2" d="M2406 159c-1,14 -6,17 -17,12 -3,-9 -3,-6 0,-14 7,-4 10,-5 17,3z"/>
     <path class="fil2" d="M1461 1682c-8,5 -10,5 -17,0 -3,-23 20,-24 17,0z"/>
     <path class="fil2" d="M1914 918c-13,4 -19,5 -18,-12 3,-3 3,-3 8,-6 10,2 13,7 10,17z"/>
     <path class="fil2" d="M435 545l-13 0c-3,-14 -1,-20 15,-18 5,10 3,11 -1,18z"/>
     <path class="fil2" d="M877 530c5,14 -5,19 -18,12l0 -13c9,-3 9,-5 17,1z"/>
     <path class="fil2" d="M1714 1387c-9,3 -9,3 -17,-1 -3,-25 21,-23 17,1z"/>
     <path class="fil2" d="M2002 81c10,8 0,22 -11,16 -9,-6 -2,-25 11,-16z"/>
     <path class="fil2" d="M2205 1066c-9,7 -12,6 -18,-2l0 -9c11,-6 21,-6 18,11z"/>
     <path class="fil2" d="M57 1303l-6 9 -12 -1 -1 -16 11 -4c4,4 7,5 9,12z"/>
     <path class="fil2" d="M899 312l8 -5c10,4 11,5 8,17 -5,2 -9,3 -17,2l0 -14z"/>
     <path class="fil2" d="M533 1684c-9,-12 -2,-22 13,-16 2,10 3,6 -1,15 -8,4 -3,3 -12,1z"/>
     <path class="fil2" d="M1658 359c7,10 4,16 -7,19 -13,-7 -13,-24 7,-19z"/>
     <path class="fil2" d="M2532 468l-12 1 -7 -9c3,-9 1,-5 7,-10l11 0c2,5 2,11 1,17z"/>
     <path class="fil2" d="M2045 538l-9 8c-29,-9 6,-37 9,-8z"/>
     <path class="fil2" d="M2411 1311c0,-1 -1,-1 -1,-1 0,0 -1,-1 -1,-1 0,0 -1,-1 -1,-2 -2,-5 -1,-5 1,-12 7,-4 10,-4 17,2l-1 12c-4,2 -8,3 -13,2z"/>
     <path class="fil2" d="M2524 322c-8,-2 -10,-3 -10,-13 4,-6 2,-5 11,-8l8 5 0 11 -8 5z"/>
     <path class="fil2" d="M2204 1235c-9,8 -15,4 -19,-5 2,-8 4,-8 10,-11 9,3 11,4 9,16z"/>
     <path class="fil2" d="M-68 853c-2,5 -3,5 -6,9 -14,1 -16,-5 -11,-17l14 -1 3 10z"/>
     <path class="fil2" d="M968 391c-11,9 -22,3 -17,-9 2,-7 21,-13 17,9z"/>
     <path class="fil2" d="M2077 393c-9,5 -11,4 -17,-4 1,-8 1,-13 11,-12 9,1 9,8 6,16z"/>
     <path class="fil2" d="M1000 1519c3,2 9,5 4,13 -2,4 -9,7 -14,3 -8,-5 -2,-24 10,-16z"/>
     <path class="fil2" d="M1607 1062c-6,7 -8,8 -17,3 -2,-7 -1,-10 0,-16 11,-3 16,0 16,13z"/>
     <path class="fil2" d="M867 402c-2,-3 -4,-6 -5,-10 8,-16 23,-13 17,9l-12 1z"/>
     <path class="fil2" d="M2059 235c3,-4 4,-8 11,-7 5,1 9,5 8,12 -1,9 -16,14 -19,-5z"/>
     <path class="fil2" d="M1789 1767l-6 8 -12 -2c-3,-13 -1,-18 15,-16l4 11z"/>
     <path class="fil2" d="M765 712l-16 1c-1,-8 -1,-12 2,-17 16,-6 17,4 13,16z"/>
     <path class="fil2" d="M2001 1816c7,10 6,8 1,19l-13 -1c-2,-5 -3,-9 -1,-16l13 -2z"/>
     <path class="fil2" d="M1639 709c-6,4 -5,5 -14,4 -5,-4 -4,-2 -6,-8 5,-14 22,-15 20,5z"/>
     <path class="fil2" d="M766 786c-27,8 -22,-28 1,-13l-1 13z"/>
     <path class="fil2" d="M1214 1124c15,4 15,16 0,20l-8 -5 0 -11 8 -5z"/>
     <path class="fil2" d="M1627 1834c-1,-8 -7,-2 -1,-17 6,-2 10,-1 15,1 3,14 0,17 -14,16z"/>
     <path class="fil2" d="M2280 1092l-14 1c-13,-20 20,-30 14,-1z"/>
     <path class="fil2" d="M1935 317c-6,3 -11,3 -18,1l1 -13c10,-6 8,-3 18,0l-1 12z"/>
     <path class="fil2" d="M2331 79c3,10 2,8 0,17l-16 1c-1,-7 -1,-12 2,-17l14 -1z"/>
     <path class="fil2" d="M1775 1454l-5 8c-19,1 -21,-19 0,-19 3,4 4,4 6,11z"/>
     <path class="fil2" d="M1742 858c-10,8 -12,5 -20,-3l5 -12 12 2c3,4 0,-4 3,6 1,6 0,3 -1,7z"/>
     <path class="fil2" d="M1971 529c1,13 -3,17 -16,14 -8,-19 8,-22 16,-14z"/>
     <path class="fil2" d="M1691 937c-5,-2 -5,-3 -9,-6 -1,-15 6,-17 18,-11l0 13 -9 3z"/>
     <path class="fil2" d="M1914 1599c-3,7 3,3 -6,10l-11 -2c-9,-17 11,-25 17,-9z"/>
     <path class="fil2" d="M1299 96c-2,-9 -3,-8 0,-16l13 -1c8,14 1,21 -13,17z"/>
     <path class="fil2" d="M1082 245c0,-1 -1,-1 -1,-1 -5,-7 -3,-4 -4,-9l12 -7c9,8 9,2 7,18 -8,2 -7,3 -14,-1z"/>
     <path class="fil2" d="M1962 862l-8 -4c-3,-33 38,-4 8,4z"/>
     <path class="fil2" d="M2407 88c-3,4 -2,4 -6,9l-12 -1 0 -14c9,-8 15,-5 19,6z"/>
     <path class="fil2" d="M919 1705c-2,-3 -4,0 -7,-11 5,-9 6,-10 17,-8 4,14 2,18 -10,18z"/>
     <path class="fil2" d="M167 787c0,-5 -11,-8 5,-18 12,2 13,7 9,19l-13 0z"/>
     <path class="fil2" d="M2408 1460c-3,-13 -2,-21 14,-17 7,14 1,20 -14,17z"/>
     <path class="fil2" d="M202 1522l6 -5c8,0 5,0 10,3 5,15 -3,17 -16,14l0 -12z"/>
     <path class="fil2" d="M2532 378c4,23 -12,22 -18,8 2,-5 2,-5 4,-9l14 1z"/>
     <path class="fil2" d="M537 1836c-15,-8 -8,-26 10,-18l0 14 -9 4z"/>
     <path class="fil2" d="M1134 1458c-3,-12 -2,-15 8,-18 6,3 7,4 9,12 -4,9 -9,11 -17,6z"/>
     <path class="fil2" d="M1002 1596c10,11 -6,19 -13,13 -5,-5 -4,-18 6,-17 10,1 5,2 6,4z"/>
     <path class="fil2" d="M1769 1534c7,9 6,12 -2,19 -18,-1 -19,-20 2,-19z"/>
     <path class="fil2" d="M1005 1450c-1,6 -3,7 -5,11l-12 -3c-6,-20 9,-24 17,-8z"/>
     <path class="fil2" d="M289 1593c16,21 -25,26 -12,1 7,-4 3,-3 12,-1z"/>
     <path class="fil2" d="M2410 919c-2,-4 -3,-6 -3,-13 20,-17 28,20 3,13z"/>
     <path class="fil2" d="M1481 246c-5,-7 -5,-7 -2,-15 21,-9 24,22 2,15z"/>
     <path class="fil2" d="M2390 543c-1,-6 -1,-11 2,-16 10,-1 12,-3 17,8 -5,6 -3,13 -18,7z"/>
     <path class="fil2" d="M2681 1222l3 -4 9 -2 7 2c2,13 -1,17 -14,16l-5 -13z"/>
     <path class="fil2" d="M537 1760c-7,-3 -6,-2 -9,-10l4 -9 13 0 3 9c-2,6 -4,8 -10,10z"/>
     <path class="fil2" d="M2700 1208l-7 8 -9 2 -3 4 3 -4 0 -5 -7 1c6,-13 0,0 6,-8 3,-4 2,0 3,-6l10 -1c1,8 -1,4 4,9z"/>
     <path class="fil2" d="M-90 294c-5,5 -1,8 -11,8l0 -20c9,0 9,3 11,11z"/>
     <path class="fil2" d="M-90 773c-1,8 -2,10 -10,12l0 -20c7,0 7,2 10,8z"/>
     <path class="fil2" d="M-91 463c-3,7 -2,7 -10,8l0 -19c8,0 8,3 10,11z"/>
     <path class="fil2" d="M-101 378c15,-1 12,16 0,17l0 -17z"/>
     <path class="fil2" d="M2903 783c1,-2 -2,-3 -5,-8 3,-9 0,-5 6,-9l-1 16z"/>
    </g>
   </g>
   <g style="clip-path:url(#id5)">
    <polygon class="fil3" points="-2005,-876 4289,-876 4289,2962 -2005,2962 "/>
   </g>
  </g>
  <polygon class="fil3" points="0,0 2283,0 2283,2087 0,2087 "/>
  <rect class="fil4" transform="matrix(0.532928 -0.532928 0.532928 0.532928 646.838 1361.83)" width="1526" height="331"/>
  <rect class="fil4" transform="matrix(0.532928 0.532928 -0.532928 0.532928 823.206 548.408)" width="1526" height="331"/>
 </g>
</svg>
