<?xml version="1.0" encoding="UTF-8"?>
<!DOCTYPE svg PUBLIC "-//W3C//DTD SVG 1.0//EN" "http://www.w3.org/TR/2001/REC-SVG-20010904/DTD/svg10.dtd">
<!-- Creator: CorelDRAW X6 -->
<svg xmlns="http://www.w3.org/2000/svg" xml:space="preserve" width="1.33961in" height="1.13912in" version="1.0" style="shape-rendering:geometricPrecision; text-rendering:geometricPrecision; image-rendering:optimizeQuality; fill-rule:evenodd; clip-rule:evenodd"
viewBox="0 0 169988 144547"
 xmlns:xlink="http://www.w3.org/1999/xlink">
 <defs>
  <style type="text/css">
   <![CDATA[
    .fil3 {fill:#FFED00}
    .fil2 {fill:#273B7A}
    .fil1 {fill:#376895}
    .fil4 {fill:#7F6103}
    .fil0 {fill:#FFC007}
   ]]>
  </style>
 </defs>
 <g id="Layer_x0020_1">
  <metadata id="CorelCorpID_0Corel-Layer"/>
  <g id="_951940176">
   <path class="fil0" d="M21473 105979c393,-703 923,-1414 1427,-2140 543,-781 946,-1400 1473,-2137 1017,-1421 1900,-2813 2896,-4194 1990,-2761 3975,-5745 5845,-8479l20382 -29661c528,-787 982,-1381 1466,-2143l13029 -18923c8968,12952 17892,26343 26920,39117 619,876 3549,4983 3765,5617 207,0 140,-38 86,194 224,-46 178,-87 124,136 543,-272 3673,-4441 4027,-4885 1284,-1610 2582,-3203 3903,-4865l5854 -7306c355,-439 621,-777 975,-1216l1048 -1215c378,225 4767,5713 5426,6638 235,330 210,355 476,687l11133 13888c1486,1824 2822,3507 4246,5294 1409,1768 2810,3488 4247,5304l7409 9231c387,471 737,855 1009,1362l-127068 37c-355,-198 -71,87 -187,-184 -214,-498 -31,14 90,-158zm97517 -68986c0,-432 419,-2095 557,-2514 601,-1829 2064,-4404 3437,-5577 3411,-2913 7417,-4031 11802,-2988 683,162 1569,493 2275,823 4477,2097 7421,6759 7421,11675 0,6370 -5513,12605 -12246,12576 -2058,-8 -3691,-141 -5360,-911 -2795,-1290 -5109,-3216 -6448,-5913 -1562,-3148 -1436,-3896 -1436,-7171zm-116160 -29406c-22,251 52,214 -175,171l-24 234c-94,163 -152,242 -256,389l-129 258 -129 258 -156 231 -76 182 -153 234c75,282 154,234 -105,234 -1293,3267 -1625,4347 -1625,8127l0 107438c0,3526 73,5738 1242,8570 1874,4541 5431,7878 10036,9578 2928,1081 5390,995 8745,995 39080,0 78161,0 117241,0 4042,0 16145,284 19283,-381 7941,-1684 13028,-8545 13376,-15921 147,-3126 3,-6637 3,-9806l0 -97636c0,-3488 128,-6057 -827,-8982 -783,-2402 -2237,-4757 -3630,-6198 -3425,-3544 -6958,-5511 -14018,-5511l-127043 0c-7642,0 -13507,-912 -19435,4996 -1293,1288 -1556,1920 -2143,2539z"/>
   <path class="fil1" d="M21473 105979c356,359 1292,190 1774,189l57395 0c350,-78 2162,-2495 2405,-2800l11424 -14363c509,-630 4311,-5294 4415,-5637 -231,55 -184,96 -124,-136l-86 -194c-216,-634 -3145,-4741 -3765,-5617 -9028,-12774 -17951,-26166 -26920,-39117l-13029 18923c-484,761 -938,1356 -1466,2143l-20382 29661c-1870,2734 -3855,5718 -5845,8479 -996,1381 -1879,2773 -2896,4194 -527,737 -930,1355 -1473,2137 -504,725 -1035,1437 -1427,2140z"/>
   <path class="fil2" d="M98885 83367c54,-224 99,-182 -124,-136 54,-232 120,-194 -86,-194l86 194c-60,232 -107,192 124,136 -103,343 -3906,5007 -4415,5637l-11424 14363c-243,305 -2055,2722 -2405,2800l-57395 0c-482,1 -1418,170 -1774,-189 -121,172 -304,-340 -90,158 116,271 -168,-14 187,184l127068 -37c-271,-508 -622,-891 -1009,-1362l-7409 -9231c-1438,-1815 -2838,-3536 -4247,-5304 -1424,-1786 -2761,-3470 -4246,-5294l-11133 -13888c-266,-332 -240,-357 -476,-687 -659,-925 -5048,-6414 -5426,-6638l-1048 1215c-354,439 -619,778 -975,1216l-5854 7306c-1321,1662 -2619,3255 -3903,4865 -354,444 -3485,4613 -4027,4885z"/>
   <path class="fil3" d="M118990 36993c0,3276 -126,4024 1436,7171 1339,2697 3653,4622 6448,5913 1669,770 3302,903 5360,911 6733,28 12246,-6206 12246,-12576 0,-4916 -2944,-9578 -7421,-11675 -706,-331 -1592,-661 -2275,-823 -4385,-1042 -8391,76 -11802,2988 -1373,1173 -2836,3748 -3437,5577 -137,419 -557,2082 -557,2514z"/>
   <path class="fil4" d="M2630 7992l-256 389 -129 258 -129 258 -156 231 -76 182 -153 234 -105 234c259,0 180,48 105,-234l153 -234 76 -182 156 -231 129 -258 129 -258c104,-146 162,-226 256,-389l24 -234c227,43 153,80 175,-171 -273,0 -238,-76 -175,171l-24 234z"/>
  </g>
 </g>
</svg>
