<?xml version="1.0" encoding="UTF-8"?>
<!DOCTYPE svg PUBLIC "-//W3C//DTD SVG 1.1//EN" "http://www.w3.org/Graphics/SVG/1.1/DTD/svg11.dtd">
<!-- Creator: CorelDRAW X6 -->
<svg xmlns="http://www.w3.org/2000/svg" xml:space="preserve" width="0.393701in" height="0.393701in" version="1.1" style="shape-rendering:geometricPrecision; text-rendering:geometricPrecision; image-rendering:optimizeQuality; fill-rule:evenodd; clip-rule:evenodd"
viewBox="0 0 394 394"
 xmlns:xlink="http://www.w3.org/1999/xlink">
 <defs>
  <style type="text/css">
   <![CDATA[
    .str0 {stroke:#FFED00;stroke-width:15.748}
    .fil0 {fill:none}
   ]]>
  </style>
 </defs>
 <g id="Layer_x0020_1">
  <metadata id="CorelCorpID_0Corel-Layer"/>
  <rect class="fil0" width="394" height="394"/>
  <g id="_1187906576">
   <path class="fil0 str0" d="M219 168l0 1 0 -33 -79 0c1,7 0,16 0,23 0,39 0,79 0,118 0,4 0,44 0,47l0 48 79 0c0,-37 0,-74 0,-111 0,-9 0,-19 0,-28 1,-12 5,-21 12,-29 2,-2 5,-4 8,-6 5,-4 13,-6 21,-7 16,-1 29,6 35,20 7,15 6,32 6,49 0,3 0,108 0,111l79 0c0,-3 0,-110 0,-121 0,-6 0,-12 0,-18 0,-10 -2,-25 -4,-34 -4,-18 -11,-31 -22,-44 -2,-2 -5,-5 -7,-7l-8 -6c-4,-2 -8,-4 -12,-6 -19,-8 -45,-9 -65,-2 -11,4 -24,12 -32,21l-10 13z"/>
   <polygon class="fil0 str0" points="18,372 97,372 97,135 18,135 "/>
   <path class="fil0 str0" d="M17 45c0,2 -5,10 -3,23 3,23 22,36 46,35 30,-1 47,-24 41,-50 -1,-6 -2,-6 -3,-10l-2 -2c-2,-3 -4,-6 -7,-9 -1,-1 -1,-1 -2,-2 -16,-12 -38,-12 -55,-2 -5,3 -9,7 -12,12l-3 5z"/>
   <path class="fil0 str0" d="M301 372c0,1 -1,0 1,1l78 0c0,-5 0,-12 0,-17 0,-19 0,-120 0,-121 0,6 0,12 0,18 0,10 0,118 0,121l-79 0z"/>
   <path class="fil0 str0" d="M219 372l-79 0 0 -48c0,0 -1,46 0,48 6,0 13,0 20,0 7,0 13,0 20,0l38 0c1,0 1,0 1,0z"/>
   <path class="fil0 str0" d="M219 135l0 33 0 -1c-1,-1 1,-30 0,-33 -1,-1 -4,0 -5,0 -24,0 -48,0 -72,0 -2,0 -2,0 -2,0l79 0z"/>
  </g>
 </g>
</svg>
