<?xml version="1.0" encoding="UTF-8"?>
<!DOCTYPE svg PUBLIC "-//W3C//DTD SVG 1.0//EN" "http://www.w3.org/TR/2001/REC-SVG-20010904/DTD/svg10.dtd">
<!-- Creator: CorelDRAW X6 -->
<svg xmlns="http://www.w3.org/2000/svg" xml:space="preserve" width="1.33962in" height="1.13911in" version="1.0" style="shape-rendering:geometricPrecision; text-rendering:geometricPrecision; image-rendering:optimizeQuality; fill-rule:evenodd; clip-rule:evenodd"
viewBox="0 0 19169 16300"
 xmlns:xlink="http://www.w3.org/1999/xlink">
 <defs>
  <style type="text/css">
   <![CDATA[
    .fil3 {fill:#121149}
    .fil1 {fill:#273B7A}
    .fil2 {fill:#376895}
    .fil7 {fill:#CFD0D3}
    .fil5 {fill:#FDE087}
    .fil6 {fill:#FDFDFF}
    .fil8 {fill:#FF6262}
    .fil0 {fill:#FFC007}
    .fil4 {fill:#FFEDB5}
   ]]>
  </style>
 </defs>
 <g id="Layer_x0020_1">
  <metadata id="CorelCorpID_0Corel-Layer"/>
  <path class="fil0" d="M319 856c-2,28 6,24 -20,19l-3 26c-11,18 -17,27 -29,44l-15 29 -14 29 -18 26 -9 21 -17 26c8,32 17,26 -12,26 -146,368 -183,490 -183,916l0 12116c0,398 8,647 140,966 211,512 612,888 1132,1080 330,122 608,112 986,112 4407,0 8814,0 13221,0 456,0 1821,32 2174,-43 895,-190 1469,-964 1508,-1795 17,-352 0,-748 0,-1106l0 -11010c0,-393 14,-683 -93,-1013 -88,-271 -252,-536 -409,-699 -386,-400 -785,-622 -1581,-622l-14326 0c-862,0 -1523,-103 -2192,563 -146,145 -175,217 -242,286z"/>
  <g id="_1101326080">
   <path class="fil1" d="M12717 7587c-131,58 -240,198 -344,181 -409,-64 440,-599 604,-594 81,96 287,490 344,643 61,164 -69,260 -182,148 -35,-35 -130,-254 -160,-328 -83,130 -60,301 -290,662 -217,341 -664,688 -1050,855 -198,85 -517,288 -609,52 81,-159 372,-202 544,-285 510,-248 1061,-694 1144,-1334zm-2031 -129c-55,76 -99,148 -222,170 -179,-143 -28,-237 87,-349 -109,-106 -270,-206 -87,-343 127,21 169,92 225,170 191,-88 126,-203 363,-154 60,228 -50,192 -151,362 78,61 200,135 149,259 -105,159 -201,-44 -363,-115zm2239 -1216c419,-186 678,455 271,626 -206,86 -403,-29 -461,-171 -76,-188 -15,-364 190,-455zm-2276 -1115c431,-228 680,399 314,597 -187,101 -382,-4 -458,-134 -52,-90 -65,-166 -31,-285 39,-141 86,-131 175,-178zm2376 140c-172,86 -299,-125 -404,-226 -197,445 -735,201 -169,-173 -619,-589 33,-491 168,-177 107,-102 231,-313 406,-227 89,174 -121,309 -225,408 51,17 315,222 224,394zm-8755 -1536l373 36 4905 -10c46,434 -52,1216 26,1627 79,-18 62,-37 62,40 123,98 233,101 318,243 -16,130 -324,605 -409,685l17 43 5 2552 32 10c-5,-50 -16,-39 34,-34 -5,-50 -16,-39 34,-34 -5,-50 -16,-39 34,-34 -5,-50 -16,-39 34,-34 -5,-50 -16,-39 34,-34 -5,-52 -16,-39 37,-32 522,-105 -45,430 -46,430 364,286 268,486 76,418 -102,-37 -124,-179 -296,-227l12 34 10 1076 -4905 -1c-238,-27 -409,-23 -509,137 -124,196 -29,359 88,462 200,124 1349,53 1677,62l1643 0 2014 -2 -7 -658 4944 -8c0,-1115 0,-2231 0,-3346 0,-556 0,-1112 0,-1668 0,-338 -42,-1443 22,-1693l-4981 -12 3 -641 5227 3c-91,-56 -8550,-16 -10034,-20 -241,-1 -492,-30 -594,135 -128,205 -30,411 120,498z"/>
   <path class="fil2" d="M8021 7641c-110,-461 549,-611 665,-193 134,485 -571,584 -665,193zm-2512 -1755c210,-101 236,137 437,223 376,-436 491,-181 328,-5 -64,69 -107,98 -169,175 92,186 357,270 199,406 -132,87 -293,-143 -373,-226 -113,80 -257,325 -393,222 -28,-29 -68,26 -34,-115 21,-87 162,-135 233,-287 -92,-122 -288,-213 -228,-393zm1162 -1309c432,-176 612,474 268,631 -216,98 -423,-19 -477,-171 -80,-224 7,-377 209,-459zm-2012 -479l0 6385 4905 1 -10 -1076 -47 -1c2,47 13,36 -34,34 2,47 13,36 -34,34 2,47 13,36 -34,34 2,47 13,36 -34,34 2,49 12,38 -37,26 -3,53 10,35 -50,42l-127 -10c-39,-244 140,-260 246,-434 -62,-71 -114,-113 -181,-185 -174,-187 -7,-203 -6,-203 42,-40 -30,-78 98,-7l49 6 35 32 34 34 34 34 34 34 34 34 36 0 -10 38c74,20 28,16 42,-28 50,5 39,16 34,-34 50,5 39,16 34,-34 50,5 39,16 34,-34 50,5 39,16 34,-34 50,5 39,16 34,-34 49,5 37,16 37,-32 -53,-7 -42,-19 -37,32 -50,-5 -39,-16 -34,34 -50,-5 -39,-16 -34,34 -50,-5 -39,-16 -34,34 -50,-5 -39,-16 -34,34 -50,-5 -39,-16 -34,34l-32 -10 -5 -2552c-368,231 -276,-223 -80,-354 26,-67 40,-98 44,-131 -917,46 -1828,747 -2174,1208 -246,327 -415,641 -574,1094 -196,560 -145,706 -223,1031 -39,163 -66,175 -221,143 -106,-459 301,-1532 568,-2003 80,-141 254,-411 348,-503 658,-639 1133,-1065 2255,-1216l0 -31c-81,-29 -382,-173 -415,-262 -107,-290 387,-18 456,19l27 -7 62 40c0,-76 17,-57 -62,-40 -78,-411 20,-1193 -26,-1627l-4905 10 15 332z"/>
   <path class="fil3" d="M9571 11142l2029 5 1643 0c448,-7 1090,41 1508,-5 415,-45 532,-737 -244,-666l-4944 8 7 658z"/>
   <path class="fil3" d="M9549 3757l4981 12c405,35 564,-67 523,-471 -102,-102 -91,-171 -274,-179l-5227 -3 -3 641z"/>
   <path class="fil4" d="M5528 12331c-44,150 -118,307 -156,468 -56,243 35,263 149,392l28 1 1212 -1c200,-97 195,-196 273,-435 58,-178 116,-354 177,-538 113,-343 264,-739 346,-1073l-1643 0 -386 1186z"/>
   <path class="fil5" d="M13244 11147l-1643 0c104,403 279,864 414,1275 247,752 91,788 935,788 766,0 1000,67 723,-743 -140,-410 -325,-907 -428,-1319z"/>
   <path class="fil6" d="M9528 5910c41,-82 34,61 31,-109 -4,-224 17,-77 -52,-137 -1122,151 -1597,577 -2255,1216 -94,92 -268,362 -348,503 -267,471 -674,1544 -568,2003 155,32 182,19 221,-143 78,-325 27,-471 223,-1031 159,-454 328,-767 574,-1094 346,-461 1257,-1161 2174,-1208z"/>
   <path class="fil7" d="M12717 7587c-82,640 -634,1086 -1144,1334 -172,84 -462,126 -544,285 92,236 411,34 609,-52 386,-166 833,-514 1050,-855 230,-361 207,-532 290,-662 30,74 125,294 160,328 113,113 244,16 182,-148 -57,-153 -263,-547 -344,-643 -164,-6 -1012,530 -604,594 104,16 213,-123 344,-181z"/>
   <path class="fil7" d="M12453 4868c-567,374 -28,618 169,173 105,101 233,312 404,226 91,-172 -173,-377 -224,-394 103,-99 314,-234 225,-408 -175,-86 -299,124 -406,227 -136,-315 -787,-412 -168,177z"/>
   <path class="fil6" d="M6275 6105c163,-177 48,-431 -328,5 -201,-86 -227,-324 -437,-223 -59,181 136,271 228,393 -71,153 -212,200 -233,287 -34,141 6,86 34,115 136,103 280,-142 393,-222 79,83 241,313 373,226 158,-136 -106,-220 -199,-406 63,-77 106,-105 169,-175z"/>
   <path class="fil6" d="M6671 4577c-202,82 -288,235 -209,459 54,152 261,269 477,171 343,-156 163,-806 -268,-631z"/>
   <path class="fil7" d="M12925 6242c-205,91 -266,267 -190,455 57,142 254,257 461,171 408,-171 148,-812 -271,-626z"/>
   <path class="fil6" d="M8021 7641c93,391 798,292 665,-193 -115,-418 -775,-268 -665,193z"/>
   <path class="fil7" d="M10650 5127c-90,47 -136,38 -175,178 -33,119 -21,195 31,285 76,130 272,236 458,134 366,-199 116,-826 -314,-597z"/>
   <path class="fil7" d="M10551 7279c-115,112 -266,206 -87,349 123,-22 167,-94 222,-170 162,70 258,274 363,115 51,-124 -71,-198 -149,-259 102,-170 211,-133 151,-362 -237,-49 -172,66 -363,154 -56,-78 -98,-149 -225,-170 -183,137 -22,237 87,343z"/>
   <path class="fil7" d="M9313 8772l49 6 35 32 34 34 34 34 34 34 34 34 26 38 -17 390c-48,-4 -37,-15 -35,32 -47,-2 -36,-13 -34,34 -47,-2 -36,-13 -34,34 -47,-2 -36,-13 -34,34 -47,-2 -36,-13 -34,34l-37 26c-66,-12 -50,-26 -50,42 59,-7 47,11 50,-42 49,12 39,23 37,-26 47,2 36,13 34,-34 47,2 36,13 34,-34 47,2 36,13 34,-34 47,2 36,13 34,-34l47 1 -12 -34c172,48 194,191 296,227 193,69 289,-131 -76,-418 0,-1 567,-536 46,-430 0,49 12,37 -37,32 5,50 16,39 -34,34 5,50 16,39 -34,34 5,50 16,39 -34,34 5,50 16,39 -34,34 5,50 16,39 -34,34 -14,43 33,48 -42,28l10 -38 -36 0 -34 -34 -34 -34 -34 -34 -34 -34 -35 -32 -49 -6c-128,-71 -57,-33 -98,7l98 -7z"/>
   <path class="fil7" d="M9507 5634l0 31c70,60 48,-87 52,137 3,170 10,26 -31,109 -5,32 -19,64 -44,131 8,-10 28,-32 32,-23l30 334c85,-80 393,-555 409,-685 -85,-142 -195,-145 -318,-243l-62 -40 -27 7c7,53 19,82 11,139 -20,143 35,56 -52,104z"/>
   <path class="fil6" d="M9283 9611c0,-67 -17,-53 50,-42l37 -26c-2,-47 -13,-36 34,-34 -2,-47 -13,-36 34,-34 -2,-47 -13,-36 34,-34 -2,-47 -13,-36 34,-34 -2,-47 -13,-36 35,-32l17 -390 -26 -38 -34 -34 -34 -34 -34 -34 -34 -34 -35 -32 -49 -6 -98 7c0,0 -168,16 6,203 67,72 119,113 181,185 -106,174 -284,190 -246,434l127 10z"/>
   <path class="fil6" d="M9507 5634c87,-48 33,39 52,-104 8,-57 -4,-86 -11,-139 -69,-37 -564,-309 -456,-19 33,90 334,233 415,262z"/>
   <path class="fil6" d="M9484 6041c-196,131 -288,585 80,354l-17 -43 -30 -334c-4,-8 -24,13 -32,23z"/>
   <path class="fil8" d="M4659 4098l-15 -332 -373 -36c55,72 109,120 178,189 84,84 106,124 210,179z"/>
  </g>
 </g>
</svg>
