<?xml version="1.0" encoding="UTF-8"?>
<!DOCTYPE svg PUBLIC "-//W3C//DTD SVG 1.1//EN" "http://www.w3.org/Graphics/SVG/1.1/DTD/svg11.dtd">
<!-- Creator: CorelDRAW X6 -->
<svg xmlns="http://www.w3.org/2000/svg" xml:space="preserve" width="0.404496in" height="0.393701in" version="1.1" style="shape-rendering:geometricPrecision; text-rendering:geometricPrecision; image-rendering:optimizeQuality; fill-rule:evenodd; clip-rule:evenodd"
viewBox="0 0 407 396"
 xmlns:xlink="http://www.w3.org/1999/xlink">
 <defs>
  <style type="text/css">
   <![CDATA[
    .str0 {stroke:#FFED00;stroke-width:15.8381}
    .fil0 {fill:none}
   ]]>
  </style>
 </defs>
 <g id="Layer_x0020_1">
  <metadata id="CorelCorpID_0Corel-Layer"/>
  <rect class="fil0" x="4" width="396" height="396"/>
  <g id="_1187853232">
   <path class="fil0 str0" d="M129 359c149,0 231,-124 231,-231 0,-4 0,-7 0,-11 16,-11 30,-26 41,-42 -15,6 -30,11 -47,13 17,-10 30,-26 36,-45 -16,9 -33,16 -52,20 -15,-16 -36,-26 -59,-26 -45,0 -81,36 -81,81 0,6 1,13 2,19 -68,-3 -127,-36 -167,-85 -7,12 -11,26 -11,41 0,28 14,53 36,68 -13,0 -26,-4 -37,-10 0,0 0,1 0,1 0,39 28,72 65,80 -7,2 -14,3 -21,3 -5,0 -10,-1 -15,-1 10,32 40,56 76,56 -28,22 -63,35 -101,35 -7,0 -13,0 -19,-1 36,23 79,36 125,36m0 0l0 0 0 0z"/>
  </g>
 </g>
</svg>
