<?xml version="1.0" encoding="UTF-8"?>
<!DOCTYPE svg PUBLIC "-//W3C//DTD SVG 1.1//EN" "http://www.w3.org/Graphics/SVG/1.1/DTD/svg11.dtd">
<!-- Creator: CorelDRAW X6 -->
<svg xmlns="http://www.w3.org/2000/svg" xml:space="preserve" width="1.87703in" height="0.844661in" version="1.1" style="shape-rendering:geometricPrecision; text-rendering:geometricPrecision; image-rendering:optimizeQuality; fill-rule:evenodd; clip-rule:evenodd"
viewBox="0 0 1877 845"
 xmlns:xlink="http://www.w3.org/1999/xlink">
 <defs>
  <style type="text/css">
   <![CDATA[
    .fil3 {fill:none}
    .fil0 {fill:#FEFEFE}
    .fil1 {fill:#FFED00}
    .fil2 {fill:#D9DADA;fill-rule:nonzero}
   ]]>
  </style>
 </defs>
 <g id="Layer_x0020_1">
  <metadata id="CorelCorpID_0Corel-Layer"/>
  <g id="_1445700320">
   <path class="fil0" d="M116 538c0,79 103,72 113,33l4 0c11,41 113,43 113,-33l0 -163c-70,0 -67,-5 -67,14 0,18 4,136 -3,142 -6,6 -7,1 -7,1 -2,-1 -6,5 -6,-18l0 -139 -65 0c0,22 2,138 -2,151 -4,14 -10,6 -10,6 -4,-2 -6,2 -6,-22l0 -135 -65 0 0 163z"/>
   <path class="fil0" d="M977 498c0,15 -2,41 -22,41 -29,0 -30,-45 -2,-45 6,0 10,3 16,4l0 -67 -18 0c-65,0 -110,83 -59,141 41,47 146,35 146,-64l0 -132 -61 0 0 122z"/>
   <path class="fil0" d="M387 595c70,0 61,5 61,-22 0,-17 -4,-80 6,-80 5,0 6,1 10,2 3,14 2,58 2,77 0,28 -9,22 61,22l0 -110c0,-29 -18,-55 -48,-55 -17,0 -19,5 -30,8l0 -63 -61 0 0 220z"/>
   <path class="fil0" d="M1064 514c0,46 37,84 75,84l24 0 0 -63c-11,1 -12,6 -24,1 -23,-10 -12,-42 9,-42 17,0 22,15 22,31l0 71 55 0c5,0 6,-1 6,-6l0 -77c0,-113 -168,-104 -168,2z"/>
   <path class="fil0" d="M1377 512c0,46 33,86 75,86l24 0 0 -63c-7,1 -12,4 -16,4 -27,0 -27,-45 2,-45 18,0 22,16 22,35l0 67 55 0c5,0 6,-1 6,-6 0,-52 8,-105 -23,-136 -33,-34 -107,-34 -136,25 -4,9 -9,22 -9,34z"/>
   <path class="fil0" d="M1264 514c0,54 38,84 89,84l0 -65c-22,0 -28,-10 -28,-33l26 0 0 -63 -26 0 0 -61 -61 0 0 139z"/>
   <path class="fil0" d="M779 595l55 0c5,0 6,-1 6,-6l0 -214 -61 0 0 220z"/>
   <path class="fil0" d="M668 494l0 102c74,0 61,12 61,-51 0,-32 -4,-31 8,-49 9,0 12,-1 18,2l0 -67c-34,0 -64,4 -79,36 -3,6 -7,20 -7,27z"/>
   <path class="fil0" d="M567 589c0,5 1,6 6,6l55 0 0 -163 -61 0 0 157z"/>
   <path class="fil0" d="M567 392c0,39 61,36 61,4 0,-51 -61,-39 -61,-4z"/>
  </g>
  <path class="fil1" d="M1195 137c0,15 7,39 10,53 4,18 7,34 11,52l17 76c7,26 18,19 57,13 105,-18 75,13 90,-107l9 -113c-1,-6 -5,-14 -12,-14 -60,0 -109,-2 -166,19 -8,3 -16,13 -16,22z"/>
  <path class="fil1" d="M985 216c0,25 69,136 79,153 24,41 19,41 65,18 12,-6 25,-12 39,-18 41,-16 40,-13 31,-51 -2,-10 -4,-18 -6,-29l-23 -111c-8,-52 -21,-51 -74,-29 -17,7 -110,46 -110,66z"/>
  <path class="fil1" d="M1595 159c0,-19 -9,-20 -28,-27l-80 -24c-15,-4 -64,-22 -76,1 -7,12 -4,66 -5,81 0,15 -2,14 -2,41 0,16 -2,25 -2,41 0,34 -14,52 22,59 13,3 24,5 36,8 20,4 56,20 65,13 9,-7 68,-167 68,-192z"/>
  <path class="fil1" d="M1563 365c0,5 45,46 53,54 16,17 16,27 35,2l41 -56c11,-16 44,-67 44,-86 0,-34 -12,-40 -34,-66l-20 -19c-5,-5 -7,-7 -13,-11 -62,-46 -29,-18 -89,132 -4,10 -19,41 -19,50z"/>
  <path class="fil1" d="M1644 465c0,19 4,32 1,50 -3,21 -9,32 -9,44 38,-19 59,-30 86,-70 31,-46 40,-87 40,-144 0,-16 -5,-24 -6,-37 -10,7 -18,31 -24,43 -13,22 -30,49 -48,68 -4,4 -4,6 -8,10 -6,6 -31,29 -31,36z"/>
  <path class="fil1" d="M1543 659c8,-2 32,-15 39,-20l36 -25c19,-15 47,-41 61,-61 -30,3 -87,66 -119,92 -5,4 -13,9 -17,14z"/>
  <path class="fil2" d="M127 724l0 -82 17 0c13,0 22,1 27,2 5,1 10,3 14,6 5,4 9,8 12,14 3,6 4,12 4,19 0,7 -1,14 -4,19 -3,6 -7,10 -12,14 -4,3 -8,5 -14,6 -5,1 -13,2 -24,2l-4 0 -17 0zm22 -18l4 0c9,0 15,-2 19,-5 4,-4 6,-9 6,-17 0,-8 -2,-14 -6,-17 -4,-4 -10,-5 -19,-5l-4 0 0 45z"/>
  <path id="1" class="fil2" d="M256 695c0,-4 -1,-8 -4,-10 -2,-3 -6,-4 -10,-4 -4,0 -7,1 -10,4 -2,3 -3,6 -3,10 0,4 1,8 4,10 2,3 6,4 10,4 4,0 7,-1 10,-4 2,-3 4,-6 4,-10zm18 -28l0 56 -18 0 0 -9c-3,4 -6,7 -9,9 -3,2 -7,3 -11,3 -8,0 -14,-3 -18,-8 -5,-5 -7,-13 -7,-22 0,-9 2,-17 7,-22 5,-5 11,-8 19,-8 4,0 8,1 11,3 3,2 6,5 8,8l0 -9 18 0z"/>
  <polygon id="2" class="fil2" points="292,724 292,681 283,681 283,667 292,667 292,650 311,650 311,667 320,667 320,681 311,681 311,724 "/>
  <path id="3" class="fil2" d="M372 695c0,-4 -1,-8 -4,-10 -2,-3 -6,-4 -10,-4 -4,0 -7,1 -10,4 -2,3 -3,6 -3,10 0,4 1,8 4,10 2,3 6,4 10,4 4,0 7,-1 10,-4 2,-3 4,-6 4,-10zm18 -28l0 56 -18 0 0 -9c-3,4 -6,7 -9,9 -3,2 -7,3 -11,3 -8,0 -14,-3 -18,-8 -5,-5 -7,-13 -7,-22 0,-9 2,-17 7,-22 5,-5 11,-8 19,-8 4,0 8,1 11,3 3,2 6,5 8,8l0 -9 18 0z"/>
  <path id="4" class="fil2" d="M484 696c0,-4 -1,-8 -3,-10 -2,-3 -6,-4 -10,-4 -4,0 -7,1 -10,4 -2,3 -3,6 -3,10 0,4 1,8 3,10 2,3 5,4 10,4 4,0 7,-1 10,-4 2,-3 3,-6 3,-10zm18 -59l0 87 -18 0 0 -9c-3,4 -5,7 -9,9 -3,2 -7,3 -11,3 -8,0 -14,-3 -19,-8 -5,-5 -7,-13 -7,-22 0,-9 2,-16 7,-22 5,-6 11,-8 18,-8 5,0 9,1 12,3 3,2 6,5 8,9 0,-1 0,-3 0,-5 0,-2 0,-4 0,-6l0 -30 19 0z"/>
  <path id="5" class="fil2" d="M516 724l0 -56 19 0 0 13c2,-5 5,-8 8,-11 3,-2 7,-4 12,-4 1,0 2,0 2,0 1,0 2,0 2,0l-2 18c-1,0 -2,-1 -4,-1 -1,0 -2,0 -3,0 -5,0 -9,1 -11,4 -3,3 -4,7 -4,13l0 23 -20 0z"/>
  <path id="6" class="fil2" d="M567 650c0,-3 1,-6 3,-8 2,-2 5,-3 8,-3 3,0 6,1 8,3 2,2 3,5 3,8 0,3 -1,6 -3,8 -2,2 -5,3 -8,3 -3,0 -6,-1 -8,-3 -2,-2 -3,-5 -3,-8zm1 74l0 -56 20 0 0 56 -20 0z"/>
  <path id="7" class="fil2" d="M620 724l-25 -56 21 0 10 25c0,0 0,1 0,1 1,3 2,6 2,8 0,-2 1,-4 2,-7 0,-1 0,-1 1,-2l10 -25 21 0 -26 56 -16 0z"/>
  <path id="8" class="fil2" d="M707 688c0,-3 -2,-6 -4,-8 -2,-2 -5,-3 -8,-3 -3,0 -6,1 -8,3 -2,2 -3,4 -4,8l23 0zm20 11l-43 0c0,4 1,8 3,10 2,2 5,4 9,4 3,0 6,-1 8,-2 2,-1 4,-3 5,-5l15 6c-2,4 -5,8 -10,10 -5,2 -10,4 -17,4 -10,0 -18,-3 -24,-8 -6,-5 -9,-13 -9,-22 0,-9 3,-16 9,-22 6,-6 13,-9 23,-9 9,0 17,3 22,9 5,6 8,14 8,24l0 1z"/>
  <path id="9" class="fil2" d="M738 724l0 -56 18 0 0 11c3,-5 6,-8 9,-10 3,-2 8,-3 12,-3 4,0 7,1 10,2 3,1 5,3 7,5 2,2 3,4 3,7 1,3 1,7 1,12l0 32 -20 0 0 -30c0,-5 -1,-8 -2,-10 -1,-2 -4,-3 -7,-3 -4,0 -7,2 -9,5 -2,3 -3,8 -3,15l0 24 -20 0z"/>
  <path id="10" class="fil2" d="M848 650c0,-3 1,-6 3,-8 2,-2 5,-3 8,-3 3,0 6,1 8,3 2,2 3,5 3,8 0,3 -1,6 -3,8 -2,2 -5,3 -8,3 -3,0 -6,-1 -8,-3 -2,-2 -3,-5 -3,-8zm1 74l0 -56 20 0 0 56 -20 0z"/>
  <path id="11" class="fil2" d="M884 724l0 -56 18 0 0 11c3,-5 6,-8 9,-10 3,-2 8,-3 12,-3 4,0 7,1 10,2 3,1 5,3 7,5 2,2 3,4 3,7 1,3 1,7 1,12l0 32 -20 0 0 -30c0,-5 -1,-8 -2,-10 -1,-2 -4,-3 -7,-3 -4,0 -7,2 -9,5 -2,3 -3,8 -3,15l0 24 -20 0z"/>
  <polygon id="12" class="fil2" points="962,724 962,681 953,681 953,667 962,667 962,650 981,650 981,667 990,667 990,681 981,681 981,724 "/>
  <path id="13" class="fil2" d="M1038 688c0,-3 -2,-6 -4,-8 -2,-2 -5,-3 -8,-3 -3,0 -6,1 -8,3 -2,2 -3,4 -4,8l23 0zm20 11l-43 0c0,4 1,8 3,10 2,2 5,4 9,4 3,0 6,-1 8,-2 2,-1 4,-3 5,-5l15 6c-2,4 -5,8 -10,10 -5,2 -10,4 -17,4 -10,0 -18,-3 -24,-8 -6,-5 -9,-13 -9,-22 0,-9 3,-16 9,-22 6,-6 13,-9 23,-9 9,0 17,3 22,9 5,6 8,14 8,24l0 1z"/>
  <polygon id="14" class="fil2" points="1070,724 1070,637 1090,637 1090,724 "/>
  <polygon id="15" class="fil2" points="1105,724 1105,637 1125,637 1125,724 "/>
  <path id="16" class="fil2" d="M1140 650c0,-3 1,-6 3,-8 2,-2 5,-3 8,-3 3,0 6,1 8,3 2,2 3,5 3,8 0,3 -1,6 -3,8 -2,2 -5,3 -8,3 -3,0 -6,-1 -8,-3 -2,-2 -3,-5 -3,-8zm1 74l0 -56 20 0 0 56 -20 0z"/>
  <path id="17" class="fil2" d="M1219 695c0,-4 -1,-8 -3,-10 -2,-2 -6,-4 -10,-4 -4,0 -7,1 -10,4 -2,2 -4,6 -4,10 0,4 1,8 4,10 2,3 6,4 10,4 4,0 7,-1 10,-4 2,-3 4,-6 4,-10zm18 -28l0 56c0,9 -3,15 -8,19 -5,4 -13,6 -24,6 -9,0 -16,-2 -21,-5 -5,-3 -8,-8 -8,-14l21 0c0,2 1,3 3,4 2,1 4,1 7,1 4,0 7,-1 9,-3 2,-2 2,-6 2,-13l0 -5c-2,4 -5,6 -8,8 -3,2 -7,3 -12,3 -7,0 -13,-3 -18,-8 -5,-5 -7,-13 -7,-22 0,-9 2,-16 7,-22 5,-5 11,-8 19,-8 4,0 8,1 11,3 3,2 6,5 8,8l0 -9 18 0z"/>
  <path id="18" class="fil2" d="M1291 688c0,-3 -2,-6 -4,-8 -2,-2 -5,-3 -8,-3 -3,0 -6,1 -8,3 -2,2 -3,4 -4,8l23 0zm20 11l-43 0c0,4 1,8 3,10 2,2 5,4 9,4 3,0 6,-1 8,-2 2,-1 4,-3 5,-5l15 6c-2,4 -5,8 -10,10 -5,2 -10,4 -17,4 -10,0 -18,-3 -24,-8 -6,-5 -9,-13 -9,-22 0,-9 3,-16 9,-22 6,-6 13,-9 23,-9 9,0 17,3 22,9 5,6 8,14 8,24l0 1z"/>
  <path id="19" class="fil2" d="M1322 724l0 -56 18 0 0 11c3,-5 6,-8 9,-10 3,-2 8,-3 12,-3 4,0 7,1 10,2 3,1 5,3 7,5 2,2 3,4 3,7 1,3 1,7 1,12l0 32 -20 0 0 -30c0,-5 -1,-8 -2,-10 -1,-2 -4,-3 -7,-3 -4,0 -7,2 -9,5 -2,3 -3,8 -3,15l0 24 -20 0z"/>
  <path id="20" class="fil2" d="M1437 686c-2,-2 -4,-3 -6,-4 -2,-1 -4,-1 -6,-1 -4,0 -7,1 -9,4 -2,3 -3,6 -3,11 0,4 1,8 4,10 2,3 6,4 10,4 2,0 4,0 6,-1 2,-1 3,-2 5,-4l0 17c-2,1 -5,2 -7,3 -2,1 -5,1 -7,1 -9,0 -16,-3 -21,-8 -5,-6 -8,-13 -8,-22 0,-9 3,-16 8,-22 6,-6 13,-8 21,-8 3,0 5,0 8,1 2,1 5,1 7,3l0 17z"/>
  <path id="21" class="fil2" d="M1488 688c0,-3 -2,-6 -4,-8 -2,-2 -5,-3 -8,-3 -3,0 -6,1 -8,3 -2,2 -3,4 -4,8l23 0zm20 11l-43 0c0,4 1,8 3,10 2,2 5,4 9,4 3,0 6,-1 8,-2 2,-1 4,-3 5,-5l15 6c-2,4 -5,8 -10,10 -5,2 -10,4 -17,4 -10,0 -18,-3 -24,-8 -6,-5 -9,-13 -9,-22 0,-9 3,-16 9,-22 6,-6 13,-9 23,-9 9,0 17,3 22,9 5,6 8,14 8,24l0 1z"/>
  <rect class="fil3" width="1877" height="845"/>
 </g>
</svg>
