<?xml version="1.0" encoding="UTF-8"?>
<!DOCTYPE svg PUBLIC "-//W3C//DTD SVG 1.1//EN" "http://www.w3.org/Graphics/SVG/1.1/DTD/svg11.dtd">
<!-- Creator: CorelDRAW X6 -->
<svg xmlns="http://www.w3.org/2000/svg" xml:space="preserve" width="5.8in" height="5.3in" version="1.1" style="shape-rendering:geometricPrecision; text-rendering:geometricPrecision; image-rendering:optimizeQuality; fill-rule:evenodd; clip-rule:evenodd"
viewBox="0 0 5800 5300"
 xmlns:xlink="http://www.w3.org/1999/xlink">
 <defs>
  <style type="text/css">
   <![CDATA[
    .str0 {stroke:#00A0E3;stroke-width:39.3701}
    .fil0 {fill:none}
    .fil23 {fill:#00A0E3}
    .fil4 {fill:#2B2A29}
    .fil21 {fill:#393185}
    .fil6 {fill:#74C7D1}
    .fil17 {fill:#898989}
    .fil7 {fill:#C5C6C6}
    .fil1 {fill:#E31E24}
    .fil3 {fill:#FFED00}
    .fil20 {fill:#130503}
    .fil9 {fill:#211D1D}
    .fil16 {fill:#672A1A}
    .fil10 {fill:#9D260C}
    .fil14 {fill:#E8ED89}
    .fil8 {fill:#EF4224}
    .fil12 {fill:#F0F1B7}
    .fil11 {fill:#F8855A}
    .fil15 {fill:#FCF804}
    .fil22 {fill:#FEFEFC}
    .fil13 {fill:#FEFEFE}
    .fil19 {fill:#00B1EB;fill-rule:nonzero}
    .fil5 {fill:#2B2A29;fill-rule:nonzero}
    .fil18 {fill:#434242;fill-rule:nonzero}
    .fil2 {fill:#FFED00;fill-rule:nonzero}
   ]]>
  </style>
    <mask id="id0">
  <linearGradient id="id1" gradientUnits="userSpaceOnUse" x1="3396.93" y1="1982.57" x2="3331.48" y2="4541.68">
   <stop offset="0" style="stop-opacity:1; stop-color:white"/>
   <stop offset="0.658824" style="stop-opacity:-16.5686; stop-color:white"/>
   <stop offset="1" style="stop-opacity:0; stop-color:white"/>
  </linearGradient>
     <rect style="fill:url(#id1)" x="2503" y="1822" width="1721" height="2880"/>
    </mask>
 </defs>
 <g id="Layer_x0020_1">
  <metadata id="CorelCorpID_0Corel-Layer"/>
  <rect class="fil0" width="5800" height="5300"/>
  <polygon class="fil1" points="0,249 3753,249 3753,502 0,502 "/>
  <polygon class="fil1" points="0,792 2780,792 2780,539 0,539 "/>
  <polygon class="fil1" points="0,843 2328,843 2328,1267 0,1267 "/>
  <path class="fil2" d="M334 680l-22 67 -27 0 -14 -116c-6,0 -10,-1 -13,-3 -2,-2 -4,-5 -4,-8 0,-4 1,-6 4,-9 3,-2 7,-3 13,-3l36 0c6,0 10,1 13,3 2,2 4,5 4,8 0,4 -1,7 -4,9 -3,2 -7,3 -13,3l-12 0 8 66 18 -55 24 0 19 55 8 -66 -12 0c-6,0 -10,-1 -13,-3 -2,-2 -4,-5 -4,-8 0,-4 1,-6 4,-8 3,-2 7,-3 13,-3l36 0c6,0 10,1 13,3 2,2 4,5 4,8 0,4 -1,7 -4,9 -3,2 -7,3 -13,3l-14 116 -26 0 -23 -67zm153 -49l0 92 24 0c6,0 10,1 13,3 2,2 4,5 4,8 0,4 -1,6 -4,8 -3,2 -7,3 -13,3l-71 0c-6,0 -10,-1 -13,-3 -2,-2 -4,-5 -4,-9 0,-4 1,-6 4,-8 3,-2 7,-3 13,-3l24 0 0 -92 -24 0c-6,0 -10,-1 -13,-3 -2,-2 -4,-5 -4,-8 0,-4 1,-6 4,-8 3,-2 7,-3 13,-3l71 0c6,0 10,1 13,3 2,2 4,5 4,8 0,4 -1,7 -4,9 -3,2 -7,3 -13,3l-24 0zm141 0l0 92 16 0c6,0 10,1 13,3 2,2 4,5 4,8 0,4 -1,6 -4,8 -3,2 -7,3 -13,3l-55 0c-6,0 -10,-1 -12,-3 -2,-2 -4,-5 -4,-9 0,-4 1,-6 4,-8 3,-2 7,-3 12,-3l16 0 0 -92 -26 0 0 22c0,6 -1,10 -3,13 -2,2 -5,4 -8,4 -4,0 -6,-1 -8,-4 -2,-3 -3,-7 -3,-13l0 -46 122 0 0 46c0,6 -1,10 -3,13 -2,2 -5,4 -8,4 -4,0 -6,-1 -8,-4 -2,-3 -3,-7 -3,-13l0 -22 -26 0zm156 58l-50 0 0 34 4 0c5,0 9,1 11,3 2,2 4,5 4,8 0,4 -1,6 -4,8 -3,2 -6,3 -11,3l-27 0c-5,0 -9,-1 -11,-3 -2,-2 -4,-5 -4,-9 0,-4 2,-7 5,-9 1,-1 5,-2 10,-2l0 -92c-5,0 -9,-1 -11,-3 -2,-2 -4,-5 -4,-8 0,-4 1,-6 4,-8 3,-2 6,-3 11,-3l27 0c5,0 9,1 11,3 2,2 4,5 4,8 0,4 -1,7 -4,9 -3,2 -6,3 -11,3l-4 0 0 35 50 0 0 -35 -4 0c-5,0 -9,-1 -11,-3 -2,-2 -4,-5 -4,-8 0,-4 1,-6 4,-8 3,-2 6,-3 11,-3l27 0c5,0 9,1 11,3 2,2 4,5 4,8 0,4 -1,7 -4,9 -3,2 -6,3 -11,3l0 92c5,0 8,1 10,2 3,3 5,6 5,10 0,4 -1,6 -4,8 -3,2 -6,3 -11,3l-27 0c-5,0 -9,-1 -11,-3 -2,-2 -4,-5 -4,-9 0,-4 1,-6 4,-8 3,-2 6,-3 11,-3l4 0 0 -34zm294 -76c1,-2 3,-4 5,-5 2,-1 4,-1 6,-1 4,0 6,1 8,4 2,2 3,6 3,12l0 20c0,6 -1,10 -3,12 -2,2 -5,4 -8,4 -3,0 -6,-1 -8,-3 -2,-2 -3,-5 -4,-10 0,-3 -2,-6 -3,-8 -3,-3 -8,-6 -13,-8 -6,-2 -11,-3 -17,-3 -7,0 -14,1 -20,4 -6,3 -11,8 -16,15 -4,7 -7,15 -7,25l0 15c0,11 4,21 13,29 8,8 20,11 34,11 9,0 16,-1 22,-4 4,-1 7,-4 11,-8 3,-3 4,-4 6,-5 1,-1 3,-1 5,-1 3,0 6,1 8,4 2,2 4,5 4,8 0,3 -2,7 -5,10 -5,5 -11,9 -18,13 -10,4 -21,6 -33,6 -14,0 -27,-3 -38,-9 -9,-4 -17,-12 -23,-22 -6,-10 -10,-21 -10,-33l0 -16c0,-12 3,-24 8,-34 6,-11 14,-19 24,-25 10,-6 21,-9 32,-9 7,0 13,1 19,2 6,2 11,4 17,7zm159 17l0 67c0,15 -5,27 -16,37 -10,10 -23,15 -38,15 -7,0 -14,-1 -21,-4 -6,-3 -12,-6 -17,-12 -5,-5 -9,-10 -12,-16 -3,-5 -4,-13 -4,-22l0 -67c-6,0 -10,-1 -13,-3 -2,-2 -4,-5 -4,-9 0,-4 1,-6 4,-8 3,-2 7,-3 13,-3l32 0c5,0 9,1 11,3 2,2 4,5 4,8 0,4 -1,6 -4,8 -3,2 -6,3 -11,3l-8 0 0 69c0,7 3,13 9,19 6,5 13,8 21,8 5,0 11,-1 16,-4 5,-3 9,-6 12,-11 2,-3 3,-7 3,-12l0 -69 -8 0c-5,0 -9,-1 -11,-3 -2,-2 -4,-5 -4,-8 0,-4 1,-6 4,-8 3,-2 6,-3 11,-3l32 0c6,0 10,1 13,3 2,2 4,5 4,8 0,4 -1,7 -4,9 -3,2 -7,3 -13,3zm53 110c-2,3 -4,4 -5,5 -1,1 -3,1 -5,1 -4,0 -7,-1 -9,-4 -2,-3 -3,-7 -3,-12l0 -16c0,-6 1,-10 3,-12 2,-2 5,-4 9,-4 3,0 5,1 7,2 2,1 3,4 4,7 1,4 2,6 3,7 2,2 6,5 12,7 6,3 12,4 19,4 11,0 19,-3 26,-7 4,-3 6,-7 6,-11 0,-3 -1,-6 -3,-8 -2,-3 -5,-5 -10,-6 -3,-1 -10,-3 -20,-5 -13,-3 -23,-5 -29,-9 -7,-3 -12,-8 -16,-14 -4,-6 -6,-13 -6,-20 0,-11 5,-21 14,-30 9,-8 22,-13 37,-13 6,0 12,1 17,2 5,1 10,3 14,6 3,-3 6,-4 9,-4 3,0 6,1 8,4 2,3 3,7 3,12l0 18c0,6 -1,10 -3,12 -2,3 -5,4 -8,4 -3,0 -5,-1 -8,-3 -2,-1 -3,-4 -4,-8 -1,-4 -2,-7 -3,-8 -2,-3 -5,-5 -10,-7 -4,-2 -10,-3 -15,-3 -8,0 -15,2 -20,6 -5,4 -7,8 -7,13 0,3 1,6 3,8 2,3 5,5 9,6 3,1 10,3 22,5 12,2 21,5 28,8 7,3 12,7 16,13 4,6 6,13 6,22 0,12 -4,21 -12,28 -11,9 -25,14 -42,14 -6,0 -13,-1 -19,-2 -6,-2 -12,-4 -18,-7zm187 -110l0 92 16 0c6,0 10,1 13,3 2,2 4,5 4,8 0,4 -1,6 -4,8 -3,2 -7,3 -13,3l-55 0c-6,0 -10,-1 -12,-3 -2,-2 -4,-5 -4,-9 0,-4 1,-6 4,-8 3,-2 7,-3 12,-3l16 0 0 -92 -26 0 0 22c0,6 -1,10 -3,13 -2,2 -5,4 -8,4 -4,0 -6,-1 -8,-4 -2,-3 -3,-7 -3,-13l0 -46 122 0 0 46c0,6 -1,10 -3,13 -2,2 -5,4 -8,4 -4,0 -6,-1 -8,-4 -2,-3 -3,-7 -3,-13l0 -22 -26 0zm196 46c0,21 -7,38 -20,52 -13,14 -29,21 -46,21 -16,0 -30,-6 -43,-17 -16,-14 -24,-33 -24,-56 0,-23 8,-42 24,-56 13,-12 27,-17 43,-17 17,0 33,7 46,21 13,14 20,31 20,52zm-24 0c0,-14 -4,-26 -13,-36 -9,-9 -19,-14 -30,-14 -11,0 -21,5 -30,14 -8,9 -13,21 -13,36 0,14 4,26 13,36 9,9 19,14 30,14 11,0 21,-5 30,-14 9,-9 13,-21 13,-36zm62 -24l0 71 8 0c6,0 10,1 13,3 2,2 4,5 4,8 0,4 -1,6 -4,8 -3,2 -7,3 -13,3l-32 0c-6,0 -10,-1 -13,-3 -2,-2 -4,-5 -4,-9 0,-4 1,-6 4,-8 3,-2 7,-3 13,-3l0 -92c-6,0 -10,-1 -13,-3 -2,-2 -4,-5 -4,-8 0,-4 1,-6 4,-8 3,-2 7,-3 13,-3l29 0 32 71 32 -71 29 0c6,0 10,1 12,3 2,2 4,5 4,8 0,4 -1,7 -4,9 -3,2 -7,3 -12,3l0 92c6,0 10,1 12,3 2,2 4,5 4,8 0,4 -1,6 -4,8 -3,2 -7,3 -12,3l-32 0c-6,0 -10,-1 -13,-3 -2,-2 -4,-5 -4,-9 0,-4 1,-6 4,-8 3,-2 7,-3 13,-3l9 0 0 -71 -27 61 -20 0 -28 -61zm272 71l0 -92 -4 0c-6,0 -10,-1 -13,-3 -2,-2 -4,-5 -4,-8 0,-4 1,-6 4,-8 3,-2 7,-3 13,-3l59 0c14,0 25,4 34,12 9,8 13,17 13,28 0,5 -1,10 -3,14 -2,4 -5,9 -9,13 8,4 13,10 17,16 4,6 6,13 6,20 0,6 -1,12 -4,17 -2,4 -4,7 -7,9 -4,3 -9,6 -14,8 -6,2 -13,3 -21,3l-69 0c-6,0 -10,-1 -13,-3 -2,-2 -4,-5 -4,-9 0,-4 1,-6 4,-8 3,-2 7,-3 13,-3l4 0zm24 -58l26 0c9,0 17,-2 23,-7 4,-3 6,-7 6,-12 0,-4 -2,-8 -6,-11 -4,-3 -10,-5 -19,-5l-31 0 0 34zm0 58l41 0c10,0 16,-1 20,-4 3,-2 4,-5 4,-9 0,-5 -3,-9 -9,-14 -6,-4 -14,-7 -25,-7l-31 0 0 34zm220 -92l0 67c0,15 -5,27 -16,37 -10,10 -23,15 -38,15 -7,0 -14,-1 -21,-4 -6,-3 -12,-6 -17,-12 -5,-5 -9,-10 -12,-16 -3,-5 -4,-13 -4,-22l0 -67c-6,0 -10,-1 -13,-3 -2,-2 -4,-5 -4,-9 0,-4 1,-6 4,-8 3,-2 7,-3 13,-3l32 0c5,0 9,1 11,3 2,2 4,5 4,8 0,4 -1,6 -4,8 -3,2 -6,3 -11,3l-8 0 0 69c0,7 3,13 9,19 6,5 13,8 21,8 5,0 11,-1 16,-4 5,-3 9,-6 12,-11 2,-3 3,-7 3,-12l0 -69 -8 0c-5,0 -9,-1 -11,-3 -2,-2 -4,-5 -4,-8 0,-4 1,-6 4,-8 3,-2 6,-3 11,-3l32 0c6,0 10,1 13,3 2,2 4,5 4,8 0,4 -1,7 -4,9 -3,2 -7,3 -13,3zm99 0l0 92 24 0c6,0 10,1 13,3 2,2 4,5 4,8 0,4 -1,6 -4,8 -3,2 -7,3 -13,3l-71 0c-6,0 -10,-1 -13,-3 -2,-2 -4,-5 -4,-9 0,-4 1,-6 4,-8 3,-2 7,-3 13,-3l24 0 0 -92 -24 0c-6,0 -10,-1 -13,-3 -2,-2 -4,-5 -4,-8 0,-4 1,-6 4,-8 3,-2 7,-3 13,-3l71 0c6,0 10,1 13,3 2,2 4,5 4,8 0,4 -1,7 -4,9 -3,2 -7,3 -13,3l-24 0zm120 0l0 92 51 0 0 -22c0,-6 1,-10 3,-13 2,-2 5,-4 9,-4 4,0 6,1 8,4 2,3 3,7 3,13l0 46 -112 0c-6,0 -10,-1 -13,-3 -2,-2 -4,-5 -4,-9 0,-4 1,-6 4,-8 3,-2 7,-3 13,-3l14 0 0 -92 -14 0c-6,0 -10,-1 -13,-3 -2,-2 -4,-5 -4,-8 0,-4 1,-6 4,-8 3,-2 7,-3 13,-3l51 0c6,0 10,1 12,3 2,2 4,5 4,8 0,4 -1,7 -4,9 -3,2 -7,3 -12,3l-14 0zm163 0l0 92 16 0c6,0 10,1 13,3 2,2 4,5 4,8 0,4 -1,6 -4,8 -3,2 -7,3 -13,3l-55 0c-6,0 -10,-1 -13,-3 -2,-2 -4,-5 -4,-9 0,-4 1,-6 4,-8 3,-2 7,-3 13,-3l16 0 0 -92 -26 0 0 22c0,6 -1,10 -3,13 -2,2 -5,4 -8,4 -4,0 -6,-1 -8,-4 -2,-3 -3,-7 -3,-13l0 -46 122 0 0 46c0,6 -1,10 -3,13 -2,2 -5,4 -8,4 -4,0 -6,-1 -8,-4 -2,-3 -3,-7 -3,-13l0 -22 -26 0z"/>
  <path class="fil2" d="M440 943c2,-4 5,-6 8,-8 3,-2 6,-2 10,-2 6,0 11,2 15,6 4,4 6,11 6,21l0 34c0,10 -2,17 -6,21 -4,4 -8,6 -15,6 -5,0 -10,-2 -13,-4 -3,-3 -6,-9 -7,-17 -1,-6 -3,-10 -6,-13 -5,-6 -13,-10 -22,-14 -10,-4 -19,-5 -29,-5 -12,0 -23,2 -33,8 -10,6 -19,14 -27,26 -8,12 -12,26 -12,42l0 26c0,19 7,35 21,49 14,13 33,19 58,19 15,0 28,-2 38,-6 6,-2 12,-7 19,-14 4,-4 8,-7 10,-8 2,-2 5,-2 8,-2 5,0 10,2 14,6 4,4 6,9 6,15 0,5 -3,11 -8,18 -8,9 -19,16 -31,22 -17,7 -35,10 -56,10 -24,0 -46,-5 -64,-15 -16,-8 -29,-20 -39,-37 -11,-17 -17,-36 -17,-56l0 -27c0,-21 5,-41 15,-59 10,-18 23,-32 41,-42 17,-10 35,-15 55,-15 11,0 22,1 33,4 10,3 19,7 28,12zm223 129l-86 0 0 58 6 0c9,0 15,2 19,6 4,4 6,8 6,15 0,6 -2,11 -6,15 -4,4 -10,6 -19,6l-47 0c-8,0 -15,-2 -19,-6 -4,-4 -6,-9 -6,-15 0,-6 3,-11 8,-16 2,-2 8,-4 17,-4l0 -158c-8,0 -15,-2 -19,-6 -4,-4 -6,-8 -6,-15 0,-6 2,-11 6,-15 4,-4 11,-6 19,-6l47 0c9,0 15,2 19,5 4,4 6,8 6,15 0,6 -2,11 -6,15 -4,4 -10,6 -19,6l-6 0 0 59 86 0 0 -59 -6 0c-8,0 -15,-2 -19,-6 -4,-4 -6,-8 -6,-15 0,-6 2,-11 6,-15 4,-4 11,-6 19,-6l47 0c9,0 15,2 19,5 4,4 6,8 6,15 0,6 -2,11 -6,15 -4,4 -10,6 -19,6l0 158c9,0 15,1 17,4 6,5 8,10 8,17 0,6 -2,11 -6,15 -4,4 -10,6 -19,6l-47 0c-8,0 -15,-2 -19,-6 -4,-4 -6,-9 -6,-15 0,-6 2,-11 6,-15 4,-4 11,-5 19,-5l6 0 0 -58zm247 34l-98 0 -10 25 10 0c10,0 17,2 21,6 4,4 6,8 6,15 0,6 -2,11 -6,15 -4,4 -11,6 -21,6l-53 0c-10,0 -17,-2 -21,-6 -4,-4 -6,-9 -6,-15 0,-6 2,-11 6,-15 4,-4 11,-5 21,-5l64 -158 -26 0c-10,0 -17,-2 -21,-6 -4,-4 -6,-8 -6,-15 0,-6 2,-11 6,-15 4,-4 11,-6 21,-6l87 0 80 198c10,0 17,1 19,4 5,5 8,10 8,17 0,6 -2,11 -6,15 -4,4 -11,6 -21,6l-53 0c-10,0 -17,-2 -21,-6 -4,-4 -6,-9 -6,-15 0,-6 2,-11 6,-15 4,-4 11,-5 21,-5l10 0 -10 -25zm-17 -40l-32 -80 -33 80 65 0zm229 -93l0 158 27 0c10,0 17,2 21,6 4,4 6,8 6,15 0,6 -2,11 -6,15 -4,4 -11,6 -21,6l-94 0c-10,0 -17,-2 -21,-6 -4,-4 -6,-9 -6,-15 0,-6 2,-11 6,-15 4,-4 11,-5 21,-5l27 0 0 -158 -44 0 0 38c0,10 -2,17 -6,21 -4,4 -8,6 -15,6 -6,0 -11,-2 -15,-6 -4,-4 -6,-11 -6,-21l0 -79 209 0 0 79c0,10 -2,17 -6,21 -4,4 -8,6 -15,6 -6,0 -11,-2 -15,-6 -4,-4 -6,-11 -6,-21l0 -38 -44 0zm140 158l0 -158 -6 0c-10,0 -17,-2 -21,-6 -4,-4 -6,-8 -6,-15 0,-6 2,-11 6,-15 4,-4 11,-6 21,-6l102 0c24,0 44,7 58,20 15,13 22,29 22,48 0,9 -2,17 -5,25 -3,8 -8,15 -16,21 13,8 23,17 29,27 6,10 10,21 10,34 0,10 -2,20 -7,29 -3,7 -8,12 -12,16 -7,5 -15,10 -25,13 -10,4 -22,5 -37,5l-118 0c-10,0 -17,-2 -21,-6 -4,-4 -6,-9 -6,-15 0,-6 2,-11 6,-15 4,-4 11,-5 21,-5l6 0zm40 -99l44 0c16,0 29,-4 40,-12 7,-5 10,-12 10,-20 0,-7 -3,-13 -10,-19 -7,-5 -17,-8 -32,-8l-53 0 0 59zm0 99l70 0c17,0 28,-2 35,-7 5,-4 8,-9 8,-16 0,-8 -5,-16 -15,-24 -10,-8 -25,-12 -44,-12l-53 0 0 59zm397 -79c0,36 -11,66 -34,89 -23,24 -49,36 -79,36 -27,0 -51,-10 -73,-30 -27,-25 -40,-56 -40,-96 0,-39 13,-71 40,-96 22,-20 46,-30 73,-30 30,0 56,12 79,36 23,24 34,54 34,89zm-40 0c0,-25 -7,-45 -22,-61 -15,-16 -32,-24 -51,-24 -19,0 -36,8 -51,24 -15,16 -22,37 -22,61 0,25 8,45 22,61 15,16 32,24 51,24 19,0 36,-8 51,-24 15,-16 22,-36 22,-61zm189 -79l0 158 27 0c10,0 17,2 21,6 4,4 6,8 6,15 0,6 -2,11 -6,15 -4,4 -11,6 -21,6l-94 0c-10,0 -17,-2 -21,-6 -4,-4 -6,-9 -6,-15 0,-6 2,-11 6,-15 4,-4 11,-5 21,-5l27 0 0 -158 -44 0 0 38c0,10 -2,17 -6,21 -4,4 -8,6 -15,6 -6,0 -11,-2 -15,-6 -4,-4 -6,-11 -6,-21l0 -79 209 0 0 79c0,10 -2,17 -6,21 -4,4 -8,6 -15,6 -6,0 -11,-2 -15,-6 -4,-4 -6,-11 -6,-21l0 -38 -44 0zm163 188c-4,4 -6,7 -8,8 -2,1 -5,2 -8,2 -6,0 -11,-2 -15,-6 -4,-4 -6,-11 -6,-21l0 -27c0,-10 2,-17 6,-21 4,-4 9,-6 15,-6 5,0 9,1 12,4 3,2 6,7 7,12 2,6 4,10 5,12 4,4 10,8 20,12 10,4 21,6 32,6 18,0 33,-4 44,-12 7,-5 11,-12 11,-19 0,-5 -2,-10 -5,-14 -4,-4 -9,-8 -17,-11 -5,-2 -17,-5 -35,-8 -22,-4 -39,-9 -50,-15 -11,-6 -20,-14 -27,-25 -7,-10 -10,-22 -10,-34 0,-19 8,-36 24,-51 16,-15 37,-22 62,-22 10,0 20,1 29,4 8,2 17,6 24,10 5,-5 10,-8 16,-8 6,0 11,2 15,6 4,4 6,11 6,21l0 31c0,10 -2,17 -6,21 -4,4 -8,6 -15,6 -5,0 -9,-2 -13,-4 -3,-2 -5,-7 -6,-14 -2,-7 -3,-12 -6,-15 -4,-5 -9,-9 -17,-12 -8,-4 -17,-5 -26,-5 -15,0 -26,3 -35,10 -8,7 -12,14 -12,21 0,5 2,10 5,15 4,4 8,8 15,11 4,2 17,5 37,9 21,4 37,8 48,13 11,5 20,12 28,23 7,10 11,23 11,37 0,20 -7,36 -21,48 -19,16 -42,24 -71,24 -11,0 -22,-1 -33,-4 -10,-3 -21,-7 -31,-12z"/>
  <path class="fil2" d="M300 438c-2,3 -4,4 -5,5 -1,1 -3,1 -5,1 -4,0 -7,-1 -9,-4 -2,-3 -3,-7 -3,-12l0 -16c0,-6 1,-10 3,-12 2,-2 5,-4 9,-4 3,0 5,1 7,2 2,1 3,4 4,7 1,4 2,6 3,7 2,2 6,5 12,7 6,3 12,4 19,4 11,0 19,-3 26,-7 4,-3 6,-7 6,-11 0,-3 -1,-6 -3,-8 -2,-3 -5,-5 -10,-6 -3,-1 -10,-3 -20,-5 -13,-3 -23,-5 -29,-9 -7,-3 -12,-8 -16,-14 -4,-6 -6,-13 -6,-20 0,-11 5,-21 14,-30 9,-8 22,-13 37,-13 6,0 12,1 17,2 5,1 10,3 14,6 3,-3 6,-4 9,-4 3,0 6,1 8,4 2,3 3,7 3,12l0 18c0,6 -1,10 -3,12 -2,3 -5,4 -8,4 -3,0 -5,-1 -8,-3 -2,-1 -3,-4 -4,-8 -1,-4 -2,-7 -3,-8 -2,-3 -5,-5 -10,-7 -4,-2 -10,-3 -15,-3 -8,0 -15,2 -20,6 -5,4 -7,8 -7,13 0,3 1,6 3,8 2,3 5,5 9,6 3,1 10,3 22,5 12,2 21,5 28,8 7,3 12,7 16,13 4,6 6,13 6,22 0,12 -4,21 -12,28 -11,9 -25,14 -42,14 -6,0 -13,-1 -19,-2 -6,-2 -12,-4 -18,-7zm187 -110l0 92 16 0c6,0 10,1 12,3 2,2 4,5 4,8 0,4 -1,6 -4,8 -3,2 -7,3 -12,3l-55 0c-6,0 -10,-1 -13,-3 -2,-2 -4,-5 -4,-9 0,-4 1,-6 4,-8 3,-2 7,-3 13,-3l16 0 0 -92 -26 0 0 22c0,6 -1,10 -3,13 -2,2 -5,4 -8,4 -4,0 -6,-1 -8,-4 -2,-3 -3,-7 -3,-13l0 -46 122 0 0 46c0,6 -1,10 -3,13 -2,2 -5,4 -8,4 -4,0 -6,-1 -8,-4 -2,-3 -3,-7 -3,-13l0 -22 -26 0zm159 78l-57 0 -6 14 6 0c6,0 10,1 13,3 2,2 4,5 4,8 0,4 -1,6 -4,8 -3,2 -7,3 -13,3l-31 0c-6,0 -10,-1 -13,-3 -2,-2 -4,-5 -4,-9 0,-4 1,-6 4,-8 3,-2 7,-3 13,-3l37 -92 -15 0c-6,0 -10,-1 -13,-3 -2,-2 -4,-5 -4,-8 0,-4 1,-6 4,-8 3,-2 7,-3 13,-3l51 0 47 116c6,0 10,1 11,2 3,3 5,6 5,10 0,4 -1,6 -4,8 -3,2 -7,3 -13,3l-31 0c-6,0 -10,-1 -13,-3 -2,-2 -4,-5 -4,-9 0,-4 1,-6 4,-8 3,-2 7,-3 13,-3l6 0 -6 -14zm-10 -24l-19 -47 -19 47 38 0zm93 -33l0 71 8 0c6,0 10,1 12,3 2,2 4,5 4,8 0,4 -1,6 -4,8 -3,2 -7,3 -12,3l-32 0c-6,0 -10,-1 -13,-3 -2,-2 -4,-5 -4,-9 0,-4 1,-6 4,-8 3,-2 7,-3 13,-3l0 -92 -4 0c-6,0 -10,-1 -13,-3 -2,-2 -4,-5 -4,-8 0,-4 1,-6 4,-8 3,-2 7,-3 13,-3l27 0 61 95 0 -71 -8 0c-6,0 -10,-1 -13,-3 -2,-2 -4,-5 -4,-8 0,-4 1,-6 4,-8 3,-2 7,-3 13,-3l32 0c6,0 10,1 12,3 2,2 4,5 4,8 0,4 -1,7 -4,9 -3,2 -7,3 -12,3l0 116 -23 0 -61 -95zm118 71l0 -92c-6,0 -10,-1 -13,-3 -2,-2 -4,-5 -4,-8 0,-4 1,-6 4,-8 3,-2 7,-3 13,-3l50 0c8,0 15,1 23,4 8,3 13,7 18,11 3,3 7,8 11,14 4,6 6,12 8,17 2,6 3,13 3,21l0 11c0,10 -2,19 -5,26 -3,8 -8,14 -13,19 -5,5 -11,8 -16,11 -8,4 -18,5 -30,5l-48 0c-6,0 -10,-1 -13,-3 -2,-2 -4,-5 -4,-9 0,-4 1,-6 4,-8 3,-2 7,-3 13,-3zm24 0l25 0c9,0 16,-1 21,-4 6,-4 11,-8 14,-13 3,-6 5,-12 5,-21l0 -11c0,-7 -1,-14 -4,-20 -4,-9 -9,-15 -15,-18 -5,-3 -13,-5 -21,-5l-25 0 0 92zm379 -46c0,21 -7,38 -20,52 -13,14 -29,21 -46,21 -16,0 -30,-6 -43,-17 -16,-14 -24,-33 -24,-56 0,-23 8,-42 24,-56 13,-12 27,-17 43,-17 17,0 33,7 46,21 13,14 20,31 20,52zm-24 0c0,-14 -4,-26 -13,-36 -9,-9 -19,-14 -30,-14 -11,0 -21,5 -30,14 -8,9 -13,21 -13,36 0,14 4,26 13,36 9,9 19,14 30,14 11,0 21,-5 30,-14 9,-9 13,-21 13,-36zm153 -46l0 67c0,15 -5,27 -16,37 -10,10 -23,15 -38,15 -7,0 -14,-1 -21,-4 -6,-3 -12,-6 -17,-12 -5,-5 -9,-10 -12,-16 -3,-5 -4,-13 -4,-22l0 -67c-6,0 -10,-1 -13,-3 -2,-2 -4,-5 -4,-9 0,-4 1,-6 4,-8 3,-2 7,-3 13,-3l32 0c5,0 9,1 11,3 2,2 4,5 4,8 0,4 -1,6 -4,8 -3,2 -6,3 -11,3l-8 0 0 69c0,7 3,13 9,19 6,5 13,8 21,8 5,0 11,-1 16,-4 5,-3 9,-6 12,-11 2,-3 3,-7 3,-12l0 -69 -8 0c-5,0 -9,-1 -11,-3 -2,-2 -4,-5 -4,-8 0,-4 1,-6 4,-8 3,-2 6,-3 11,-3l32 0c6,0 10,1 13,3 2,2 4,5 4,8 0,4 -1,7 -4,9 -3,2 -7,3 -13,3zm99 0l0 92 16 0c6,0 10,1 13,3 2,2 4,5 4,8 0,4 -1,6 -4,8 -3,2 -7,3 -13,3l-55 0c-6,0 -10,-1 -12,-3 -2,-2 -4,-5 -4,-9 0,-4 1,-6 4,-8 3,-2 7,-3 12,-3l16 0 0 -92 -26 0 0 22c0,6 -1,10 -3,13 -2,2 -5,4 -8,4 -4,0 -6,-1 -8,-4 -2,-3 -3,-7 -3,-13l0 -46 122 0 0 46c0,6 -1,10 -3,13 -2,2 -5,4 -8,4 -4,0 -6,-1 -8,-4 -2,-3 -3,-7 -3,-13l0 -22 -26 0zm255 58l0 34 24 0c6,0 10,1 13,3 2,2 4,5 4,8 0,4 -1,6 -4,8 -3,2 -7,3 -13,3l-52 0c-6,0 -10,-1 -13,-3 -2,-2 -4,-5 -4,-9 0,-4 1,-6 4,-8 3,-2 7,-3 13,-3l4 0 0 -92 -4 0c-6,0 -10,-1 -13,-3 -2,-2 -4,-5 -4,-8 0,-4 1,-6 4,-8 3,-2 7,-3 13,-3l111 0 0 36c0,6 -1,10 -3,13 -2,2 -5,4 -8,4 -4,0 -6,-1 -8,-4 -2,-3 -3,-7 -3,-13l0 -13 -60 0 0 34 21 0c0,-6 1,-10 2,-11 3,-3 6,-5 10,-5 4,0 6,1 8,4 2,3 3,7 3,13l0 24c0,6 -1,10 -3,12 -2,2 -5,4 -8,4 -4,0 -7,-2 -10,-5 -1,-2 -2,-5 -2,-11l-21 0zm133 5l0 30 8 0c6,0 10,1 13,3 2,2 4,5 4,8 0,4 -1,6 -4,8 -3,2 -7,3 -13,3l-36 0c-6,0 -10,-1 -13,-3 -2,-2 -4,-5 -4,-9 0,-4 1,-6 4,-8 3,-2 7,-3 13,-3l4 0 0 -92 -4 0c-6,0 -10,-1 -13,-3 -2,-2 -4,-5 -4,-8 0,-4 1,-6 4,-8 3,-2 7,-3 13,-3l54 0c17,0 29,4 39,12 9,8 14,18 14,30 0,8 -2,14 -6,20 -4,6 -11,11 -20,16 5,4 10,10 16,17 4,4 8,11 14,21 6,0 10,1 11,2 3,3 5,6 5,10 0,4 -1,6 -4,8 -3,2 -7,3 -13,3l-12 0c-19,-29 -35,-47 -47,-53l-23 0zm0 -24l18 0c7,0 13,-1 18,-3 7,-3 12,-6 14,-9 3,-3 4,-6 4,-9 0,-4 -2,-9 -7,-13 -5,-4 -12,-6 -21,-6l-27 0 0 39zm232 7c0,21 -7,38 -20,52 -13,14 -29,21 -46,21 -16,0 -30,-6 -43,-17 -16,-14 -24,-33 -24,-56 0,-23 8,-42 24,-56 13,-12 27,-17 43,-17 17,0 33,7 46,21 13,14 20,31 20,52zm-24 0c0,-14 -4,-26 -13,-36 -9,-9 -19,-14 -30,-14 -11,0 -21,5 -30,14 -8,9 -13,21 -13,36 0,14 4,26 13,36 9,9 19,14 30,14 11,0 21,-5 30,-14 9,-9 13,-21 13,-36zm62 -24l0 71 8 0c6,0 10,1 13,3 2,2 4,5 4,8 0,4 -1,6 -4,8 -3,2 -7,3 -13,3l-32 0c-6,0 -10,-1 -13,-3 -2,-2 -4,-5 -4,-9 0,-4 1,-6 4,-8 3,-2 7,-3 13,-3l0 -92c-6,0 -10,-1 -13,-3 -2,-2 -4,-5 -4,-8 0,-4 1,-6 4,-8 3,-2 7,-3 13,-3l29 0 32 71 32 -71 29 0c6,0 10,1 12,3 2,2 4,5 4,8 0,4 -1,7 -4,9 -3,2 -7,3 -12,3l0 92c6,0 10,1 12,3 2,2 4,5 4,8 0,4 -1,6 -4,8 -3,2 -7,3 -12,3l-32 0c-6,0 -10,-1 -13,-3 -2,-2 -4,-5 -4,-9 0,-4 1,-6 4,-8 3,-2 7,-3 13,-3l9 0 0 -71 -27 61 -20 0 -28 -61zm332 -22l0 92 16 0c6,0 10,1 13,3 2,2 4,5 4,8 0,4 -1,6 -4,8 -3,2 -7,3 -13,3l-55 0c-6,0 -10,-1 -12,-3 -2,-2 -4,-5 -4,-9 0,-4 1,-6 4,-8 3,-2 7,-3 12,-3l16 0 0 -92 -26 0 0 22c0,6 -1,10 -3,13 -2,2 -5,4 -8,4 -4,0 -6,-1 -8,-4 -2,-3 -3,-7 -3,-13l0 -46 122 0 0 46c0,6 -1,10 -3,13 -2,2 -5,4 -8,4 -4,0 -6,-1 -8,-4 -2,-3 -3,-7 -3,-13l0 -22 -26 0zm156 58l-50 0 0 34 4 0c5,0 9,1 11,3 2,2 4,5 4,8 0,4 -1,6 -4,8 -3,2 -6,3 -11,3l-27 0c-5,0 -9,-1 -11,-3 -2,-2 -4,-5 -4,-9 0,-4 2,-7 5,-9 1,-1 5,-2 10,-2l0 -92c-5,0 -9,-1 -11,-3 -2,-2 -4,-5 -4,-8 0,-4 1,-6 4,-8 3,-2 6,-3 11,-3l27 0c5,0 9,1 11,3 2,2 4,5 4,8 0,4 -1,7 -4,9 -3,2 -6,3 -11,3l-4 0 0 35 50 0 0 -35 -4 0c-5,0 -9,-1 -11,-3 -2,-2 -4,-5 -4,-8 0,-4 1,-6 4,-8 3,-2 6,-3 11,-3l27 0c5,0 9,1 11,3 2,2 4,5 4,8 0,4 -1,7 -4,9 -3,2 -6,3 -11,3l0 92c5,0 8,1 10,2 3,3 5,6 5,10 0,4 -1,6 -4,8 -3,2 -6,3 -11,3l-27 0c-5,0 -9,-1 -11,-3 -2,-2 -4,-5 -4,-9 0,-4 1,-6 4,-8 3,-2 6,-3 11,-3l4 0 0 -34zm91 0l0 35 60 0 0 -13c0,-6 1,-10 3,-12 2,-2 5,-4 9,-4 4,0 6,1 8,4 2,3 3,7 3,12l0 36 -111 0c-6,0 -10,-1 -13,-3 -2,-2 -4,-5 -4,-9 0,-4 1,-6 4,-8 3,-2 7,-3 13,-3l4 0 0 -92 -4 0c-6,0 -10,-1 -13,-3 -2,-2 -4,-5 -4,-8 0,-4 1,-6 4,-8 3,-2 7,-3 13,-3l106 0 0 36c0,6 -1,10 -3,13 -2,2 -5,4 -8,4 -4,0 -7,-1 -9,-4 -2,-3 -3,-7 -3,-13l0 -12 -55 0 0 34 21 0c0,-6 1,-10 2,-11 3,-3 6,-5 10,-5 4,0 6,1 8,4 2,3 3,7 3,13l0 24c0,6 -1,10 -2,11 -3,3 -6,5 -9,5 -4,0 -7,-2 -10,-5 -1,-2 -2,-5 -2,-11l-21 0zm344 -75c1,-2 3,-4 5,-5 2,-1 4,-1 6,-1 4,0 6,1 8,4 2,2 3,6 3,12l0 20c0,6 -1,10 -3,12 -2,2 -5,4 -8,4 -3,0 -6,-1 -8,-3 -2,-2 -3,-5 -4,-10 0,-3 -2,-6 -3,-8 -3,-3 -8,-6 -13,-8 -6,-2 -11,-3 -17,-3 -7,0 -14,1 -20,4 -6,3 -11,8 -16,15 -4,7 -7,15 -7,25l0 15c0,11 4,21 13,29 8,8 20,11 34,11 9,0 16,-1 22,-4 4,-1 7,-4 11,-8 3,-3 4,-4 6,-5 1,-1 3,-1 5,-1 3,0 6,1 8,4 2,2 4,5 4,8 0,3 -2,7 -5,10 -5,5 -11,9 -18,13 -10,4 -21,6 -33,6 -14,0 -27,-3 -38,-9 -9,-4 -17,-12 -23,-22 -6,-10 -10,-21 -10,-33l0 -16c0,-12 3,-24 8,-34 6,-11 14,-19 24,-25 10,-6 21,-9 32,-9 7,0 13,1 19,2 6,2 11,4 17,7zm80 80l0 30 8 0c6,0 10,1 13,3 2,2 4,5 4,8 0,4 -1,6 -4,8 -3,2 -7,3 -13,3l-36 0c-6,0 -10,-1 -13,-3 -2,-2 -4,-5 -4,-9 0,-4 1,-6 4,-8 3,-2 7,-3 13,-3l4 0 0 -92 -4 0c-6,0 -10,-1 -13,-3 -2,-2 -4,-5 -4,-8 0,-4 1,-6 4,-8 3,-2 7,-3 13,-3l54 0c17,0 29,4 39,12 9,8 14,18 14,30 0,8 -2,14 -6,20 -4,6 -11,11 -20,16 5,4 10,10 16,17 4,4 8,11 14,21 6,0 10,1 11,2 3,3 5,6 5,10 0,4 -1,6 -4,8 -3,2 -7,3 -13,3l-12 0c-19,-29 -35,-47 -47,-53l-23 0zm0 -24l18 0c7,0 13,-1 18,-3 7,-3 12,-6 14,-9 3,-3 4,-6 4,-9 0,-4 -2,-9 -7,-13 -5,-4 -12,-6 -21,-6l-27 0 0 39zm232 7c0,21 -7,38 -20,52 -13,14 -29,21 -46,21 -16,0 -30,-6 -43,-17 -16,-14 -24,-33 -24,-56 0,-23 8,-42 24,-56 13,-12 27,-17 43,-17 17,0 33,7 46,21 13,14 20,31 20,52zm-24 0c0,-14 -4,-26 -13,-36 -9,-9 -19,-14 -30,-14 -11,0 -21,5 -30,14 -8,9 -13,21 -13,36 0,14 4,26 13,36 9,9 19,14 30,14 11,0 21,-5 30,-14 9,-9 13,-21 13,-36zm99 3l-22 67 -27 0 -14 -116c-6,0 -10,-1 -13,-3 -2,-2 -4,-5 -4,-8 0,-4 1,-6 4,-9 3,-2 7,-3 13,-3l36 0c6,0 10,1 13,3 2,2 4,5 4,8 0,4 -1,7 -4,9 -3,2 -7,3 -13,3l-12 0 8 66 18 -55 24 0 19 55 8 -66 -12 0c-6,0 -10,-1 -13,-3 -2,-2 -4,-5 -4,-8 0,-4 1,-6 4,-8 3,-2 7,-3 13,-3l36 0c6,0 10,1 13,3 2,2 4,5 4,8 0,4 -1,7 -4,9 -3,2 -7,3 -13,3l-14 116 -26 0 -23 -67zm89 43l0 -92c-6,0 -10,-1 -13,-3 -2,-2 -4,-5 -4,-8 0,-4 1,-6 4,-8 3,-2 7,-3 13,-3l50 0c8,0 15,1 23,4 8,3 13,7 18,11 3,3 7,8 11,14 4,6 6,12 8,17 2,6 3,13 3,21l0 11c0,10 -2,19 -5,26 -3,8 -8,14 -13,19 -5,5 -11,8 -16,11 -8,4 -18,5 -30,5l-48 0c-6,0 -10,-1 -13,-3 -2,-2 -4,-5 -4,-9 0,-4 1,-6 4,-8 3,-2 7,-3 13,-3zm24 0l25 0c9,0 16,-1 21,-4 6,-4 11,-8 14,-13 3,-6 5,-12 5,-21l0 -11c0,-7 -1,-14 -4,-20 -4,-9 -9,-15 -15,-18 -5,-3 -13,-5 -21,-5l-25 0 0 92z"/>
  <g id="_1346860800">
   <path class="fil3" style="mask:url(#id0)" d="M2528 4345c2,50 -3,51 -9,59 -8,51 -19,89 12,123 186,207 1255,221 1593,53 90,-45 104,-57 88,-176 -9,-39 8,-26 -10,-63l-539 -2512 -596 0 -540 2516z"/>
   <path class="fil3 str0" d="M3058 1770c21,152 162,292 351,266 154,-22 288,-165 263,-351 -20,-150 -165,-289 -348,-264 -151,21 -292,162 -266,349z"/>
   <path class="fil4" d="M3453 1842c-8,-13 -16,-21 -20,-38 19,-17 76,-24 79,-60 8,-77 -131,-115 -210,-64 -70,45 -77,148 83,138 9,-1 1,-2 10,0 17,3 21,20 59,24z"/>
   <path class="fil3" d="M3368 1556c17,1 31,4 41,17 4,5 8,12 10,19 2,4 0,4 4,6 36,19 38,65 9,87 -16,12 -41,14 -60,3 -10,6 -15,8 -28,8 -12,0 -21,-3 -29,-8 -4,4 -4,5 -11,9 -15,8 -26,11 -33,29 -8,21 -6,52 -5,76l-18 0c0,-14 0,-28 0,-42 0,-13 0,-27 -4,-39 -9,-25 -38,-26 -39,-46 11,-2 19,-1 30,2 2,-2 5,-5 3,-9 -5,-7 -27,-6 -34,-5 0,-6 4,-15 6,-20 3,-5 8,-11 13,-14 6,-4 13,-5 21,-6 11,-1 13,0 23,-4 3,2 5,6 7,10 3,9 3,21 0,31 -2,6 -4,7 -7,11 -3,4 -4,8 1,11 7,3 15,-13 17,-18 2,-4 2,-8 3,-12 3,-11 35,11 35,-2 0,-11 -28,-11 -36,-11 -1,-8 -4,-19 -10,-24 1,-3 8,-10 11,-14 1,-2 2,-3 3,-5 8,2 13,8 29,9 5,0 8,-1 12,-1 3,6 2,13 11,25 15,19 33,17 51,21 5,1 8,3 12,5 3,2 8,6 13,5 8,-8 -8,-17 -14,-19 -12,-5 -19,-4 -32,-6 1,-10 18,-10 22,-17 2,-3 1,-8 -2,-8 -6,-1 -16,4 -19,7 -4,3 -12,13 -13,13 -4,-4 -9,-7 -12,-12 -3,-5 -6,-11 -6,-19 4,-1 14,-9 15,-13 1,-4 -3,-8 -7,-7 -3,1 -6,5 -8,6 -12,9 -33,9 -45,0 -5,-3 -4,-2 -3,-9 0,-5 0,-9 -5,-10 -11,-1 0,21 -21,37 -4,3 -13,8 -20,8 -1,-9 -2,-12 -6,-19 -2,-5 -7,-13 -13,-12 -13,1 3,14 5,22 1,3 2,7 2,10 -9,1 -18,5 -24,9l-5 4c-1,1 -3,3 -4,4l-7 9c-12,-2 -16,-8 -25,-13 -3,-2 -7,-2 -8,2 -3,10 18,20 28,22 -1,8 -2,14 -1,23 1,9 4,12 6,19 -6,3 -13,8 -17,11 -3,3 -11,13 -3,18 5,0 9,-7 12,-10 4,-4 7,-6 13,-10 3,-2 5,0 7,2 7,4 14,8 18,15 11,18 6,58 7,82 -7,0 -12,0 -18,0 -3,-14 -9,-31 -16,-39 -4,-5 -9,-9 -14,-13 -3,-2 -5,-4 -8,-6 -11,-7 -22,-15 -26,-29 -1,-4 -1,-8 -2,-12 0,-2 -2,-3 -3,-4 -4,-4 -6,-8 -8,-13 -5,-15 -4,-31 4,-45 5,-8 0,-13 1,-24 2,-20 15,-32 29,-39 4,-2 6,-1 8,-6 8,-16 25,-26 44,-26 5,0 9,1 13,1 11,-14 35,-16 51,-11 13,4 7,7 15,4 12,-5 25,-5 37,-1 8,3 22,10 25,19z"/>
   <path class="fil4" d="M3368 1556c-4,-8 -17,-16 -25,-19 -13,-4 -25,-4 -37,1 -8,3 -2,0 -15,-4 -16,-5 -40,-3 -51,11 -4,0 -8,-1 -13,-1 -19,0 -35,10 -44,26 -2,5 -4,4 -8,6 -15,7 -27,19 -29,39 -1,11 4,16 -1,24 -8,14 -10,30 -4,45 2,5 4,10 8,13 1,1 3,2 3,4 1,4 1,7 2,12 4,13 15,21 26,29 3,2 6,4 8,6 5,4 10,8 14,13 7,9 13,25 16,39 7,0 12,0 18,0 -1,-24 4,-64 -7,-82 -4,-7 -11,-11 -18,-15 -3,-1 -4,-4 -7,-2 -6,3 -10,5 -13,10 -3,4 -6,10 -12,10 -8,-5 0,-16 3,-18 4,-4 11,-9 17,-11 -2,-7 -5,-10 -6,-19 -1,-9 -1,-15 1,-23 -10,-2 -31,-11 -28,-22 1,-4 5,-3 8,-2 9,5 13,11 25,13l7 -9c1,-1 3,-3 4,-4l5 -4c6,-4 14,-8 24,-9 0,-3 -2,-7 -2,-10 -3,-8 -19,-21 -5,-22 6,0 10,8 13,12 4,7 5,10 6,19 7,0 16,-5 20,-8 21,-16 10,-38 21,-37 5,0 5,4 5,10 -1,7 -2,6 3,9 12,9 33,9 45,0 2,-2 6,-5 8,-6 3,-1 7,3 7,7 -1,5 -11,12 -15,13 0,7 3,14 6,19 3,5 8,8 12,12 1,-1 9,-10 13,-13 3,-3 13,-8 19,-7 4,1 5,5 2,8 -4,7 -21,7 -22,17 12,2 20,1 32,6 6,3 21,11 14,19 -5,1 -10,-3 -13,-5 -4,-3 -7,-4 -12,-5 -18,-4 -36,-2 -51,-21 -9,-11 -8,-19 -11,-25 -4,0 -7,1 -12,1 -16,-1 -21,-7 -29,-9 -1,2 -2,4 -3,5 -3,4 -10,11 -11,14 7,5 9,16 10,24 8,0 36,0 36,11 0,13 -32,-9 -35,2 -1,4 -2,8 -3,12 -2,5 -10,21 -17,18 -5,-2 -5,-7 -1,-11 3,-4 5,-5 7,-11 4,-9 4,-21 0,-31 -1,-4 -4,-9 -7,-10 -9,4 -12,4 -23,4 -8,0 -15,2 -21,6 -5,3 -10,8 -13,14 -2,4 -6,14 -6,20 7,-1 29,-2 34,5 3,4 -1,8 -3,9 -11,-3 -18,-4 -30,-2 1,21 30,21 39,46 4,12 5,25 4,39 0,14 0,28 0,42l18 0c0,-24 -3,-55 5,-76 7,-18 18,-22 33,-29 7,-4 7,-5 11,-9 8,5 17,8 29,8 14,0 18,-2 28,-8 19,12 43,9 60,-3 30,-22 27,-68 -9,-87 -4,-2 -2,-1 -4,-6 -2,-7 -6,-13 -10,-19 -10,-12 -24,-16 -41,-17zm-158 254c-5,-21 -8,-38 -25,-51 -9,-7 -17,-10 -27,-20 -2,-2 -3,-3 -5,-5 -6,-7 -10,-17 -12,-26 0,-3 0,-2 -3,-6 -1,-2 -3,-4 -4,-6 -10,-19 -10,-42 1,-61 3,-5 -4,-12 3,-33 4,-13 15,-25 26,-32 5,-3 10,-4 11,-7 8,-14 24,-28 46,-30 13,-1 11,2 17,-2 12,-9 32,-11 46,-9 5,1 10,2 15,4 4,2 3,1 7,0 22,-7 49,1 64,16 3,3 1,3 6,4 42,3 51,41 53,43 1,1 16,8 24,23 5,9 8,18 9,30 0,18 -7,36 -20,47 -1,1 -2,2 -3,2 -1,1 -1,1 -2,2 -15,13 -42,15 -60,8 -3,-1 -4,-2 -7,-1 -11,6 -29,6 -41,4 -7,-1 -12,-5 -14,-3 -6,4 -6,4 -12,7 -5,2 -8,3 -12,7 -16,13 -16,40 -16,60 0,11 0,25 1,36l-50 1c-6,0 -10,-1 -16,-1z"/>
   <g>
    <polygon class="fil3" points="3592,1808 3539,1829 3392,1744 3445,1723 "/>
    <path id="1" class="fil5" d="M3537 1825l53 -21 3 8 -53 21 -4 0 1 -7zm3 8l-2 1 -2 -1 4 0zm-146 -93l147 85 -4 7 -147 -85 1 -7 4 0zm-4 7l-7 -4 8 -3 -1 7zm56 -21l-53 21 -3 -8 53 -21 4 0 -1 7zm-3 -8l2 -1 2 1 -4 0zm146 93l-147 -85 4 -7 147 85 -1 7 -4 0zm4 -7l7 4 -8 3 1 -7z"/>
   </g>
   <g>
    <polygon class="fil3" points="3595,1825 3550,1812 3378,1901 3433,1906 "/>
    <path id="1" class="fil5" d="M3551 1808l45 13 -2 8 -45 -13 -1 -8 3 0zm-3 0l1 -1 2 0 -3 0zm-172 89l172 -89 4 7 -172 89 -2 0 -1 -8zm57 13l-55 -6 1 -8 55 6 1 8 -2 0zm2 0l-1 1 -1 0 2 0zm162 -81l-162 81 -4 -7 162 -81 3 0 1 8zm-1 -8l10 3 -9 5 -1 -8z"/>
   </g>
   <g>
    <polygon class="fil3" points="3384,1912 3328,1912 3328,1896 3384,1896 "/>
    <path id="1" class="fil5" d="M3328 1908l56 0 0 8 -56 0 -4 -4 4 -4zm0 8l-4 0 0 -4 4 4zm4 -20l0 16 -8 0 0 -16 4 -4 4 4zm-8 0l0 -4 4 0 -4 4zm60 4l-56 0 0 -8 56 0 4 4 -4 4zm0 -8l4 0 0 4 -4 -4zm-4 20l0 -16 8 0 0 16 -4 4 -4 -4zm8 0l0 4 -4 0 4 -4z"/>
   </g>
   <g>
    <path class="fil5" d="M3295 1888l-12 7 -4 -7 12 -7 0 0 4 7zm12 -7l-12 7 -4 -7 12 -7 4 0 0 7zm-4 -7l2 -1 2 1 -4 0zm12 14l-12 -7 4 -7 12 7 0 0 -4 7zm12 7l-12 -7 4 -7 12 7 2 4 -6 4zm4 -7l2 1 0 2 -2 -4zm-6 17l0 -13 8 0 0 13 0 0 -8 0zm0 13l0 -13 8 0 0 13 -2 4 -6 -4zm8 0l0 2 -2 1 2 -4zm-18 3l12 -7 4 7 -12 7 0 0 -4 -7zm-12 7l12 -7 4 7 -12 7 -4 0 0 -7zm4 7l-2 1 -2 -1 4 0zm-12 -14l12 7 -4 7 -12 -7 0 0 4 -7zm-12 -7l12 7 -4 7 -12 -7 4 -7z"/>
   </g>
   <g>
    <path class="fil6" d="M3563 1858c-23,0 -41,-18 -41,-41 0,-23 18,-41 41,-41 23,0 41,18 41,41 0,23 -18,41 -41,41z"/>
    <path id="1" class="fil5" d="M3517 1817l8 0 0 0 0 2 0 2 0 2 0 2 0 2 1 2 1 2 1 2 1 2 1 2 1 2 1 2 1 1 1 1 1 1 1 1 1 1 1 1 1 1 1 1 2 1 2 1 2 1 2 1 2 1 2 1 2 0 2 0 2 0 2 0 2 0 2 0 0 8 -2 0 -2 0 -2 0 -2 0 -2 -1 -2 -1 -2 -1 -2 -1 -2 -1 -2 -1 -2 -1 -2 -1 -2 -1 -2 -1 -2 -1 -2 -2 -1 -2 -1 -2 -1 -2 -1 -2 -1 -2 -1 -2 -1 -2 -1 -2 -1 -2 -1 -2 -1 -2 -1 -2 0 -2 0 -2 0 -2 0 -2 0 0zm45 -45l0 8 0 0 -2 0 -2 0 -2 0 -2 0 -2 0 -2 0 -2 1 -2 1 -2 1 -2 1 -2 1 -2 1 -1 1 -1 1 -1 1 -1 1 -1 1 -1 1 -1 1 -1 1 -1 2 -1 2 -1 2 -1 2 -1 2 -1 2 -1 2 0 2 0 2 0 2 0 2 0 2 -8 0 0 -2 0 -2 0 -2 0 -2 1 -2 1 -2 1 -2 1 -2 1 -2 1 -2 1 -2 1 -2 1 -2 1 -2 1 -2 2 -2 2 -2 2 -1 2 -1 2 -1 2 -1 2 -1 2 -1 2 -1 2 -1 2 -1 2 -1 2 -1 2 0 2 0 2 0 2 0 0 0zm45 45l-8 0 0 0 0 -2 0 -2 0 -2 0 -2 0 -2 -1 -2 -1 -2 -1 -2 -1 -2 -1 -2 -1 -2 -1 -2 -1 -1 -1 -1 -1 -1 -1 -1 -1 -1 -1 -1 -1 -1 -1 -1 -2 -1 -2 -1 -2 -1 -2 -1 -2 -1 -2 -1 -2 -1 -2 0 -2 0 -2 0 -2 0 -2 0 0 -8 2 0 2 0 2 0 2 0 2 1 2 1 2 1 2 1 2 1 2 1 2 1 2 1 2 1 2 1 2 1 2 2 2 2 1 2 1 2 1 2 1 2 1 2 1 2 1 2 1 2 1 2 1 2 1 2 0 2 0 2 0 2 0 2 0 0zm-45 45l0 -8 0 0 2 0 2 0 2 0 2 0 2 0 2 -1 2 -1 2 -1 2 -1 2 -1 2 -1 2 -1 1 -1 1 -1 1 -1 1 -1 1 -1 1 -1 1 -1 1 -1 1 -2 1 -2 1 -2 1 -2 1 -2 1 -2 1 -2 0 -2 0 -2 0 -2 0 -2 0 -2 8 0 0 2 0 2 0 2 0 2 -1 2 -1 2 -1 2 -1 2 -1 2 -1 2 -1 2 -1 2 -1 2 -1 2 -1 2 -2 2 -2 2 -2 1 -2 1 -2 1 -2 1 -2 1 -2 1 -2 1 -2 1 -2 1 -2 1 -2 1 -2 0 -2 0 -2 0 -2 0 0 0z"/>
   </g>
   <g>
    <path class="fil6" d="M3402 1936c-17,0 -31,-14 -31,-31 0,-17 14,-31 31,-31 17,0 31,14 31,31 0,17 -14,31 -31,31z"/>
    <path id="1" class="fil5" d="M3366 1904l8 0 0 0 0 1 0 1 0 1 0 1 0 1 0 1 0 1 0 1 1 1 1 1 1 1 1 1 1 1 1 1 1 1 1 1 1 1 1 1 1 1 1 1 1 1 1 1 1 1 1 1 1 0 1 0 1 0 1 0 1 0 1 0 1 0 1 0 0 8 -2 0 -2 0 -2 0 -2 0 -2 0 -2 0 -2 -1 -2 -1 -2 -1 -2 -1 -1 -1 -1 -1 -1 -1 -1 -1 -1 -1 -1 -1 -1 -1 -1 -1 -1 -1 -1 -1 -1 -1 -1 -1 -1 -2 -1 -2 -1 -2 -1 -2 0 -2 0 -2 0 -2 0 -2 0 -2 0 -2 0 0zm36 -36l0 8 0 0 -1 0 -1 0 -1 0 -1 0 -1 0 -1 0 -1 0 -1 0 -1 1 -1 1 -1 1 -1 1 -1 1 -1 1 -1 1 -1 1 -1 1 -1 1 -1 1 -1 1 -1 1 -1 1 -1 1 -1 1 0 1 0 1 0 1 0 1 0 1 0 1 0 1 0 1 -8 0 0 -2 0 -2 0 -2 0 -2 0 -2 0 -2 1 -2 1 -2 1 -2 1 -2 1 -1 1 -1 1 -1 1 -1 1 -1 1 -1 1 -1 1 -1 1 -1 1 -1 1 -1 1 -1 2 -1 2 -1 2 -1 2 -1 2 0 2 0 2 0 2 0 2 0 2 0 0 0zm36 36l-8 0 0 0 0 -1 0 -1 0 -1 0 -1 0 -1 0 -1 0 -1 0 -1 -1 -1 -1 -1 -1 -1 -1 -1 -1 -1 -1 -1 -1 -1 -1 -1 -1 -1 -1 -1 -1 -1 -1 -1 -1 -1 -1 -1 -1 -1 -1 -1 -1 0 -1 0 -1 0 -1 0 -1 0 -1 0 -1 0 -1 0 0 -8 2 0 2 0 2 0 2 0 2 0 2 0 2 1 2 1 2 1 2 1 1 1 1 1 1 1 1 1 1 1 1 1 1 1 1 1 1 1 1 1 1 1 1 1 1 2 1 2 1 2 1 2 0 2 0 2 0 2 0 2 0 2 0 2 0 0zm-36 36l0 -8 0 0 1 0 1 0 1 0 1 0 1 0 1 0 1 0 1 0 1 -1 1 -1 1 -1 1 -1 1 -1 1 -1 1 -1 1 -1 1 -1 1 -1 1 -1 1 -1 1 -1 1 -1 1 -1 1 -1 0 -1 0 -1 0 -1 0 -1 0 -1 0 -1 0 -1 0 -1 8 0 0 2 0 2 0 2 0 2 0 2 0 2 -1 2 -1 2 -1 2 -1 2 -1 1 -1 1 -1 1 -1 1 -1 1 -1 1 -1 1 -1 1 -1 1 -1 1 -1 1 -1 1 -2 1 -2 1 -2 1 -2 1 -2 0 -2 0 -2 0 -2 0 -2 0 -2 0 0 0z"/>
   </g>
   <path class="fil6" d="M3420 1767c-16,0 -29,-13 -29,-29 0,-16 13,-29 29,-29 16,0 29,13 29,29 0,16 -13,29 -29,29z"/>
   <path class="fil4" d="M3420 1749c-6,0 -12,-5 -12,-12 0,-6 5,-12 12,-12 6,0 12,5 12,12 0,6 -5,12 -12,12z"/>
   <path class="fil4" d="M3563 1833c-9,0 -16,-7 -16,-16 0,-9 7,-16 16,-16 9,0 16,7 16,16 0,9 -7,16 -16,16z"/>
   <path class="fil4" d="M3402 1916c-6,0 -12,-5 -12,-12 0,-6 5,-12 12,-12 6,0 12,5 12,12 0,6 -5,12 -12,12z"/>
   <path class="fil7" d="M1118 4233c195,0 352,23 352,51 0,28 -158,51 -352,51 -195,0 -352,-23 -352,-51 0,-28 158,-51 352,-51z"/>
   <path class="fil8" d="M1314 4065c-1,-1 -9,-8 -9,-9l1 -1c5,5 13,11 16,18 -7,-3 -3,-4 -8,-9zm-2 -14c-6,-3 -6,-4 -10,-8 6,2 8,2 10,8zm-124 -47c51,-21 48,65 28,76 -16,9 20,-20 6,-56 -14,-34 -48,-6 -71,4 -14,6 -31,6 -47,4 -37,-4 -41,18 -74,32 -64,28 -80,-33 -18,-48 20,-5 29,-2 48,3 73,17 77,6 129,-15zm16 -38c2,-4 1,3 1,2 0,0 0,0 0,0 0,0 -1,-1 -1,-1zm-164 -31c11,-31 66,0 89,7 12,4 15,0 21,-7 11,-14 27,-32 48,-23 5,2 6,3 7,8l-19 -5c1,5 21,22 12,44 -6,16 -25,15 -41,9 1,1 0,2 6,6 2,1 5,2 7,3 8,3 11,3 20,2 -9,6 -24,2 -34,-4 -5,-3 -8,-6 -11,-11 -3,-5 -3,-9 -8,-14 -4,8 -19,24 -25,29 -11,8 -29,11 -44,9 8,-4 22,-4 31,-8 10,-4 19,-10 22,-17 -19,4 -31,13 -55,7 -28,-8 -13,-37 -11,-43l-15 8zm111 25c-1,-3 -3,1 -3,1l3 -1zm-7 -40c-8,-3 1,-1 -7,-6 -4,-2 -7,-2 -11,-2 3,4 8,7 11,11 -7,4 -37,-30 -74,-25 -15,2 -27,11 -33,20 -9,15 -1,28 1,43 0,0 -1,-1 -1,-1 0,0 -1,-1 -2,-2l-6 -1 -3 14c-5,-4 -1,-6 -9,-1l-31 16c-23,11 -62,31 -69,58 -13,50 55,59 87,71 77,29 168,37 246,12 77,-24 140,-54 44,-115 -4,-3 -5,-3 -9,-6 -16,-12 -8,-4 -28,-21 -9,-8 -23,-22 -38,-28l-7 7c1,-12 21,-44 -4,-70 -8,-8 -24,-10 -36,-2 -9,6 -14,18 -21,26z"/>
   <path class="fil9" d="M964 4153c4,-1 3,-2 2,2l2 0c-1,-6 1,-1 -1,-5 5,2 4,3 9,4 -1,-1 -4,-3 -5,-4l7 -2c-8,-3 -4,1 -7,-4l12 0c-5,9 -1,6 -8,11 -2,2 -1,1 -3,3l4 1c-10,27 -13,-6 -15,41 0,4 -1,11 -2,14 -2,6 0,1 -3,4 0,0 -2,1 -2,2l-3 2c1,13 -1,24 0,37 1,13 4,24 7,32 -19,-11 -20,-63 -10,-72l-7 -5c0,-21 17,-34 16,-48 -1,-7 0,-11 5,-14zm309 8c6,13 3,2 12,27 3,9 10,18 12,27 1,7 0,29 -3,35 -4,9 -12,15 -22,18 2,-8 25,-28 18,-38 -4,-5 -6,0 -8,-23 -1,-11 -3,-17 -4,-28 -5,-4 -4,-1 -8,-5 -3,-2 -4,-6 -5,-8l9 -6zm-13 2c2,-8 1,-6 9,-9 -1,8 0,6 -9,9zm31 -22c10,-1 25,16 31,23 7,7 9,10 5,20 -6,17 5,33 -1,48 -3,7 -1,27 -14,40 -3,3 -13,10 -18,12 0,-1 22,-38 24,-47 1,-6 -2,-4 -3,-11 -2,-10 8,-31 6,-47 -11,-6 -26,-27 -31,-38zm-379 82c11,47 5,26 9,53 1,8 3,11 3,20 -19,-8 -25,-62 -18,-69l4 -3c-5,-5 -6,-5 -11,-10 -1,-20 16,-43 13,-58 -3,-14 10,-22 22,-26 14,-4 -4,0 7,-9l3 -2c4,-4 0,-2 7,-3l-6 7c0,0 0,1 0,1l-6 9c0,0 0,1 0,1 0,0 0,1 0,1 -7,17 -4,21 -14,24 -9,3 -6,-2 -7,10 0,6 -2,12 -2,19 0,7 1,12 2,19 1,9 0,8 -4,14l-1 2zm26 -91l-2 1c1,0 2,6 2,-1zm1 -7l2 -1c0,0 -2,1 -2,1zm437 107c-12,-18 20,-52 -3,-63 -12,-6 -18,-32 -48,-55l4 -4 15 12c4,3 10,7 15,10 46,35 23,16 26,41 1,11 12,49 9,56 -12,11 -7,-1 -14,20 -7,21 -19,50 -42,57 3,-6 9,-13 12,-17 9,-13 15,-21 19,-37 4,-14 1,-11 7,-17 0,0 1,0 1,-1 0,-1 1,-1 1,-1zm-528 -33c0,30 2,50 7,79 -20,-8 -27,-54 -20,-72 3,-9 0,-4 9,-6 -6,-8 -19,-6 5,-37l20 -28c4,-11 -8,-10 25,-20 22,-7 18,-13 25,-5 -1,3 -6,7 -9,9 -5,4 -7,5 -11,9 -23,23 -17,5 -26,15 0,0 -6,13 -6,14 -5,11 -3,23 -8,32l-10 11zm539 -252c1,-4 -17,-33 11,-45 7,8 5,26 16,29 14,4 24,-4 37,-6 -1,12 -10,26 -17,31 -10,8 -28,3 -38,-1 -9,28 -25,43 -56,50 -8,2 -41,6 -47,5 -6,-1 -25,-17 -31,-20 8,-6 21,-9 29,-16 8,-7 12,-18 21,-24 3,3 4,19 18,7 4,-3 11,-11 14,-15 3,5 3,8 9,9 6,1 9,-2 12,-4 17,-14 13,0 22,0zm-136 39c20,18 12,9 28,21 5,3 5,3 9,6 95,61 32,91 -44,115 -78,25 -170,17 -246,-12 -32,-12 -99,-22 -87,-71 7,-27 46,-47 69,-58l31 -16c8,-5 3,-3 9,1l3 -14 6 1c1,0 2,2 2,2 0,0 1,1 1,1 -1,-15 -10,-28 -1,-43 6,-9 18,-18 33,-20 37,-5 66,29 74,25 -3,-4 -8,-8 -11,-11 5,0 8,0 11,2 8,4 -2,3 7,6 7,-8 12,-20 21,-26 12,-7 28,-6 36,2 25,26 5,58 4,70l7 -7c15,6 28,19 38,28zm-46 -21c0,0 0,1 1,1 0,0 0,0 0,0 1,1 1,-5 -1,-2zm-220 13c-21,16 -62,16 -89,8 -12,-4 -26,-11 -34,-20 -17,-19 -8,-27 -13,-36 -8,4 0,5 -9,5 -21,0 -53,-23 -49,-57 8,2 12,14 19,20 4,4 17,12 23,13 8,-5 9,-14 15,-19 21,4 3,19 12,28 4,4 -2,0 2,1l18 1c1,-5 -2,-7 -3,-12 22,7 38,28 47,25 3,-6 -2,-6 -3,-15 19,7 20,25 30,32 16,11 5,-3 26,20 2,2 2,2 4,4l4 3zm506 -199c5,-20 -10,-53 4,-68 29,0 70,81 40,145 -16,34 -37,42 -68,59 -11,6 -5,7 -15,5 -12,-2 -24,13 -41,3 -4,-7 -5,-19 -8,-28 -6,-19 -28,-41 -18,-79 6,-23 41,-74 60,-76 -2,10 -19,28 -2,38 -5,6 -4,0 -5,10 4,4 5,3 9,6 -3,7 -9,10 -11,15 -2,6 -2,5 2,8 4,4 3,-1 7,5 -12,15 -17,20 -9,42 -11,10 -18,26 -20,44l4 -4c0,0 0,-1 1,-1 3,-6 7,-30 18,-34 9,-4 17,-1 23,-8 6,-8 0,-14 2,-24 6,-3 3,1 8,-3l0 -21c5,-3 4,-1 8,-5l-1 -25c5,-4 8,-2 13,-4zm-662 126c-15,-7 -15,-9 -24,-20 -5,-6 -5,-6 -7,-15 -5,-33 2,-60 16,-87 8,-15 25,-37 41,-46 27,-15 37,-12 68,-9 -3,11 -17,20 -25,28 -13,14 -15,11 -7,29 -3,5 -7,7 -9,12 -5,9 1,8 -1,18 -5,5 -11,6 -15,10 -7,7 -1,11 -1,19 -4,4 -8,5 -12,8 -2,8 3,7 -3,13 -5,5 -7,3 -8,11 7,-1 1,1 11,-8 15,-13 20,1 28,-24l17 -3 3 -19c11,-6 13,5 14,-14 1,-13 8,-8 18,-10 2,-15 -1,-13 8,-23 6,-7 8,-15 15,-14 8,20 -9,72 -21,90 -18,27 -28,25 -55,31 -18,4 -12,5 -19,8 -16,-19 -20,7 -30,14zm13 -27c3,0 -3,-8 -2,0 0,6 -3,0 2,0 0,0 0,0 0,0zm-57 -4l0 21c13,18 6,28 37,41 10,4 19,3 22,8 6,11 0,8 13,23 20,24 59,33 90,29 -8,10 -29,14 -39,40 -13,32 3,44 14,57 -9,5 -14,9 -27,13 -46,14 -16,6 -43,42 -38,50 -15,37 -20,53 -7,22 -9,45 7,68 8,12 28,31 21,4 -4,-15 -6,-31 -6,-46 0,-9 -2,-26 2,-32 4,-5 9,-2 12,-23 7,-41 16,-20 31,-38 10,-11 23,-23 44,-28 -6,16 -28,22 -36,37 -4,8 3,7 -4,30 -19,67 -4,36 -4,56 0,13 -3,18 0,34 4,20 13,43 32,42 0,-8 -4,-17 -5,-25 -1,-10 -1,-20 -3,-30 -1,-7 -5,-21 -5,-25 0,-7 1,-2 4,-10 3,-12 -5,-24 0,-44 4,-15 7,-4 14,-18 14,-29 8,-16 23,-40 8,0 16,2 22,6 -6,13 -26,28 -28,38 -4,13 5,3 -4,24 -25,55 -5,25 -8,47 -3,21 -5,51 13,67 21,18 7,-21 7,-21 -3,-12 -4,-31 -2,-44 1,-8 2,-6 5,-11 5,-9 3,-19 3,-29 1,-24 6,-3 20,-42 12,-32 21,-21 32,-17 34,11 71,16 108,17 67,2 84,-11 114,-12l18 33c4,7 9,10 11,14 9,17 2,32 10,43 5,6 7,7 1,17 -4,7 -20,24 -19,32 16,1 30,-11 36,-20 5,-8 4,-14 5,-24 1,-14 1,-13 -5,-25 -7,-12 -10,-29 -16,-41 -3,-6 -9,-12 -13,-16 -2,-3 -4,-4 -6,-7 -3,-3 -3,-5 -6,-9 15,-10 17,-3 26,10 4,5 7,9 11,14 9,13 14,19 23,29 -1,10 -2,22 -4,32 -4,18 5,11 -2,27 -4,7 -7,19 -10,25 -8,15 -14,13 -12,22 12,3 39,-17 41,-42 1,-10 -1,-6 3,-14 4,-9 1,-20 0,-30 -1,-11 3,-24 2,-30 -2,-7 -9,-17 -13,-21 -13,-12 -28,-19 -36,-35 15,-5 20,-19 50,14l25 34c4,7 4,6 9,8l3 1c3,20 1,22 -6,38 -5,12 0,11 -1,20 -1,11 -11,38 -20,49 -3,4 -7,9 -10,13 -4,5 -8,9 -5,16l11 0c16,-15 13,-4 32,-36 5,-8 6,-15 9,-25 5,-17 4,-9 14,-19 6,-11 -13,-53 -8,-68 4,-11 2,-10 -5,-16 -16,-14 -24,-17 -30,-22 -11,-9 -20,-17 -30,-24 3,-7 3,-3 8,-10 3,-3 4,-6 6,-11 7,-18 -4,-39 -16,-48 -6,-5 -14,-12 -21,-15 5,-4 4,-4 16,-4 24,-2 51,-7 68,-25 8,-9 8,-12 12,-25 15,0 31,15 49,-14 22,-34 -5,-14 36,-35 22,-11 45,-30 54,-52 3,-7 7,-20 10,-26l0 -56c-6,-12 -6,-35 -29,-61 -3,-3 -5,-4 -8,-7 -4,-3 -5,-3 -7,-7l-11 0c-13,19 -3,44 -5,69 -6,2 -14,-1 -15,9 0,4 2,16 2,22 -8,4 -10,1 -8,24 -2,2 -6,4 -8,5 -1,16 6,30 -17,26 -10,-26 10,-26 10,-44 -1,0 -4,-1 -5,-1 -5,-2 -3,-1 -5,-3 5,-8 10,-9 12,-19 -4,-4 -2,-3 -8,-5 2,-7 3,-5 4,-11 -5,-7 -10,-9 -4,-22 4,-8 9,-10 5,-21 -19,-6 -54,45 -63,63 -19,38 -5,69 12,99 -9,2 -13,7 -18,14 -7,11 -5,14 -3,26 -21,2 -11,7 -24,9 -3,-4 -2,-5 -6,-10 -15,1 -11,17 -25,19 0,0 0,-1 -1,-1l-3 -9c-17,-1 -28,37 -63,39 -7,-7 -12,-11 -19,-17 -12,-9 -19,-12 -21,-14 3,-12 6,-26 2,-38 -3,-8 -12,-23 -18,-26 -10,-6 -26,-5 -36,1 -10,6 -13,16 -20,24 -27,-13 -8,3 -37,-11 -50,-24 -93,1 -81,49 -8,9 -15,17 -27,22 -7,3 -12,-2 -16,-6 -24,-25 -19,-6 -38,-35 -5,-7 -16,-22 -27,-19 -3,6 -1,8 1,13 -14,-5 -28,-26 -49,-23l4 12 -11 0 3 -22c16,-8 46,-5 65,-27 21,-24 43,-96 26,-112 -10,1 -13,10 -19,16 -10,13 -8,4 -11,23 -18,5 -16,-1 -19,20l-11 2c-12,23 11,18 -22,24 -1,5 -3,16 -11,17 -9,1 -4,0 -6,-2 16,-10 15,-2 11,-24 4,-3 10,-7 14,-11 8,-7 2,-7 4,-17 1,-7 6,-10 9,-15 4,-6 -1,-10 -4,-14 7,-18 44,-38 36,-50 -13,-11 -47,-5 -62,1 -16,6 -32,19 -41,32 -23,31 -38,62 -32,113 -5,2 -5,1 -8,4z"/>
   <path class="fil8" d="M1490 3884c-3,5 -26,19 -30,22 4,-6 11,-11 17,-18 5,-6 10,-12 14,-20 -5,-2 -1,2 -4,-3 16,-3 23,-19 27,-32 8,-27 4,-27 2,-52l4 11c8,-5 7,-19 8,-31 6,16 7,45 5,63 -2,16 -9,26 -17,37 -4,5 -4,9 -10,5l0 0c5,8 2,3 0,4 1,3 1,2 -2,2l-2 0 -2 5 -3 -2 -1 0 1 4c-3,2 -27,31 -32,27 6,-4 21,-16 25,-23zm18 -115c1,2 1,2 2,4 -4,-1 -5,1 -2,-4zm-18 12c-5,2 -8,0 -13,4l1 25c-4,4 -3,2 -8,5l0 21c-5,4 -2,1 -8,3 -2,10 4,16 -2,24 -6,7 -14,4 -23,8 -10,5 -15,29 -18,34 0,0 0,1 -1,1l-4 4c1,-19 9,-35 20,-44 -7,-22 -3,-27 9,-42 -5,-6 -3,-1 -7,-5 -4,-3 -4,-2 -2,-8 2,-5 8,-9 11,-15 -3,-3 -5,-2 -9,-6 1,-9 0,-3 5,-10 -17,-9 -1,-27 2,-38 -19,2 -54,53 -60,76 -10,39 12,60 18,79 3,9 4,21 8,28 17,10 28,-5 41,-3 10,1 4,1 15,-5 31,-17 52,-25 68,-59 30,-64 -11,-146 -40,-145 -14,15 1,48 -4,68z"/>
   <path class="fil8" d="M838 3879c0,-8 5,0 2,0 0,0 0,0 0,0 -5,0 -2,6 -2,0zm27 -134l6 -1c-4,6 -13,4 -27,28 -5,8 -14,28 -16,38l-2 0 2 0c1,4 -6,11 -10,30l-6 32c0,0 0,1 -1,1 0,0 0,1 -1,1l-2 -12 0 6c-1,-9 -4,-19 -4,-28 0,-3 0,-7 3,-8l1 24 0 -23c-3,-7 0,-6 1,-14 -2,-32 18,-51 36,-66 2,-2 2,-2 5,-4l19 -13c0,0 1,0 1,-1 0,-2 2,0 3,1l-5 4c-2,2 -3,3 -4,4zm-37 161c10,-7 14,-33 30,-14 7,-3 2,-4 19,-8 27,-6 37,-4 55,-31 12,-18 29,-71 21,-90 -7,-1 -8,6 -15,14 -9,10 -6,8 -8,23 -10,2 -18,-3 -18,10 -1,18 -2,7 -14,14l-3 19 -17 3c-7,25 -13,11 -28,24 -10,9 -4,7 -11,8 1,-8 3,-6 8,-11 6,-6 1,-5 3,-13 3,-3 7,-4 12,-8 0,-8 -7,-12 1,-19 4,-4 10,-6 15,-10 2,-10 -4,-8 1,-18 3,-5 6,-7 9,-12 -8,-17 -6,-14 7,-29 7,-8 21,-18 25,-28 -31,-3 -41,-7 -68,9 -16,9 -32,30 -41,46 -15,27 -21,54 -16,87 1,9 2,9 7,15 9,11 9,14 24,20z"/>
   <path class="fil8" d="M934 3963c5,1 10,6 9,12 -5,-3 -15,-4 -9,-12zm-24 5c0,-3 1,-2 -2,-1l2 1 2 1 2 1 -2 -1c0,-3 1,-2 -2,-1zm-6 -2l1 0 5 -3 3 5c3,5 4,5 -1,11 -14,0 -21,-15 -4,-17l-4 4zm-22 -22c4,-1 10,-1 13,2 2,2 6,8 3,11 -4,4 -18,1 -16,-12zm-23 0l0 0c7,-3 10,2 9,9 -7,0 -13,-6 -10,-12 2,2 2,-1 1,2zm56 4l1 2 1 1c5,-6 3,3 3,3 -2,4 -5,3 -10,3 -2,-3 -3,-4 -4,-9 3,-5 0,-1 4,-5l7 3c0,8 0,1 -2,4l-1 -2 -1 -1 1 1zm-68 -16c5,9 -4,17 13,36 8,9 22,16 34,20 27,9 68,8 89,-8l-4 -3c-2,-2 -2,-2 -4,-4 -21,-22 -10,-8 -26,-20 -10,-7 -11,-25 -30,-32 1,10 6,9 3,15 -9,3 -25,-17 -47,-25 2,5 4,6 3,12l-18 -1c-4,0 1,3 -2,-1 -9,-9 9,-24 -12,-28 -6,6 -7,14 -15,19 -6,-1 -20,-9 -23,-13 -6,-6 -11,-18 -19,-20 -4,34 29,57 49,57 10,0 1,-1 9,-5z"/>
   <path class="fil8" d="M1324 3999c-1,-19 25,-19 40,-16l2 6c0,10 -26,19 -42,11zm-10 -13c4,-2 0,-3 3,0 -3,10 -8,16 -20,13 0,-7 -1,-11 2,-7l1 -1 -1 -4c4,-4 5,-5 13,-5 2,1 4,-1 0,2l1 1zm18 -18c3,-5 5,-7 13,-5 1,7 -4,9 -10,11 -2,-4 -2,-3 -4,-7zm42 -10c3,14 -14,20 -20,13 -6,-8 8,-16 20,-13zm13 -11c-9,0 -5,-14 -22,0 -3,2 -7,5 -12,4 -6,-1 -5,-4 -9,-9 -3,4 -10,12 -14,15 -14,12 -14,-4 -18,-7 -9,6 -13,17 -21,24 -8,7 -20,10 -29,16 5,3 25,19 31,20 6,1 39,-3 47,-5 31,-7 47,-22 56,-50 10,4 28,9 38,1 7,-5 16,-20 17,-31 -13,2 -23,11 -37,6 -11,-4 -9,-21 -16,-29 -28,11 -10,40 -11,45z"/>
   <path class="fil9" d="M988 4033l4 32c-24,-5 -12,-21 -4,-32zm5 -4c6,-2 12,-6 19,-7 3,20 3,21 9,38 -6,4 -13,5 -22,4 -6,-9 -8,-23 -7,-36zm44 -9c1,4 2,10 4,15 2,5 4,9 5,14 -7,2 -11,7 -18,9 -8,-8 -8,-10 -11,-24 -3,-16 3,-15 19,-14zm5 1l31 7 -5 5c-3,2 -4,3 -6,4 -4,2 -7,5 -12,7 -5,-7 -7,-11 -8,-22zm147 -17c-52,21 -56,32 -129,15 -19,-4 -28,-7 -48,-3 -62,15 -47,76 18,48 33,-14 37,-36 74,-32 16,2 33,2 47,-4 23,-10 58,-38 71,-4 14,36 -22,65 -6,56 20,-11 23,-97 -28,-76z"/>
   <path class="fil9" d="M1148 3962c0,0 2,-4 3,-1l-3 1zm-27 -7c-7,8 -31,12 -44,11 -17,-1 -29,-14 -19,-31 1,-3 0,-2 2,-2l0 -7c37,3 26,12 32,16 17,3 3,-7 19,0 4,2 6,2 10,4l8 4 -8 5zm60 -35c9,5 20,29 8,42 -5,5 -14,7 -24,4 -9,-3 -10,-7 -14,-14l-2 -5c7,-10 5,-4 16,-9 5,-5 -7,-5 12,-20l4 3zm-141 15l15 -8c-2,6 -18,36 11,43 23,6 35,-3 55,-7 -3,8 -12,13 -22,17 -10,4 -23,3 -31,8 15,2 33,-1 44,-9 7,-5 22,-21 25,-29 5,4 5,8 8,14 3,5 6,8 11,11 9,6 24,10 34,4 -9,1 -11,1 -20,-2 -2,-1 -5,-2 -7,-3 -6,-4 -5,-5 -6,-6 16,6 34,6 41,-9 9,-21 -11,-39 -12,-44l19 5c-1,-5 -2,-6 -7,-8 -21,-9 -37,9 -48,23 -6,7 -8,11 -21,7 -23,-7 -78,-37 -89,-7z"/>
   <path class="fil10" d="M857 4189c5,-9 4,-21 8,-32 0,-1 6,-14 6,-14 8,-10 2,8 26,-15 4,-4 6,-5 11,-9 3,-2 8,-6 9,-9 -7,-8 -3,-2 -25,5 -33,10 -21,9 -25,20l-20 28c-24,31 -12,29 -5,37 -9,3 -5,-2 -9,6 -7,18 0,64 20,72 -5,-28 -7,-49 -7,-79l10 -11z"/>
   <path class="fil10" d="M1323 4115c30,23 37,49 48,55 23,12 -9,46 3,63 0,0 -1,0 -1,1 0,1 -1,1 -1,1 -5,6 -2,3 -7,17 -5,16 -10,24 -19,37 -3,4 -9,12 -12,17 23,-7 35,-35 42,-57 7,-21 1,-9 14,-20 3,-7 -8,-45 -9,-56 -3,-24 21,-6 -26,-41 -5,-4 -12,-7 -15,-10l-15 -12 -4 4z"/>
   <path class="fil10" d="M937 4133c0,6 -1,0 -2,1l2 -1zm1 -7c0,0 1,-1 2,-1l-2 1zm-25 95c4,-6 5,-6 4,-14 -1,-7 -2,-12 -2,-19 0,-7 2,-13 2,-19 1,-12 -3,-7 7,-10 9,-3 7,-7 14,-24 0,0 0,-1 0,-1 0,0 0,-1 0,-1l6 -9c0,0 0,-1 0,-1l6 -7c-7,1 -3,-1 -7,3l-3 2c-11,9 7,5 -7,9 -11,3 -24,11 -22,26 3,15 -14,39 -13,58 5,5 6,6 11,10l-4 3c-7,7 0,61 18,69 0,-8 -2,-12 -3,-20 -4,-28 3,-7 -9,-53l1 -2z"/>
   <path class="fil10" d="M1291 4141c6,11 20,32 31,38 2,16 -8,38 -6,47 1,7 5,5 3,11 -2,9 -24,47 -24,47 5,-1 15,-9 18,-12 13,-13 11,-33 14,-40 6,-15 -5,-31 1,-48 3,-11 1,-13 -5,-20 -6,-7 -22,-24 -31,-23z"/>
   <path class="fil10" d="M973 4158c-7,-2 -4,-2 -5,-3l-2 0c-3,0 -2,1 -2,-2 -5,3 -6,7 -5,14 1,15 -16,27 -16,48l7 5c-11,8 -9,61 10,72 -3,-9 -6,-20 -7,-32 -1,-14 1,-25 0,-37l3 -2c0,0 2,-1 2,-2 3,-3 1,2 3,-4 1,-3 2,-10 2,-14 1,-47 5,-14 15,-41l-4 -1z"/>
   <path class="fil11" d="M1519 3792c7,21 -5,54 -15,66 1,3 -2,-2 2,3 0,0 1,1 1,1l-2 4c6,4 6,0 10,-5 8,-11 15,-21 17,-37 2,-18 1,-47 -5,-63 -1,13 0,27 -8,31zm-14 78l-2 2 -2 0 2 0c3,0 3,1 2,-2 2,-1 5,4 0,-4l0 4zm-14 -2c-4,8 -9,14 -14,20 -6,7 -12,12 -17,18 5,-3 27,-18 30,-22l6 -9 1 0c1,-1 3,-5 3,-5 1,-2 2,-3 2,-6l-11 4z"/>
   <path class="fil12" d="M1058 3936c-10,17 2,30 19,31 14,1 37,-3 44,-11l-61 -22c1,3 1,2 -2,2z"/>
   <path class="fil12" d="M1151 3953c4,7 6,12 14,14 9,3 18,1 24,-4 12,-13 2,-36 -8,-42 -1,2 -3,6 -3,7 -2,3 0,0 -3,3 -5,5 -10,20 -23,21z"/>
   <path class="fil10" d="M1297 4215c-1,-9 -8,-18 -12,-27 -10,-25 -6,-14 -12,-27l-9 6c2,2 3,6 5,8 4,4 4,1 8,5 1,11 4,17 4,28 1,23 4,18 8,23 7,10 -16,30 -18,38 10,-4 18,-9 22,-18 3,-6 4,-28 3,-35z"/>
   <path class="fil11" d="M809 3819c12,-7 0,-21 11,-20 6,1 0,0 4,2l3 2c4,-14 15,-36 24,-48 3,-4 9,-7 14,-10 1,-1 2,-3 4,-4l5 -4c-2,-1 -3,-3 -3,-1 0,0 -1,1 -1,1l-19 13c-2,2 -2,2 -5,4 -19,15 -39,34 -36,66z"/>
   <path class="fil13" d="M993 4029c-1,13 1,27 7,36 9,1 16,0 22,-4 -6,-17 -7,-18 -9,-38 -7,1 -14,4 -19,7z"/>
   <path class="fil13" d="M1028 4058c7,-2 11,-7 18,-9 -2,-6 -4,-9 -5,-14 -2,-5 -2,-11 -4,-15 -16,-1 -22,-2 -19,14 2,14 3,16 11,24z"/>
   <path class="fil9" d="M1078 3882c9,-1 16,-1 24,3 13,7 2,14 18,11 -5,-33 -33,-41 -41,-14z"/>
   <path class="fil11" d="M808 3833l0 23 0 7 2 12c0,0 1,-1 1,-1 0,0 0,-1 1,-1l6 -32c4,-18 11,-26 10,-30l-2 0c-2,-2 -2,-4 -3,-4 -4,-4 2,0 -5,-4 -1,4 0,14 -3,17 -2,3 -3,-2 -7,13z"/>
   <path class="fil14" d="M1060 3934c-3,-1 -2,-1 -2,2 4,0 4,1 2,-2l61 22 8 -5 -8 -4c-4,-1 -6,-2 -10,-4 -16,-7 -3,3 -19,0 -5,-3 5,-12 -32,-16l0 7z"/>
   <path class="fil9" d="M865 3746c-5,3 -11,6 -14,10 -9,12 -20,34 -24,48l-3 -2c-3,-2 3,-1 -4,-2 -12,-1 1,13 -11,20 -1,8 -4,6 -1,14 4,-15 5,-10 7,-13 3,-4 2,-13 3,-17 7,3 1,-1 5,4 0,0 1,2 3,4l2 0c2,-10 11,-30 16,-38 14,-24 24,-22 27,-28l-6 1zm-56 117l0 -7 -1 -24c-2,1 -3,5 -3,8 0,9 2,20 4,28l0 -6z"/>
   <path class="fil9" d="M1491 3868l11 -4c-1,3 -1,4 -2,6 0,0 -2,4 -3,5l3 2 2 -5 2 0 2 -2 0 -4 0 0 2 -4c0,0 -1,-1 -1,-1 -4,-5 -2,0 -2,-3 10,-12 22,-45 15,-66l-4 -11c2,25 7,25 -2,52 -4,13 -11,29 -27,32 3,4 -1,1 4,3zm-1 16c-4,7 -19,19 -25,23 5,3 29,-25 32,-27l-1 -4 -6 9z"/>
   <path class="fil9" d="M1144 3896c14,-4 2,-20 38,-25 -3,-9 2,-2 -7,-7 -4,-2 -4,-2 -8,-4 -8,5 -20,24 -23,37z"/>
   <path class="fil15" d="M1362 3988c-11,-9 -36,-2 -35,7 0,7 31,5 35,-7z"/>
   <path class="fil13" d="M1067 4033l5 -5 -31 -7c1,11 3,16 8,22 5,-2 8,-5 12,-7 3,-1 4,-2 6,-4z"/>
   <path class="fil14" d="M1151 3953c13,-1 19,-16 23,-21 3,-3 1,0 3,-3 1,-1 2,-5 3,-7l-4 -3c-19,15 -8,15 -12,20 -11,5 -9,-1 -16,9l2 5z"/>
   <path class="fil9" d="M1362 3988c-4,12 -35,13 -35,7 -1,-9 24,-16 35,-7zm-38 11c16,8 42,-1 42,-11l-2 -6c-15,-3 -41,-3 -40,16z"/>
   <path class="fil13" d="M988 4033c-8,11 -19,27 4,32l-4 -32z"/>
   <path class="fil9" d="M1357 3969c0,-5 0,-5 4,-7 4,-2 6,-2 11,-1 -1,9 -5,11 -15,8zm17 -10c-12,-3 -26,5 -20,13 6,7 22,1 20,-13z"/>
   <path class="fil9" d="M1299 3993c-4,-4 -2,0 -2,7 11,3 17,-4 20,-13 -3,-3 1,-2 -3,0 -2,7 -5,9 -13,10 -2,-2 -2,4 -1,-4zm1 -1c2,-6 1,-4 5,-7l7 0c4,-4 1,-1 0,-2 -9,0 -9,1 -13,5l1 4z"/>
   <path class="fil9" d="M897 3953c-8,0 -9,-1 -11,-7 5,-3 10,2 11,7zm2 2c3,-3 -1,-9 -3,-11 -3,-2 -9,-2 -13,-2 -3,13 12,16 16,12z"/>
   <path class="fil16" d="M968 4154c1,1 -2,1 5,3 2,-2 1,-1 3,-3 6,-5 3,-2 8,-11l-12 0c3,5 -2,2 7,4l-7 2c1,1 4,3 5,4 -6,-1 -4,-2 -9,-4 2,4 0,-1 1,5zm-2 0c1,-4 2,-3 -2,-2 0,3 -1,2 2,2z"/>
   <path class="fil15" d="M1300 3992l-1 1c-1,8 -1,2 1,4 8,-1 11,-3 13,-10l-1 -1 -7 0c-4,4 -3,2 -5,7z"/>
   <path class="fil9" d="M905 3966l4 -4c-17,1 -10,17 4,17 6,-6 5,-6 1,-11l-3 -5 -5 3 2 1c3,-1 2,-1 2,1 3,0 2,-1 2,1l2 1 1 5c-10,0 -10,0 -13,-7 1,-6 0,-1 3,-3z"/>
   <path class="fil15" d="M1357 3969c10,2 14,1 15,-8 -5,-1 -6,-1 -11,1 -4,2 -4,2 -4,7z"/>
   <path class="fil9" d="M914 3946l1 1 1 2c2,-3 2,4 2,-4l-7 -3c-5,3 -1,0 -4,5 1,4 2,6 4,9 4,0 8,2 10,-3 0,0 2,-9 -3,-3 -2,3 5,2 -6,3l-1 -4c1,-6 -1,-1 3,-3z"/>
   <path class="fil15" d="M914 3971l-2 -1 -2 -1 -2 -1 -2 -1 -1 0c-3,3 -2,-3 -3,3 3,7 3,6 13,7l-1 -5z"/>
   <path class="fil9" d="M1338 3964c8,-2 4,1 5,1 -1,1 0,3 -4,4 -7,1 -4,-1 -5,-2 1,-1 1,-2 4,-2zm-6 4c1,4 2,3 4,7 6,-2 11,-4 10,-11 -8,-3 -10,0 -13,5z"/>
   <path class="fil9" d="M860 3943c1,-3 2,-1 -1,-2 -4,6 3,12 10,12 1,-8 -1,-12 -9,-9 7,3 4,0 7,7 -5,-1 -8,-2 -7,-7z"/>
   <path class="fil15" d="M886 3947c2,6 3,6 11,7 -1,-5 -6,-10 -11,-7z"/>
   <path class="fil9" d="M940 3971c-6,-2 -4,0 -6,-6 7,2 4,-2 6,6zm3 3c1,-6 -3,-11 -9,-12 -7,8 3,9 9,12z"/>
   <path class="fil9" d="M1305 4057c0,1 8,7 9,9 5,5 2,6 8,9 -2,-8 -10,-14 -16,-18l-1 1z"/>
   <path class="fil10" d="M1260 4163c8,-2 7,0 9,-9 -8,3 -7,1 -9,9z"/>
   <path class="fil15" d="M1335 3967c1,1 -2,4 5,2 4,-1 3,-3 4,-4 -1,-1 3,-3 -5,-1 -2,0 -3,1 -4,2z"/>
   <path class="fil15" d="M919 3950l-1 -1 -1 -2 -1 -1c-4,2 -2,-3 -3,3l1 4c11,0 4,0 6,-3z"/>
   <path class="fil15" d="M861 3944l0 0c0,5 3,6 7,7 -3,-7 -1,-4 -7,-7z"/>
   <path class="fil15" d="M940 3971c-2,-8 0,-5 -6,-6 2,6 0,5 6,6z"/>
   <path class="fil9" d="M1312 4052c-2,-5 -4,-6 -10,-8 4,4 4,5 10,8z"/>
   <path class="fil16" d="M1510 3773c-1,-2 -2,-2 -2,-4 -2,5 -2,3 2,4z"/>
   <path class="fil7" d="M2011 4233c195,0 352,23 352,51 0,28 -158,51 -352,51 -195,0 -352,-23 -352,-51 0,-28 158,-51 352,-51z"/>
   <path class="fil7" d="M4576 4233c195,0 352,23 352,51 0,28 -158,51 -352,51 -195,0 -352,-23 -352,-51 0,-28 158,-51 352,-51z"/>
   <path class="fil8" d="M2248 4065c-1,-1 -9,-8 -9,-9l1 -1c5,5 13,11 16,18 -7,-3 -3,-4 -8,-9zm-2 -14c-6,-3 -6,-4 -10,-8 6,2 8,2 10,8zm-124 -47c51,-21 48,65 28,76 -16,9 20,-20 6,-56 -14,-34 -48,-6 -71,4 -14,6 -31,6 -47,4 -37,-4 -41,18 -74,32 -64,28 -80,-33 -18,-48 20,-5 29,-2 48,3 73,17 77,6 129,-15zm16 -38c2,-4 1,3 1,2 0,0 0,0 0,0 0,0 -1,-1 -1,-1zm-164 -31c11,-31 66,0 89,7 12,4 15,0 21,-7 11,-14 27,-32 48,-23 5,2 6,3 7,8l-19 -5c1,5 21,22 12,44 -6,16 -25,15 -41,9 1,1 0,2 6,6 2,1 5,2 7,3 8,3 11,3 20,2 -9,6 -24,2 -34,-4 -5,-3 -8,-6 -11,-11 -3,-5 -3,-9 -8,-14 -4,8 -19,24 -25,29 -11,8 -29,11 -44,9 8,-4 22,-4 31,-8 10,-4 19,-10 22,-17 -19,4 -31,13 -55,7 -28,-8 -13,-37 -11,-43l-15 8zm111 25c-1,-3 -3,1 -3,1l3 -1zm-7 -40c-8,-3 1,-1 -7,-6 -4,-2 -7,-2 -11,-2 3,4 8,7 11,11 -7,4 -37,-30 -74,-25 -15,2 -27,11 -33,20 -9,15 -1,28 1,43 0,0 -1,-1 -1,-1 0,0 -1,-1 -2,-2l-6 -1 -3 14c-5,-4 -1,-6 -9,-1l-31 16c-23,11 -62,31 -69,58 -13,50 55,59 87,71 77,29 168,37 246,12 77,-24 140,-54 44,-115 -4,-3 -5,-3 -9,-6 -16,-12 -8,-4 -28,-21 -9,-8 -23,-22 -38,-28l-7 7c1,-12 21,-44 -4,-70 -8,-8 -24,-10 -36,-2 -9,6 -14,18 -21,26z"/>
   <path class="fil9" d="M1897 4153c4,-1 3,-2 2,2l2 0c-1,-6 1,-1 -1,-5 5,2 4,3 9,4 -1,-1 -4,-3 -5,-4l7 -2c-8,-3 -4,1 -7,-4l12 0c-5,9 -1,6 -8,11 -2,2 -1,1 -3,3l4 1c-10,27 -13,-6 -15,41 0,4 -1,11 -2,14 -2,6 0,1 -3,4 0,0 -2,1 -2,2l-3 2c1,13 -1,24 0,37 1,13 4,24 7,32 -19,-11 -20,-63 -10,-72l-7 -5c0,-21 17,-34 16,-48 -1,-7 0,-11 5,-14zm309 8c6,13 3,2 12,27 3,9 10,18 12,27 1,7 0,29 -3,35 -4,9 -12,15 -22,18 2,-8 25,-28 18,-38 -4,-5 -6,0 -8,-23 -1,-11 -3,-17 -4,-28 -5,-4 -4,-1 -8,-5 -3,-2 -4,-6 -5,-8l9 -6zm-13 2c2,-8 1,-6 9,-9 -1,8 0,6 -9,9zm31 -22c10,-1 25,16 31,23 7,7 9,10 5,20 -6,17 5,33 -1,48 -3,7 -1,27 -14,40 -3,3 -13,10 -18,12 0,-1 22,-38 24,-47 1,-6 -2,-4 -3,-11 -2,-10 8,-31 6,-47 -11,-6 -26,-27 -31,-38zm-379 82c11,47 5,26 9,53 1,8 3,11 3,20 -19,-8 -25,-62 -18,-69l4 -3c-5,-5 -6,-5 -11,-10 -1,-20 16,-43 13,-58 -3,-14 10,-22 22,-26 14,-4 -4,0 7,-9l3 -2c4,-4 0,-2 7,-3l-6 7c0,0 0,1 0,1l-6 9c0,0 0,1 0,1 0,0 0,1 0,1 -7,17 -4,21 -14,24 -9,3 -6,-2 -7,10 0,6 -2,12 -2,19 0,7 1,12 2,19 1,9 0,8 -4,14l-1 2zm26 -91l-2 1c1,0 2,6 2,-1zm1 -7l2 -1c0,0 -2,1 -2,1zm437 107c-12,-18 20,-52 -3,-63 -12,-6 -18,-32 -48,-55l4 -4 15 12c4,3 10,7 15,10 46,35 23,16 26,41 1,11 12,49 9,56 -12,11 -7,-1 -14,20 -7,21 -19,50 -42,57 3,-6 9,-13 12,-17 9,-13 15,-21 19,-37 4,-14 1,-11 7,-17 0,0 1,0 1,-1 0,-1 1,-1 1,-1zm-528 -33c0,30 2,50 7,79 -20,-8 -27,-54 -20,-72 3,-9 0,-4 9,-6 -6,-8 -19,-6 5,-37l20 -28c4,-11 -8,-10 25,-20 22,-7 18,-13 25,-5 -1,3 -6,7 -9,9 -5,4 -7,5 -11,9 -23,23 -17,5 -26,15 0,0 -6,13 -6,14 -5,11 -3,23 -8,32l-10 11zm539 -252c1,-4 -17,-33 11,-45 7,8 5,26 16,29 14,4 24,-4 37,-6 -1,12 -10,26 -17,31 -10,8 -28,3 -38,-1 -9,28 -25,43 -56,50 -8,2 -41,6 -47,5 -6,-1 -25,-17 -31,-20 8,-6 21,-9 29,-16 8,-7 12,-18 21,-24 3,3 4,19 18,7 4,-3 11,-11 14,-15 3,5 3,8 9,9 6,1 9,-2 12,-4 17,-14 13,0 22,0zm-136 39c20,18 12,9 28,21 5,3 5,3 9,6 95,61 32,91 -44,115 -78,25 -170,17 -246,-12 -32,-12 -99,-22 -87,-71 7,-27 46,-47 69,-58l31 -16c8,-5 3,-3 9,1l3 -14 6 1c1,0 2,2 2,2 0,0 1,1 1,1 -1,-15 -10,-28 -1,-43 6,-9 18,-18 33,-20 37,-5 66,29 74,25 -3,-4 -8,-8 -11,-11 5,0 8,0 11,2 8,4 -2,3 7,6 7,-8 12,-20 21,-26 12,-7 28,-6 36,2 25,26 5,58 4,70l7 -7c15,6 28,19 38,28zm-46 -21c0,0 0,1 1,1 0,0 0,0 0,0 1,1 1,-5 -1,-2zm-220 13c-21,16 -62,16 -89,8 -12,-4 -26,-11 -34,-20 -17,-19 -8,-27 -13,-36 -8,4 0,5 -9,5 -21,0 -53,-23 -49,-57 8,2 12,14 19,20 4,4 17,12 23,13 8,-5 9,-14 15,-19 21,4 3,19 12,28 4,4 -2,0 2,1l18 1c1,-5 -2,-7 -3,-12 22,7 38,28 47,25 3,-6 -2,-6 -3,-15 19,7 20,25 30,32 16,11 5,-3 26,20 2,2 2,2 4,4l4 3zm506 -199c5,-20 -10,-53 4,-68 29,0 70,81 40,145 -16,34 -37,42 -68,59 -11,6 -5,7 -15,5 -12,-2 -24,13 -41,3 -4,-7 -5,-19 -8,-28 -6,-19 -28,-41 -18,-79 6,-23 41,-74 60,-76 -2,10 -19,28 -2,38 -5,6 -4,0 -5,10 4,4 5,3 9,6 -3,7 -9,10 -11,15 -2,6 -2,5 2,8 4,4 3,-1 7,5 -12,15 -17,20 -9,42 -11,10 -18,26 -20,44l4 -4c0,0 0,-1 1,-1 3,-6 7,-30 18,-34 9,-4 17,-1 23,-8 6,-8 0,-14 2,-24 6,-3 3,1 8,-3l0 -21c5,-3 4,-1 8,-5l-1 -25c5,-4 8,-2 13,-4zm-662 126c-15,-7 -15,-9 -24,-20 -5,-6 -5,-6 -7,-15 -5,-33 2,-60 16,-87 8,-15 25,-37 41,-46 27,-15 37,-12 68,-9 -3,11 -17,20 -25,28 -13,14 -15,11 -7,29 -3,5 -6,7 -9,12 -5,9 1,8 -1,18 -5,5 -11,6 -15,10 -7,7 -1,11 -1,19 -4,4 -8,5 -12,8 -2,8 3,7 -3,13 -5,5 -7,3 -8,11 7,-1 1,1 11,-8 15,-13 20,1 28,-24l17 -3 3 -19c11,-6 13,5 14,-14 1,-13 8,-8 18,-10 2,-15 -1,-13 8,-23 6,-7 8,-15 15,-14 8,20 -9,72 -21,90 -18,27 -28,25 -55,31 -18,4 -12,5 -19,8 -16,-19 -20,7 -30,14zm13 -27c3,0 -3,-8 -2,0 0,6 -3,0 2,0 0,0 0,0 0,0zm-57 -4l0 21c13,18 6,28 37,41 10,4 19,3 22,8 6,11 0,8 13,23 20,24 59,33 90,29 -8,10 -29,14 -39,40 -13,32 3,44 14,57 -9,5 -14,9 -27,13 -46,14 -16,6 -43,42 -38,50 -15,37 -20,53 -7,22 -9,45 7,68 8,12 28,31 21,4 -4,-15 -6,-31 -6,-46 0,-9 -2,-26 2,-32 4,-5 9,-2 12,-23 7,-41 16,-20 31,-38 10,-11 23,-23 44,-28 -6,16 -28,22 -36,37 -4,8 3,7 -4,30 -19,67 -4,36 -4,56 0,13 -3,18 0,34 4,20 13,43 32,42 0,-8 -4,-17 -5,-25 -1,-10 -1,-20 -3,-30 -1,-7 -5,-21 -5,-25 0,-7 1,-2 4,-10 3,-12 -5,-24 0,-44 4,-15 7,-4 14,-18 14,-29 8,-16 23,-40 8,0 16,2 22,6 -6,13 -26,28 -28,38 -4,13 5,3 -4,24 -25,55 -5,25 -8,47 -3,21 -5,51 13,67 21,18 7,-21 7,-21 -3,-12 -4,-31 -2,-44 1,-8 2,-6 5,-11 5,-9 3,-19 3,-29 1,-24 6,-3 20,-42 12,-32 21,-21 32,-17 34,11 71,16 108,17 67,2 84,-11 114,-12l18 33c4,7 9,10 11,14 9,17 2,32 10,43 5,6 7,7 1,17 -4,7 -20,24 -19,32 16,1 30,-11 36,-20 5,-8 4,-14 5,-24 1,-14 1,-13 -5,-25 -7,-12 -10,-29 -16,-41 -3,-6 -9,-12 -13,-16 -2,-3 -4,-4 -6,-7 -3,-3 -3,-5 -6,-9 15,-10 17,-3 26,10 4,5 7,9 11,14 9,13 14,19 23,29 -1,10 -2,22 -4,32 -4,18 5,11 -2,27 -4,7 -7,19 -10,25 -8,15 -14,13 -12,22 12,3 39,-17 41,-42 1,-10 -1,-6 3,-14 4,-9 1,-20 0,-30 -1,-11 3,-24 2,-30 -2,-7 -9,-17 -13,-21 -13,-12 -28,-19 -36,-35 15,-5 20,-19 50,14l25 34c4,7 4,6 9,8l3 1c3,20 1,22 -6,38 -5,12 0,11 -1,20 -1,11 -11,38 -20,49 -3,4 -7,9 -10,13 -4,5 -8,9 -5,16l11 0c16,-15 13,-4 32,-36 5,-8 6,-15 9,-25 5,-17 4,-9 14,-19 6,-11 -13,-53 -8,-68 4,-11 2,-10 -5,-16 -16,-14 -24,-17 -30,-22 -11,-9 -20,-17 -30,-24 3,-7 3,-3 8,-10 3,-3 4,-6 6,-11 7,-18 -4,-39 -16,-48 -6,-5 -14,-12 -21,-15 5,-4 4,-4 16,-4 24,-2 51,-7 68,-25 8,-9 8,-12 12,-25 15,0 31,15 49,-14 22,-34 -5,-14 36,-35 22,-11 45,-30 54,-52 3,-7 7,-20 10,-26l0 -56c-6,-12 -6,-35 -29,-61 -3,-3 -5,-4 -8,-7 -4,-3 -5,-3 -7,-7l-11 0c-13,19 -3,44 -5,69 -6,2 -14,-1 -15,9 0,4 2,16 2,22 -8,4 -10,1 -8,24 -2,2 -6,4 -8,5 -1,16 6,30 -17,26 -10,-26 10,-26 10,-44 -1,0 -4,-1 -5,-1 -5,-2 -3,-1 -5,-3 5,-8 10,-9 12,-19 -4,-4 -2,-3 -8,-5 2,-7 3,-5 4,-11 -5,-7 -10,-9 -4,-22 4,-8 9,-10 5,-21 -19,-6 -54,45 -63,63 -19,38 -5,69 12,99 -9,2 -13,7 -18,14 -7,11 -5,14 -3,26 -21,2 -11,7 -24,9 -3,-4 -2,-5 -6,-10 -15,1 -11,17 -25,19 0,0 0,-1 -1,-1l-3 -9c-17,-1 -28,37 -63,39 -7,-7 -12,-11 -19,-17 -12,-9 -19,-12 -21,-14 3,-12 6,-26 2,-38 -3,-8 -12,-23 -18,-26 -10,-6 -26,-5 -36,1 -10,6 -13,16 -20,24 -27,-13 -8,3 -37,-11 -50,-24 -93,1 -81,49 -8,9 -15,17 -27,22 -7,3 -12,-2 -16,-6 -24,-25 -19,-6 -38,-35 -5,-7 -16,-22 -27,-19 -3,6 -1,8 1,13 -14,-5 -28,-26 -49,-23l4 12 -11 0 3 -22c16,-8 46,-5 65,-27 21,-24 43,-96 26,-112 -10,1 -13,10 -19,16 -10,13 -8,4 -11,23 -18,5 -16,-1 -19,20l-11 2c-12,23 11,18 -22,24 -1,5 -3,16 -11,17 -9,1 -4,0 -6,-2 16,-10 15,-2 11,-24 4,-3 10,-7 14,-11 8,-7 2,-7 4,-17 1,-7 6,-10 9,-15 4,-6 -1,-10 -4,-14 7,-18 44,-38 36,-50 -13,-11 -47,-5 -62,1 -16,6 -32,19 -41,32 -23,31 -38,62 -32,113 -5,2 -5,1 -8,4z"/>
   <path class="fil8" d="M2423 3884c-3,5 -26,19 -30,22 4,-6 11,-11 17,-18 5,-6 10,-12 14,-20 -5,-2 -1,2 -4,-3 16,-3 23,-19 27,-32 8,-27 4,-27 2,-52l4 11c8,-5 7,-19 8,-31 6,16 7,45 5,63 -2,16 -9,26 -17,37 -4,5 -4,9 -10,5l0 0c5,8 2,3 0,4 1,3 1,2 -2,2l-2 0 -2 5 -3 -2 -1 0 1 4c-3,2 -27,31 -32,27 6,-4 21,-16 25,-23zm18 -115c1,2 1,2 2,4 -4,-1 -5,1 -2,-4zm-18 12c-5,2 -8,0 -13,4l1 25c-4,4 -3,2 -8,5l0 21c-5,4 -2,1 -8,3 -2,10 4,16 -2,24 -6,7 -14,4 -23,8 -10,5 -15,29 -18,34 0,0 0,1 -1,1l-4 4c1,-19 9,-35 20,-44 -7,-22 -3,-27 9,-42 -5,-6 -3,-1 -7,-5 -4,-3 -4,-2 -2,-8 2,-5 8,-9 11,-15 -3,-3 -5,-2 -9,-6 1,-9 0,-3 5,-10 -17,-9 -1,-27 2,-38 -19,2 -54,53 -60,76 -10,39 12,60 18,79 3,9 4,21 8,28 17,10 28,-5 41,-3 10,1 4,1 15,-5 31,-17 52,-25 68,-59 30,-64 -11,-146 -40,-145 -14,15 1,48 -4,68z"/>
   <path class="fil8" d="M1772 3879c0,-8 5,0 2,0 0,0 0,0 0,0 -5,0 -2,6 -2,0zm27 -134l6 -1c-4,6 -13,4 -27,28 -5,8 -14,28 -16,38l-2 0 2 0c1,4 -6,11 -10,30l-6 32c0,0 0,1 -1,1 0,0 0,1 -1,1l-2 -12 0 6c-1,-9 -4,-19 -4,-28 0,-3 0,-7 3,-8l1 24 0 -23c-3,-7 0,-6 1,-14 -2,-32 18,-51 36,-66 2,-2 2,-2 5,-4l19 -13c0,0 1,0 1,-1 0,-2 2,0 3,1l-5 4c-2,2 -3,3 -4,4zm-37 161c10,-7 14,-33 30,-14 7,-3 2,-4 19,-8 27,-6 37,-4 55,-31 12,-18 29,-71 21,-90 -7,-1 -8,6 -15,14 -9,10 -6,8 -8,23 -10,2 -18,-3 -18,10 -1,18 -2,7 -14,14l-3 19 -17 3c-7,25 -13,11 -28,24 -10,9 -4,7 -11,8 1,-8 3,-6 8,-11 6,-6 1,-5 3,-13 3,-3 7,-4 12,-8 0,-8 -7,-12 1,-19 4,-4 10,-6 15,-10 2,-10 -4,-8 1,-18 3,-5 6,-7 9,-12 -8,-17 -6,-14 7,-29 7,-8 21,-18 25,-28 -31,-3 -41,-7 -68,9 -16,9 -32,30 -41,46 -15,27 -21,54 -16,87 1,9 2,9 7,15 9,11 9,14 24,20z"/>
   <path class="fil8" d="M1868 3963c5,1 10,6 9,12 -5,-3 -15,-4 -9,-12zm-24 5c0,-3 1,-2 -2,-1l2 1 2 1 2 1 -2 -1c0,-3 1,-2 -2,-1zm-6 -2l1 0 5 -3 3 5c3,5 4,5 -1,11 -14,0 -21,-15 -4,-17l-4 4zm-22 -22c4,-1 10,-1 13,2 2,2 6,8 3,11 -4,4 -18,1 -16,-12zm-23 0l0 0c7,-3 10,2 9,9 -7,0 -13,-6 -10,-12 2,2 2,-1 1,2zm56 4l1 2 1 1c5,-6 3,3 3,3 -2,4 -5,3 -10,3 -2,-3 -3,-4 -4,-9 3,-5 0,-1 4,-5l7 3c0,8 0,1 -2,4l-1 -2 -1 -1 1 1zm-68 -16c5,9 -4,17 13,36 8,9 22,16 34,20 27,9 68,8 89,-8l-4 -3c-2,-2 -2,-2 -4,-4 -21,-22 -10,-8 -26,-20 -10,-7 -11,-25 -30,-32 1,10 6,9 3,15 -9,3 -25,-17 -47,-25 2,5 4,6 3,12l-18 -1c-4,0 1,3 -2,-1 -9,-9 9,-24 -12,-28 -6,6 -7,14 -15,19 -6,-1 -20,-9 -23,-13 -6,-6 -11,-18 -19,-20 -4,34 29,57 49,57 10,0 1,-1 9,-5z"/>
   <path class="fil8" d="M2257 3999c-1,-19 25,-19 40,-16l2 6c0,10 -26,19 -42,11zm-10 -13c4,-2 0,-3 3,0 -3,10 -8,16 -20,13 0,-7 -1,-11 2,-7l1 -1 -1 -4c4,-4 5,-5 13,-5 2,1 4,-1 0,2l1 1zm18 -18c3,-5 5,-7 13,-5 1,7 -4,9 -10,11 -2,-4 -2,-3 -4,-7zm42 -10c3,14 -14,20 -20,13 -6,-8 8,-16 20,-13zm13 -11c-9,0 -5,-14 -22,0 -3,2 -7,5 -12,4 -6,-1 -5,-4 -9,-9 -3,4 -10,12 -14,15 -14,12 -14,-4 -18,-7 -9,6 -13,17 -21,24 -8,7 -20,10 -29,16 5,3 25,19 31,20 6,1 39,-3 47,-5 31,-7 47,-22 56,-50 10,4 28,9 38,1 7,-5 16,-20 17,-31 -13,2 -23,11 -37,6 -11,-4 -9,-21 -16,-29 -28,11 -10,40 -11,45z"/>
   <path class="fil9" d="M1921 4033l4 32c-24,-5 -12,-21 -4,-32zm5 -4c6,-2 12,-6 19,-7 3,20 3,21 9,38 -6,4 -13,5 -22,4 -6,-9 -8,-23 -7,-36zm44 -9c1,4 2,10 4,15 2,5 4,9 5,14 -7,2 -11,7 -18,9 -8,-8 -8,-10 -11,-24 -3,-16 3,-15 19,-14zm5 1l31 7 -5 5c-3,2 -4,3 -6,4 -4,2 -7,5 -12,7 -5,-7 -7,-11 -8,-22zm147 -17c-52,21 -56,32 -129,15 -19,-4 -28,-7 -48,-3 -62,15 -47,76 18,48 33,-14 37,-36 74,-32 16,2 33,2 47,-4 23,-10 58,-38 71,-4 14,36 -22,65 -6,56 20,-11 23,-97 -28,-76z"/>
   <path class="fil9" d="M2081 3962c0,0 2,-4 3,-1l-3 1zm-27 -7c-7,8 -31,12 -44,11 -17,-1 -29,-14 -19,-31 1,-3 0,-2 2,-2l0 -7c37,3 26,12 32,16 17,3 3,-7 19,0 4,2 6,2 10,4l8 4 -8 5zm60 -35c9,5 20,29 8,42 -5,5 -14,7 -24,4 -9,-3 -10,-7 -14,-14l-3 -5c7,-10 5,-4 16,-9 5,-5 -7,-5 12,-20l4 3zm-141 15l15 -8c-2,6 -18,36 11,43 23,6 35,-3 55,-7 -3,8 -12,13 -22,17 -10,4 -23,3 -31,8 15,2 33,-1 44,-9 7,-5 22,-21 25,-29 5,4 5,8 8,14 3,5 6,8 11,11 9,6 24,10 34,4 -9,1 -11,1 -20,-2 -2,-1 -5,-2 -7,-3 -6,-4 -5,-5 -6,-6 16,6 34,6 41,-9 9,-21 -11,-39 -12,-44l19 5c-1,-5 -2,-6 -7,-8 -21,-9 -37,9 -48,23 -6,7 -8,11 -21,7 -23,-7 -78,-37 -89,-7z"/>
   <path class="fil10" d="M1791 4189c5,-9 4,-21 8,-32 0,-1 6,-14 6,-14 8,-10 2,8 26,-15 4,-4 6,-5 11,-9 3,-2 8,-6 9,-9 -7,-8 -3,-2 -25,5 -33,10 -21,9 -25,20l-20 28c-24,31 -12,29 -5,37 -9,3 -5,-2 -9,6 -7,18 0,64 20,72 -5,-28 -7,-49 -7,-79l10 -11z"/>
   <path class="fil10" d="M2256 4115c30,23 37,49 48,55 23,12 -9,46 3,63 0,0 -1,0 -1,1 0,1 -1,1 -1,1 -5,6 -2,3 -7,17 -5,16 -10,24 -19,37 -3,4 -9,12 -12,17 23,-7 35,-35 42,-57 7,-21 1,-9 14,-20 3,-7 -8,-45 -9,-56 -3,-24 21,-6 -26,-41 -5,-4 -12,-7 -15,-10l-15 -12 -4 4z"/>
   <path class="fil10" d="M1871 4133c0,6 -1,0 -2,1l2 -1zm1 -7c0,0 1,-1 2,-1l-2 1zm-25 95c4,-6 5,-6 4,-14 -1,-7 -2,-12 -2,-19 0,-7 2,-13 2,-19 1,-12 -3,-7 7,-10 9,-3 7,-7 14,-24 0,0 0,-1 0,-1 0,0 0,-1 0,-1l6 -9c0,0 0,-1 0,-1l6 -7c-7,1 -3,-1 -7,3l-3 2c-11,9 7,5 -7,9 -11,3 -24,11 -22,26 3,15 -14,39 -13,58 5,5 6,6 11,10l-4 3c-7,7 0,61 18,69 0,-8 -2,-12 -3,-20 -4,-28 3,-7 -9,-53l1 -2z"/>
   <path class="fil10" d="M2224 4141c6,11 20,32 31,38 2,16 -8,38 -6,47 1,7 5,5 3,11 -2,9 -24,47 -24,47 5,-1 15,-9 18,-12 13,-13 11,-33 14,-40 6,-15 -5,-31 1,-48 3,-11 1,-13 -5,-20 -6,-7 -22,-24 -31,-23z"/>
   <path class="fil10" d="M1906 4158c-7,-2 -4,-2 -5,-3l-2 0c-3,0 -2,1 -2,-2 -5,3 -6,7 -5,14 1,15 -16,27 -16,48l7 5c-11,8 -9,61 10,72 -3,-9 -6,-20 -7,-32 -1,-14 1,-25 0,-37l3 -2c0,0 2,-1 2,-2 3,-3 1,2 3,-4 1,-3 2,-10 2,-14 1,-47 5,-14 15,-41l-4 -1z"/>
   <path class="fil11" d="M2452 3792c7,21 -5,54 -15,66 1,3 -2,-2 2,3 0,0 1,1 1,1l-2 4c6,4 6,0 10,-5 8,-11 15,-21 17,-37 2,-18 1,-47 -5,-63 -1,13 0,27 -8,31zm-14 78l-2 2 -2 0 2 0c3,0 3,1 2,-2 2,-1 5,4 0,-4l0 4zm-14 -2c-4,8 -9,14 -14,20 -6,7 -12,12 -17,18 5,-3 27,-18 30,-22l6 -9 1 0c1,-1 3,-5 3,-5 1,-2 2,-3 2,-6l-11 4z"/>
   <path class="fil12" d="M1992 3936c-10,17 2,30 19,31 14,1 37,-3 44,-11l-61 -22c1,3 1,2 -2,2z"/>
   <path class="fil12" d="M2084 3953c4,7 6,12 14,14 9,3 18,1 24,-4 12,-13 2,-36 -8,-42 -1,2 -3,6 -3,7 -2,3 0,0 -3,3 -5,5 -10,20 -23,21z"/>
   <path class="fil10" d="M2230 4215c-1,-9 -8,-18 -12,-27 -10,-25 -6,-14 -12,-27l-9 6c2,2 3,6 5,8 4,4 4,1 8,5 1,11 4,17 4,28 1,23 4,18 8,23 7,10 -16,30 -18,38 10,-4 18,-9 22,-18 3,-6 4,-28 3,-35z"/>
   <path class="fil11" d="M1743 3819c12,-7 0,-21 11,-20 6,1 0,0 4,2l3 2c4,-14 15,-36 24,-48 3,-4 9,-7 14,-10 1,-1 2,-3 4,-4l5 -4c-1,-1 -3,-3 -3,-1 0,0 -1,1 -1,1l-19 13c-2,2 -2,2 -5,4 -19,15 -39,34 -36,66z"/>
   <path class="fil13" d="M1926 4029c-1,13 1,27 7,36 9,1 16,0 22,-4 -6,-17 -7,-18 -9,-38 -7,1 -14,4 -19,7z"/>
   <path class="fil13" d="M1961 4058c7,-2 11,-7 18,-9 -2,-6 -4,-9 -5,-14 -2,-5 -2,-11 -4,-15 -16,-1 -22,-2 -19,14 2,14 3,16 11,24z"/>
   <path class="fil9" d="M2011 3882c9,-1 16,-1 24,3 13,7 2,14 18,11 -5,-33 -33,-41 -41,-14z"/>
   <path class="fil11" d="M1742 3833l0 23 0 7 2 12c0,0 1,-1 1,-1 0,0 0,-1 1,-1l6 -32c4,-18 11,-26 10,-30l-2 0c-2,-2 -2,-4 -3,-4 -4,-4 2,0 -5,-4 -1,4 0,14 -3,17 -2,3 -3,-2 -7,13z"/>
   <path class="fil14" d="M1994 3934c-3,-1 -2,-1 -2,2 4,0 4,1 2,-2l61 22 8 -5 -8 -4c-4,-1 -6,-2 -10,-4 -16,-7 -3,3 -19,0 -5,-3 5,-12 -32,-16l0 7z"/>
   <path class="fil9" d="M1799 3746c-5,3 -11,6 -14,10 -9,12 -20,34 -24,48l-3 -2c-3,-2 3,-1 -4,-2 -12,-1 1,13 -11,20 -1,8 -4,6 -1,14 4,-15 5,-10 7,-13 3,-4 2,-13 3,-17 7,3 1,-1 5,4 0,0 1,2 3,4l2 0c2,-10 11,-30 16,-38 14,-24 24,-22 27,-28l-6 1zm-56 117l0 -7 -1 -24c-2,1 -3,5 -3,8 0,9 2,20 4,28l0 -6z"/>
   <path class="fil9" d="M2424 3868l11 -4c-1,3 -1,4 -2,6 0,0 -2,4 -3,5l3 2 2 -5 2 0 2 -2 0 -4 0 0 2 -4c0,0 -1,-1 -1,-1 -4,-5 -2,0 -2,-3 10,-12 22,-45 15,-66l-4 -11c2,25 7,25 -2,52 -4,13 -11,29 -27,32 3,4 -1,1 4,3zm-1 16c-4,7 -19,19 -25,23 5,3 29,-25 32,-27l-1 -4 -6 9z"/>
   <path class="fil9" d="M2077 3896c14,-4 2,-20 38,-25 -3,-9 2,-2 -7,-7 -4,-2 -4,-2 -8,-4 -8,5 -20,24 -23,37z"/>
   <path class="fil15" d="M2296 3988c-11,-9 -36,-2 -35,7 0,7 31,5 35,-7z"/>
   <path class="fil13" d="M2001 4033l5 -5 -31 -7c1,11 3,16 8,22 5,-2 8,-5 12,-7 3,-1 4,-2 6,-4z"/>
   <path class="fil14" d="M2084 3953c13,-1 19,-16 23,-21 3,-3 1,0 3,-3 1,-1 2,-5 3,-7l-4 -3c-19,15 -8,15 -12,20 -11,5 -9,-1 -16,9l3 5z"/>
   <path class="fil9" d="M2296 3988c-4,12 -35,13 -35,7 -1,-9 24,-16 35,-7zm-38 11c16,8 42,-1 42,-11l-2 -6c-15,-3 -41,-3 -40,16z"/>
   <path class="fil13" d="M1921 4033c-8,11 -19,27 4,32l-4 -32z"/>
   <path class="fil9" d="M2290 3969c0,-5 0,-5 4,-7 4,-2 6,-2 11,-1 -1,9 -5,11 -15,8zm17 -10c-12,-3 -26,5 -20,13 6,7 22,1 20,-13z"/>
   <path class="fil9" d="M2233 3993c-4,-4 -2,0 -2,7 11,3 17,-4 20,-13 -3,-3 1,-2 -3,0 -2,7 -5,9 -13,10 -2,-2 -2,4 -1,-4zm1 -1c2,-6 1,-4 5,-7l7 0c4,-4 1,-1 0,-2 -9,0 -9,1 -13,5l1 4z"/>
   <path class="fil9" d="M1830 3953c-8,0 -9,-1 -11,-7 5,-3 10,2 11,7zm2 2c3,-3 -1,-9 -3,-11 -3,-2 -9,-2 -13,-2 -3,13 12,16 16,12z"/>
   <path class="fil16" d="M1901 4154c1,1 -2,1 5,3 2,-2 1,-1 3,-3 6,-5 3,-2 8,-11l-12 0c3,5 -2,2 7,4l-7 2c1,1 4,3 5,4 -6,-1 -4,-2 -9,-4 2,4 0,-1 1,5zm-2 0c1,-4 2,-3 -2,-2 0,3 -1,2 2,2z"/>
   <path class="fil15" d="M2233 3992l-1 1c-1,8 -1,2 1,4 8,-1 11,-3 13,-10l-1 -1 -7 0c-4,4 -3,2 -5,7z"/>
   <path class="fil9" d="M1838 3966l4 -4c-17,1 -10,17 4,17 6,-6 5,-6 1,-11l-3 -5 -5 3 2 1c3,-1 2,-1 2,1 3,0 2,-1 2,1l2 1 1 5c-10,0 -10,0 -13,-7 1,-6 0,-1 3,-3z"/>
   <path class="fil15" d="M2290 3969c10,2 14,1 15,-8 -5,-1 -6,-1 -11,1 -4,2 -4,2 -4,7z"/>
   <path class="fil9" d="M1848 3946l1 1 1 2c2,-3 2,4 2,-4l-7 -3c-5,3 -1,0 -4,5 1,4 2,6 4,9 4,0 8,2 10,-3 0,0 2,-9 -3,-3 -2,3 5,2 -6,3l-1 -4c1,-6 -1,-1 3,-3z"/>
   <path class="fil15" d="M1847 3971l-2 -1 -2 -1 -2 -1 -2 -1 -1 0c-3,3 -2,-3 -3,3 3,7 3,6 13,7l-1 -5z"/>
   <path class="fil9" d="M2272 3964c8,-2 4,1 5,1 -1,1 0,3 -4,4 -7,1 -4,-1 -5,-2 1,-1 1,-2 4,-2zm-6 4c1,4 2,3 4,7 6,-2 11,-4 10,-11 -8,-3 -10,0 -13,5z"/>
   <path class="fil9" d="M1794 3943c1,-3 2,-1 -1,-2 -4,6 3,12 10,12 1,-8 -1,-12 -9,-9 7,3 4,0 7,7 -5,-1 -8,-2 -7,-7z"/>
   <path class="fil15" d="M1819 3947c2,6 3,6 11,7 -1,-5 -6,-10 -11,-7z"/>
   <path class="fil9" d="M1873 3971c-6,-2 -4,0 -6,-6 7,2 4,-2 6,6zm3 3c1,-6 -3,-11 -9,-12 -7,8 3,9 9,12z"/>
   <path class="fil9" d="M2239 4057c0,1 8,7 9,9 5,5 2,6 8,9 -2,-8 -10,-14 -16,-18l-1 1z"/>
   <path class="fil10" d="M2194 4163c8,-2 7,0 9,-9 -8,3 -7,1 -9,9z"/>
   <path class="fil15" d="M2268 3967c1,1 -2,4 5,2 4,-1 3,-3 4,-4 -1,-1 3,-3 -5,-1 -2,0 -3,1 -4,2z"/>
   <path class="fil15" d="M1852 3950l-1 -1 -1 -2 -1 -1c-4,2 -2,-3 -3,3l1 4c11,0 4,0 6,-3z"/>
   <path class="fil15" d="M1794 3944l0 0c0,5 3,6 7,7 -3,-7 -1,-4 -7,-7z"/>
   <path class="fil15" d="M1873 3971c-2,-8 0,-5 -6,-6 2,6 0,5 6,6z"/>
   <path class="fil9" d="M2246 4052c-2,-5 -4,-6 -10,-8 4,4 4,5 10,8z"/>
   <path class="fil16" d="M2444 3773c-1,-2 -2,-2 -2,-4 -2,5 -2,3 2,4z"/>
   <path class="fil8" d="M4802 4065c-1,-1 -9,-8 -9,-9l1 -1c5,5 13,11 16,18 -7,-3 -3,-4 -8,-9zm-2 -14c-6,-3 -6,-4 -10,-8 6,2 8,2 10,8zm-124 -47c51,-21 48,65 28,76 -16,9 20,-20 6,-56 -14,-34 -48,-6 -71,4 -14,6 -31,6 -47,4 -37,-4 -41,18 -74,32 -64,28 -80,-33 -18,-48 20,-5 29,-2 48,3 73,17 77,6 129,-15zm16 -38c2,-4 1,3 1,2 0,0 0,0 0,0 0,0 -1,-1 -1,-1zm-164 -31c11,-31 66,0 89,7 12,4 15,0 21,-7 11,-14 27,-32 48,-23 5,2 6,3 7,8l-19 -5c1,5 21,22 12,44 -6,16 -25,15 -41,9 1,1 0,2 6,6 2,1 5,2 7,3 8,3 11,3 20,2 -9,6 -24,2 -34,-4 -5,-3 -8,-6 -11,-11 -3,-5 -3,-9 -8,-14 -4,8 -19,24 -25,29 -11,8 -29,11 -44,9 8,-4 22,-4 31,-8 10,-4 19,-10 22,-17 -19,4 -31,13 -55,7 -28,-8 -13,-37 -11,-43l-15 8zm111 25c-1,-3 -3,1 -3,1l3 -1zm-7 -40c-8,-3 1,-1 -7,-6 -4,-2 -7,-2 -11,-2 3,4 8,7 11,11 -7,4 -37,-30 -74,-25 -15,2 -27,11 -33,20 -9,15 -1,28 1,43 0,0 -1,-1 -1,-1 0,0 -1,-1 -2,-2l-6 -1 -3 14c-5,-4 -1,-6 -9,-1l-31 16c-23,11 -62,31 -69,58 -13,50 55,59 87,71 77,29 168,37 246,12 77,-24 140,-54 44,-115 -4,-3 -5,-3 -9,-6 -16,-12 -8,-4 -28,-21 -9,-8 -23,-22 -38,-28l-7 7c1,-12 21,-44 -4,-70 -8,-8 -24,-10 -36,-2 -9,6 -14,18 -21,26z"/>
   <path class="fil9" d="M4452 4153c4,-1 3,-2 2,2l2 0c-1,-6 1,-1 -1,-5 5,2 4,3 9,4 -1,-1 -4,-3 -5,-4l7 -2c-8,-3 -4,1 -7,-4l12 0c-5,9 -1,6 -8,11 -2,2 -1,1 -3,3l4 1c-10,27 -13,-6 -15,41 0,4 -1,11 -2,14 -2,6 0,1 -3,4 0,0 -2,1 -2,2l-3 2c1,13 -1,24 0,37 1,13 4,24 7,32 -19,-11 -20,-63 -10,-72l-7 -5c0,-21 17,-34 16,-48 -1,-7 0,-11 5,-14zm309 8c6,13 3,2 12,27 3,9 10,18 12,27 1,7 0,29 -3,35 -4,9 -12,15 -22,18 2,-8 25,-28 18,-38 -4,-5 -6,0 -8,-23 -1,-11 -3,-17 -4,-28 -5,-4 -4,-1 -8,-5 -3,-2 -4,-6 -5,-8l9 -6zm-13 2c2,-8 1,-6 9,-9 -1,8 0,6 -9,9zm31 -22c10,-1 25,16 31,23 7,7 9,10 5,20 -6,17 5,33 -1,48 -3,7 -1,27 -14,40 -3,3 -13,10 -18,12 0,-1 22,-38 24,-47 1,-6 -2,-4 -3,-11 -2,-10 8,-31 6,-47 -11,-6 -26,-27 -31,-38zm-379 82c11,47 5,26 9,53 1,8 3,11 3,20 -19,-8 -25,-62 -18,-69l4 -3c-5,-5 -6,-5 -11,-10 -1,-20 16,-43 13,-58 -3,-14 10,-22 22,-26 14,-4 -4,0 7,-9l3 -2c4,-4 0,-2 7,-3l-6 7c0,0 0,1 0,1l-6 9c0,0 0,1 0,1 0,0 0,1 0,1 -7,17 -4,21 -14,24 -9,3 -6,-2 -7,10 0,6 -2,12 -2,19 0,7 1,12 2,19 1,9 0,8 -4,14l-1 2zm26 -91l-2 1c1,0 2,6 2,-1zm1 -7l2 -1c0,0 -2,1 -2,1zm437 107c-12,-18 20,-52 -3,-63 -12,-6 -18,-32 -48,-55l4 -4 15 12c4,3 10,7 15,10 46,35 23,16 26,41 1,11 12,49 9,56 -12,11 -7,-1 -14,20 -7,21 -19,50 -42,57 3,-6 9,-13 12,-17 9,-13 15,-21 19,-37 4,-14 1,-11 7,-17 0,0 1,0 1,-1 0,-1 1,-1 1,-1zm-528 -33c0,30 2,50 7,79 -20,-8 -27,-54 -20,-72 3,-9 0,-4 9,-6 -6,-8 -19,-6 5,-37l20 -28c4,-11 -8,-10 25,-20 22,-7 18,-13 25,-5 -1,3 -6,7 -9,9 -5,4 -7,5 -11,9 -23,23 -17,5 -26,15 0,0 -6,13 -6,14 -5,11 -3,23 -8,32l-10 11zm539 -252c1,-4 -17,-33 11,-45 7,8 5,26 16,29 14,4 24,-4 37,-6 -1,12 -10,26 -17,31 -10,8 -28,3 -38,-1 -9,28 -25,43 -56,50 -8,2 -41,6 -47,5 -6,-1 -25,-17 -31,-20 8,-6 21,-9 29,-16 8,-7 12,-18 21,-24 3,3 4,19 18,7 4,-3 11,-11 14,-15 3,5 3,8 9,9 6,1 9,-2 12,-4 17,-14 13,0 22,0zm-136 39c20,18 12,9 28,21 5,3 5,3 9,6 95,61 32,91 -44,115 -78,25 -170,17 -246,-12 -32,-12 -99,-22 -87,-71 7,-27 46,-47 69,-58l31 -16c8,-5 3,-3 9,1l3 -14 6 1c1,0 2,2 2,2 0,0 1,1 1,1 -1,-15 -10,-28 -1,-43 6,-9 18,-18 33,-20 37,-5 66,29 74,25 -3,-4 -8,-8 -11,-11 5,0 8,0 11,2 8,4 -2,3 7,6 7,-8 12,-20 21,-26 12,-7 28,-6 36,2 25,26 5,58 4,70l7 -7c15,6 28,19 38,28zm-46 -21c0,0 0,1 1,1 0,0 0,0 0,0 1,1 1,-5 -1,-2zm-220 13c-21,16 -62,16 -89,8 -12,-4 -26,-11 -34,-20 -17,-19 -8,-27 -13,-36 -8,4 0,5 -9,5 -21,0 -53,-23 -49,-57 8,2 12,14 19,20 4,4 17,12 23,13 8,-5 9,-14 15,-19 21,4 3,19 12,28 4,4 -2,0 2,1l18 1c1,-5 -2,-7 -3,-12 22,7 38,28 47,25 3,-6 -2,-6 -3,-15 19,7 20,25 30,32 16,11 5,-3 26,20 2,2 2,2 4,4l4 3zm506 -199c5,-20 -10,-53 4,-68 29,0 70,81 40,145 -16,34 -37,42 -68,59 -11,6 -5,7 -15,5 -12,-2 -24,13 -41,3 -4,-7 -5,-19 -8,-28 -6,-19 -28,-41 -18,-79 6,-23 41,-74 60,-76 -2,10 -19,28 -2,38 -5,6 -4,0 -5,10 4,4 5,3 9,6 -3,7 -9,10 -11,15 -2,6 -2,5 2,8 4,4 3,-1 7,5 -12,15 -17,20 -9,42 -11,10 -18,26 -20,44l4 -4c0,0 0,-1 1,-1 3,-6 7,-30 18,-34 9,-4 17,-1 23,-8 6,-8 0,-14 2,-24 6,-3 3,1 8,-3l0 -21c5,-3 4,-1 8,-5l-1 -25c5,-4 8,-2 13,-4zm-662 126c-15,-7 -15,-9 -24,-20 -5,-6 -5,-6 -7,-15 -5,-33 2,-60 16,-87 8,-15 25,-37 41,-46 27,-15 37,-12 68,-9 -3,11 -17,20 -25,28 -13,14 -15,11 -7,29 -3,5 -7,7 -9,12 -5,9 1,8 -1,18 -5,5 -11,6 -15,10 -7,7 -1,11 -1,19 -4,4 -8,5 -12,8 -2,8 3,7 -3,13 -5,5 -7,3 -8,11 7,-1 1,1 11,-8 15,-13 20,1 28,-24l17 -3 3 -19c11,-6 13,5 14,-14 1,-13 8,-8 18,-10 2,-15 -1,-13 8,-23 6,-7 8,-15 15,-14 8,20 -9,72 -21,90 -18,27 -28,25 -55,31 -18,4 -12,5 -19,8 -16,-19 -20,7 -30,14zm13 -27c3,0 -3,-8 -2,0 0,6 -3,0 2,0 0,0 0,0 0,0zm-57 -4l0 21c13,18 6,28 37,41 10,4 19,3 22,8 6,11 0,8 13,23 20,24 59,33 90,29 -8,10 -29,14 -39,40 -13,32 3,44 14,57 -9,5 -14,9 -27,13 -46,14 -16,6 -43,42 -38,50 -15,37 -20,53 -7,22 -9,45 7,68 8,12 28,31 21,4 -4,-15 -6,-31 -6,-46 0,-9 -2,-26 2,-32 4,-5 9,-2 12,-23 7,-41 16,-20 31,-38 10,-11 23,-23 44,-28 -6,16 -28,22 -36,37 -4,8 3,7 -4,30 -19,67 -4,36 -4,56 0,13 -3,18 0,34 4,20 13,43 32,42 0,-8 -4,-17 -5,-25 -1,-10 -1,-20 -3,-30 -1,-7 -5,-21 -5,-25 0,-7 1,-2 4,-10 3,-12 -5,-24 0,-44 4,-15 7,-4 14,-18 14,-29 8,-16 23,-40 8,0 16,2 22,6 -6,13 -26,28 -28,38 -4,13 5,3 -4,24 -25,55 -5,25 -8,47 -3,21 -5,51 13,67 21,18 7,-21 7,-21 -3,-12 -4,-31 -2,-44 1,-8 2,-6 5,-11 5,-9 3,-19 3,-29 1,-24 6,-3 20,-42 12,-32 21,-21 32,-17 34,11 71,16 108,17 67,2 84,-11 114,-12l18 33c4,7 9,10 11,14 9,17 2,32 10,43 5,6 7,7 1,17 -4,7 -20,24 -19,32 16,1 30,-11 36,-20 5,-8 4,-14 5,-24 1,-14 1,-13 -5,-25 -7,-12 -10,-29 -16,-41 -3,-6 -9,-12 -13,-16 -2,-3 -4,-4 -6,-7 -3,-3 -3,-5 -6,-9 15,-10 17,-3 26,10 4,5 7,9 11,14 9,13 14,19 23,29 -1,10 -2,22 -4,32 -4,18 5,11 -2,27 -4,7 -7,19 -10,25 -8,15 -14,13 -12,22 12,3 39,-17 41,-42 1,-10 -1,-6 3,-14 4,-9 1,-20 0,-30 -1,-11 3,-24 2,-30 -2,-7 -9,-17 -13,-21 -13,-12 -28,-19 -36,-35 15,-5 20,-19 50,14l25 34c4,7 4,6 9,8l3 1c3,20 1,22 -6,38 -5,12 0,11 -1,20 -1,11 -11,38 -20,49 -3,4 -7,9 -10,13 -4,5 -8,9 -5,16l11 0c16,-15 13,-4 32,-36 5,-8 6,-15 9,-25 5,-17 4,-9 14,-19 6,-11 -13,-53 -8,-68 4,-11 2,-10 -5,-16 -16,-14 -24,-17 -30,-22 -11,-9 -20,-17 -30,-24 3,-7 3,-3 8,-10 3,-3 4,-6 6,-11 7,-18 -4,-39 -16,-48 -6,-5 -14,-12 -21,-15 5,-4 4,-4 16,-4 24,-2 51,-7 68,-25 8,-9 8,-12 12,-25 15,0 31,15 49,-14 22,-34 -5,-14 36,-35 22,-11 45,-30 54,-52 3,-7 7,-20 10,-26l0 -56c-6,-12 -6,-35 -29,-61 -3,-3 -5,-4 -8,-7 -4,-3 -5,-3 -7,-7l-11 0c-13,19 -3,44 -5,69 -6,2 -14,-1 -15,9 0,4 2,16 2,22 -8,4 -10,1 -8,24 -2,2 -6,4 -8,5 -1,16 6,30 -17,26 -10,-26 10,-26 10,-44 -1,0 -4,-1 -5,-1 -5,-2 -3,-1 -5,-3 5,-8 10,-9 12,-19 -4,-4 -2,-3 -8,-5 2,-7 3,-5 4,-11 -5,-7 -10,-9 -4,-22 4,-8 9,-10 5,-21 -19,-6 -54,45 -63,63 -19,38 -5,69 12,99 -9,2 -13,7 -18,14 -7,11 -5,14 -3,26 -21,2 -11,7 -24,9 -3,-4 -2,-5 -6,-10 -15,1 -11,17 -25,19 0,0 0,-1 -1,-1l-3 -9c-17,-1 -28,37 -63,39 -7,-7 -12,-11 -19,-17 -12,-9 -19,-12 -21,-14 3,-12 6,-26 2,-38 -3,-8 -12,-23 -18,-26 -10,-6 -26,-5 -36,1 -10,6 -13,16 -20,24 -27,-13 -8,3 -37,-11 -50,-24 -93,1 -81,49 -8,9 -15,17 -27,22 -7,3 -12,-2 -16,-6 -24,-25 -19,-6 -38,-35 -5,-7 -16,-22 -27,-19 -3,6 -1,8 1,13 -14,-5 -28,-26 -49,-23l4 12 -11 0 3 -22c16,-8 46,-5 65,-27 21,-24 43,-96 26,-112 -10,1 -13,10 -19,16 -10,13 -8,4 -11,23 -18,5 -16,-1 -19,20l-11 2c-12,23 11,18 -22,24 -1,5 -3,16 -11,17 -9,1 -4,0 -6,-2 16,-10 15,-2 11,-24 4,-3 10,-7 14,-11 8,-7 2,-7 4,-17 1,-7 6,-10 9,-15 4,-6 -1,-10 -4,-14 7,-18 44,-38 36,-50 -13,-11 -47,-5 -62,1 -16,6 -32,19 -41,32 -23,31 -38,62 -32,113 -5,2 -5,1 -8,4z"/>
   <path class="fil8" d="M4978 3884c-3,5 -26,19 -30,22 4,-6 11,-11 17,-18 5,-6 10,-12 14,-20 -5,-2 -1,2 -4,-3 16,-3 23,-19 27,-32 8,-27 4,-27 2,-52l4 11c8,-5 7,-19 8,-31 6,16 7,45 5,63 -2,16 -9,26 -17,37 -4,5 -4,9 -10,5l0 0c5,8 2,3 0,4 1,3 1,2 -2,2l-2 0 -2 5 -3 -2 -1 0 1 4c-3,2 -27,31 -32,27 6,-4 21,-16 25,-23zm18 -115c1,2 1,2 2,4 -4,-1 -5,1 -2,-4zm-18 12c-5,2 -8,0 -13,4l1 25c-4,4 -3,2 -8,5l0 21c-5,4 -2,1 -8,3 -2,10 4,16 -2,24 -6,7 -14,4 -23,8 -10,5 -15,29 -18,34 0,0 0,1 -1,1l-4 4c1,-19 9,-35 20,-44 -7,-22 -3,-27 9,-42 -5,-6 -3,-1 -7,-5 -4,-3 -4,-2 -2,-8 2,-5 8,-9 11,-15 -3,-3 -5,-2 -9,-6 1,-9 0,-3 5,-10 -17,-9 -1,-27 2,-38 -19,2 -54,53 -60,76 -10,39 12,60 18,79 3,9 4,21 8,28 17,10 28,-5 41,-3 10,1 4,1 15,-5 31,-17 52,-25 68,-59 30,-64 -11,-146 -40,-145 -14,15 1,48 -4,68z"/>
   <path class="fil8" d="M4326 3879c0,-8 5,0 2,0 0,0 0,0 0,0 -5,0 -2,6 -2,0zm27 -134l6 -1c-4,6 -13,4 -27,28 -5,8 -14,28 -16,38l-2 0 2 0c1,4 -6,11 -10,30l-6 32c0,0 0,1 -1,1 0,0 0,1 -1,1l-2 -12 0 6c-1,-9 -4,-19 -4,-28 0,-3 0,-7 3,-8l1 24 0 -23c-3,-7 0,-6 1,-14 -2,-32 18,-51 36,-66 2,-2 2,-2 5,-4l19 -13c0,0 1,0 1,-1 0,-2 2,0 3,1l-5 4c-2,2 -3,3 -4,4zm-37 161c10,-7 14,-33 30,-14 7,-3 2,-4 19,-8 27,-6 37,-4 55,-31 12,-18 29,-71 21,-90 -7,-1 -8,6 -15,14 -9,10 -6,8 -8,23 -10,2 -18,-3 -18,10 -1,18 -2,7 -14,14l-3 19 -17 3c-7,25 -13,11 -28,24 -10,9 -4,7 -11,8 1,-8 3,-6 8,-11 6,-6 1,-5 3,-13 3,-3 7,-4 12,-8 0,-8 -7,-12 1,-19 4,-4 10,-6 15,-10 2,-10 -4,-8 1,-18 3,-5 6,-7 9,-12 -8,-17 -6,-14 7,-29 7,-8 21,-18 25,-28 -31,-3 -41,-7 -68,9 -16,9 -32,30 -41,46 -15,27 -21,54 -16,87 1,9 2,9 7,15 9,11 9,14 24,20z"/>
   <path class="fil8" d="M4422 3963c5,1 10,6 9,12 -5,-3 -15,-4 -9,-12zm-24 5c0,-3 1,-2 -2,-1l2 1 2 1 2 1 -2 -1c0,-3 1,-2 -2,-1zm-6 -2l1 0 5 -3 3 5c3,5 4,5 -1,11 -14,0 -21,-15 -4,-17l-4 4zm-22 -22c4,-1 10,-1 13,2 2,2 6,8 3,11 -4,4 -18,1 -16,-12zm-23 0l0 0c7,-3 10,2 9,9 -7,0 -13,-6 -10,-12 2,2 2,-1 1,2zm56 4l1 2 1 1c5,-6 3,3 3,3 -2,4 -5,3 -10,3 -2,-3 -3,-4 -4,-9 3,-5 0,-1 4,-5l7 3c0,8 0,1 -2,4l-1 -2 -1 -1 1 1zm-68 -16c5,9 -4,17 13,36 8,9 22,16 34,20 27,9 68,8 89,-8l-4 -3c-2,-2 -2,-2 -4,-4 -21,-22 -10,-8 -26,-20 -10,-7 -11,-25 -30,-32 1,10 6,9 3,15 -9,3 -25,-17 -47,-25 2,5 4,6 3,12l-18 -1c-4,0 1,3 -2,-1 -9,-9 9,-24 -12,-28 -6,6 -7,14 -15,19 -6,-1 -20,-9 -23,-13 -6,-6 -11,-18 -19,-20 -4,34 29,57 49,57 10,0 1,-1 9,-5z"/>
   <path class="fil8" d="M4812 3999c-1,-19 25,-19 40,-16l2 6c0,10 -26,19 -42,11zm-10 -13c4,-2 0,-3 3,0 -3,10 -8,16 -20,13 0,-7 -1,-11 2,-7l1 -1 -1 -4c4,-4 5,-5 13,-5 2,1 4,-1 0,2l1 1zm18 -18c3,-5 5,-7 13,-5 1,7 -4,9 -10,11 -2,-4 -2,-3 -4,-7zm42 -10c3,14 -14,20 -20,13 -6,-8 8,-16 20,-13zm13 -11c-9,0 -5,-14 -22,0 -3,2 -7,5 -12,4 -6,-1 -5,-4 -9,-9 -3,4 -10,12 -14,15 -14,12 -14,-4 -18,-7 -9,6 -13,17 -21,24 -8,7 -20,10 -29,16 5,3 25,19 31,20 6,1 39,-3 47,-5 31,-7 47,-22 56,-50 10,4 28,9 38,1 7,-5 16,-20 17,-31 -13,2 -23,11 -37,6 -11,-4 -9,-21 -16,-29 -28,11 -10,40 -11,45z"/>
   <path class="fil9" d="M4475 4033l4 32c-24,-5 -12,-21 -4,-32zm5 -4c6,-2 12,-6 19,-7 3,20 3,21 9,38 -6,4 -13,5 -22,4 -6,-9 -8,-23 -7,-36zm44 -9c1,4 2,10 4,15 2,5 4,9 5,14 -7,2 -11,7 -18,9 -8,-8 -8,-10 -11,-24 -3,-16 3,-15 19,-14zm5 1l31 7 -5 5c-3,2 -4,3 -6,4 -4,2 -7,5 -12,7 -5,-7 -7,-11 -8,-22zm147 -17c-52,21 -56,32 -129,15 -19,-4 -28,-7 -48,-3 -62,15 -47,76 18,48 33,-14 37,-36 74,-32 16,2 33,2 47,-4 23,-10 58,-38 71,-4 14,36 -22,65 -6,56 20,-11 23,-97 -28,-76z"/>
   <path class="fil9" d="M4636 3962c0,0 2,-4 3,-1l-3 1zm-27 -7c-7,8 -31,12 -44,11 -17,-1 -29,-14 -19,-31 1,-3 0,-2 2,-2l0 -7c37,3 26,12 32,16 17,3 3,-7 19,0 4,2 6,2 10,4l8 4 -8 5zm60 -35c9,5 20,29 8,42 -5,5 -14,7 -24,4 -9,-3 -10,-7 -14,-14l-2 -5c7,-10 5,-4 16,-9 5,-5 -7,-5 12,-20l4 3zm-141 15l15 -8c-2,6 -18,36 11,43 23,6 35,-3 55,-7 -3,8 -12,13 -22,17 -10,4 -23,3 -31,8 15,2 33,-1 44,-9 7,-5 22,-21 25,-29 5,4 5,8 8,14 3,5 6,8 11,11 9,6 24,10 34,4 -9,1 -11,1 -20,-2 -2,-1 -5,-2 -7,-3 -6,-4 -5,-5 -6,-6 16,6 34,6 41,-9 9,-21 -11,-39 -12,-44l19 5c-1,-5 -2,-6 -7,-8 -21,-9 -37,9 -48,23 -6,7 -8,11 -21,7 -23,-7 -78,-37 -89,-7z"/>
   <path class="fil10" d="M4345 4189c5,-9 4,-21 8,-32 0,-1 6,-14 6,-14 8,-10 2,8 26,-15 4,-4 6,-5 11,-9 3,-2 8,-6 9,-9 -7,-8 -3,-2 -25,5 -33,10 -21,9 -25,20l-20 28c-24,31 -12,29 -5,37 -9,3 -5,-2 -9,6 -7,18 0,64 20,72 -5,-28 -7,-49 -7,-79l10 -11z"/>
   <path class="fil10" d="M4811 4115c30,23 37,49 48,55 23,12 -9,46 3,63 0,0 -1,0 -1,1 0,1 -1,1 -1,1 -5,6 -2,3 -7,17 -5,16 -10,24 -19,37 -3,4 -9,12 -12,17 23,-7 35,-35 42,-57 7,-21 1,-9 14,-20 3,-7 -8,-45 -9,-56 -3,-24 21,-6 -26,-41 -5,-4 -12,-7 -15,-10l-15 -12 -4 4z"/>
   <path class="fil10" d="M4425 4133c0,6 -1,0 -2,1l2 -1zm1 -7c0,0 1,-1 2,-1l-2 1zm-25 95c4,-6 5,-6 4,-14 -1,-7 -2,-12 -2,-19 0,-7 2,-13 2,-19 1,-12 -3,-7 7,-10 9,-3 7,-7 14,-24 0,0 0,-1 0,-1 0,0 0,-1 0,-1l6 -9c0,0 0,-1 0,-1l6 -7c-7,1 -3,-1 -7,3l-3 2c-11,9 7,5 -7,9 -11,3 -24,11 -22,26 3,15 -14,39 -13,58 5,5 6,6 11,10l-4 3c-7,7 0,61 18,69 0,-8 -2,-12 -3,-20 -4,-28 3,-7 -9,-53l1 -2z"/>
   <path class="fil10" d="M4779 4141c6,11 20,32 31,38 2,16 -8,38 -6,47 1,7 5,5 3,11 -2,9 -24,47 -24,47 5,-1 15,-9 18,-12 13,-13 11,-33 14,-40 6,-15 -5,-31 1,-48 3,-11 1,-13 -5,-20 -6,-7 -22,-24 -31,-23z"/>
   <path class="fil10" d="M4461 4158c-7,-2 -4,-2 -5,-3l-2 0c-3,0 -2,1 -2,-2 -5,3 -6,7 -5,14 1,15 -16,27 -16,48l7 5c-11,8 -9,61 10,72 -3,-9 -6,-20 -7,-32 -1,-14 1,-25 0,-37l3 -2c0,0 2,-1 2,-2 3,-3 1,2 3,-4 1,-3 2,-10 2,-14 1,-47 5,-14 15,-41l-4 -1z"/>
   <path class="fil11" d="M5006 3792c7,21 -5,54 -15,66 1,3 -2,-2 2,3 0,0 1,1 1,1l-2 4c6,4 6,0 10,-5 8,-11 15,-21 17,-37 2,-18 1,-47 -5,-63 -1,13 0,27 -8,31zm-14 78l-2 2 -2 0 2 0c3,0 3,1 2,-2 2,-1 5,4 0,-4l0 4zm-14 -2c-4,8 -9,14 -14,20 -6,7 -12,12 -17,18 5,-3 27,-18 30,-22l6 -9 1 0c1,-1 3,-5 3,-5 1,-2 2,-3 2,-6l-11 4z"/>
   <path class="fil12" d="M4546 3936c-10,17 2,30 19,31 14,1 37,-3 44,-11l-61 -22c1,3 1,2 -2,2z"/>
   <path class="fil12" d="M4639 3953c4,7 6,12 14,14 9,3 18,1 24,-4 12,-13 2,-36 -8,-42 -1,2 -3,6 -3,7 -2,3 0,0 -3,3 -5,5 -10,20 -23,21z"/>
   <path class="fil10" d="M4785 4215c-1,-9 -8,-18 -12,-27 -10,-25 -6,-14 -12,-27l-9 6c2,2 3,6 5,8 4,4 4,1 8,5 1,11 4,17 4,28 1,23 4,18 8,23 7,10 -16,30 -18,38 10,-4 18,-9 22,-18 3,-6 4,-28 3,-35z"/>
   <path class="fil11" d="M4297 3819c12,-7 0,-21 11,-20 6,1 0,0 4,2l3 2c4,-14 15,-36 24,-48 3,-4 9,-7 14,-10 1,-1 2,-3 4,-4l5 -4c-2,-1 -3,-3 -3,-1 0,0 -1,1 -1,1l-19 13c-2,2 -2,2 -5,4 -19,15 -39,34 -36,66z"/>
   <path class="fil13" d="M4480 4029c-1,13 1,27 7,36 9,1 16,0 22,-4 -6,-17 -7,-18 -9,-38 -7,1 -14,4 -19,7z"/>
   <path class="fil13" d="M4516 4058c7,-2 11,-7 18,-9 -2,-6 -4,-9 -5,-14 -2,-5 -2,-11 -4,-15 -16,-1 -22,-2 -19,14 2,14 3,16 11,24z"/>
   <path class="fil9" d="M4566 3882c9,-1 16,-1 24,3 13,7 2,14 18,11 -5,-33 -33,-41 -41,-14z"/>
   <path class="fil11" d="M4296 3833l0 23 0 7 2 12c0,0 1,-1 1,-1 0,0 0,-1 1,-1l6 -32c4,-18 11,-26 10,-30l-2 0c-2,-2 -2,-4 -3,-4 -4,-4 2,0 -5,-4 -1,4 0,14 -3,17 -2,3 -3,-2 -7,13z"/>
   <path class="fil14" d="M4548 3934c-3,-1 -2,-1 -2,2 4,0 4,1 2,-2l61 22 8 -5 -8 -4c-4,-1 -6,-2 -10,-4 -16,-7 -3,3 -19,0 -5,-3 5,-12 -32,-16l0 7z"/>
   <path class="fil9" d="M4353 3746c-5,3 -11,6 -14,10 -9,12 -20,34 -24,48l-3 -2c-3,-2 3,-1 -4,-2 -12,-1 1,13 -11,20 -1,8 -4,6 -1,14 4,-15 5,-10 7,-13 3,-4 2,-13 3,-17 7,3 1,-1 5,4 0,0 1,2 3,4l2 0c2,-10 11,-30 16,-38 14,-24 24,-22 27,-28l-6 1zm-56 117l0 -7 -1 -24c-2,1 -3,5 -3,8 0,9 2,20 4,28l0 -6z"/>
   <path class="fil9" d="M4978 3868l11 -4c-1,3 -1,4 -2,6 0,0 -2,4 -3,5l3 2 2 -5 2 0 2 -2 0 -4 0 0 2 -4c0,0 -1,-1 -1,-1 -4,-5 -2,0 -2,-3 10,-12 22,-45 15,-66l-4 -11c2,25 7,25 -2,52 -4,13 -11,29 -27,32 3,4 -1,1 4,3zm-1 16c-4,7 -19,19 -25,23 5,3 29,-25 32,-27l-1 -4 -6 9z"/>
   <path class="fil9" d="M4631 3896c14,-4 2,-20 38,-25 -3,-9 2,-2 -7,-7 -4,-2 -4,-2 -8,-4 -8,5 -20,24 -23,37z"/>
   <path class="fil15" d="M4850 3988c-11,-9 -36,-2 -35,7 0,7 31,5 35,-7z"/>
   <path class="fil13" d="M4555 4033l5 -5 -31 -7c1,11 3,16 8,22 5,-2 8,-5 12,-7 3,-1 4,-2 6,-4z"/>
   <path class="fil14" d="M4639 3953c13,-1 19,-16 23,-21 3,-3 1,0 3,-3 1,-1 2,-5 3,-7l-4 -3c-19,15 -8,15 -12,20 -11,5 -9,-1 -16,9l2 5z"/>
   <path class="fil9" d="M4850 3988c-4,12 -35,13 -35,7 -1,-9 24,-16 35,-7zm-38 11c16,8 42,-1 42,-11l-2 -6c-15,-3 -41,-3 -40,16z"/>
   <path class="fil13" d="M4475 4033c-8,11 -19,27 4,32l-4 -32z"/>
   <path class="fil9" d="M4845 3969c0,-5 0,-5 4,-7 4,-2 6,-2 11,-1 -1,9 -5,11 -15,8zm17 -10c-12,-3 -26,5 -20,13 6,7 22,1 20,-13z"/>
   <path class="fil9" d="M4787 3993c-4,-4 -2,0 -2,7 11,3 17,-4 20,-13 -3,-3 1,-2 -3,0 -2,7 -5,9 -13,10 -2,-2 -2,4 -1,-4zm1 -1c2,-6 1,-4 5,-7l7 0c4,-4 1,-1 0,-2 -9,0 -9,1 -13,5l1 4z"/>
   <path class="fil9" d="M4385 3953c-8,0 -9,-1 -11,-7 5,-3 10,2 11,7zm2 2c3,-3 -1,-9 -3,-11 -3,-2 -9,-2 -13,-2 -3,13 12,16 16,12z"/>
   <path class="fil16" d="M4456 4154c1,1 -2,1 5,3 2,-2 1,-1 3,-3 6,-5 3,-2 8,-11l-12 0c3,5 -2,2 7,4l-7 2c1,1 4,3 5,4 -6,-1 -4,-2 -9,-4 2,4 0,-1 1,5zm-2 0c1,-4 2,-3 -2,-2 0,3 -1,2 2,2z"/>
   <path class="fil15" d="M4788 3992l-1 1c-1,8 -1,2 1,4 8,-1 11,-3 13,-10l-1 -1 -7 0c-4,4 -3,2 -5,7z"/>
   <path class="fil9" d="M4393 3966l4 -4c-17,1 -10,17 4,17 6,-6 5,-6 1,-11l-3 -5 -5 3 2 1c3,-1 2,-1 2,1 3,0 2,-1 2,1l2 1 1 5c-10,0 -10,0 -13,-7 1,-6 0,-1 3,-3z"/>
   <path class="fil15" d="M4845 3969c10,2 14,1 15,-8 -5,-1 -6,-1 -11,1 -4,2 -4,2 -4,7z"/>
   <path class="fil9" d="M4402 3946l1 1 1 2c2,-3 2,4 2,-4l-7 -3c-5,3 -1,0 -4,5 1,4 2,6 4,9 4,0 8,2 10,-3 0,0 2,-9 -3,-3 -2,3 5,2 -6,3l-1 -4c1,-6 -1,-1 3,-3z"/>
   <path class="fil15" d="M4402 3971l-2 -1 -2 -1 -2 -1 -2 -1 -1 0c-3,3 -2,-3 -3,3 3,7 3,6 13,7l-1 -5z"/>
   <path class="fil9" d="M4826 3964c8,-2 4,1 5,1 -1,1 0,3 -4,4 -7,1 -4,-1 -5,-2 1,-1 1,-2 4,-2zm-6 4c1,4 2,3 4,7 6,-2 11,-4 10,-11 -8,-3 -10,0 -13,5z"/>
   <path class="fil9" d="M4348 3943c1,-3 2,-1 -1,-2 -4,6 3,12 10,12 1,-8 -1,-12 -9,-9 7,3 4,0 7,7 -5,-1 -8,-2 -7,-7z"/>
   <path class="fil15" d="M4373 3947c2,6 3,6 11,7 -1,-5 -6,-10 -11,-7z"/>
   <path class="fil9" d="M4428 3971c-6,-2 -4,0 -6,-6 7,2 4,-2 6,6zm3 3c1,-6 -3,-11 -9,-12 -7,8 3,9 9,12z"/>
   <path class="fil9" d="M4793 4057c0,1 8,7 9,9 5,5 2,6 8,9 -2,-8 -10,-14 -16,-18l-1 1z"/>
   <path class="fil10" d="M4748 4163c8,-2 7,0 9,-9 -8,3 -7,1 -9,9z"/>
   <path class="fil15" d="M4822 3967c1,1 -2,4 5,2 4,-1 3,-3 4,-4 -1,-1 3,-3 -5,-1 -2,0 -3,1 -4,2z"/>
   <path class="fil15" d="M4407 3950l-1 -1 -1 -2 -1 -1c-4,2 -2,-3 -3,3l1 4c11,0 4,0 6,-3z"/>
   <path class="fil15" d="M4349 3944l0 0c0,5 3,6 7,7 -3,-7 -1,-4 -7,-7z"/>
   <path class="fil15" d="M4428 3971c-2,-8 0,-5 -6,-6 2,6 0,5 6,6z"/>
   <path class="fil9" d="M4800 4052c-2,-5 -4,-6 -10,-8 4,4 4,5 10,8z"/>
   <path class="fil16" d="M4998 3773c-1,-2 -2,-2 -2,-4 -2,5 -2,3 2,4z"/>
   <path class="fil17" d="M3290 4233c195,0 352,23 352,51 0,28 -158,51 -352,51 -195,0 -352,-23 -352,-51 0,-28 158,-51 352,-51z"/>
   <path class="fil4" d="M3181 4220c26,16 80,9 112,1 -32,-6 -85,-14 -112,-1zm105 68l8 0c1,3 -1,2 5,2l10 -1c5,2 5,3 2,-1l6 0c5,2 4,2 2,-1l3 -1c6,2 5,3 2,-2 12,-2 21,-7 30,-11 8,-4 17,-12 11,-22 -3,-5 -14,-11 -21,-15 -39,-20 -74,15 -149,3 -19,-3 -17,-4 -30,-11l1 -13c30,-14 80,-10 117,-4 23,4 30,10 52,0 13,-6 29,-15 28,-27 -1,-9 -20,-22 -31,-25 -15,-5 -50,16 -107,15 -28,-1 -36,-7 -55,-10l-1 -3c7,-1 5,1 8,-1 1,-3 0,-2 1,-5 1,-3 3,-5 3,-5 -2,-3 -2,-2 3,-2 -1,-3 -2,-2 3,-2 0,3 1,2 -3,2 1,4 2,3 -3,2l1 7c27,4 29,10 65,8 19,-1 44,-4 59,-11 -26,-11 -81,-10 -113,-8 -11,-2 -15,4 -23,8l0 5 -3 0c-1,-43 119,-21 151,-14 15,3 29,-8 38,-16 25,-24 -30,-43 -54,-49 -72,-17 -105,-1 -120,-4 0,-8 -7,-10 30,-13 34,-3 84,4 114,13 53,17 71,50 17,75l24 15c19,15 14,35 -1,44l-24 11c-4,2 -3,1 -5,3 58,15 58,50 17,63 -5,-2 -4,-2 -2,2l-7 3c-5,-2 -3,-2 -1,2l-6 0 7 -7c3,-2 4,-1 5,-1 -5,0 -15,3 -20,5 -31,7 5,11 -42,1z"/>
   <path class="fil18" d="M1670 1522l96 0 0 214c0,12 5,18 15,18 9,0 13,-6 13,-18l0 -214 96 0 0 213c0,5 1,10 4,14 2,4 6,6 11,6 9,0 13,-6 13,-18l0 -214 95 0 0 229c0,17 -1,29 -4,37 -6,20 -18,36 -34,48 -17,13 -36,18 -56,18 -15,0 -30,-4 -45,-13 -15,-8 -26,-19 -34,-33 -18,31 -44,46 -80,46 -24,0 -45,-9 -63,-27 -18,-18 -28,-38 -28,-62l0 -243zm487 0l0 99c16,-11 30,-17 43,-17 23,0 42,9 56,27 14,18 21,38 21,62l0 153 -88 0 0 -124c0,-5 0,-10 0,-13 0,-3 -2,-6 -5,-9 -2,-2 -6,-4 -11,-4 -10,0 -16,7 -16,22l0 127 -88 0 0 -325 88 0zm261 88l0 237 -89 0 0 -237 89 0zm-75 -92c9,-8 19,-13 31,-13 12,0 22,4 31,12 9,8 13,18 13,30 0,12 -4,22 -13,30 -9,8 -19,12 -32,12 -13,0 -23,-4 -32,-12 -8,-8 -13,-18 -13,-30 0,-11 4,-21 14,-30zm257 90l0 95c-5,-2 -10,-4 -15,-4 -8,0 -14,3 -18,8 -4,5 -6,12 -6,20l0 119 -90 0 0 -143c0,-27 10,-50 30,-70 20,-19 44,-29 71,-29 10,0 19,1 29,3zm115 -86l0 325 -89 0 0 -325 89 0z"/>
   <path class="fil19" d="M2867 1703l0 -97c10,-1 17,-2 21,-2 34,0 62,12 87,36 24,24 36,53 36,86 0,35 -12,65 -36,89 -24,24 -54,36 -89,36 -34,0 -62,-13 -86,-38 -23,-25 -35,-55 -35,-89l0 -203 87 0 0 203c0,10 3,19 9,27 5,8 14,12 24,12 9,0 17,-3 24,-10 6,-6 10,-14 10,-23 0,-9 -3,-17 -10,-23 -7,-6 -15,-10 -24,-10 -6,0 -13,2 -19,7z"/>
   <path class="fil19" d="M3813 1515l0 91 40 0 0 93 -40 0c0,16 3,29 9,37 6,8 17,13 33,13l0 94c-37,0 -69,-12 -93,-36 -25,-23 -37,-54 -37,-91l0 -201 89 0z"/>
   <path class="fil6" d="M3449 3616l-3 -2c2,-11 5,-7 12,-12 39,14 23,36 30,38l7 -1c1,-26 17,-36 42,-39 22,-2 53,5 67,14 5,-5 7,-10 12,-14 5,-4 12,-6 17,-10 -24,-24 -15,-32 -12,-53 -24,-22 -52,-44 -86,-59 -27,-11 -80,-31 -118,-27 2,11 9,21 10,37 2,16 0,32 -5,45 -15,50 -66,94 -114,73 -28,-12 -31,-26 -42,-56 -25,60 -75,61 -102,30 -4,-4 -8,-12 -12,-18 -5,-9 -4,-14 -10,-20 -23,8 -74,39 -94,54 -11,8 -18,17 -27,24 -3,26 1,11 46,26 20,7 33,15 49,26 40,29 43,60 49,101 33,20 153,41 198,35 0,-86 32,-130 110,-161 -4,-7 -1,-8 -4,-13 -9,2 -94,92 -183,108 -70,13 -149,-55 -195,-106 -1,0 -1,0 -1,1l-7 6c-3,1 -6,-2 -8,-3 -3,-20 13,-28 29,-27 9,1 10,2 12,8 -7,5 -9,2 -16,6 10,16 51,40 75,50 84,35 167,7 244,-31 9,-5 35,-16 39,-25 -4,-4 -2,-3 -7,-4z"/>
   <path class="fil20" d="M3677 3870c0,-5 6,-19 8,-25 4,-9 9,-10 20,-14 11,-4 44,-17 55,-7 22,22 -64,43 -83,45zm-208 97l43 0c12,-5 38,-3 71,-17 41,-17 54,-29 76,-56 12,-15 4,-13 26,-18 20,-4 53,-12 68,-21 19,-11 10,-9 20,-24 0,-1 63,-52 66,-110 1,-15 15,-30 25,-62 3,-9 6,-30 9,-37l0 -16c-11,-25 -5,-26 -40,-48 -18,-12 -38,-20 -61,-28 -22,-7 -48,-14 -73,-17 -37,-4 -47,2 -71,16 -8,-10 -24,-20 -36,-30 -10,-8 -28,-19 -42,-25 -31,-15 -67,-26 -106,-31 -8,-1 -24,-1 -31,-2 -8,-2 -29,-36 -75,-22 -25,8 -43,26 -55,46 -6,10 -9,10 -20,14 -12,-21 -26,-45 -60,-45 -30,1 -50,24 -57,48 -28,-8 -115,-67 -156,-14 -10,13 -20,27 -26,45 -30,-1 -80,-16 -107,4 -25,19 -41,76 -40,113 0,30 0,11 -3,28 -4,16 7,37 13,48l34 57c6,7 10,10 12,19 7,39 12,64 35,88 68,72 185,70 274,41 8,-3 7,-1 10,-6 -3,-7 4,-2 -17,-9 -29,-10 -62,-29 -81,-53 -6,-7 -18,-22 -21,-33 49,11 55,46 64,50 17,-6 26,-61 27,-77 57,17 79,27 143,33 14,1 47,0 57,2 3,20 10,55 23,63 11,-4 3,-12 31,-34 16,-12 31,-13 45,-19 4,4 4,0 -10,19 -13,18 -28,31 -47,44 -37,26 -76,29 -86,35 2,9 14,12 30,17 26,9 48,15 75,19 9,1 38,3 43,5zm-128 -40c83,-17 133,-80 163,-158 17,-44 32,-74 65,-94 39,-24 93,-11 108,29 14,36 10,105 -1,140 -36,112 -175,129 -274,104 -12,-3 -52,-11 -61,-21zm395 -115c-17,4 -31,11 -45,15l4 -24c5,-2 3,5 21,1 8,-2 15,-6 22,-6l-2 15zm-564 90c-28,13 -84,17 -122,16 -74,-2 -144,-36 -163,-112 -8,-32 -5,-97 9,-123 16,-30 62,-39 96,-16 74,51 27,176 180,235zm586 -158c-2,6 -12,32 -16,38 -3,5 -33,18 -37,14 -5,-5 44,-47 53,-52zm-12 67c-2,-32 45,-123 75,-111 35,14 -25,110 -48,121 -8,-4 -13,-9 -27,-10zm5 -74c-5,6 -9,8 -15,14 -19,18 -20,12 -39,44 -1,-31 -1,-51 -5,-81l60 24zm-886 -51c15,33 12,32 9,71 -8,-4 -8,-7 -16,-19 -9,-14 -32,-53 -32,-66 -5,-7 -2,-15 1,-22 15,-3 19,3 24,12 5,8 10,14 14,24zm523 178c-17,-21 -18,-72 -13,-103 10,-63 64,-103 124,-115 27,-5 82,-8 105,6 -21,10 -38,6 -67,39 -17,19 -28,41 -38,69 -22,61 -20,54 -46,60 -43,11 -53,37 -64,43zm-265 -178c38,39 46,100 16,157 -14,-18 -25,-30 -51,-40 -20,-8 -18,-1 -26,-21 -15,-36 -15,-63 -40,-98 -19,-26 -24,-21 -54,-38 16,-11 72,-4 90,2 27,8 53,24 67,38zm671 -33c-4,-3 -8,-6 -13,-10 -4,-3 -9,-7 -12,-9l30 2 -5 17zm41 47c-17,-38 -37,-26 -30,-54 5,-21 17,-51 29,-60 12,-8 23,-2 27,10 5,12 3,28 0,40 -5,21 -9,32 -17,50 -7,15 -5,11 -10,14zm-330 -65c-1,-30 43,-32 69,-25 28,7 50,21 60,41 -29,-3 -27,-23 -129,-16zm-618 42c-8,-52 129,-95 126,-46 -35,3 -92,7 -116,36 -4,5 -4,7 -10,10zm728 -61c27,-58 162,23 201,71 -7,5 -16,2 -30,17 -8,8 -12,16 -19,26 -14,-1 -39,-11 -50,-16 -33,-15 -24,-9 -38,-29 -15,-23 -30,-19 -36,-32 -14,-33 -17,-20 -28,-37zm-755 42c15,-20 28,-41 35,-68 8,3 13,7 21,11 3,2 7,3 11,5l9 6c-17,5 -40,22 -47,32 -26,37 3,30 -8,55 -4,-7 -9,-24 -21,-42zm981 -85c-13,8 -15,5 -23,18 -21,34 -8,35 -24,36 -46,4 -67,-21 -108,-33 -28,-8 -43,0 -56,-23 -12,-22 5,-42 26,-47 21,-6 51,-2 72,3 23,5 41,11 62,19 22,9 33,17 51,28zm-1013 66c-5,-35 19,-137 55,-119 28,15 -4,103 -29,129 -13,-5 -3,-8 -27,-11zm205 -110c10,2 10,8 17,13 -4,-1 -6,-3 -10,-4 -10,-4 -7,-1 -7,-9zm163 -88c37,-8 62,31 66,63 5,39 -15,77 -45,83 -75,16 -95,-130 -22,-147zm-297 141c0,-12 4,-23 4,-37 0,-19 -6,-20 -9,-31 52,-4 163,27 176,54 -4,4 -10,6 -14,9 -13,9 -30,21 -38,33 -11,-2 -13,-8 -32,-9 -16,-1 -23,4 -34,4 -12,1 -42,-18 -52,-24zm446 -156c49,-13 78,33 74,81 -4,39 -29,80 -67,90 -50,14 -80,-32 -75,-81 4,-44 33,-80 69,-90zm-74 57c1,2 4,-4 1,5 -2,9 0,0 -3,4 0,0 -9,-4 2,-9zm-297 30c5,-18 24,-47 42,-56 0,0 3,-2 9,-3 37,-2 10,59 1,71 -4,6 -5,5 -13,2l-39 -14zm112 44c-15,-7 -35,-27 -47,-36 7,-30 18,-21 10,-66 23,0 82,24 95,35 -5,9 -2,26 -3,39 -5,4 -50,27 -55,28zm403 80l-7 3c7,-21 -8,-41 -33,-33l2 7c5,1 3,0 7,4 -5,9 -30,20 -39,25 -77,38 -160,66 -244,31 -23,-10 -64,-34 -75,-50 7,-4 9,-1 16,-6 -2,-7 -3,-8 -12,-8 -16,-1 -32,7 -29,27 3,1 5,4 8,3l7 -6c0,-1 1,-1 1,-1 31,34 100,115 190,109 89,-17 178,-110 188,-112 3,6 0,6 4,13 -78,31 -110,75 -110,161 -45,6 -165,-15 -198,-35 -6,-41 -9,-73 -49,-101 -15,-11 -28,-19 -49,-26 -45,-15 -49,0 -46,-26 9,-7 16,-16 27,-24 21,-15 71,-45 94,-54 5,6 5,11 10,20 3,6 8,14 12,18 27,31 77,31 102,-30 12,30 15,44 42,56 48,21 99,-23 114,-73 4,-14 6,-30 5,-45 -2,-16 -8,-26 -10,-37 38,-4 91,16 118,27 35,15 62,37 86,59 -3,21 -12,29 12,53 -5,4 -13,5 -17,10 -4,4 -6,10 -12,14 -14,-9 -45,-16 -67,-14 -25,2 -41,13 -42,39l-7 1z"/>
   <path class="fil6" d="M3340 3928c9,9 49,18 61,21 99,25 239,8 274,-104 11,-35 15,-104 1,-140 -16,-40 -69,-53 -108,-29 -34,21 -49,50 -65,94 -29,78 -80,141 -163,158z"/>
   <path class="fil21" d="M3170 3904c-153,-58 -107,-184 -180,-235 -33,-23 -80,-14 -96,16 -14,26 -17,90 -9,123 20,76 89,110 163,112 37,1 94,-3 122,-16z"/>
   <path class="fil21" d="M3386 3866c11,-7 20,-32 64,-43 26,-7 24,1 46,-60 10,-28 21,-50 38,-69 30,-34 46,-30 67,-39 -23,-14 -78,-11 -105,-6 -59,12 -114,52 -124,115 -5,31 -4,82 13,103z"/>
   <path class="fil6" d="M2964 3648c30,17 35,12 54,38 26,35 26,62 40,98 8,20 6,13 26,21 27,10 37,22 51,40 30,-57 22,-117 -16,-157 -14,-15 -40,-30 -67,-38 -18,-5 -74,-12 -90,-2z"/>
   <path class="fil3" d="M3318 3490c41,-11 56,56 13,66 -41,9 -57,-54 -13,-66zm25 -62c-35,10 -65,46 -69,90 -5,49 25,95 75,81 38,-10 64,-52 67,-90 5,-47 -24,-94 -74,-81z"/>
   <path class="fil21" d="M3840 3576c-18,-11 -29,-19 -51,-28 -20,-9 -39,-14 -62,-19 -21,-5 -51,-8 -72,-3 -21,6 -38,25 -26,47 13,23 27,15 56,23 41,12 62,37 108,33 15,-1 2,-2 24,-36 8,-12 10,-10 23,-18z"/>
   <path class="fil6" d="M3613 3618c11,17 14,4 28,37 6,13 21,9 36,32 14,21 4,15 38,29 11,5 36,15 50,16 7,-10 12,-18 19,-26 15,-15 23,-12 30,-17 -40,-48 -174,-129 -201,-71z"/>
   <path class="fil21" d="M2897 3585c11,5 40,24 52,24 12,-1 19,-5 34,-4 19,1 21,7 32,9 9,-12 26,-24 38,-33 4,-3 10,-6 14,-9 -14,-27 -125,-58 -176,-54 4,11 9,12 9,31 0,14 -4,25 -4,37z"/>
   <path class="fil3" d="M3245 3535c-9,37 -62,24 -52,-13 9,-36 60,-20 52,13zm-50 -92c-73,17 -54,163 22,147 29,-6 50,-45 45,-83 -4,-32 -30,-71 -66,-63z"/>
   <path class="fil6" d="M3038 3524c12,9 31,30 47,36 5,-1 51,-25 55,-28 1,-12 -2,-29 3,-39 -12,-11 -72,-35 -95,-35 8,45 -3,35 -10,66z"/>
   <path class="fil6" d="M2827 3641c24,3 14,6 27,11 24,-26 57,-115 29,-129 -36,-19 -61,84 -55,119z"/>
   <path class="fil21" d="M3744 3813c14,1 19,6 27,10 23,-11 83,-107 48,-121 -30,-12 -77,79 -75,111z"/>
   <path class="fil6" d="M3833 3702c4,-3 3,1 10,-14 8,-18 12,-30 17,-50 3,-12 4,-28 0,-40 -4,-11 -15,-18 -27,-10 -13,9 -24,39 -29,60 -7,28 13,15 30,54z"/>
   <path class="fil21" d="M2972 3516l39 14c8,3 8,4 13,-2 9,-12 35,-73 -1,-71 -6,0 -9,3 -9,3 -18,9 -36,38 -42,56z"/>
   <path class="fil20" d="M3312 3498c19,-13 31,17 16,26 -8,5 -18,1 -21,-4 -3,-5 -3,-9 -2,-14 2,-7 4,-6 7,-8zm6 -8c-43,12 -28,75 13,66 43,-9 27,-77 -13,-66z"/>
   <path class="fil6" d="M3503 3638c101,-7 100,12 129,16 -10,-20 -32,-34 -60,-41 -26,-6 -70,-5 -69,25z"/>
   <path class="fil6" d="M2885 3679c6,-2 5,-4 10,-10 24,-29 81,-33 116,-36 3,-50 -133,-6 -126,46z"/>
   <path class="fil21" d="M2824 3674c0,13 24,52 32,66 8,12 7,15 16,19 4,-39 6,-38 -9,-71 -4,-5 -1,-4 -8,-6 0,-9 -3,-14 -8,-20 -10,-11 -12,-10 -21,-10l-2 21z"/>
   <path class="fil6" d="M3677 3870c18,-1 105,-23 83,-45 -11,-11 -44,2 -55,7 -10,4 -16,4 -20,14 -2,6 -8,20 -8,25z"/>
   <path class="fil20" d="M3223 3509c15,-5 23,20 6,25 -15,4 -23,-19 -6,-25zm22 26c8,-34 -43,-50 -52,-13 -10,37 43,50 52,13z"/>
   <path class="fil22" d="M3312 3498c-3,2 -5,1 -7,8 -1,5 -1,9 2,14 3,6 13,9 21,4 15,-10 3,-40 -16,-26z"/>
   <path class="fil22" d="M3223 3509c-17,6 -9,29 6,25 17,-4 9,-30 -6,-25z"/>
   <path class="fil6" d="M3710 3795c15,-2 14,-8 14,-8l15 -5c3,-8 6,-15 8,-25 -8,2 -4,-2 -13,9 -5,7 -4,3 -9,8 -2,2 -2,4 -4,6 -5,8 -2,1 -8,7 -3,4 -2,1 -4,7z"/>
   <path class="fil6" d="M3710 3795c2,-6 0,-4 4,-7 5,-6 3,1 8,-7 2,-3 2,-5 4,-6 5,-6 4,-1 9,-8 8,-10 4,-6 13,-9 -1,10 -5,17 -8,25l-15 5c0,0 1,6 -14,8zm46 -50c-9,5 -58,47 -53,52 4,4 34,-9 37,-14 3,-6 13,-32 16,-38z"/>
   <path class="fil23" d="M3449 3616l-2 -7c25,-8 40,12 33,33l7 -3c-7,-2 8,-24 -30,-38 -7,5 -10,2 -12,12l3 2z"/>
   <path class="fil21" d="M2824 3674l2 -21c8,0 10,-2 21,10 5,5 8,11 8,20 8,2 4,0 8,6 -4,-10 -9,-17 -14,-24 -6,-10 -10,-15 -24,-12 -3,7 -7,15 -1,22z"/>
  </g>
 </g>
</svg>
