<?xml version="1.0" encoding="UTF-8"?>
<!DOCTYPE svg PUBLIC "-//W3C//DTD SVG 1.0//EN" "http://www.w3.org/TR/2001/REC-SVG-20010904/DTD/svg10.dtd">
<!-- Creator: CorelDRAW X6 -->
<svg xmlns="http://www.w3.org/2000/svg" xml:space="preserve" width="1.5748in" height="1.1811in" version="1.0" style="shape-rendering:geometricPrecision; text-rendering:geometricPrecision; image-rendering:optimizeQuality; fill-rule:evenodd; clip-rule:evenodd"
viewBox="0 0 157480 118110"
 xmlns:xlink="http://www.w3.org/1999/xlink">
 <defs>
  <style type="text/css">
   <![CDATA[
    .fil5 {fill:#00A0E3}
    .fil2 {fill:#393185}
    .fil0 {fill:#74C7D1}
    .fil3 {fill:#FFED00}
    .fil1 {fill:#130503}
    .fil4 {fill:#FEFEFC}
   ]]>
  </style>
 </defs>
 <g id="Layer_x0020_1">
  <metadata id="CorelCorpID_0Corel-Layer"/>
  <g id="_882571408">
   <path class="fil0" d="M92361 49412l-440 -250c213,-1361 593,-878 1472,-1572 4952,1807 2933,4589 3874,4857l856 -71c83,-3263 2210,-4631 5354,-4919 2837,-259 6700,602 8544,1752 670,-611 916,-1323 1483,-1844 615,-565 1545,-766 2219,-1225 -3026,-3107 -1930,-4112 -1487,-6796 -3095,-2780 -6583,-5642 -11033,-7522 -3389,-1432 -10211,-3938 -15042,-3451 293,1404 1107,2655 1305,4669 198,2003 -59,4033 -587,5777 -1920,6341 -8402,11981 -14553,9268 -3569,-1575 -3912,-3341 -5420,-7184 -3225,7681 -9572,7740 -13057,3768 -457,-521 -1079,-1480 -1503,-2262 -615,-1136 -570,-1832 -1229,-2586 -2940,1059 -9397,4941 -12054,6839 -1369,978 -2331,2177 -3468,3051 -352,3305 146,1374 5869,3324 2593,884 4245,1961 6205,3354 5138,3651 5532,7624 6252,12912 4231,2500 19486,5179 25268,4404 -41,-10981 4061,-16571 13976,-20528 -516,-926 -184,-967 -512,-1689 -1164,269 -11928,11677 -23324,13821 -8970,1688 -18976,-6985 -24850,-13474 -66,42 -142,52 -172,159l-862 756c-398,126 -704,-218 -1039,-402 -414,-2565 1685,-3607 3688,-3500 1194,65 1300,226 1556,1070 -893,613 -1193,225 -2080,755 1304,2017 6545,5074 9531,6335 10686,4513 21257,881 31107,-3954 1182,-580 4441,-2015 5017,-3137 -520,-566 -210,-321 -865,-506z"/>
   <path class="fil1" d="M121394 81799c11,-652 723,-2394 1011,-3150 455,-1192 1191,-1240 2516,-1741 1434,-541 5651,-2207 7026,-835 2837,2830 -8206,5543 -10553,5726zm-26567 12422l5515 0c1556,-670 4861,-382 9071,-2110 5251,-2155 6885,-3652 9719,-7138 1542,-1896 535,-1674 3300,-2243 2555,-525 6700,-1521 8666,-2661 2383,-1381 1263,-1185 2517,-3020 61,-89 8033,-6694 8400,-14046 96,-1929 1917,-3820 3150,-7892 352,-1164 753,-3842 1089,-4661l0 -2076c-1426,-3216 -577,-3344 -5115,-6181 -2352,-1470 -4831,-2569 -7760,-3569 -2774,-947 -6098,-1830 -9262,-2141 -4778,-469 -6029,220 -9077,1990 -1063,-1270 -3035,-2554 -4611,-3828 -1292,-1044 -3560,-2367 -5318,-3235 -3906,-1931 -8528,-3361 -13467,-3947 -1074,-128 -3122,-118 -3985,-302 -1054,-224 -3639,-4650 -9532,-2835 -3191,982 -5486,3311 -7026,5824 -748,1220 -1122,1309 -2570,1798 -1519,-2677 -3317,-5776 -7611,-5704 -3795,64 -6375,3121 -7252,6154 -3577,-1050 -14697,-8597 -19869,-1796 -1260,1657 -2545,3464 -3345,5772 -3877,-170 -10216,-2087 -13590,451 -3231,2431 -5179,9758 -5108,14353 59,3844 59,1400 -441,3591 -452,1983 919,4731 1642,6112l4357 7221c713,921 1316,1233 1542,2475 898,4940 1535,8177 4403,11210 8684,9186 23571,8955 34938,5188 1050,-348 844,-146 1293,-808 -360,-877 477,-257 -2189,-1170 -3691,-1263 -7972,-3713 -10354,-6750 -749,-955 -2302,-2866 -2725,-4229 6262,1453 7038,5833 8139,6377 2145,-746 3312,-7760 3507,-9805 7319,2166 10027,3475 18187,4151 1839,152 5967,-10 7311,291 397,2595 1228,7061 2964,8069 1398,-533 354,-1583 3970,-4280 2046,-1525 3960,-1615 5748,-2422 566,471 490,6 -1243,2384 -1646,2259 -3634,3898 -6005,5575 -4717,3338 -9648,3676 -10996,4500 223,1160 1776,1508 3856,2229 3263,1131 6152,1924 9622,2464 1170,182 4794,409 5544,670zm-16391 -5043c10600,-2187 17024,-10185 20742,-20152 2109,-5654 4064,-9402 8341,-12035 5015,-3087 11805,-1351 13835,3694 1831,4552 1292,13357 -129,17845 -4541,14340 -22384,16510 -35007,13267 -1472,-378 -6616,-1443 -7782,-2618zm50377 -14622c-2185,550 -3918,1387 -5785,1872l479 -3113c651,-211 392,674 2722,117 992,-237 1870,-727 2820,-827l-236 1951zm-72006 11530c-3519,1673 -10746,2201 -15528,2049 -9439,-301 -18306,-4651 -20805,-14308 -1062,-4103 -627,-12356 1126,-15646 2064,-3874 7936,-5000 12206,-2045 9386,6496 3443,22491 23001,29950zm74751 -20169c-277,756 -1552,4062 -1997,4815 -387,656 -4205,2343 -4703,1845 -691,-689 5587,-6043 6700,-6661zm-1547 8519c-270,-4057 5766,-15692 9592,-14148 4421,1784 -3215,13998 -6185,15386 -958,-479 -1659,-1110 -3406,-1237zm604 -9415c-605,763 -1103,1007 -1949,1792 -2465,2288 -2527,1583 -5032,5556 -139,-3893 -167,-6506 -617,-10380l7598 3033zm-113028 -6467c1892,4262 1572,4111 1118,9095 -1038,-514 -1021,-920 -1994,-2473 -1090,-1741 -4076,-6716 -4102,-8435 -681,-939 -274,-1960 152,-2820 1856,-383 2363,325 3100,1543 580,957 1266,1820 1725,3090zm66744 22643c-2171,-2664 -2290,-9145 -1673,-13106 1244,-7982 8220,-13185 15756,-14665 3384,-664 10443,-1016 13371,770 -2703,1227 -4824,734 -8589,5018 -2120,2413 -3542,5217 -4843,8782 -2857,7828 -2596,6826 -5907,7696 -5519,1450 -6754,4657 -8115,5504zm-33790 -22663c4817,4997 5829,12764 1989,19978 -1837,-2280 -3158,-3852 -6554,-5118 -2575,-959 -2348,-82 -3376,-2643 -1856,-4619 -1881,-8064 -5160,-12465 -2485,-3336 -3041,-2726 -6911,-4844 2001,-1342 9170,-454 11493,233 3406,1007 6727,3000 8520,4860zm85600 -4167c-552,-389 -1031,-746 -1683,-1217 -481,-348 -1094,-875 -1519,-1178l3824 194 -622 2201zm5220 5993c-2223,-4877 -4700,-3326 -3841,-6845 646,-2647 2105,-6474 3743,-7591 1525,-1041 2916,-193 3465,1231 577,1495 363,3557 24,5050 -600,2644 -1112,4127 -2131,6413 -830,1863 -700,1418 -1260,1743zm-42115 -8242c-140,-3783 5439,-4020 8772,-3208 3611,879 6323,2625 7649,5209 -3663,-416 -3495,-2888 -16421,-2001zm-78818 5337c-996,-6586 16423,-12123 16033,-5808 -4405,403 -11675,837 -14781,4592 -559,676 -543,948 -1252,1216zm92837 -7791c3468,-7435 20607,2961 25691,9062 -955,605 -1988,223 -3857,2188 -986,1037 -1578,2008 -2466,3290 -1789,-160 -4975,-1412 -6418,-2047 -4216,-1857 -3031,-1102 -4787,-3762 -1913,-2896 -3837,-2410 -4560,-4043 -1848,-4177 -2204,-2497 -3603,-4688zm-96287 5366c1894,-2499 3635,-5239 4407,-8665 996,413 1638,931 2645,1423 404,197 863,386 1361,647l1164 805c-2126,617 -5059,2816 -5989,4119 -3343,4687 429,3798 -963,7063 -550,-899 -1157,-3037 -2626,-5393zm125181 -10823c-1632,976 -1930,690 -2908,2233 -2725,4298 -1071,4404 -3028,4577 -5852,520 -8536,-2683 -13784,-4209 -3616,-1052 -5478,43 -7100,-2949 -1535,-2831 596,-5348 3258,-6057 2671,-710 6533,-251 9201,348 2881,646 5273,1398 7863,2485 2794,1172 4226,2165 6499,3572zm-129210 8378c-682,-4448 2468,-17513 7068,-15123 3563,1851 -541,13110 -3652,16480 -1640,-612 -380,-1004 -3417,-1357zm26103 -13988c1237,260 1234,1039 2131,1649 -475,-190 -826,-325 -1276,-500 -1305,-506 -941,-162 -855,-1148zm20807 -11212c4659,-1055 7961,3919 8467,8047 608,4960 -1958,9829 -5706,10644 -9587,2085 -12107,-16574 -2761,-18691zm-37917 17971c-55,-1514 480,-2975 480,-4758 0,-2443 -707,-2500 -1177,-3928 6574,-511 20753,3488 22506,6926 -497,447 -1314,817 -1809,1169 -1607,1146 -3782,2677 -4904,4159 -1429,-277 -1661,-1030 -4050,-1120 -2000,-76 -2876,455 -4360,563 -1587,115 -5324,-2326 -6687,-3010zm56914 -19919c6265,-1719 9973,4270 9381,10282 -484,4911 -3761,10181 -8593,11509 -6336,1743 -10204,-4027 -9585,-10326 553,-5617 4271,-10224 8796,-11466zm-9377 7311c163,296 450,-557 145,687 -274,1118 44,6 -396,506 0,-1 -1100,-532 252,-1193zm-37930 3826c674,-2285 3007,-6021 5328,-7189 5,-2 361,-304 1165,-350 4664,-269 1285,7489 172,9019 -570,783 -579,626 -1654,244l-5011 -1722zm14269 5633c-1964,-856 -4467,-3463 -5956,-4633 854,-3879 2280,-2669 1285,-8388 2961,-26 10506,3113 12096,4491 -622,1204 -216,3372 -356,4911 -576,469 -6419,3481 -7069,3620zm51449 10238l-928 319c943,-2729 -1050,-5247 -4216,-4270l239 915c655,185 344,-60 865,506 -577,1122 -3835,2556 -5017,3137 -9850,4835 -20421,8467 -31107,3954 -2987,-1261 -8228,-4318 -9531,-6335 887,-530 1187,-142 2080,-755 -256,-844 -363,-1005 -1556,-1070 -2002,-108 -4102,935 -3688,3500 335,184 641,528 1039,402l862 -756c30,-107 106,-117 172,-159 3906,4315 12714,14645 24254,13921 11396,-2144 22756,-13999 23920,-14268 328,722 -4,763 512,1689 -9915,3957 -14017,9547 -13976,20528 -5782,776 -21037,-1904 -25268,-4404 -719,-5288 -1113,-9261 -6252,-12912 -1960,-1393 -3611,-2470 -6205,-3354 -5722,-1950 -6220,-19 -5869,-3324 1137,-874 2098,-2073 3468,-3051 2657,-1898 9114,-5780 12054,-6839 659,754 613,1450 1229,2586 424,782 1045,1741 1503,2262 3486,3972 9833,3913 13057,-3768 1508,3843 1852,5609 5420,7184 6151,2714 12633,-2927 14553,-9268 528,-1743 785,-3774 587,-5777 -198,-2014 -1012,-3264 -1305,-4669 4831,-487 11654,2019 15042,3451 4450,1880 7937,4742 11033,7522 -443,2685 -1539,3690 1487,6796 -674,459 -1604,660 -2219,1225 -567,521 -813,1232 -1483,1844 -1844,-1151 -5707,-2011 -8544,-1752 -3144,287 -5271,1656 -5354,4919l-856 71z"/>
   <path class="fil0" d="M78436 89179c1166,1175 6310,2240 7782,2618 12622,3244 30466,1074 35007,-13267 1421,-4489 1960,-13293 129,-17845 -2030,-5045 -8819,-6781 -13835,-3694 -4277,2633 -6232,6381 -8341,12035 -3718,9968 -10141,17965 -20742,20152z"/>
   <path class="fil2" d="M56806 86086c-19558,-7460 -13615,-23455 -23001,-29950 -4269,-2955 -10141,-1829 -12206,2045 -1753,3290 -2188,11543 -1126,15646 2499,9657 11365,14007 20805,14308 4781,152 12008,-376 15528,-2049z"/>
   <path class="fil2" d="M84330 81198c1360,-848 2595,-4055 8115,-5504 3311,-870 3049,133 5907,-7696 1301,-3565 2723,-6370 4843,-8782 3765,-4284 5886,-3791 8589,-5018 -2928,-1786 -9987,-1435 -13371,-770 -7535,1479 -14512,6682 -15756,14665 -617,3961 -498,10442 1673,13106z"/>
   <path class="fil0" d="M30528 53442c3870,2119 4426,1509 6911,4844 3279,4402 3304,7847 5160,12465 1029,2561 801,1684 3376,2643 3396,1266 4717,2838 6554,5118 3840,-7214 2828,-14981 -1989,-19978 -1793,-1860 -5115,-3853 -8520,-4860 -2322,-687 -9491,-1574 -11493,-233z"/>
   <path class="fil3" d="M75656 33289c5215,-1452 7175,7189 1716,8394 -5257,1161 -7228,-6859 -1716,-8394zm3199 -7849c-4525,1241 -8243,5849 -8796,11466 -619,6299 3249,12068 9585,10326 4831,-1328 8109,-6598 8593,-11509 592,-6011 -3117,-12001 -9381,-10282z"/>
   <path class="fil2" d="M142158 44209c-2274,-1407 -3706,-2400 -6499,-3572 -2589,-1087 -4982,-1839 -7863,-2485 -2668,-599 -6530,-1058 -9201,-348 -2663,708 -4794,3226 -3258,6057 1622,2992 3484,1897 7100,2949 5248,1526 7931,4729 13784,4209 1957,-174 303,-279 3028,-4577 978,-1543 1276,-1257 2908,-2233z"/>
   <path class="fil0" d="M113265 49666c1399,2191 1754,511 3603,4688 723,1633 2647,1147 4560,4043 1756,2660 571,1905 4787,3762 1443,635 4629,1887 6418,2047 889,-1282 1480,-2253 2466,-3290 1869,-1965 2902,-1583 3857,-2188 -5085,-6101 -22223,-16497 -25691,-9062z"/>
   <path class="fil2" d="M21941 45358c1362,684 5100,3125 6687,3010 1483,-107 2360,-638 4360,-563 2389,90 2621,843 4050,1120 1121,-1482 3296,-3013 4904,-4159 494,-352 1311,-722 1809,-1169 -1753,-3438 -15932,-7437 -22506,-6926 470,1428 1178,1485 1177,3928 0,1783 -535,3244 -480,4758z"/>
   <path class="fil3" d="M66281 39094c-1177,4657 -7847,3006 -6631,-1717 1186,-4608 7714,-2566 6631,1717zm-6423 -11706c-9347,2117 -6826,20775 2761,18691 3748,-815 6314,-5684 5706,-10644 -506,-4128 -3807,-9102 -8467,-8047z"/>
   <path class="fil0" d="M39860 37577c1489,1170 3992,3777 5956,4633 649,-139 6492,-3151 7069,-3620 140,-1538 -265,-3707 356,-4911 -1591,-1377 -9135,-4516 -12096,-4491 994,5719 -431,4509 -1285,8388z"/>
   <path class="fil0" d="M12948 52587c3036,353 1777,745 3417,1357 3111,-3370 7214,-14629 3652,-16480 -4600,-2390 -7750,10675 -7068,15123z"/>
   <path class="fil2" d="M130010 74436c1747,128 2448,758 3406,1237 2970,-1387 10606,-13602 6185,-15386 -3826,-1544 -9862,10092 -9592,14148z"/>
   <path class="fil0" d="M141360 60361c559,-325 430,120 1260,-1743 1019,-2286 1530,-3769 2131,-6413 339,-1493 553,-3555 -24,-5050 -550,-1424 -1940,-2272 -3465,-1231 -1637,1118 -3096,4944 -3743,7591 -859,3519 1619,1968 3841,6845z"/>
   <path class="fil2" d="M31548 36576l5011 1722c1075,383 1083,540 1654,-244 1113,-1530 4492,-9288 -172,-9019 -804,46 -1160,348 -1165,350 -2321,1169 -4654,4904 -5328,7189z"/>
   <path class="fil1" d="M74876 34344c2364,-1711 3948,2121 1989,3342 -1005,626 -2243,172 -2675,-555 -350,-588 -406,-1106 -217,-1761 244,-843 556,-774 903,-1025zm780 -1055c-5512,1535 -3541,9554 1716,8394 5459,-1205 3500,-9846 -1716,-8394z"/>
   <path class="fil0" d="M99245 52120c12926,-887 12758,1585 16421,2001 -1326,-2584 -4038,-4330 -7649,-5209 -3333,-812 -8911,-576 -8772,3208z"/>
   <path class="fil0" d="M20427 57457c709,-268 694,-541 1252,-1216 3106,-3755 10376,-4189 14781,-4592 390,-6315 -17029,-778 -16033,5808z"/>
   <path class="fil2" d="M12609 56742c26,1719 3011,6694 4102,8435 972,1552 956,1959 1994,2473 454,-4984 774,-4833 -1118,-9095 -567,-689 -87,-515 -1082,-706 -14,-1170 -421,-1848 -1024,-2515 -1318,-1459 -1557,-1238 -2639,-1241l-232 2650z"/>
   <path class="fil0" d="M121394 81799c2346,-183 13390,-2896 10553,-5726 -1375,-1371 -5591,294 -7026,835 -1325,500 -2061,548 -2516,1741 -288,756 -1000,2498 -1011,3150z"/>
   <path class="fil1" d="M63497 35770c1882,-671 2963,2612 797,3162 -1973,501 -2969,-2387 -797,-3162zm2784 3324c1083,-4283 -5446,-6325 -6631,-1717 -1215,4722 5455,6374 6631,1717z"/>
   <path class="fil4" d="M74876 34344c-347,251 -659,182 -903,1025 -189,656 -133,1173 217,1761 432,728 1670,1181 2675,555 1959,-1221 375,-5052 -1989,-3342z"/>
   <path class="fil4" d="M63497 35770c-2172,775 -1176,3663 797,3162 2166,-550 1085,-3833 -797,-3162z"/>
   <path class="fil0" d="M125655 72239c1931,-219 1767,-969 1824,-1005l1909 -676c391,-1059 828,-1880 993,-3219 -1048,304 -541,-224 -1603,1110 -698,876 -544,333 -1200,1065 -203,228 -294,458 -500,819 -590,1029 -318,186 -965,951 -398,470 -228,185 -458,955z"/>
   <path class="fil0" d="M125655 72239c230,-769 61,-484 458,-955 647,-765 375,78 965,-951 206,-360 297,-591 500,-819 655,-733 502,-189 1200,-1065 1062,-1333 555,-806 1603,-1110 -165,1338 -602,2159 -993,3219l-1909 676c-58,36 107,786 -1824,1005zm5903 -6322c-1113,617 -7391,5971 -6700,6661 498,498 4315,-1190 4703,-1845 445,-753 1720,-4059 1997,-4815z"/>
   <path class="fil5" d="M92361 49412l-239 -915c3166,-977 5159,1541 4216,4270l928 -319c-941,-268 1079,-3050 -3874,-4857 -879,694 -1258,211 -1472,1572l440 250z"/>
   <path class="fil2" d="M12609 56742l232 -2650c1081,3 1321,-218 2639,1241 603,668 1011,1345 1024,2515 995,191 515,17 1082,706 -459,-1270 -1145,-2133 -1725,-3090 -737,-1218 -1244,-1926 -3100,-1543 -426,860 -833,1881 -152,2820z"/>
  </g>
 </g>
</svg>
