<?xml version="1.0" encoding="UTF-8"?>
<!DOCTYPE svg PUBLIC "-//W3C//DTD SVG 1.0//EN" "http://www.w3.org/TR/2001/REC-SVG-20010904/DTD/svg10.dtd">
<!-- Creator: CorelDRAW X6 -->
<svg xmlns="http://www.w3.org/2000/svg" xml:space="preserve" width="5.84646in" height="8.26772in" version="1.0" style="shape-rendering:geometricPrecision; text-rendering:geometricPrecision; image-rendering:optimizeQuality; fill-rule:evenodd; clip-rule:evenodd"
viewBox="0 0 584646 826772"
 xmlns:xlink="http://www.w3.org/1999/xlink">
 <defs>
  <style type="text/css">
   <![CDATA[
    .fil1 {fill:#2B2A29}
    .fil0 {fill:#FFED00}
   ]]>
  </style>
 </defs>
 <g id="Layer_x0020_1">
  <metadata id="CorelCorpID_0Corel-Layer"/>
  <rect class="fil0" width="584646" height="826772"/>
  <g id="_831110240">
   <path class="fil1" d="M240929 445262l5221 30c2451,-4243 7579,-28024 10994,-36095l9901 36039c3836,173 5274,1035 6483,-2098 905,-2344 1530,-4676 2339,-6969 2498,-7081 13553,-37257 13763,-40243l-9782 92c-1910,4541 -3514,11583 -4984,16520 -712,2390 -3548,14626 -5262,16286 -1675,-2711 -6450,-23158 -7973,-29287 -159,-639 -383,-1697 -681,-2251 -1115,-2074 -1778,-1349 -8401,-1349 -765,4375 -6785,29245 -8496,30920 -1544,-666 -1303,-984 -1933,-3125l-7125 -24259c-1234,-4569 -543,-3536 -11446,-3482l17383 49271z"/>
   <path class="fil1" d="M330583 418665c1594,3748 572,20801 572,26347l9302 130 -26 -30452c753,-9754 -4515,-15949 -11350,-18702 -11443,-4608 -16820,3239 -20307,5911l-48 -22659 -9784 0 -15 66050 9849 0c0,-8706 -1582,-30074 2193,-36137 4902,-7871 20859,-6139 19614,9513z"/>
   <path class="fil1" d="M104004 438521c2692,1737 6033,7718 9067,10179 -396,3386 -1114,4781 1391,6331 3825,2261 3460,-1013 6589,-257 1379,333 5054,2219 6335,2815 -3559,9231 -24598,8994 -26836,-6820 -647,-4574 2138,-8511 3454,-12248zm26124 -16365c88,143 181,202 208,458 65,619 535,123 535,3806 0,7306 1312,25409 -2381,29613 -1773,-467 -2901,-1087 -4567,-1807 -3401,-1470 -2447,-426 -3710,-3276 -1712,-3864 -2360,-1069 1399,-9327 2882,-6333 5943,-13156 8515,-19468zm-24930 14136c642,-2993 961,-3628 2464,-4655l5359 14263c-1971,-1098 -6753,-7775 -7822,-9609zm-22349 2323c1704,-2600 4560,-3944 7031,-6085 5655,-4898 7519,-3092 10971,1206 2141,2665 3373,3045 -1896,12320 -7100,51 -14134,-1939 -16106,-7441zm-1327 -1877c-1681,-4185 -2103,-7229 -1360,-12424l12223 2101c296,2889 -117,2365 -1996,3700 -2796,1986 -5999,5438 -8867,6623zm18555 -10867c-128,-2012 -2114,-2715 361,-7175l1521 -1785c882,3180 2262,6143 3538,9331 1617,4039 -1820,8004 -1830,7981 -43,-93 -192,231 -304,331 -6455,-8179 -2973,-3775 -3286,-8684zm16219 21972c-2057,-2199 -4083,-9181 -5410,-12518 -2968,-7469 -3143,-5397 -176,-12754 2419,-5998 3110,-10129 6987,-11098 3170,-793 9582,4252 12583,5540 -189,1161 -11487,29446 -13984,30830zm-8439 -22322c-1872,-1254 -1908,-2539 -2916,-5159 -2022,-5259 -4343,-7492 1483,-16192 1148,461 2290,998 3278,1540 2311,1267 1450,720 2046,2154 13,31 1022,2782 1059,2886 1058,3009 -2754,8605 -4950,14772zm-23948 -17684c1118,-1743 3029,-2982 4894,-4827 1679,-1661 2954,-3192 6066,-3161 1528,2334 3190,7856 4509,11001 1546,3685 -78,8017 -2220,11030 -654,478 -359,-657 -3896,1852 -2564,1819 -11395,-893 -12104,-1378 3065,-7722 6450,-6911 9541,-9822 -3371,-1301 -4703,-2718 -6790,-4696zm33034 -4065c-63,-3595 -911,-21033 92,-22943 998,-1902 1800,-169 2396,-3785 493,-2992 -576,-2030 1443,-4093 1710,-1748 3655,-4412 6089,-5191 3246,5079 3908,6591 3908,14526 8,7332 529,26870 -304,32834 -2248,-752 -5507,-2891 -8069,-4202 -3396,-1739 -2093,-321 -3046,-3367 -1151,-3674 -937,-1433 -2509,-3780zm-9848 -1272c223,-2143 353,-2732 1651,-3981 1046,1185 3239,4848 3635,6644l-5286 -2663zm-6001 8337l-4431 -11794c1745,512 2458,1066 3904,1856l3447 1999c66,-117 259,192 386,293 -363,1881 -719,2461 -1333,4202 -1241,3510 -840,2565 -1972,3444zm13956 -6558c-756,-352 -6330,-6501 -5107,-10274 932,-2875 3570,-10065 5083,-11803l24 22078zm-32610 1728c-5226,-7148 -2226,-21049 9804,-23376 7864,-1521 8160,1648 11161,6733 3634,6159 5178,5130 1799,12036l-7081 -3746c-584,-646 93,-6297 -4978,-5602 -4219,578 -2848,4378 -2444,7132 -2459,2143 -5337,5550 -8261,6822zm17971 -27785c0,-3472 1336,-6340 2574,-8611 1906,686 4326,2506 6137,3594 3774,2267 2096,2160 3656,6242 851,2224 -3251,11901 -4613,13927 -2019,-1587 -7754,-11267 -7754,-15151zm4028 -9580c735,-1924 333,-1326 1960,-2690 6617,-5548 13289,-2859 18609,47 -1198,2232 -2448,2722 -4226,4513 -3362,3387 -1186,1855 -5479,2343 -3898,443 -2124,1173 -5681,-1293 -1974,-1368 -3167,-2273 -5182,-2920zm-5556 12161c-10776,37 -16503,2458 -19583,10972 -4653,12862 6021,18988 7613,21520 -9435,3488 -13586,23621 -556,31451 5665,3404 5743,2245 12296,3306 874,8396 3939,13350 10125,16081 7425,3278 16215,-65 19537,-4187 4765,-5911 4018,-12842 4018,-21912l0 -51682c0,-10250 856,-14481 -5335,-20578 -9607,-9461 -28994,-4677 -28115,15030z"/>
   <path class="fil1" d="M382633 436583c637,-1741 465,-1427 1629,-2988 604,-809 1131,-1280 1843,-2150l16753 -22771c1737,-2199 2514,-2030 2621,-5435 74,-2363 169,-5004 -308,-7309l-31342 124 43 8709 20186 28c-978,2389 -1780,2922 -3458,4991 -1156,1426 -2357,3366 -3389,4762l-13347 18014c-1680,2257 -2420,2070 -2575,5442 -108,2364 -253,5014 224,7297l35465 -113 -152 -8587 -24193 -14z"/>
   <path class="fil1" d="M459997 402940c11871,-2691 21167,4844 23024,14453 5078,26274 -33168,31359 -37694,8154 -2387,-12240 5264,-20474 14671,-22607zm23371 2033c-4592,-3172 -3964,-5628 -12206,-7606 -30502,-7323 -46615,34810 -16367,47095 10686,4341 21243,1158 28578,-6864l66 7380 5445 -200 -180 -47065 -5181 30 -155 7231z"/>
   <path class="fil1" d="M168704 445729c-162,7259 -646,7864 -3304,12775l-6714 -36c-4844,-6421 -7708,-1131 -7644,1039 63,2166 1433,3558 3602,3584 5628,69 -615,-3430 8546,-2853 -12178,8384 -23597,1124 -24757,-11100 7506,-341 5015,-187 6298,1124 6159,6291 9718,-5449 3462,-5884 -3316,-231 -2943,1815 -4374,2582l-1914 418c-903,63 -2541,-53 -3543,-53l0 -9434 23215 66c2934,715 130,164 2620,2150 2698,2152 5009,-44 5890,-2216l16726 0c-2620,5823 -9325,9132 -18109,7838zm16044 -35083c2628,-2366 4470,-4424 5117,-7879l-10854 -9c-2339,-1316 -892,-3135 -4609,-2922 -7150,409 -2452,13322 3956,4664l8924 0c-1606,5388 -7085,6718 -8281,8207l-607 1230c-6331,0 -6930,722 -8902,-1191 -4891,-4744 -5876,644 -7902,1186l-24800 72 189 12693c14778,21 10758,-872 14192,2070 5301,4541 9671,-6820 2279,-6653 -4262,97 -1880,2016 -4635,3001l-10429 0 121 -9583 23770 0c4569,6797 6241,902 8023,73 3404,-166 11517,-810 13702,609 1584,1029 4426,5769 4735,8901l-17276 0c-2585,-1019 -1396,-3434 -5168,-2922 -4319,586 -4565,7674 490,7526 3106,-91 2561,-2565 4678,-3011l18002 79c0,4248 80,5448 -1448,9337l-17718 24c-1025,-2252 -3154,-4527 -6211,-2020 -2457,2015 1376,2068 -7721,2022 -5719,-29 -14192,-476 -19603,175 0,14301 -522,24439 11463,28416 12318,4088 22054,-5758 22074,-16980 10891,167 16973,-4437 19800,-12580 3307,-9527 -2117,-19754 -7892,-21867l2539 -2671z"/>
   <path class="fil1" d="M353026 445266l9270 26c794,-2805 742,-44446 186,-48943l-9652 163 195 48754z"/>
   <path class="fil1" d="M141411 369332c3670,-8098 19738,-9177 24280,37 -4743,0 -1646,-265 -4541,-2688 -6411,-941 -7140,4631 -4503,6628 4516,3420 4343,-3619 9588,-2199 3540,2068 2285,8504 1813,12267 9853,-2552 17085,929 19782,8346l-21594 0c-2457,-1180 -410,-715 -2105,-2136 -666,-558 -1180,-893 -2532,-883 -2311,17 -3857,1454 -3720,4022 122,2293 1818,3794 4211,3526 3525,-395 1583,-1818 4146,-2933l23918 0c-2043,-8441 -9751,-13547 -19853,-12338 24,-6263 -748,-9837 -3977,-13863 -8938,-11147 -30798,-7180 -29451,15002l14044 23c1960,5225 8342,3201 6718,-3632 -995,-633 -2457,-1664 -4407,-1109 -2091,596 -2620,2913 -3251,3142l-11614 0c42,-2221 -29,-3834 416,-5935 445,-2100 612,-3499 2487,-3499 6400,0 3711,283 5733,1994 5726,4842 9248,-7707 1993,-6733 -5152,691 616,3102 -7581,2961z"/>
   <polygon class="fil1" points="500674,445148 506526,445148 506526,397385 500678,397385 "/>
   <path class="fil1" d="M138362 393320l5807 0c4269,0 1233,2898 5811,2952 5441,63 4772,-8276 -466,-7537 -1313,185 -1584,590 -2281,1245 -2382,2236 645,1693 -10444,1850l-25 12489c4874,594 12747,238 17883,159 8113,-124 2622,1150 6566,2669 2791,1075 5077,-965 5403,-2978 413,-2550 -1694,-4752 -4294,-4322 -2318,382 -1702,1129 -2688,1985 -2368,2056 -15738,924 -21272,924l0 -9437z"/>
   <polygon class="fil1" points="417132,444993 426970,445002 426970,433826 419421,433817 417132,433874 "/>
   <polygon class="fil1" points="352828,388040 362668,388094 362694,379240 354958,379193 352829,379478 "/>
   <polygon class="fil1" points="500674,391143 506526,391143 506526,380400 500678,380400 "/>
   <path class="fil1" d="M330583 418665l284 26625c1885,455 2995,316 4932,322 832,3 2178,77 2946,15 1775,-143 -758,148 1024,-155 1624,-276 1259,-2539 1256,-3939 -15,-5939 783,-23677 -595,-26843l26 30452 -9302 -130c0,-5546 1022,-22599 -572,-26347z"/>
  </g>
 </g>
</svg>
